<svg width="565" height="504" viewBox="0 0 565 504" fill="none" xmlns="http://www.w3.org/2000/svg">
<g clip-path="url(#clip0_919_15612)">
<path fill-rule="evenodd" clip-rule="evenodd" d="M555.724 423.622C553.281 402.508 551.215 381.367 549.748 360.161C543.903 275.52 545.992 190.599 548.957 105.889C549.103 101.734 549.255 97.5799 549.407 93.4255L549.409 93.3508C549.645 86.8943 549.882 80.4378 550.094 73.9812C550.201 70.6013 547.068 67.4406 543.68 67.5636C530.308 68.0366 419.995 68.4941 406.623 68.9479C406.849 58.4582 407.141 47.9684 407.502 37.4787C407.595 34.796 407.66 32.1225 407.724 29.4534C407.875 23.1818 408.026 16.9342 408.543 10.6469C408.616 9.75477 408.647 8.73579 408.566 7.70912C408.409 5.70961 407.813 3.69088 406.254 2.58346C404.713 1.49189 402.608 1.56103 400.651 1.6253C399.941 1.64864 399.249 1.67135 398.612 1.63754C393.995 1.3876 389.379 1.16458 384.763 0.968471C375.907 0.587795 367.051 0.307095 358.191 0.149442C341.788 -0.142794 325.374 0.0340854 308.976 0.291714C292.93 0.541652 276.889 0.956935 260.855 1.55679C245.727 2.12203 230.477 2.97182 215.753 6.75935C212.53 7.58992 210.092 12.1811 212.35 15.1419C221.955 27.7503 233.338 38.5784 244.809 49.4488C250.988 55.2997 257.154 61.161 263.319 67.0219L263.345 67.0465C265.591 69.1814 267.837 71.3163 270.083 73.4506C244.226 74.2812 218.368 75.1079 192.51 75.9308C168.723 76.6921 144.935 77.4535 121.147 78.211C121.159 77.668 121.171 77.1247 121.182 76.5811L121.183 76.5483C121.436 65.0421 121.691 53.4118 119.104 42.1314C116.419 30.4112 109.956 19.86 99.629 13.45C90.2698 7.64375 78.7715 5.72115 67.9069 6.17488C44.7144 7.14387 18.0656 17.5721 7.78085 39.855C1.98945 52.3943 1.44795 66.3754 1.02166 79.9529C0.533924 95.4683 0.23821 110.988 0.0961127 126.511C-0.19192 158.23 0.180603 189.953 1.03702 221.66C2.00097 257.44 3.55252 293.2 5.38441 328.945C5.80829 337.199 6.16772 345.458 6.52717 353.717C7.53555 376.888 8.54409 400.062 10.9761 423.134C11.0834 424.151 11.1717 425.178 11.2603 426.21C11.5554 429.646 11.8544 433.126 12.8733 436.4C13.2109 437.489 13.6329 438.553 14.0532 439.612L14.0537 439.613L14.083 439.687C14.4286 440.556 14.7744 441.426 15.1699 442.267C22.0444 456.942 39.7955 457.768 54.2537 458.441L54.2612 458.441C55.5345 458.501 56.7822 458.559 57.9947 458.625C75.5071 459.59 93.0657 460.005 110.643 460.198C112.656 466.273 114.695 472.345 116.773 478.397C117.372 480.143 117.936 481.936 118.503 483.741C119.94 488.311 121.402 492.959 123.524 497.127C129.153 508.192 141.279 503.465 151.06 499.653C152.938 498.921 154.729 498.223 156.372 497.677C184.107 488.452 211.839 479.208 239.533 469.853C247.863 467.038 256.189 464.204 264.511 461.367H264.512C281.463 461.54 298.419 461.713 315.37 461.905C329.773 462.069 344.174 462.257 358.576 462.445L358.589 462.445C365.799 462.539 373.009 462.633 380.22 462.724L412.645 463.135C415.711 463.174 418.813 463.292 421.928 463.41L421.929 463.41C429.015 463.679 533.102 463.95 540.051 463.301C548.154 462.547 554.933 458.202 557.007 449.985C558.659 443.445 557.585 436.36 556.556 429.571C556.251 427.555 555.949 425.564 555.724 423.622ZM271.347 42.5659C268.607 43.3429 266.733 45.5127 264.929 47.6002C264.814 47.7336 264.699 47.8668 264.584 47.9992C264.377 48.2385 264.161 48.4839 263.941 48.7347C263.397 49.3546 262.823 50.0081 262.276 50.687C259.459 48.021 256.615 45.3588 253.764 42.6894L253.756 42.6818L253.608 42.5428L253.984 42.1797L253.984 42.1791C255.929 40.3011 257.874 38.4227 259.772 36.4866C262.399 33.7988 258.942 28.8924 255.636 31.1226C252.844 33.0067 250.513 35.1639 248.4 37.6364C241.08 30.6881 233.891 23.5744 227.408 15.8994C239.406 13.6999 251.572 13.0078 263.797 12.4503C279.519 11.7389 295.25 11.189 310.984 10.8045C322.083 10.5333 333.181 10.3902 344.281 10.2472C348.917 10.1874 353.554 10.1276 358.191 10.0585C362.235 9.99743 366.277 9.97217 370.317 9.94691C379.244 9.89112 388.162 9.83537 397.072 9.39332C394.429 64.8297 393.423 120.401 394.694 175.891C393.813 175.129 392.953 174.333 392.087 173.531L392.085 173.529L391.945 173.399C388.386 170.093 384.856 166.755 381.328 163.421L381.325 163.418L380.181 162.336C377.489 159.791 374.797 157.245 372.105 154.704C373.353 153.888 374.547 152.977 375.707 152.054C375.885 151.913 376.063 151.772 376.241 151.632C378.095 150.172 379.918 148.735 380.696 146.406C381.537 143.876 378.976 142.045 376.737 142.441C374.593 142.823 372.842 144.519 371.261 146.05C370.992 146.311 370.729 146.566 370.469 146.809C369.351 147.863 368.276 148.97 367.293 150.151C365.83 148.767 364.367 147.384 362.905 146.002C361.515 144.688 360.125 143.374 358.736 142.061C359.411 141.413 360.104 140.804 360.792 140.199C362.85 138.39 364.866 136.618 366.21 133.978C367.493 131.456 364.704 127.86 361.997 129.76C360.061 131.117 358.648 132.509 357.269 134.432C356.755 135.151 356.302 135.908 355.849 136.663C355.51 137.229 355.171 137.794 354.808 138.342L344.588 128.675C345.307 128.027 346.091 127.439 346.872 126.855C348.952 125.296 351.008 123.755 351.743 121.127C352.196 119.508 350.921 117.801 349.231 117.82C345.344 117.869 343.204 120.924 341.149 123.857C340.928 124.173 340.708 124.487 340.487 124.796C337.601 122.062 334.716 119.332 331.827 116.599L331.289 116.09C331.869 115.656 332.456 115.229 333.051 114.798C333.119 114.749 333.188 114.7 333.256 114.652C333.335 114.595 333.413 114.539 333.492 114.483C335.286 113.205 337.12 111.898 337.698 109.649C338.344 107.135 336.101 105.089 333.67 105.616C331.525 106.081 330.194 107.811 328.919 109.469C328.792 109.634 328.666 109.798 328.539 109.961C328.009 110.641 327.475 111.311 326.934 111.968C324.963 110.101 322.99 108.235 321.017 106.369L320.995 106.349C319.977 105.386 318.958 104.422 317.939 103.459C318.7 102.778 319.487 102.144 320.336 101.521C322.033 100.271 323.389 99.1404 324.652 97.437C326.688 94.6877 322.778 91.2232 320.098 92.8766C317.976 94.1852 316.452 96.1274 314.926 98.0735C314.546 98.5577 314.166 99.0422 313.776 99.5173C313.235 99.0039 312.693 98.4915 312.152 97.9792C311.61 97.4668 311.069 96.9544 310.527 96.4411C309.003 94.9991 307.478 93.5533 305.953 92.1076C306.783 91.4846 307.632 90.8886 308.507 90.2965C308.599 90.2346 308.69 90.1732 308.782 90.112L308.877 90.0483C310.757 88.7895 312.492 87.6279 312.582 85.0939C312.647 83.2866 311.099 82.1562 309.475 81.9831C307.312 81.7554 305.876 83.3844 304.561 84.8757C304.389 85.0714 304.218 85.2651 304.048 85.4515C303.246 86.3321 302.428 87.1588 301.587 87.9701C298.787 85.3169 295.991 82.6676 293.195 80.0182C293.625 79.6761 294.063 79.3427 294.506 79.0062L294.507 79.0051C294.721 78.8428 294.935 78.6798 295.15 78.5147C296.959 77.1343 298.307 75.8077 299.54 73.8774C301.414 70.9435 297.685 67.2406 294.758 69.0901C292.838 70.3052 291.486 71.6741 290.108 73.466C290.029 73.5678 289.951 73.6695 289.873 73.7709L289.718 73.9722L289.718 73.9728C289.307 74.5076 288.902 75.0363 288.487 75.5539C287.236 74.368 285.985 73.1835 284.734 71.9992L284.719 71.9854C283.071 70.4249 281.422 68.8648 279.777 67.3021C280.841 66.5177 281.885 65.7102 282.887 64.845C284.75 63.2301 287.039 61.2267 287.481 58.6927C287.761 57.0893 286.805 55.4512 285.019 55.4589C282.208 55.4704 279.854 57.4699 277.91 59.331C276.823 60.3731 275.859 61.5189 274.945 62.7109C274.447 62.2375 273.948 61.7643 273.449 61.2911L272.861 60.7335L272.859 60.7314C271.111 59.0735 269.362 57.4152 267.618 55.7511C268.285 55.1722 268.92 54.5661 269.523 53.9902L269.523 53.9895C269.705 53.8159 269.884 53.6451 270.06 53.4786C270.227 53.3209 270.396 53.1626 270.566 53.0032C272.529 51.1617 274.636 49.1853 275.276 46.4957C275.825 44.1655 273.755 41.8853 271.347 42.5659ZM41.6536 412.309C45.7667 409.864 50.1487 407.853 54.6266 406.272C61.839 403.727 69.3125 402.116 76.882 401.204C76.6584 403.208 76.8254 405.326 76.9862 407.365C77.0463 408.128 77.1056 408.88 77.1432 409.61C77.2661 412.017 77.4466 414.424 77.773 416.808C67.0274 409.979 52.8754 410.022 42.1797 417.623C42.2604 415.801 42.1682 413.986 41.6536 412.309ZM58.3596 421.019C62.7185 420.523 67.1849 421.073 71.3095 422.557C72.8265 423.104 74.1899 423.844 75.573 424.594L75.574 424.595C76.0462 424.851 76.5212 425.109 77.0049 425.36C78.8522 426.321 83.8102 426.275 84.4093 423.749C85.5077 419.104 85.8341 414.367 86.053 409.606C86.0915 408.755 86.1638 407.882 86.237 406.999C86.4196 404.796 86.607 402.535 86.2835 400.412C90.1969 400.224 94.1218 400.185 98.0314 400.285L98.0517 400.286C104.702 400.455 114.169 400.696 117.917 407.334C121.896 414.374 112.575 420.853 107.586 424.164C94.936 432.558 79.8277 436.884 64.6617 436.523C64.4048 436.517 64.1374 436.511 63.8604 436.505C58.1297 436.383 48.3551 436.176 44.9372 431.062C41.212 425.487 54.5345 421.453 58.3596 421.019ZM18.8145 420.173C18.5956 403.787 17.6515 387.374 16.7088 370.987C16.2126 362.359 15.7167 353.739 15.3273 345.134C13.9524 314.783 12.7542 284.426 11.9285 254.052C10.2963 194.263 9.65883 134.266 12.5315 74.5042C13.146 61.6997 14.348 47.4762 22.7509 37.1173C30.0478 28.1195 41.0468 23.013 51.9959 20.0445C72.8073 14.3998 99.4331 16.9838 107.068 40.6587C110.52 51.3656 110.285 62.8188 110.055 73.959C110.044 74.5171 110.032 75.0744 110.021 75.6308C109.714 91.0578 109.495 106.489 109.384 121.919C109.169 151.439 109.33 180.959 109.856 210.475C110.459 244.016 111.542 277.55 113.101 311.057C113.305 315.423 113.497 319.793 113.689 324.166C114.71 347.375 115.734 370.665 118.455 393.722C107.89 387.748 92.3697 389.183 81.2678 390.21L81.2563 390.211C64.7001 391.738 47.9711 396.044 34.0764 405.515C28.7727 409.129 22.8969 414.247 18.8145 420.173ZM147.758 488.678L145.814 489.325C145.019 489.591 144.012 490.02 142.92 490.486C140.39 491.565 137.399 492.84 135.495 492.736C133.314 492.615 132.674 490.344 132.061 488.168C131.911 487.634 131.762 487.107 131.593 486.618C130.402 483.184 129.223 479.75 128.056 476.309C126.143 470.684 124.269 465.043 122.414 459.398C128.978 456.61 135.556 453.861 142.143 451.131C142.301 451.596 142.473 452.06 142.645 452.525C142.792 452.92 142.938 453.315 143.076 453.711C143.127 453.859 143.178 454.008 143.23 454.157C144.245 457.103 145.304 460.177 147.204 462.655C149.374 465.481 153.334 463.824 152.831 460.278C152.395 457.188 150.933 454.255 149.542 451.464L149.344 451.065C149.163 450.699 148.987 450.327 148.812 449.954C148.603 449.512 148.395 449.069 148.176 448.635C151.08 447.44 153.991 446.254 156.899 445.07L157.831 444.69C158.27 445.958 158.632 447.262 158.994 448.564C159.941 451.977 160.886 455.382 163.215 458.129C164.467 459.605 166.902 458.717 167.386 457.025C168.949 451.561 166.027 446.87 162.816 442.667C165.538 441.568 168.265 440.483 170.993 439.397L171.021 439.386C172.471 438.809 173.921 438.232 175.37 437.653C175.661 438.655 175.917 439.693 176.174 440.738C177.237 445.044 178.327 449.464 181.949 451.911C183.393 452.884 185.482 451.9 185.901 450.3C187.184 445.395 183.921 440.774 180.955 436.572L180.949 436.564C180.739 436.266 180.53 435.97 180.324 435.677C183.459 434.434 186.599 433.207 189.738 431.981L189.826 431.946C190.757 431.583 191.687 431.219 192.618 430.855C193.245 432.57 193.699 434.365 194.154 436.16C195.178 440.204 196.2 444.241 199.185 447.328C200.391 448.574 202.849 448.054 203.217 446.263C204.442 440.317 201.272 435.452 198.172 430.696C197.822 430.159 197.472 429.622 197.13 429.086C202.23 427.098 207.338 425.133 212.45 423.168C213.679 428.725 215.265 435.504 220.254 438.191C222.009 439.137 224.063 437.949 224.136 435.961C224.242 433.014 222.85 430.466 221.47 427.942C221.348 427.72 221.227 427.497 221.106 427.275C220.657 426.441 220.191 425.606 219.723 424.769L219.723 424.767C219.052 423.567 218.379 422.36 217.746 421.142C222.327 419.392 226.917 417.658 231.506 415.928C232.286 419.915 233.188 424.253 236.245 426.69C238.269 428.302 241.595 427.41 241.595 424.472C241.595 421.347 240.022 418.505 238.464 415.691C238.1 415.033 237.736 414.376 237.394 413.717C239.296 413.004 241.203 412.301 243.109 411.597L243.111 411.596C244.547 411.066 245.983 410.536 247.417 410.002C248.194 411.922 248.863 413.886 249.532 415.846L249.679 416.278C249.816 416.679 249.947 417.089 250.079 417.502L250.08 417.504C250.817 419.809 251.585 422.212 253.497 423.76C255.002 424.979 257.506 424.714 258.04 422.557C259.226 417.77 255.839 412.409 252.944 407.957C256.614 406.6 260.292 405.256 263.969 403.912L264.195 403.829C265.34 403.411 266.485 402.992 267.629 402.573C267.773 403.427 267.89 404.321 268.008 405.23C268.551 409.412 269.133 413.895 272.641 416.043C273.828 416.774 275.621 416.343 276.282 415.089C277.684 412.425 276.973 409.879 275.929 407.195L275.865 407.033C275.387 405.802 274.907 404.566 274.373 403.354C274.041 402.596 273.609 401.878 273.178 401.162C273.075 400.992 272.973 400.822 272.872 400.651C277.43 398.99 281.993 397.344 286.559 395.698C286.559 395.841 286.557 395.984 286.556 396.127V396.129C286.551 396.624 286.545 397.106 286.605 397.521C286.723 398.349 286.878 399.173 287.033 399.998C287.111 400.41 287.189 400.822 287.262 401.235C287.719 403.808 288.207 406.342 289.505 408.637C290.906 411.121 295.108 410.098 294.981 407.149C294.812 403.192 292.984 399.082 291.317 395.529C291.118 395.102 290.876 394.66 290.603 394.233C295.389 392.513 300.183 390.811 304.979 389.108C306.166 388.686 307.354 388.264 308.542 387.842C308.649 388.608 308.745 389.385 308.842 390.167L308.842 390.168C309.386 394.569 309.946 399.1 312.686 402.404C314.007 403.996 317.163 403.2 317.509 401.131C318.215 396.865 316.42 392.66 314.674 388.57C314.311 387.72 313.951 386.875 313.615 386.035C318.342 384.362 323.074 382.694 327.805 381.033L327.856 381.495C328.412 386.586 329.043 392.358 333.501 394.433C334.987 395.121 336.427 394.541 337.003 393.003C338.467 389.107 336.067 384.937 333.808 381.011L333.806 381.008C333.47 380.424 333.137 379.846 332.821 379.275C336.961 377.826 341.101 376.38 345.245 374.942C346.542 374.491 347.833 374.033 349.124 373.575C349.77 373.346 350.416 373.117 351.063 372.888L351.126 373.295C351.786 377.571 352.437 381.792 355.199 385.355C356.547 387.089 359.543 385.608 359.462 383.586C359.321 380.095 357.936 376.928 356.547 373.754C356.194 372.946 355.84 372.138 355.507 371.323C359.708 369.824 363.898 368.301 368.072 366.748C368.161 367.167 368.248 367.587 368.335 368.008C369.185 372.132 370.043 376.291 372.685 379.533C373.945 381.082 376.99 380.283 377.32 378.306C378.119 373.542 376.026 369.097 373.71 364.902C374.05 364.797 374.389 364.692 374.727 364.586L374.729 364.586C375.214 364.435 375.698 364.284 376.184 364.137C378.281 363.501 380.381 362.875 382.482 362.25C383.532 361.937 384.582 361.624 385.631 361.31C385.696 361.77 385.756 362.231 385.816 362.691C385.925 363.531 386.033 364.366 386.172 365.179C386.599 367.67 387.436 369.804 388.419 372.112C389.713 375.153 394.372 373.442 394.364 370.5C394.356 367.943 394.111 365.652 393.193 363.245C392.709 361.972 392.087 360.768 391.465 359.569C391.764 359.48 392.063 359.39 392.362 359.301L392.398 359.29C392.62 359.223 392.842 359.157 393.064 359.091C393.153 359.064 393.242 359.037 393.331 359.011C396.124 358.186 398.955 357.524 401.785 356.863L401.791 356.861C403.219 356.527 404.648 356.193 406.07 355.839C411.174 364.798 415.041 374.326 417.441 384.416C417.518 384.738 417.596 385.061 417.673 385.384C418.217 387.647 418.767 389.937 419.124 392.222C419.193 392.665 419.15 393.108 419.117 393.444C419.084 393.781 419.062 394.012 419.173 394.029C418.733 394.262 418.182 394.434 417.676 394.592C417.36 394.691 417.062 394.784 416.819 394.883C412.423 396.653 407.971 398.301 403.522 399.948L403.517 399.95C401.733 400.611 399.949 401.271 398.17 401.939C373.603 411.167 348.916 420.065 324.157 428.778C274.965 446.097 225.538 462.743 176.069 479.251C169.133 481.558 162.201 483.869 155.269 486.18C152.764 487.011 150.262 487.844 147.758 488.678ZM542.49 450.142C540.33 451.337 440.46 451.226 437.86 451.128C437.196 451.103 436.554 451.078 435.952 451.077C432.406 451.071 428.861 451.059 425.317 451.047C424.133 451.042 422.95 451.038 421.766 451.034L393.393 450.95C360.895 450.854 328.401 450.723 295.903 450.577C332.375 437.953 368.756 425.052 404.998 411.783C408.739 410.414 412.48 409.037 416.216 407.657C417.039 407.352 417.893 407.065 418.758 406.774C421.532 405.841 424.417 404.87 426.712 403.185C432.354 399.047 431.44 392.426 430.43 386.35C428.026 371.869 422.111 357.804 414.411 345.38C412.983 343.069 410.033 341.681 407.345 342.5C404.25 343.443 401.214 344.607 398.177 345.772C395.618 346.754 393.057 347.736 390.458 348.587C385.101 350.344 379.747 352.12 374.402 353.916C363.08 357.719 351.758 361.53 340.471 365.436C330.02 369.055 319.673 372.959 309.324 376.864L309.321 376.865L307.743 377.46C305.5 378.306 303.265 379.152 301.041 380.006C297.539 381.221 294.032 382.436 290.526 383.647C252.06 396.921 213.74 410.66 175.816 425.422C155.561 433.304 135.403 441.441 115.425 450.004C96.5912 449.996 77.7615 449.819 58.9817 449.016C57.9407 448.971 56.6952 448.947 55.3025 448.921C44.1128 448.709 23.4219 448.316 22.9506 435.373C22.82 431.785 24.314 428.417 26.3341 425.537C28.0008 423.157 31.1346 418.904 33.8997 417.989C34.3593 420.242 34.481 422.643 34.6009 425.008C34.6554 426.082 34.7094 427.148 34.7946 428.19C34.8752 429.221 34.9597 430.255 35.1594 431.266C36.9068 440.21 46.5579 443.771 54.5383 444.963C71.3902 447.482 88.653 444.725 103.965 437.249C115.298 431.72 132.465 420.527 128.528 406.234C128.583 386.02 127.329 365.825 126.074 345.633C125.483 336.119 124.892 326.605 124.438 317.091C122.933 285.594 121.854 254.075 121.193 222.548C120.536 191.025 120.302 159.491 120.494 127.956C120.571 115.425 120.732 102.89 120.943 90.358L282.553 85.2938C282.605 85.3438 282.657 85.3929 282.709 85.4419C282.761 85.4909 282.813 85.5399 282.864 85.5899C307.977 109.465 333.113 133.313 358.256 157.157C358.876 157.745 359.496 158.332 360.116 158.92L362.15 160.847C366.926 165.373 371.702 169.899 376.464 174.437L375.256 173.504L393.949 189.354C393.947 189.35 393.944 189.346 393.942 189.341C395.593 190.268 397.333 191.064 399.207 191.664C402.767 192.806 406.604 189.726 406.538 186.073C405.893 151.22 405.793 116.352 406.385 81.4986C413.935 81.2892 421.486 81.0833 429.038 80.8773L429.052 80.8769C432.727 80.7767 533.338 80.6764 537.013 80.5758C534.183 151.812 531.99 223.198 533.853 294.481C534.805 330.991 536.89 367.486 540.677 403.815C541.637 413.071 542.732 422.311 543.964 431.532C544.065 432.29 544.238 433.23 544.431 434.283L544.431 434.284C545.4 439.57 546.893 447.709 542.49 450.142Z" fill="black"/>
<path d="M283.417 257.48C283.417 258.964 282.876 260.277 281.794 261.419C280.711 262.56 279.429 263.131 277.948 263.131C274.985 263.131 273.162 261.647 272.479 258.679C270.94 257.994 268.035 257.651 263.762 257.651C257.324 257.651 247.525 258.451 234.364 260.049V303.116C234.364 304.6 233.823 305.912 232.74 307.054C231.658 308.139 230.376 308.681 228.895 308.681C227.413 308.681 226.103 308.139 224.963 307.054C223.824 305.912 223.254 304.6 223.254 303.116V261.504C223.026 261.561 221.688 261.761 219.238 262.104C216.788 262.389 213.199 262.846 208.47 263.474C201.291 264.387 195.822 264.844 192.062 264.844C190.751 264.844 189.612 264.786 188.643 264.672C184.484 264.159 180.724 263.359 177.363 262.275C174.058 261.19 172.406 258.993 172.406 255.682C172.406 253.57 172.834 251.601 173.688 249.774C174.6 247.891 175.739 246.15 177.106 244.552C181.55 239.357 185.111 235.191 187.789 232.051C190.467 228.912 192.66 226.286 194.369 224.174C196.135 222.062 197.759 219.979 199.24 217.924C200.779 215.812 202.573 213.243 204.624 210.218C206.732 207.136 209.524 203.055 212.999 197.975C214.424 195.863 215.848 194.807 217.272 194.807C217.956 194.807 218.64 195.035 219.323 195.492C221.944 197.261 223.254 199.116 223.254 201.057C223.254 202.084 222.912 203.112 222.229 204.139C218.81 209.219 216.047 213.329 213.939 216.468C211.831 219.551 209.894 222.262 208.128 224.602C206.419 226.885 204.453 229.34 202.231 231.966C200.066 234.591 197.218 237.988 193.686 242.154C187.817 249.118 184.798 252.714 184.627 252.942C186.735 253.342 189.327 253.542 192.404 253.542C196.506 253.542 201.348 253.171 206.932 252.429C212.002 251.744 215.876 251.23 218.554 250.888C221.289 250.545 222.855 250.345 223.254 250.288V221.777C223.254 220.293 223.824 219.008 224.963 217.924C226.103 216.782 227.413 216.212 228.895 216.212C230.376 216.212 231.658 216.782 232.74 217.924C233.823 219.008 234.364 220.293 234.364 221.777V248.833C248.664 247.063 259.175 246.178 265.898 246.178C269.658 246.178 272.251 246.464 273.675 247.035C280.17 249.603 283.417 253.085 283.417 257.48Z" fill="#159947"/>
<path d="M342.774 205.852C353.143 207.735 361.575 215.47 368.069 229.055C373.539 240.47 376.274 251.572 376.274 262.361C376.274 269.381 375.419 275.888 373.71 281.882C372.058 287.818 370.035 292.213 367.642 295.067C359.78 304.485 350.066 309.195 338.501 309.195C322.093 309.195 309.9 300.433 301.924 282.909C297.48 273.034 295.259 262.189 295.259 250.374C295.259 242.211 296.085 234.82 297.737 228.198C299.446 221.577 301.867 216.24 305.001 212.187C313.49 200.829 323.602 195.149 335.339 195.149C337.959 195.149 340.352 195.549 342.517 196.348C344.739 197.147 345.85 198.859 345.85 201.485C345.85 203.14 344.825 204.596 342.774 205.852ZM334.057 211.246C334.057 209.077 334.94 207.421 336.706 206.28C336.079 206.223 335.453 206.194 334.826 206.194C329.812 206.194 325.511 207.478 321.922 210.047C318.332 212.616 315.398 216.04 313.119 220.321C310.841 224.545 309.131 229.311 307.992 234.62C306.909 239.871 306.368 245.208 306.368 250.631C306.368 260.563 308.248 269.695 312.008 278.029C318.048 291.443 326.764 298.15 338.159 298.15C349.781 298.15 357.672 292.841 361.831 282.224C363.996 276.631 365.078 270.637 365.078 264.244C365.078 258.536 364.224 252.486 362.515 246.093C358.811 232.394 353.257 223.289 345.85 218.78C343.628 217.41 341.634 216.697 339.868 216.64C335.994 216.411 334.057 214.613 334.057 211.246Z" fill="#159947"/>
<path d="M498.528 257.48C498.528 258.964 497.986 260.277 496.904 261.419C495.821 262.56 494.54 263.131 493.058 263.131C490.096 263.131 488.273 261.647 487.589 258.679C486.051 257.994 483.145 257.651 478.872 257.651C472.434 257.651 462.635 258.451 449.474 260.049V303.116C449.474 304.6 448.933 305.912 447.85 307.054C446.768 308.139 445.486 308.681 444.005 308.681C442.524 308.681 441.213 308.139 440.074 307.054C438.934 305.912 438.365 304.6 438.365 303.116V261.504C438.137 261.561 436.798 261.761 434.348 262.104C431.898 262.389 428.309 262.846 423.58 263.474C416.402 264.387 410.932 264.844 407.172 264.844C405.862 264.844 404.722 264.786 403.754 264.672C399.595 264.159 395.835 263.359 392.473 262.275C389.169 261.19 387.517 258.993 387.517 255.682C387.517 253.57 387.944 251.601 388.798 249.774C389.71 247.891 390.849 246.15 392.217 244.552C396.661 239.357 400.221 235.191 402.899 232.051C405.577 228.912 407.77 226.286 409.479 224.174C411.246 222.062 412.869 219.979 414.351 217.924C415.889 215.812 417.683 213.243 419.734 210.218C421.842 207.136 424.634 203.055 428.109 197.975C429.534 195.863 430.958 194.807 432.382 194.807C433.066 194.807 433.75 195.035 434.433 195.492C437.054 197.261 438.365 199.116 438.365 201.057C438.365 202.084 438.023 203.112 437.339 204.139C433.921 209.219 431.158 213.329 429.05 216.468C426.942 219.551 425.004 222.262 423.238 224.602C421.529 226.885 419.564 229.34 417.342 231.966C415.177 234.591 412.328 237.988 408.796 242.154C402.928 249.118 399.908 252.714 399.737 252.942C401.845 253.342 404.437 253.542 407.514 253.542C411.616 253.542 416.459 253.171 422.042 252.429C427.112 251.744 430.987 251.23 433.664 250.888C436.399 250.545 437.966 250.345 438.365 250.288V221.777C438.365 220.293 438.934 219.008 440.074 217.924C441.213 216.782 442.524 216.212 444.005 216.212C445.486 216.212 446.768 216.782 447.85 217.924C448.933 219.008 449.474 220.293 449.474 221.777V248.833C463.774 247.063 474.286 246.178 481.009 246.178C484.769 246.178 487.361 246.464 488.785 247.035C495.28 249.603 498.528 253.085 498.528 257.48Z" fill="#159947"/>
</g>
<defs>
<clipPath id="clip0_919_15612">
<rect width="565" height="504" fill="white"/>
</clipPath>
</defs>
</svg>
