<svg width="80" height="80" viewBox="0 0 80 80" fill="none" xmlns="http://www.w3.org/2000/svg">
<path d="M29.9303 9.52662C29.5777 9.18354 29.0118 9.19904 28.6757 9.55419L22.8044 15.7569L22.7726 14.1312C23.1562 14.1031 23.5008 13.8394 23.5804 13.4398C23.6757 12.963 23.3655 12.4977 22.8876 12.4023C20.6599 11.9577 18.8998 12.022 17.1776 12.6103C16.7169 12.7688 16.471 13.2697 16.6284 13.7316C16.7468 14.0781 17.0617 14.2953 17.4053 14.3187L17.5332 21.3255L14.3651 24.6725C13.8113 25.2582 14.2899 26.212 15.0452 26.212H15.0521L16.7055 26.1986L16.88 40.9168C16.8857 41.397 17.3131 41.7853 17.7934 41.7888C26.2447 41.8555 34.4185 41.7262 42.5682 41.4476C43.0496 41.4303 43.4287 41.0098 43.4207 40.5285L43.1779 25.9836L44.758 25.9708C45.5458 25.9632 45.9313 25.0032 45.3646 24.4542L29.9303 9.52662ZM21.0031 13.921L21.0748 17.5841L19.2651 19.4959L19.1641 13.9652C19.7425 13.8878 20.3482 13.8689 21.0031 13.921ZM28.696 39.9997L28.5608 31.8727L33.346 31.7934L33.4821 39.9224C31.8797 39.9544 30.2816 39.9811 28.696 39.9997ZM35.2468 39.889L35.0958 30.8812C35.0877 30.3986 34.6936 30.0137 34.2134 30.0137C34.2088 30.0137 34.2042 30.0137 34.1985 30.0137L27.6486 30.1229C27.1615 30.1309 26.7731 30.533 26.7812 31.0202L26.931 40.0153C24.1585 40.0388 21.3961 40.0487 18.6344 40.0298L18.4908 27.9149C28.5164 25.1361 34.3635 26.3753 41.413 25.9979L41.6422 39.7127C39.4833 39.7835 37.3569 39.8408 35.2468 39.889V39.889ZM17.0236 24.4313L29.3444 11.4154L42.5877 24.2233L17.0236 24.4313Z" fill="#159947"/>
<path d="M28.1967 19.2218C27.9462 20.2179 28.4517 21.3392 29.3754 21.8298C30.2712 22.3015 31.4118 22.1376 32.1569 21.4759C32.898 20.813 33.1702 19.7261 32.8187 18.8323C32.4637 17.9315 31.5388 17.4088 30.4922 17.4628C29.364 17.5363 28.4425 18.2429 28.1967 19.2218V19.2218Z" fill="#159947"/>
<path d="M64.0423 15.6094H50.5738C50.0866 15.6094 49.6914 16.0046 49.6914 16.4917C49.6914 16.9789 50.0866 17.3741 50.5738 17.3741H64.0423C64.5294 17.3741 64.9246 16.9789 64.9246 16.4917C64.9246 16.0046 64.5294 15.6094 64.0423 15.6094Z" fill="#159947"/>
<path d="M61.5085 24.7998H53.1089C52.6218 24.7998 52.2266 25.195 52.2266 25.6822C52.2266 26.1693 52.6218 26.5645 53.1089 26.5645H61.5085C61.9956 26.5645 62.3909 26.1693 62.3909 25.6822C62.3909 25.195 61.9956 24.7998 61.5085 24.7998Z" fill="#159947"/>
<path d="M58.7351 31.9316H55.8824C55.3952 31.9316 55 32.3269 55 32.814C55 33.3011 55.3952 33.6963 55.8824 33.6963H58.7351C59.2222 33.6963 59.6174 33.3011 59.6174 32.814C59.6174 32.3269 59.2222 31.9316 58.7351 31.9316Z" fill="#159947"/>
<path d="M73.8554 7.06072C73.942 6.19689 73.8179 4.42213 73.8074 3.3691C73.4801 3.09006 73.1035 2.95234 72.7388 2.78014C72.5916 2.4978 72.3049 2.29883 71.9646 2.29883H6.99563C6.5085 2.29883 6.11328 2.69405 6.11328 3.18118V6.82548C6.11328 7.31261 6.5085 7.70784 6.99563 7.70784H9.03643C8.79118 8.7418 8.96049 6.62343 8.90855 45.3388C8.90855 47.7538 10.8743 49.7196 13.2893 49.7196H19.7415V51.1947C19.7415 51.6819 20.1367 52.0771 20.6239 52.0771H24.0344L16.6119 76.5624C16.4706 77.0288 16.7337 77.5217 17.2001 77.663C17.6776 77.805 18.161 77.5329 18.3008 77.0748L18.3271 76.9882C18.5708 76.8347 18.7933 76.6401 18.9656 76.4112C19.3664 75.8785 19.5719 75.2282 19.7704 74.5917C24.5789 59.1755 22.9385 64.4311 23.5782 62.3904C28.8826 62.6759 33.5759 62.8563 37.7487 62.9281L37.5735 70.402C37.5495 71.4223 39.0023 71.6736 39.2903 70.6576C39.4181 70.5773 39.546 70.4971 39.6738 70.4168C39.7447 67.9299 39.8156 65.4429 39.8865 62.9561C41.9851 62.9742 54.9948 62.8741 55.9925 62.1437C57.8837 67.4374 59.7738 72.215 61.5545 77.1219C61.886 78.0372 63.294 77.8003 63.2536 76.7862C63.4637 76.5678 63.6653 76.3487 63.7874 76.1223C61.1897 68.3611 57.8339 59.7909 54.9759 52.0771H58.8132C59.099 52.0771 59.3413 51.9322 59.5026 51.7214C59.9377 51.4904 60.4119 51.1914 60.7728 50.9132C60.7767 50.5231 60.7727 50.1194 60.7711 49.7196H65.5067C66.6408 49.7196 69.2144 49.0591 70.4514 47.2847C72.9215 43.7421 71.163 20.7005 71.0747 8.88251C71.582 8.84955 72.075 8.93364 72.7048 8.73868C73.6584 8.44349 73.6652 8.95748 73.8554 7.06072V7.06072ZM37.79 61.1632C33.7565 61.0939 29.2292 60.9226 24.1244 60.652C26.7444 52.3314 26.7421 52.4547 26.5173 52.0771H38.0029L37.79 61.1632ZM55.4378 60.5702C54.6532 60.6008 50.256 61.2786 39.9369 61.191C40.0233 58.1609 40.1096 55.1309 40.1961 52.1008L40.1959 52.0771H52.6836C52.6838 52.0779 52.6836 52.0786 52.6838 52.0794C53.5637 55.0556 54.4916 57.8634 55.4378 60.5702V60.5702ZM57.9308 50.3124H21.5062V47.4815H57.9308V50.3124ZM68.1353 45.3583C68.1262 46.7899 66.9462 47.9548 65.5067 47.9548H60.7685C60.7673 47.5919 60.7634 47.2243 60.767 46.8697C60.3682 46.4658 59.9029 46.1418 59.4006 45.9183C59.3996 45.9287 59.3981 45.938 59.397 45.9484C59.2408 45.8083 59.0394 45.7168 58.8132 45.7168H20.6239C20.1367 45.7168 19.7415 46.112 19.7415 46.5991V47.9548H13.2893C11.8463 47.9548 10.6733 46.7818 10.6733 45.3388C10.7715 6.60366 10.4595 8.74802 10.9041 7.70784H68.1568C68.6108 8.77613 68.3001 6.60235 68.1353 45.3583ZM71.0823 5.94313H7.87799V4.06353H71.0823V5.94313V5.94313Z" fill="#159947"/>
</svg>
