<svg width="80" height="80" viewBox="0 0 80 80" fill="none" xmlns="http://www.w3.org/2000/svg">
<path d="M41.5204 38.8782C40.802 36.2065 36.4364 35.7084 35.4132 38.4459C34.3947 41.1653 37.5051 43.7115 40.0322 42.3147C41.2293 41.6522 41.8692 40.1743 41.5204 38.8782V38.8782Z" fill="#159947"/>
<path d="M6.07658 58.9059C6.46286 58.7232 6.83937 58.5185 7.22331 58.3302V72.0502C7.22331 72.504 7.59146 72.8721 8.04523 72.8721H9.60679C14.5421 74.0932 31.0561 73.9902 33.9595 73.9751C46.5123 73.91 56.7817 75.4572 68.2991 75.2059C69.02 75.1902 69.1622 74.1785 68.4756 73.9582C66.0152 73.1686 63.427 72.7335 60.7939 72.4793C64.3122 71.4313 67.2453 70.0186 71.2157 67.8614C71.4615 67.7277 71.7915 67.2031 71.8102 66.926C72.2212 60.7783 72.3508 54.5389 72.1977 48.3795C72.9164 48.3533 73.2453 47.473 72.7295 46.9753C68.9443 43.3146 69.2104 43.1444 60.0597 33.7897C66.5732 29.4042 74.6286 25.3365 75.0861 16.4239C75.3854 10.5961 71.2684 4.70765 64.8044 5.13859C63.3565 5.09277 61.8724 5.38975 60.5195 6.02278C59.9823 6.27428 59.467 6.71199 58.9688 7.13472C57.3383 8.51734 57.3601 8.36234 56.3404 7.38408C54.0929 5.22384 50.2702 4.2045 46.9033 5.07886V5.07779C42.7236 6.15977 39.4188 10.0671 39.0459 14.3682C38.7185 18.1402 40.7087 21.5006 42.9361 24.1408C42.1511 23.981 41.3982 23.817 40.6908 23.6341C40.3171 23.5416 39.952 23.724 39.7764 24.0461C39.4641 24.1694 40.0745 23.6868 29.6328 34.0903L29.5881 29.0885C29.6891 29.1085 29.785 29.123 29.8876 29.1446C30.3274 29.2409 30.7668 28.9551 30.8615 28.511C30.9551 28.0669 30.671 27.6302 30.2268 27.5371C26.9012 26.834 24.2744 26.8993 21.7059 27.748C20.8231 28.0393 21.0332 29.3501 21.9633 29.3501C22.0966 29.3501 22.1912 29.3217 22.3921 29.2587L22.4818 41.0923C22.4821 41.1361 22.5006 41.1737 22.5075 41.2156L16.1023 47.6206C15.8663 47.856 15.7962 48.2114 15.9251 48.5196C16.0536 48.8246 16.3522 49.0236 16.6834 49.0236H16.6903L19.5847 48.9988C15.1043 52.2511 9.9316 55.2645 5.37346 57.4205C4.39219 57.8836 5.09072 59.371 6.07658 58.9059V58.9059ZM23.2646 48.9673C49.1632 50.7564 -0.374669 47.3369 57.7397 51.3482L57.8472 71.2721C54.527 71.3373 44.0871 71.2573 43.9715 71.2561V56.8747C43.9715 56.4209 43.6033 56.0528 43.1496 56.0528H33.0704C32.6166 56.0528 32.2485 56.4209 32.2485 56.8747V71.2603C28.257 71.271 25.3149 71.3259 21.3152 71.2679V48.984L23.2646 48.9673ZM42.3277 68.3327C39.5244 69.04 36.2631 70.2976 33.8923 71.8041V57.6966H42.3277V68.3327ZM19.6714 71.2283H8.86715V61.0313H19.6714V71.2283ZM19.6714 59.3875H8.86715V57.505C12.616 55.5705 16.2336 53.371 19.6714 50.9378V59.3875ZM70.554 48.3505C70.7056 54.3942 70.5797 60.5139 70.1844 66.5491C66.129 68.7447 63.1828 70.1413 59.4903 71.1488L59.3691 48.6574C68.4778 48.5163 67.5765 48.3317 70.554 48.3505V48.3505ZM70.1225 46.7056C67.3966 46.716 65.331 46.9832 62.8787 46.9292L42.0305 25.6285C42.2729 25.6801 44.5156 26.1567 44.7733 26.1397C48.2181 29.6152 51.6814 31.9207 55.5902 34.9868C55.7593 35.1187 55.9411 35.1727 56.1817 35.1479C56.1906 35.1537 56.2043 35.1623 56.2124 35.1675C56.9154 35.1675 57.3069 35.2154 58.01 35.2154C58.2349 35.0517 58.4623 34.8974 58.6884 34.7377C64.1715 40.3437 70.1104 46.6933 70.1225 46.7056V46.7056ZM40.6833 14.5095C40.9985 10.8794 43.7874 7.58207 47.3153 6.67025V6.66918C50.1141 5.94907 53.3326 6.78038 55.2017 8.5688C56.8149 10.1209 57.6429 10.4179 60.0326 8.38793C64.1541 4.88702 70.6926 7.36768 72.3523 12.9192C73.24 15.8869 72.546 19.3393 70.5409 21.9292C68.9615 23.9678 67.7145 24.7203 56.1098 33.3077C55.2696 32.6559 54.4424 32.0298 53.6285 31.4145C48.2836 27.3722 40.1073 21.1455 40.6833 14.5095V14.5095ZM24.0328 28.866C25.2466 28.6676 26.5256 28.656 27.9417 28.824C28.0626 35.3656 27.8644 35.1481 28.152 35.5712L24.1144 39.6086C24.1136 39.4942 24.0319 28.7552 24.0328 28.866V28.866ZM40.0711 25.9768L60.6501 47.002L18.6847 47.3627L40.0711 25.9768Z" fill="#159947"/>
<path d="M12.2265 67.6937H16.1121C16.5672 67.6937 16.9361 67.3248 16.9361 66.8696V65.1351C16.9361 64.68 16.5672 64.311 16.1121 64.311H12.2265C11.7714 64.311 11.4023 64.68 11.4023 65.1351V66.8696C11.4023 67.3248 11.7714 67.6937 12.2265 67.6937Z" fill="#159947"/>
<path d="M65.6788 11.2516C66.7137 11.6711 67.3585 12.9414 67.0861 14.0245C66.8219 15.0787 68.4142 15.4877 68.6807 14.4247C69.4638 11.3065 65.9075 8.50172 65.2266 10.1803C65.0559 10.6009 65.2582 11.0804 65.6788 11.2516V11.2516Z" fill="#159947"/>
<path d="M65.5547 18.2864C65.3465 18.6899 65.5044 19.1864 65.9078 19.3941L66.2005 19.5428L66.894 18.052L66.6623 17.9343C66.2615 17.7245 65.7639 17.884 65.5547 18.2864Z" fill="#159947"/>
</svg>
