<svg width="100" height="100" viewBox="0 0 100 100" fill="none" xmlns="http://www.w3.org/2000/svg">
<g clip-path="url(#clip0_919_11239)">
<path d="M101.706 65.3418C99.1931 64.8927 96.835 64.6808 94.4029 64.3537C90.7326 63.8593 89.4672 64.3238 85.4704 64.9033C79.2174 65.7995 73.3359 67.6529 70.3586 67.8721C69.3429 67.9465 68.6135 68.2307 67.9342 67.9828C67.4802 67.8156 67.0049 67.2198 67.1793 66.8231C67.3652 66.4036 68.1527 66.1827 68.7273 66.0536C74.168 64.8602 73.5518 64.9126 74.944 64.7198C75.5471 64.6361 76.1719 64.5495 76.9773 64.2974C77.4531 64.1489 77.7795 63.7374 77.8088 63.2503C77.9134 61.4634 74.9216 61.3104 73.1586 61.2525C71.2229 61.1872 71.8819 61.0896 67.4976 60.9833C66.2406 60.9508 62.7277 60.9961 61.8868 59.5801C61.4706 58.8845 62.1529 57.3455 63.4712 57.2294C63.5717 57.2206 63.6602 57.1823 63.7496 57.1473C70.746 58.0131 73.6957 58.6326 75.3215 58.9694C76.6517 59.2446 77.0705 57.2347 75.7386 56.9574C67.3886 55.2285 62.6247 55.3053 61.1376 54.3377C60.6836 54.0501 60.3657 53.1004 60.5142 52.53C61.0666 50.404 66.2699 52.3555 73.3998 53.3851C74.7459 53.58 75.0383 51.5466 73.694 51.3523C70.1388 50.8379 66.1753 49.8371 63.1198 49.5488C63.0916 49.4606 63.0681 49.3711 63.0144 49.2902C62.3972 48.3649 62.9976 46.9554 64.3893 46.6486C65.0528 46.5025 65.5566 46.5919 66.3686 46.8364C70.5457 48.093 78.135 49.2477 85.3777 49.3143C86.7351 49.3266 88.2444 49.1747 89.1496 47.9498C91.2781 45.0096 87.0281 42.2579 85.5201 37.3884C84.6629 34.7641 85.0262 34.5375 85.2599 34.4399C86.3805 33.97 87.4322 35.5519 88.0992 36.5526C89.1955 38.4984 95.0144 48.7179 96.2196 50.2995C97.7061 52.2438 100.277 53.6566 103.459 54.2601C104.788 54.5115 105.183 52.5014 103.842 52.2405C102.288 51.9463 99.449 51.1357 97.8537 49.0541C96.8756 47.7714 91.8304 38.9898 89.8515 35.4804C89.2958 34.6447 88.7221 33.7777 87.8424 33.091C86.0076 31.6929 83.2713 32.2001 82.9661 34.5998C82.7919 35.8348 83.1668 36.7877 83.5596 38.0009C85.3023 43.6329 90.6514 47.3041 85.3966 47.2597C78.4675 47.1962 71.0689 46.1016 66.9594 44.8693C66.0579 44.5978 65.1498 44.3765 63.9461 44.6428C61.6559 45.1462 60.136 47.4138 60.9518 49.6922C59.6572 50.0656 58.7904 50.9973 58.5264 52.0102C58.2047 53.2437 58.6706 54.7974 59.5655 55.6923C59.9275 56.0542 60.2937 56.2398 60.7766 56.4512C58.3976 59.0399 59.8211 62.7128 65.5017 62.9812C68.0424 63.0775 68.8965 63.0175 71.8494 63.2446C68.3352 64.0354 66.0898 64.213 65.3016 65.9897C64.6533 67.4508 65.5549 69.4194 67.462 69.9722C72.2382 73.2087 81.4727 66.152 98.1833 66.8971C99.2311 67.0304 100.272 67.1726 101.345 67.3642C101.904 67.4635 102.437 67.0922 102.537 66.5336C102.637 65.9741 102.263 65.4406 101.706 65.3418V65.3418Z" fill="#1F5F5B"/>
<path d="M54.43 49.714C53.9296 49.4132 53.2335 49.2258 52.4697 49.1116C54.4254 47.0738 54.2213 43.5563 51.4016 42.6218C47.8321 41.4361 40.147 44.8337 22.1437 43.6926C18.8084 43.482 17.9093 42.2062 20.486 38.8773C24.9264 33.1418 25.0906 31.3673 25.4592 30.6813C25.9081 29.5996 26.373 28.481 26.2997 27.0588C26.1471 24.0834 22.8252 23.3393 20.5404 24.8467C19.3721 25.6177 18.5161 26.714 17.7177 27.7413C14.4722 32.593 7.31333 43.1194 5.89726 44.6963C2.21425 48.7983 -2.41658 51.3396 -6.80714 51.6673C-8.17278 51.769 -7.98366 53.8173 -6.6539 53.7162C-1.73929 53.3487 3.39289 50.5615 7.42589 46.0698C9.31209 43.9679 19.3248 29.0344 19.3811 28.945C20.0712 28.061 20.7844 27.1472 21.6726 26.5617C22.3083 26.1417 23.2301 26.0268 23.7717 26.2997C24.9203 26.9071 23.7697 29.3672 23.293 30.5507C20.8545 36.7369 15.1034 39.9127 17.459 43.7375C18.4276 45.321 20.3062 45.637 22.0146 45.7429C40.0625 46.8873 47.8662 43.6148 50.756 44.5719C52.2473 45.0604 51.7966 47.2794 50.5975 48.0193C47.9789 49.6375 34.661 50.5393 31.6187 50.7384C30.2592 50.826 30.4017 52.8808 31.754 52.7883C37.4602 52.4154 42.1107 51.9924 47.0955 51.1292C47.1912 51.1467 47.2869 51.1666 47.3884 51.1556C49.6005 50.9082 52.5159 50.9612 53.3719 51.4748C54.1441 51.9393 55.0051 52.9219 54.4957 53.7375C53.6363 55.1049 51.1409 55.6403 49.3825 56.0177C44.8727 56.9849 38.9257 57.6753 33.4027 57.5965C32.0419 57.5783 32.029 59.6314 33.3734 59.652C40.8811 59.7582 43.8484 58.7003 48.9014 58.7056C51.1633 58.7067 52.1123 60.2015 51.6773 61.2033C50.5398 63.8305 38.7319 63.0955 33.2315 63.782C32.3619 63.8942 31.09 63.75 30.9603 64.8745C30.8272 66.0382 32.2202 66.2081 33.4921 66.6533C36.5172 67.7113 41.7109 68.2563 42.0027 70.3306C41.9153 70.8177 41.1548 71.1713 40.4802 71.2577C38.8897 71.4622 38.0611 71.1532 28.0998 68.8456C25.4018 68.2222 22.787 67.3933 20.0262 66.8657C13.8346 65.6602 3.07983 65.2076 -1.53591 65.1947C-2.04878 65.1938 -2.45518 65.5737 -2.53482 66.0635C-2.97864 66.2838 -1.78037 67.8864 -1.53904 68.0814C-0.895686 68.6016 7.57021 68.7822 17.6036 69.6481C19.6751 69.8268 21.7031 70.3001 23.6771 70.8994C26.3785 71.7196 29.065 72.0374 31.7247 72.9864C34.0049 73.8002 36.7644 74.4292 39.2265 74.3879C43.5084 74.3162 44.8906 72.0269 44.0032 69.7163C43.5078 67.1852 39.9414 66.2397 37.4178 65.5996L37.7782 65.5929C39.7341 65.5509 41.7787 65.3592 43.7139 65.2609C46.9751 65.1303 52.3021 64.9254 53.5625 62.0216C54.1761 60.6097 53.7424 58.6445 51.974 57.5034C57.9757 55.7748 57.6516 51.6442 54.43 49.714V49.714Z" fill="#1F5F5B"/>
<path d="M47.0172 33.5771C49.9325 36.4924 54.4785 38.8671 55.9289 39.738C56.3167 39.9707 56.811 39.922 57.1468 39.6184C62.6216 34.664 65.093 33.8462 67.9234 28.5419C69.3569 25.8569 69.18 21.7544 66.3971 19.8152C64.4229 18.437 61.4683 18.5169 59.2118 20.0082C57.7493 20.9749 56.8077 22.4132 56.1233 23.9045C53.6064 20.4938 50.7708 19.4324 48.4339 19.8632C43.7388 20.7285 41.0569 27.6168 47.0172 33.5771V33.5771ZM48.9805 21.8262C51.9018 21.3981 54.0143 24.4009 55.5136 26.6321C56.0061 27.3382 57.0565 27.1857 57.335 26.4027C57.9849 24.5761 58.7993 22.7438 60.345 21.7222C61.9157 20.684 63.9206 20.5927 65.2213 21.4999C67.0068 22.7613 67.1364 25.6549 66.111 27.5733C63.5487 32.3761 61.2403 33.1942 56.3271 37.5917C53.7368 36.1101 50.5478 34.2585 48.3288 31.9772C43.9267 27.4516 45.5442 22.3277 48.9805 21.8262V21.8262Z" fill="#1F5F5B"/>
<path d="M61.4358 13.7303L61.966 16.7881C62.1963 18.1263 64.2214 17.7784 63.9912 16.4371L63.4601 13.3784C63.2286 12.0348 61.203 12.3946 61.4358 13.7303Z" fill="#1F5F5B"/>
<path d="M66.7908 17.1651L68.8908 14.3083C69.6954 13.2136 68.0404 11.9966 67.2354 13.0919L65.1354 15.9486C64.3306 17.0403 65.984 18.2618 66.7908 17.1651Z" fill="#1F5F5B"/>
<path d="M70.1929 19.9703L72.3364 18.3206C72.7858 17.9753 72.8704 17.3297 72.5242 16.8795C72.1737 16.4344 71.5329 16.346 71.0831 16.6926L68.9396 18.3424C67.8611 19.1711 69.116 20.7986 70.1929 19.9703Z" fill="#1F5F5B"/>
</g>
<defs>
<clipPath id="clip0_919_11239">
<rect width="100" height="100" fill="white"/>
</clipPath>
</defs>
</svg>
