<svg width="24" height="24" viewBox="0 0 24 24" fill="none" xmlns="http://www.w3.org/2000/svg">
<g clip-path="url(#clip0_919_12993)">
<path d="M12 24C18.6274 24 24 18.6274 24 12C24 5.37258 18.6274 0 12 0C5.37258 0 0 5.37258 0 12C0 18.6274 5.37258 24 12 24Z" fill="#F99400"/>
<path fill-rule="evenodd" clip-rule="evenodd" d="M10.8601 14.4683C10.4273 14.3678 10.0239 14.2224 9.64038 14.0251C9.50305 13.9542 9.36785 13.8781 9.23665 13.7965C8.84972 13.5549 8.72945 13.0566 8.96198 12.6731C9.20118 12.2792 9.69692 12.1512 10.0927 12.3912C10.482 12.6267 10.8945 12.7979 11.3428 12.8787C12.2249 13.0371 13.0537 12.8912 13.826 12.4371C13.9836 12.3443 14.1428 12.2715 14.3308 12.2726C14.6953 12.2747 15.0145 12.508 15.1204 12.855C15.2268 13.2046 15.0943 13.5829 14.7847 13.7821C14.3023 14.0925 13.7799 14.3112 13.2236 14.4483C13.1996 14.4539 13.1761 14.4608 13.1425 14.4696C13.1652 14.4942 13.1828 14.5133 13.2015 14.532C13.6959 15.0264 14.1905 15.52 14.6844 16.0152C14.9732 16.3048 15.034 16.7021 14.8423 17.0333C14.5663 17.5104 13.9316 17.5896 13.534 17.1944C13.0412 16.7043 12.5511 16.212 12.0601 15.7211C12.0425 15.7035 12.026 15.6846 11.9868 15.6419C11.9705 15.671 11.9617 15.6992 11.9436 15.7174C11.4516 16.2112 10.9596 16.7043 10.4655 17.196C10.1265 17.5341 9.60892 17.532 9.28092 17.195C8.98092 16.8867 8.97238 16.3971 9.26252 16.0736C9.30172 16.0293 9.34438 15.9877 9.38598 15.9459C9.85798 15.4736 10.3297 15.0021 10.8017 14.5296C10.818 14.5131 10.8348 14.4947 10.8601 14.4683Z" fill="white"/>
<path fill-rule="evenodd" clip-rule="evenodd" d="M12.0015 6.55103C13.5495 6.55103 14.8125 7.81449 14.8122 9.36249C14.8119 10.9124 13.561 12.174 12.0026 12.1745C10.4354 12.1761 9.19088 10.9126 9.18848 9.36783C9.18581 7.81769 10.4399 6.55529 12.0015 6.55103ZM13.1634 9.36516C13.1639 8.72463 12.6458 8.20223 12.0085 8.20063C11.3626 8.19903 10.8365 8.71689 10.8354 9.35476C10.8343 9.99369 11.3525 10.5257 11.9778 10.5262C12.6405 10.5268 13.1629 10.0153 13.1634 9.36516Z" fill="white"/>
</g>
<defs>
<clipPath id="clip0_919_12993">
<rect width="24" height="24" fill="white"/>
</clipPath>
</defs>
</svg>
