<svg width="80" height="80" viewBox="0 0 80 80" fill="none" xmlns="http://www.w3.org/2000/svg">
<rect x="0.5" y="0.5" width="79" height="79" rx="39.5" fill="white" stroke="#159947"/>
<path d="M40.0016 25.5996L42.0198 37.9814L54.4016 39.9996L42.0198 42.0176L40.0016 54.3996L37.9834 42.0176L25.6016 39.9996L37.9834 37.9814L40.0016 25.5996Z" fill="#159947"/>
<path d="M40.8108 10.6562C41.2908 10.6562 41.7174 10.7256 42.0907 10.8643C42.4641 10.9923 42.8268 11.2056 43.1788 11.5043L42.7147 12.1123C42.4374 11.8883 42.1494 11.7229 41.8508 11.6163C41.5628 11.5096 41.2321 11.4563 40.8587 11.4563C40.0694 11.4563 39.4401 11.7656 38.9707 12.3843C38.5014 12.9923 38.2668 13.8829 38.2668 15.0563C38.2668 16.2189 38.4961 17.0936 38.9548 17.6803C39.4241 18.2669 40.0534 18.5603 40.8427 18.5603C41.2161 18.5603 41.5521 18.5016 41.8508 18.3843C42.1601 18.2669 42.4694 18.0909 42.7788 17.8563L43.2268 18.4803C42.5228 19.0776 41.7228 19.3763 40.8268 19.3763C40.1121 19.3763 39.4881 19.2056 38.9548 18.8643C38.4214 18.5229 38.0054 18.0323 37.7068 17.3923C37.4188 16.7416 37.2747 15.9683 37.2747 15.0723C37.2747 14.1869 37.4188 13.4136 37.7068 12.7523C38.0054 12.0803 38.4214 11.5629 38.9548 11.2003C39.4881 10.8376 40.1068 10.6562 40.8108 10.6562Z" fill="#159947"/>
<path d="M13.2774 37.0562C14.056 37.0562 14.7014 37.2536 15.2134 37.6483C15.736 38.0429 15.9974 38.5816 15.9974 39.2643C15.9974 40.2669 15.416 40.8909 14.2534 41.1363C14.968 41.2109 15.5067 41.4136 15.8694 41.7443C16.2427 42.0643 16.4294 42.5443 16.4294 43.1842C16.4294 44.0163 16.1307 44.6562 15.5334 45.1043C14.9467 45.5522 14.1787 45.7763 13.2294 45.7763C12.568 45.7763 11.9867 45.6803 11.4854 45.4883C10.984 45.2962 10.5254 45.0296 10.1094 44.6883L10.6214 44.1123C10.9947 44.4002 11.3787 44.6189 11.7734 44.7682C12.1787 44.9176 12.6534 44.9923 13.1974 44.9923C13.88 44.9923 14.424 44.8483 14.8294 44.5603C15.2454 44.2723 15.4534 43.8083 15.4534 43.1683C15.4534 42.6029 15.24 42.1976 14.8134 41.9522C14.3867 41.7069 13.7787 41.5842 12.9894 41.5842H11.9974L12.0614 40.8323H12.8614C13.5547 40.8323 14.0934 40.6989 14.4774 40.4323C14.8614 40.1656 15.0534 39.7816 15.0534 39.2802C15.0534 38.8109 14.8827 38.4536 14.5414 38.2083C14.2107 37.9523 13.7627 37.8242 13.1974 37.8242C12.7174 37.8242 12.3014 37.8829 11.9494 38.0002C11.608 38.1069 11.24 38.2829 10.8454 38.5282L10.3974 37.9522C10.824 37.6536 11.2667 37.4296 11.7254 37.2802C12.184 37.1309 12.7014 37.0562 13.2774 37.0562Z" fill="#159947"/>
<path d="M41.6994 63.4562C42.7447 63.4562 43.566 63.8456 44.1634 64.6242C44.7714 65.3923 45.0754 66.4482 45.0754 67.7922C45.0754 68.6562 44.942 69.4189 44.6754 70.0802C44.4087 70.7416 44.0194 71.2589 43.5074 71.6323C42.9954 71.9949 42.3874 72.1763 41.6834 72.1763C40.6807 72.1763 39.8807 71.8083 39.2834 71.0723C38.6967 70.3256 38.382 69.3229 38.3394 68.0643H36.5154V72.0003H35.5874V63.6323H36.5154V67.2963H38.3554C38.4407 66.1229 38.782 65.1896 39.3794 64.4963C39.9767 63.8029 40.75 63.4562 41.6994 63.4562ZM41.6834 71.3923C42.4727 71.3923 43.07 71.0829 43.4754 70.4643C43.8914 69.8456 44.0994 68.9549 44.0994 67.7922C44.0994 66.6616 43.886 65.7869 43.4594 65.1683C43.0434 64.5496 42.4567 64.2403 41.6994 64.2403C40.9314 64.2403 40.3394 64.5443 39.9234 65.1523C39.5074 65.7496 39.2994 66.6403 39.2994 67.8242C39.2994 68.9656 39.5074 69.8456 39.9234 70.4643C40.3394 71.0829 40.926 71.3923 41.6834 71.3923Z" fill="#159947"/>
<path d="M67.6983 41.0562C68.3703 41.1203 68.8823 41.3229 69.2343 41.6643C69.597 42.0056 69.7783 42.4803 69.7783 43.0883C69.7783 43.9096 69.469 44.5336 68.8503 44.9603C68.2423 45.3869 67.4156 45.6003 66.3703 45.6003H63.6983V37.3283C64.5836 37.1469 65.4316 37.0562 66.2423 37.0562C67.213 37.0562 67.965 37.2589 68.4983 37.6643C69.0423 38.0589 69.3143 38.5976 69.3143 39.2802C69.3143 39.7603 69.1703 40.1549 68.8823 40.4643C68.605 40.7736 68.2103 40.9709 67.6983 41.0562ZM66.2583 37.8082C65.7143 37.8082 65.1703 37.8509 64.6263 37.9362V40.7682H66.6103C67.165 40.7682 67.597 40.6456 67.9063 40.4003C68.2156 40.1549 68.3703 39.7869 68.3703 39.2962C68.3703 38.3043 67.6663 37.8082 66.2583 37.8082ZM66.3703 44.8483C67.117 44.8483 67.709 44.7096 68.1463 44.4323C68.5836 44.1549 68.8023 43.7069 68.8023 43.0883C68.8023 42.5443 68.6263 42.1443 68.2743 41.8883C67.933 41.6216 67.3996 41.4883 66.6743 41.4883H64.6263V44.8483H66.3703Z" fill="#159947"/>
</svg>
