<svg width="565" height="35" viewBox="0 0 565 35" fill="none" xmlns="http://www.w3.org/2000/svg">
<path fill-rule="evenodd" clip-rule="evenodd" d="M187.309 3.09172C125.004 2.36647 62.4446 5.01694 2.13812 16.1463C1.06215 16.3441 0.615481 16.7331 0.527447 16.8221C0.0122855 17.3496 -0.0432388 17.91 0.0219715 18.3715C0.0610977 18.6517 0.325314 19.8352 1.76972 19.9572C2.76744 20.0396 9.84917 19.4627 12.5815 19.3143C25.4442 18.6187 38.281 17.6265 51.1111 16.4793C80.2015 13.8881 109.253 11.6464 138.389 9.60583C154.747 8.45861 171.111 7.50915 187.466 6.73115C226.81 7.19598 266.057 9.00914 304.571 10.8816C289.262 11.8343 275.197 12.8002 263.534 13.4266C243.866 14.4815 224.235 15.7276 204.606 17.3693C194.522 18.21 184.45 19.1231 174.385 20.2011C173.27 20.3231 170.73 20.4484 169.5 20.5967C168.979 20.6561 168.601 20.7517 168.431 20.8176C167.368 21.233 167.234 22.0835 167.221 22.512C167.215 22.7725 167.303 24.1933 169.096 24.4702C252.477 37.4655 339.468 22.3472 423.149 34.9798C424.131 35.1282 425.05 34.4425 425.197 33.4469C425.343 32.4546 424.665 31.525 423.681 31.3766C344.867 19.4791 263.116 32.2008 184.202 22.8615C191.098 22.1857 197.997 21.5758 204.903 20.9989C224.496 19.3605 244.091 18.1177 263.726 17.0628C283.485 16.0045 310.195 13.9376 338.154 12.6354C362.148 13.987 386.129 15.5034 410.126 16.7891C420.25 17.3298 430.378 17.7781 440.498 18.3286C444.659 18.5528 455.363 19.4923 456.915 19.1429C458.121 18.8693 458.411 17.9957 458.483 17.5573C458.558 17.0825 458.513 16.4924 457.965 15.9287C457.795 15.7507 457.287 15.3815 456.243 15.0782C428.024 6.9059 381.816 7.03445 338.539 9.00912C329.23 8.48167 319.921 7.98058 310.609 7.52895C289.292 6.49052 267.74 5.44877 246.064 4.62792C307.15 3.10158 368.265 3.54005 429.396 4.64441C455.063 5.10924 524.248 7.91137 551.496 10.3871C551.163 10.7333 550.968 11.2146 550.991 11.7387C551.036 12.7409 551.881 13.5189 552.875 13.4727C558.496 13.209 561.747 12.8728 563.035 12.5266C563.837 12.3123 564.274 11.9695 564.476 11.7453C564.972 11.2047 565.063 10.6245 564.965 10.0739C564.903 9.73107 564.75 9.35527 564.398 9.00912C564.163 8.77177 563.589 8.40916 562.611 8.16191C551.9 5.46858 460.022 1.55547 429.461 1.00164C348.702 -0.455458 267.975 -0.752123 187.309 3.09172ZM434.398 14.3595C418.617 12.1936 400.117 11.4321 380.818 11.4816C390.648 12.0585 400.482 12.6222 410.319 13.1497C418.343 13.5815 426.37 13.9507 434.398 14.3595ZM112.878 7.79599C92.1741 9.33881 71.4926 11.0069 50.7948 12.853C48.4048 13.064 46.0182 13.2717 43.6282 13.476C66.517 10.641 89.6439 8.83772 112.878 7.79599Z" fill="white"/>
</svg>
