<svg width="89" height="84" viewBox="0 0 89 84" fill="none" xmlns="http://www.w3.org/2000/svg">
<path fill-rule="evenodd" clip-rule="evenodd" d="M10.545 39.398C10.6234 32.7513 9.76425 26.0445 8.88364 19.5512C8.68937 18.1539 7.41504 17.1496 6.06778 17.4071C4.69366 17.5683 3.74329 18.8588 3.91169 20.1595C4.77047 26.4517 5.62678 32.9509 5.53549 39.2905C5.50974 40.6433 6.61792 41.7964 8.0042 41.839C9.38951 41.8819 10.5183 40.7511 10.545 39.398Z" fill="white"/>
<path fill-rule="evenodd" clip-rule="evenodd" d="M40.1588 51.5462C47.6458 38.8767 53.4895 25.3017 61.3006 12.7524C62.0414 11.6222 61.6794 10.0627 60.5117 9.34032C59.3429 8.6182 57.7871 8.93196 57.0723 10.1588C49.2312 22.7161 43.3586 36.2989 35.8416 48.9764C35.15 50.197 35.5504 51.7457 36.7443 52.4611C37.9113 53.0801 39.4672 52.7668 40.1588 51.5462Z" fill="white"/>
<path fill-rule="evenodd" clip-rule="evenodd" d="M84.2057 59.7259C78.4723 61.5727 72.7388 63.419 67.0045 65.2661C65.6734 65.6227 64.9564 67.0578 65.3835 68.3928C65.8115 69.7274 67.2032 70.3892 68.5352 70.0323C74.2782 68.1829 80.0205 66.3343 85.7625 64.4851C87.0677 64.0319 87.778 62.599 87.3432 61.2661C86.9343 60.0298 85.5099 59.2729 84.2057 59.7259Z" fill="white"/>
</svg>
