<svg width="60" height="60" viewBox="0 0 60 60" fill="none" xmlns="http://www.w3.org/2000/svg">
<path d="M4.94114 58.853C18.9706 59.1177 32.9117 57.9706 45.7058 58.853C46.0588 58.853 46.4117 58.5883 46.4117 58.2353C47.0294 51.7059 46.7647 44.3824 46.5 36.6177C46.3235 29.4706 46.0588 22.0589 46.4117 14.0294C46.4117 12.0883 45.3529 10.9412 45.2647 10.853C44.1176 9.35298 42.7058 7.50004 41.1176 5.47063C40.2353 4.23533 38.7353 3.52945 37.147 3.52945C35.2058 3.52945 35.4706 4.50004 21.4411 3.70592C16.0588 3.44121 10.5 3.17651 4.85291 3.88239C4.5882 3.88239 4.3235 4.1471 4.3235 4.50004C3.17644 15.6177 3.61761 26.9118 4.05879 37.7647C4.3235 45.0883 4.5882 51.9706 4.3235 58.1471C4.3235 58.5883 4.5882 58.853 4.94114 58.853ZM5.55879 5.20592C10.8529 4.50004 16.147 4.85298 21.3529 5.11768C35.0294 5.82357 36 4.85298 37.3235 4.94121L36.4411 12.7942C36.3529 13.9412 37.2353 14.9118 38.3823 14.9118L45.0882 14.5589C44.8235 22.4118 45 29.7353 45.2647 36.7942C45.5294 44.2059 45.7058 51.2647 45.1764 57.6177C32.9117 56.8236 18.7941 57.8824 5.64703 57.7059C5.8235 51.6177 5.64703 44.9118 5.38232 37.853C4.94114 27.0883 4.5882 16.0589 5.55879 5.20592Z" fill="#989898"/>
<path d="M9.61811 34.5883C12.6181 34.853 16.1475 34.5001 17.7358 31.9413C19.324 29.2942 19.0593 25.7648 17.0299 23.5589C15.0005 21.353 11.2063 20.9118 8.64752 22.6765C8.47105 22.7648 8.38281 23.0295 8.38281 23.2942L9.0887 33.9707C9.0887 34.2354 9.3534 34.5001 9.61811 34.5883ZM16.0593 24.353C17.6475 26.1177 17.9122 29.0295 16.5887 31.2354C15.4416 33.1765 12.6181 33.4413 10.324 33.2648L9.70634 23.5589C11.7358 22.3236 14.5593 22.6765 16.0593 24.353Z" fill="#989898"/>
<path d="M26.5611 33.4413C29.0317 32.7354 30.7964 30.1766 30.7082 27.6177C30.6199 25.5001 29.2964 23.4707 27.3552 22.5001C23.8258 20.7354 19.3258 25.6766 21.0023 30.5295C21.8846 33.1766 24.1788 34.1472 26.5611 33.4413ZM26.8258 23.7354C28.3258 24.5295 29.3846 26.1177 29.4729 27.706C29.5611 29.6471 28.1493 31.6766 26.2082 32.206C24.4435 32.7354 22.9435 32.0295 22.2376 30.0883C21.0023 26.3824 24.4435 22.5001 26.8258 23.7354Z" fill="#989898"/>
<path d="M35.4737 33.5295C37.3266 34.3236 39.5325 33.9706 40.8561 32.7354C41.1208 32.4706 41.1208 32.0295 40.9443 31.7648C40.6796 31.5001 40.2384 31.5001 39.9737 31.6765C39.0031 32.5589 37.3266 32.7354 36.0031 32.2059C34.7678 31.6765 33.7972 30.5295 33.6208 29.2059C33.3561 27.6177 34.1502 25.6765 35.5619 24.6177C36.1796 24.1765 37.4149 23.4706 38.9149 24.0883C39.2678 24.2648 39.6208 24.0883 39.7972 23.7354C39.9737 23.3824 39.7972 23.0295 39.4443 22.853C37.8561 22.1471 36.1796 22.4118 34.7678 23.5589C31.2384 26.2942 31.3266 31.7648 35.4737 33.5295Z" fill="#989898"/>
<path d="M35.4715 41.647H12.9715C12.6186 41.647 12.2656 41.9117 12.2656 42.3529C12.2656 42.794 12.5303 43.0587 12.9715 43.0587H35.4715C35.8245 43.0587 36.1774 42.794 36.1774 42.3529C36.1774 41.9117 35.8245 41.647 35.4715 41.647Z" fill="#989898"/>
<path d="M25.7624 48.2646H18.7918C18.4389 48.2646 18.0859 48.5294 18.0859 48.9705C18.0859 49.4117 18.3506 49.6764 18.7918 49.6764H25.7624C26.1153 49.6764 26.4683 49.4117 26.4683 48.9705C26.4683 48.5294 26.1153 48.2646 25.7624 48.2646Z" fill="#989898"/>
<path d="M48.086 1.2353C47.8213 1.05883 47.3802 1.05883 47.2037 1.41177C46.4096 2.47059 45.7919 3.79412 45.439 5.11765C45.3507 5.47059 45.6154 5.82354 45.9684 5.91177C46.3213 6.00001 46.6743 5.7353 46.7625 5.38236C47.0272 4.2353 47.5566 3.08824 48.2625 2.11765C48.439 1.85295 48.439 1.41177 48.086 1.2353Z" fill="#989898"/>
<path d="M54.7968 4.94121C54.5321 4.6765 54.091 4.6765 53.8262 4.94121C52.3262 6.44121 50.6498 7.76473 48.8851 8.82356C48.5321 9.00003 48.4439 9.44121 48.7086 9.70591C48.8851 10.0589 49.3262 10.1471 49.591 9.88238C51.4439 8.73532 53.2086 7.32356 54.7968 5.82356C55.0615 5.64709 55.0615 5.20591 54.7968 4.94121Z" fill="#989898"/>
<path d="M51.0028 14.1176H55.6792C56.0322 14.1176 56.3851 13.8529 56.3851 13.4117C56.3851 12.9705 56.1204 12.7058 55.6792 12.7058H51.0028C50.6498 12.7058 50.2969 12.9705 50.2969 13.4117C50.2969 13.8529 50.6498 14.1176 51.0028 14.1176Z" fill="#989898"/>
</svg>
