<svg width="45" height="45" viewBox="0 0 45 45" fill="none" xmlns="http://www.w3.org/2000/svg">
<rect x="0.5" y="0.5" width="44" height="44" fill="white"/>
<path d="M12.4875 13.3594V32.175H9.98438V16.0031L6.075 18.6469L4.92188 16.9594L10.2656 13.3594H12.4875Z" fill="#159947"/>
<path d="M24.5475 19.8338L22.0669 23.9175L24.9356 28.6594H23.8725L21.2906 24.3563H20.1094V28.6594H19.1644V19.8338H20.1094V23.5969H21.3075L23.5688 19.8338H24.5475Z" fill="#159947"/>
<path d="M32.1445 19.8338L29.6639 23.9175L32.5327 28.6594H31.4695L28.8877 24.3563H27.7064V28.6594H26.7614V19.8338H27.7064V23.5969H28.9045L31.1658 19.8338H32.1445Z" fill="#159947"/>
<path d="M38.1722 23.8669C38.8135 23.9344 39.3085 24.1481 39.6572 24.5081C40.006 24.8681 40.1803 25.3744 40.1803 26.0269C40.1803 26.9044 39.8878 27.5625 39.3028 28.0013C38.7178 28.44 37.9303 28.6594 36.9403 28.6594H34.3585V19.9181C35.3935 19.7381 36.2147 19.6481 36.8222 19.6481C37.7447 19.6481 38.4591 19.8563 38.9653 20.2725C39.4828 20.6888 39.7416 21.2513 39.7416 21.96C39.7416 22.995 39.2185 23.6306 38.1722 23.8669ZM36.8391 20.4244C36.3891 20.4244 35.8772 20.4638 35.3035 20.5425V23.58H37.126C37.6547 23.58 38.0653 23.4506 38.3578 23.1919C38.6503 22.9219 38.7966 22.5225 38.7966 21.9938C38.7966 21.4875 38.6335 21.0994 38.3072 20.8294C37.981 20.5594 37.4916 20.4244 36.8391 20.4244ZM36.9235 27.8831C38.4422 27.8831 39.2016 27.2644 39.2016 26.0269C39.2016 25.4306 39.0385 24.9975 38.7122 24.7275C38.386 24.4575 37.891 24.3225 37.2272 24.3225H35.3035V27.8831H36.9235Z" fill="#159947"/>
<rect x="0.5" y="0.5" width="44" height="44" stroke="#159947"/>
</svg>
