<svg width="45" height="45" viewBox="0 0 45 45" fill="none" xmlns="http://www.w3.org/2000/svg">
<rect x="0.5" y="0.5" width="44" height="44" fill="white"/>
<path d="M10.4344 12.6562C11.4656 12.6562 12.3656 12.8719 13.1344 13.3031C13.9031 13.7156 14.4938 14.2875 14.9063 15.0187C15.3188 15.7312 15.525 16.5187 15.525 17.3812C15.525 18.5813 15.2156 19.5563 14.5969 20.3063C13.9781 21.0375 13.0969 21.5344 11.9531 21.7969C13.1906 21.9094 14.1844 22.3594 14.9344 23.1469C15.6844 23.9344 16.0594 25.0313 16.0594 26.4375C16.0594 27.5063 15.8156 28.4719 15.3281 29.3344C14.8594 30.1969 14.175 30.8813 13.275 31.3875C12.3938 31.8938 11.3625 32.1469 10.1813 32.1469C9.09375 32.1469 8.11875 31.9406 7.25625 31.5281C6.4125 31.0969 5.63437 30.45 4.92188 29.5875L6.44063 28.2938C7.02188 28.9313 7.59375 29.4 8.15625 29.7C8.7375 29.9813 9.38438 30.1219 10.0969 30.1219C11.1281 30.1219 11.9438 29.7938 12.5438 29.1375C13.1625 28.4625 13.4719 27.5438 13.4719 26.3813C13.4719 25.1438 13.1625 24.2531 12.5438 23.7094C11.9438 23.1469 11.0719 22.8656 9.92813 22.8656H8.74688L9.05625 20.9813H9.84375C10.7813 20.9813 11.55 20.6906 12.15 20.1094C12.7688 19.5281 13.0781 18.6938 13.0781 17.6063C13.0781 16.6688 12.8156 15.9375 12.2906 15.4125C11.7844 14.8875 11.0813 14.625 10.1813 14.625C9.525 14.625 8.91563 14.7562 8.35313 15.0187C7.80938 15.2812 7.25625 15.6937 6.69375 16.2562L5.37187 14.9062C6.83438 13.4062 8.52188 12.6562 10.4344 12.6562Z" fill="#159947"/>
<path d="M24.9975 19.44L22.5169 23.5238L25.3856 28.2656H24.3225L21.7406 23.9625H20.5594V28.2656H19.6144V19.44H20.5594V23.2031H21.7575L24.0187 19.44H24.9975Z" fill="#159947"/>
<path d="M32.5945 19.44L30.1139 23.5238L32.9827 28.2656H31.9195L29.3377 23.9625H28.1564V28.2656H27.2114V19.44H28.1564V23.2031H29.3545L31.6158 19.44H32.5945Z" fill="#159947"/>
<path d="M38.6222 23.4731C39.2635 23.5406 39.7585 23.7544 40.1072 24.1144C40.456 24.4744 40.6303 24.9806 40.6303 25.6331C40.6303 26.5106 40.3378 27.1688 39.7528 27.6075C39.1678 28.0463 38.3803 28.2656 37.3903 28.2656H34.8085V19.5244C35.8435 19.3444 36.6647 19.2544 37.2722 19.2544C38.1947 19.2544 38.9091 19.4625 39.4153 19.8788C39.9328 20.295 40.1916 20.8575 40.1916 21.5663C40.1916 22.6013 39.6685 23.2369 38.6222 23.4731ZM37.2891 20.0306C36.8391 20.0306 36.3272 20.07 35.7535 20.1487V23.1863H37.576C38.1047 23.1863 38.5153 23.0569 38.8078 22.7981C39.1003 22.5281 39.2466 22.1288 39.2466 21.6C39.2466 21.0938 39.0835 20.7056 38.7572 20.4356C38.431 20.1656 37.9416 20.0306 37.2891 20.0306ZM37.3735 27.4894C38.8922 27.4894 39.6516 26.8706 39.6516 25.6331C39.6516 25.0369 39.4885 24.6038 39.1622 24.3338C38.836 24.0638 38.341 23.9288 37.6772 23.9288H35.7535V27.4894H37.3735Z" fill="#159947"/>
<rect x="0.5" y="0.5" width="44" height="44" stroke="#159947"/>
</svg>
