<svg width="142" height="142" viewBox="0 0 142 142" fill="none" xmlns="http://www.w3.org/2000/svg">
<path d="M81.9809 21.0552C69.8123 18.1184 56.3192 18.3838 45.2401 23.8193C24.4323 31.1966 9.64844 49.5611 9.64844 71.0086C9.64844 87.273 18.7987 102.103 29.0329 109.298C32.9837 112.076 34.8651 121.635 28.104 130.972C26.7994 132.769 28.0399 135.202 30.1517 135.325C31.9169 136.168 34.2589 136.633 38.4922 136.465C40.5019 136.385 48.9132 129.121 54.6363 123.171C57.397 123.362 69.5826 126.889 85.6281 122.348C136.929 107.826 142.672 35.7016 81.9809 21.0552ZM57.272 117.918C54.8258 117.396 53.9601 117.392 52.3115 118.969C47.2392 123.893 37.0264 128.978 31.4842 131.612C38.2585 121.686 36.0528 110.406 30.8346 106.737C21.3634 100.08 12.7808 86.3107 12.7808 71.0086C12.7808 44.8036 36.4386 23.4828 65.5189 23.4828C94.588 23.4828 118.237 44.8036 118.237 71.0086C118.237 102.597 84.3884 123.619 57.272 117.918Z" fill="#1F5F5B"/>
<path d="M108.801 5.65748C108.025 5.28225 107.085 5.60445 106.709 6.38142L100.33 19.5043C99.9516 20.2833 100.276 21.2193 101.054 21.5986C101.842 21.9783 102.773 21.6434 103.146 20.8747L109.525 7.75183C109.903 6.97282 109.579 6.03678 108.801 5.65748Z" fill="#1F5F5B"/>
<path d="M109.109 24.882C109.583 25.6057 110.552 25.8073 111.278 25.3327L124.35 16.7514C125.072 16.2762 125.274 15.3055 124.799 14.5836C124.324 13.8576 123.352 13.6618 122.63 14.1329L109.559 22.7143C108.836 23.1894 108.634 24.1601 109.109 24.882Z" fill="#1F5F5B"/>
<path d="M132.335 31.4647C132.226 30.6061 131.442 30.0086 130.583 30.1086L118.315 31.6645C117.456 31.7726 116.85 32.5578 116.958 33.4143C117.064 34.2583 117.832 34.8803 118.709 34.7724L130.979 33.2164C131.836 33.1063 132.444 32.3232 132.335 31.4647Z" fill="#1F5F5B"/>
<path d="M49.338 53.8994C55.3684 50.735 63.7973 52.5475 67.5314 58.2491C70.6134 53.2318 77.3026 50.7734 82.8932 52.604C93.5266 56.0856 96.9106 70.7845 81.6618 80.763C76.5215 84.1268 70.6877 86.3687 65.7321 90C61.9353 86.6391 57.8983 84.4703 53.507 81.9379C36.0307 71.8599 41.7102 57.9024 49.338 53.8994Z" fill="#1F5F5B"/>
</svg>
