<svg width="88" height="88" viewBox="0 0 88 88" fill="none" xmlns="http://www.w3.org/2000/svg">
<path d="M29 67.5L41.5 74L42 75L48 71L60.5 79L69 73.5L79.5 62.5L82 57L81.5 50L79.5 47L75.5 43.5C75.8333 40.8333 76.5 35.4 76.5 35V30L74 24.5L70.5 20.5L66 17.5L58.5 15L51.5 16.5L47.5 18.5L44 22H41L34.5 18L28 15.5L20.5 16.5L13.5 20L6.5 30V39.5L12 52L19 58L29 67.5Z" fill="white"/>
<path d="M76.4427 43.0558C78.2194 38.1035 78.2398 33.0844 76.4716 28.1338C71.9137 15.2605 56.585 11.2507 49.0905 16.7713C44.556 20.1324 43.9444 22.3732 41.9423 21.4213C39.5495 20.2764 38.3419 17.0553 30.6039 15.6841C26.8406 14.2713 21.8157 15.1022 20.3429 15.5026C16.6727 16.5004 13.2585 18.5126 10.6942 21.332C5.28485 27.2798 3.69442 36.2116 5.98294 43.9187C10.4924 59.1054 26.6147 67.0721 40.1588 75.5585C40.884 76.0127 42.8883 76.5198 43.2923 75.678C44.76 74.537 46.19 73.4283 47.6098 72.3309C50.9545 74.9027 55.1619 77.6311 59.1861 79.6651C60.1421 80.1485 60.9733 80.2818 61.9269 79.5339C71.5141 72.0475 76.8009 68.456 80.3152 63.4071C84.9213 56.7885 83.688 47.6309 76.4427 43.0558ZM42.6922 73.8549C35.6527 68.1727 27.3995 64.0129 20.4992 58.3697C15.6443 54.3919 7.55322 46.1442 7.91698 35.6128C8.20893 27.7454 13.8643 20.3253 21.3656 17.9697C24.6771 16.9278 28.3289 16.8737 31.9277 17.8155C38.0571 19.4236 38.4761 21.7688 41.1654 23.0541C44.513 24.6389 45.6256 21.5942 50.1641 18.2251C53.2543 15.9507 56.7978 16.0378 59.8574 16.4204C66.4569 17.2386 72.4478 22.1888 74.7681 28.7389C76.361 33.2018 76.368 37.7219 74.8279 42.1879C67.4081 38.8583 63.1707 45.1434 61.7566 45.9409C60.1937 44.6178 55.9953 42.3789 54.0812 41.7273C51.532 40.8594 48.7809 41.1512 46.2135 41.964C35.7102 45.2892 33.2055 60.1179 46.1653 71.1614C45.0202 72.0472 43.8678 72.9408 42.6922 73.8549ZM78.8319 62.3735C75.4856 67.1786 70.386 70.6496 61.3807 77.6668C57.1197 74.2831 52.2036 71.7831 48.1169 68.4338C32.9687 56.0253 43.6725 41.4647 54.747 44.4031C58.5159 45.3977 58.4752 46.6961 60.2976 47.5616C62.589 48.6511 63.4644 46.5686 66.1343 44.595C67.8496 43.3259 69.5612 42.8433 71.5248 43.0928C75.2673 43.5579 79.145 46.88 80.5459 50.8178C81.8656 54.5296 81.2087 58.9583 78.8319 62.3735Z" fill="#1F5F5B"/>
<path d="M18.6751 24.1325C14.2865 26.166 12.0372 31.2475 13.6602 35.9365C14.0518 37.0687 15.7614 36.4732 15.3695 35.3455C14.0643 31.5808 15.8479 27.4335 19.4356 25.7735C19.8889 25.564 20.0855 25.026 19.8759 24.5727C19.6664 24.1207 19.1284 23.9253 18.6751 24.1325Z" fill="#1F5F5B"/>
<path d="M73.6071 47.4858C72.55 46.9362 71.7125 48.5456 72.7807 49.0939C74.3982 49.9262 75.5378 51.7085 75.6143 53.5261C75.6361 54.056 76.1107 54.4318 76.5549 54.3914C77.054 54.3702 77.4414 53.9488 77.4202 53.4508C77.3154 50.9657 75.8191 48.6242 73.6071 47.4858Z" fill="#1F5F5B"/>
<path d="M65.0069 8.72608L64.4854 12.8946C64.3362 14.0792 66.1295 14.3097 66.2795 13.1195L66.801 8.94975C66.9504 7.76263 65.1532 7.5383 65.0069 8.72608Z" fill="#1F5F5B"/>
<path d="M74.1317 10.1265L70.8437 16.0409C70.2657 17.0791 71.8485 17.9583 72.4235 16.9191L75.7115 11.0047C76.2937 9.95624 74.7086 9.08248 74.1317 10.1265Z" fill="#1F5F5B"/>
<path d="M75.9593 20.5355L79.6076 18.1034C80.6033 17.4424 79.6015 15.9349 78.6069 16.5989L74.9563 19.031C73.9623 19.6928 74.9678 21.194 75.9593 20.5355Z" fill="#1F5F5B"/>
</svg>
