<svg width="100" height="88" viewBox="0 0 100 88" fill="none" xmlns="http://www.w3.org/2000/svg">
<g clip-path="url(#clip0_919_11243)">
<path d="M49 70C42.5 74.8333 29 84.6 27 85H25L23 69L9 64.5L3.5 50L4.5 28.5L7 9.5L21.5 1L75.5 2L89.5 4.5L94.5 11.5L97.5 21C97.8333 29.6667 98.3 47.2 97.5 48C96.7 48.8 95.1667 56.6667 94.5 60.5L89.5 67L75.5 70H49Z" fill="white"/>
<path d="M92.4405 67.1492C94.0426 65.3218 96.4269 62.1429 98.0195 57.5997C99.4986 53.3841 99.7036 49.6853 99.65 47.3286C99.6626 46.4181 99.6784 45.3406 99.6942 44.1465C99.8077 35.7942 99.9969 21.8779 99.9969 21.8779C100.158 10.1292 90.8951 0.636426 79.469 0.532455L24.6122 0H24.4229C21.9819 0 19.6418 0.459991 17.4562 1.2571C12.5237 1.96914 7.15286 4.8362 4.38068 8.21997C-0.79782 14.537 0.14516 23.5068 0.00954749 42.1931C-0.0346054 48.2518 -0.0314519 54.5436 2.52311 60.0382C5.9418 67.3918 14.0659 72.2406 22.1554 71.9035C22.5685 77.373 22.9375 81.2073 23.1583 86.1978C23.193 86.9792 23.7764 87.707 24.7194 87.7637C24.691 87.7921 24.6626 87.8204 24.6342 87.8519C26.9901 88.1953 29.5478 87.874 31.9069 87.5495C38.2113 82.5211 44.8027 77.5683 51.1985 72.5651H59.5371C65.8825 72.5651 67.9388 72.1618 73.1551 72.2816C76.4224 72.354 75.7728 72.5116 77.9457 72.4989C81.9952 72.4737 85.2656 72.4139 88.4541 70.6086C89.4791 70.0289 90.974 68.9955 92.4405 67.1492ZM80.1124 67.6596C79.1032 67.7604 78.0813 67.8014 77.0343 67.814C75.9872 67.8266 74.9244 67.8045 73.8616 67.7636C69.6134 67.5934 65.3937 67.0484 61.1361 67.5115C60.2562 67.4926 59.3227 67.4737 58.3418 67.4548C55.3931 67.4012 52.009 67.3571 48.111 67.3256C47.2027 67.1996 31.0207 78.5607 26.29 82.5967C25.9778 77.5525 25.5205 73.0724 25.1893 67.6943C25.1357 66.831 24.4261 66.1567 23.562 66.1378C13.9808 65.9614 6.29503 57.8927 6.50002 48.0155L6.9857 20.7027C7.17809 11.3202 14.6935 3.31445 24.5806 3.31445L79.4406 3.84691C89.0659 3.93828 96.8179 11.9598 96.6823 21.8338C96.6823 21.8338 96.4931 35.7501 96.3796 44.0992C96.3638 45.2933 96.348 46.3708 96.3291 47.2814C96.5372 55.7849 90.8604 66.182 81.7397 67.4706" fill="#1F5F5B"/>
<path d="M65.8168 53.2837C67.2045 54.8401 68.466 52.9498 69.3901 52.3071C69.9199 51.8628 70.702 51.2232 71.8879 50.2844C73.0737 49.3455 74.66 48.1073 76.8014 46.4626C83.8564 41.3838 91.8923 34.1185 88.1487 25.615C86.3795 21.6042 81.7213 18.6773 77.53 18.879C74.4676 19.0522 71.0679 20.9048 68.8728 23.6017C68.7719 23.7278 68.6237 23.8034 68.4755 23.8065C68.3367 23.879 68.2673 23.7372 68.2421 23.712C65.0852 20.1896 59.4367 18.8254 54.5232 20.3913C48.1872 22.4045 45.1028 28.6774 46.7302 34.9314C49.1491 44.2068 60.9569 48.1356 65.82 53.2869L65.8168 53.2837Z" fill="#1F5F5B"/>
<path d="M28.7295 46.8022C28.7295 47.7159 29.4738 48.4595 30.3884 48.4595C31.3029 48.4595 32.0472 47.7159 32.0472 46.8022V36.6194H40.7359C42.9309 36.6194 42.9309 33.305 40.7359 33.305H32.0472V23.1222C32.0472 20.9293 28.7295 20.9293 28.7295 23.1222V33.305H20.0408C17.8458 33.305 17.8458 36.6194 20.0408 36.6194H28.7295V46.8022Z" fill="#1F5F5B"/>
</g>
<defs>
<clipPath id="clip0_919_11243">
<rect width="100" height="88" fill="white"/>
</clipPath>
</defs>
</svg>
