<svg width="142" height="142" viewBox="0 0 142 142" fill="none" xmlns="http://www.w3.org/2000/svg">
<path d="M49.7949 55.9116L49.7677 39.3363C49.6761 39.3525 49.5842 39.3792 49.4938 39.3792C48.8321 39.3792 48.2182 38.957 48.0041 38.2943C47.737 37.4724 48.1887 36.5894 49.0115 36.3223C52.8739 35.0742 56.8128 34.9927 61.7765 36.0776C62.6207 36.2611 63.1571 37.0952 62.9735 37.9394C62.79 38.7857 61.9631 39.318 61.1096 39.1365C61.1054 39.1356 61.102 39.1354 61.0978 39.1345L61.1132 44.3477L75.453 29.6966C76.0659 29.0688 77.0719 29.0764 77.6799 29.6844L112.211 64.2157C113.196 65.1987 112.496 66.8892 111.104 66.8892H111.091L107.053 66.8546V100.436C107.053 101.29 106.368 101.987 105.514 102.002C85.8513 102.345 67.1856 102.279 49.1318 101.837C48.2592 101.837 47.5614 101.127 47.5657 100.262L47.7294 66.3461L43.5289 66.3101C42.2824 66.2997 41.2619 64.6288 42.3359 63.5326L49.7949 55.9116ZM57.9638 38.6081C56.1413 38.402 54.4863 38.4327 52.8989 38.6555L52.922 52.7167L57.9903 47.5383L57.9638 38.6081ZM103.92 98.8959V66.8278L50.8618 66.3729L50.7052 98.7389C68.0565 99.1427 85.4985 99.1957 103.92 98.8959ZM107.29 63.7243L76.5848 33.0186L47.0365 63.2083L107.29 63.7243Z" fill="white"/>
<path d="M69.0112 72.3663C72.581 70.496 77.5707 71.5673 79.7811 74.9371C81.6055 71.9717 85.5653 70.5187 88.8747 71.6006C95.1693 73.6584 97.1725 82.3458 88.1458 88.2434C85.1029 90.2315 81.6495 91.5565 78.716 93.7028C76.4684 91.7164 74.0786 90.4345 71.4792 88.9378C61.1338 82.9814 64.4958 74.7321 69.0112 72.3663Z" fill="white"/>
<path d="M60.0191 21.0554C72.1877 18.1186 85.6808 18.3841 96.7599 23.8196C117.568 31.1968 132.352 49.5613 132.352 71.0088C132.352 87.2732 123.201 102.103 112.967 109.299C109.016 112.077 107.135 121.635 113.896 130.972C115.201 132.77 113.96 135.202 111.848 135.325C110.083 136.168 107.741 136.633 103.508 136.465C101.498 136.386 93.0868 129.121 87.3637 123.172C84.603 123.362 72.4174 126.889 56.3719 122.348C5.07053 107.826 -0.671509 35.7018 60.0191 21.0554ZM84.728 117.919C87.1742 117.396 88.0399 117.392 89.6885 118.969C94.7608 123.893 104.974 128.978 110.516 131.612C103.742 121.686 105.947 110.406 111.165 106.737C120.637 100.08 129.219 86.311 129.219 71.0088C129.219 44.8039 105.561 23.4831 76.4811 23.4831C47.412 23.4831 23.7633 44.8039 23.7633 71.0088C23.7633 102.598 57.6116 123.62 84.728 117.919Z" fill="white"/>
<path d="M33.1989 5.65748C33.9748 5.28225 34.915 5.60445 35.2912 6.38142L41.6701 19.5043C42.0484 20.2833 41.7242 21.2193 40.9462 21.5986C40.1577 21.9783 39.227 21.6434 38.8539 20.8747L32.4749 7.75183C32.0967 6.97282 32.4209 6.03678 33.1989 5.65748Z" fill="white"/>
<path d="M32.8912 24.882C32.4168 25.6057 31.4482 25.8073 30.7224 25.3327L17.6505 16.7514C16.9276 16.2762 16.7257 15.3055 17.2008 14.5836C17.676 13.8576 18.6477 13.6618 19.3696 14.1329L32.4415 22.7143C33.1644 23.1894 33.3663 24.1601 32.8912 24.882Z" fill="white"/>
<path d="M9.66494 31.4647C9.77404 30.6061 10.5581 30.0086 11.4167 30.1086L23.6851 31.6645C24.5436 31.7726 25.1503 32.5578 25.0422 33.4143C24.9359 34.2583 24.1684 34.8803 23.2915 34.7724L11.0211 33.2164C10.1635 33.1063 9.55584 32.3232 9.66494 31.4647Z" fill="white"/>
<path d="M84.3203 52.0658C84.3203 55.449 81.6274 58.2 78.3166 58.2C75.0058 58.2 72.313 55.449 72.313 52.0658C72.313 48.6826 75.0058 45.9316 78.3166 45.9316C81.6274 45.9316 84.3203 48.6826 84.3203 52.0658ZM75.4453 52.0658C75.4453 53.7217 76.7331 55.0677 78.3166 55.0677C79.9001 55.0677 81.188 53.7217 81.188 52.0658C81.188 50.4099 79.9001 49.064 78.3166 49.064C76.7331 49.064 75.4453 50.4099 75.4453 52.0658Z" fill="white"/>
</svg>
