<svg width="113" height="113" viewBox="0 0 113 113" fill="none" xmlns="http://www.w3.org/2000/svg">
<path d="M81.5057 66.5667L78.2586 67.2161L74.3621 65.5925L66.569 55.5264L60.7241 44.8109L59.75 36.6931L61.6983 29.2247L67.8678 24.0293L73.3879 22.7305L79.2328 24.6787L83.7787 31.4977L85.0776 36.6931C87.2423 34.7448 91.7017 30.7833 92.2213 30.5236C92.7408 30.2638 95.9013 29.5494 97.4167 29.2247L103.261 30.8483L106.833 33.7707V37.6673V44.1615L100.664 53.5782L92.546 59.0983L81.5057 66.5667Z" fill="white"/>
<path d="M12.3415 88.971L6.17192 90.5946L3.57422 82.8015L5.19778 78.5802L4.54836 75.3331L7.79548 74.0342L8.1202 69.1635L11.692 67.8647C11.5838 66.9988 11.3024 65.1371 11.0426 64.6175C10.7828 64.098 13.5321 63.7516 14.9392 63.6434L18.8357 57.7986L18.1863 52.9279L22.4076 44.8101C21.7581 43.8359 20.4593 41.8227 20.4593 41.5629C20.4593 41.3032 18.944 38.4241 18.1863 37.017C18.0781 34.744 17.8616 30.1331 17.8616 29.8733C17.8616 29.6135 18.944 26.5179 19.4851 25.0026L27.2782 17.5342L36.3702 15.5859L41.8903 17.5342C43.9468 18.6166 48.1248 20.8463 48.3846 21.1061C48.6443 21.3658 50.6576 24.6779 51.6317 26.3015L54.2294 31.4969L53.58 37.6664L51.9564 42.8618L49.3587 46.1089L45.7869 49.0313L41.2409 50.6549H34.4219L12.3415 88.971Z" fill="white"/>
<path d="M93.0594 29.0881C90.3819 30.0023 88.1543 31.7006 86.2189 33.589C86.1888 32.464 85.8685 31.3531 85.4525 30.3001C84.1074 26.8954 81.8291 23.889 77.8763 22.4382C77.0062 22.1189 74.9172 21.3201 73.4892 21.5087C72.0994 15.7733 68.2679 10.7718 63.0487 8.73147C55.2493 5.67294 46.321 8.50243 41.7386 15.7439C40.4375 15.2864 39.1016 14.9237 37.7295 14.7424C24.2004 13.0199 14.663 25.4214 17.3728 37.0756C18.0161 40.0256 19.3689 42.5132 21.2141 44.8197C19.6506 47.486 18.53 50.1 17.2365 52.0931C17.0515 52.3788 16.9899 52.7277 17.0694 53.0587C17.2704 53.9147 17.5234 54.8965 18.0171 56.8172C17.6655 57.4228 19.2896 54.6232 14.5816 62.7388C13.5254 62.8148 12.5792 63.0177 11.4772 63.0423C10.5348 63.1192 10.0938 63.8608 10.2535 64.5612C10.4124 65.2704 10.4645 66.4166 10.5538 67.3817C9.76945 67.4985 9.00228 67.6407 8.29805 67.6527C7.59532 67.6664 7.05615 68.248 7.07283 68.9282C7.09766 69.9241 6.99376 71.4131 6.96247 72.6867C6.06116 72.9575 5.07571 73.4324 4.26211 73.5338C3.59351 73.6166 3.11153 74.217 3.17482 74.8888C3.33061 76.5036 3.57566 78.1329 4.25399 79.3451C3.71716 80.4424 3.38714 81.5273 2.84863 82.5388C2.72854 82.7644 2.68148 83.0208 2.71232 83.2739C3.0335 85.9483 3.71832 88.0602 4.03816 90.5815C4.10541 91.1079 4.49759 91.5765 5.13427 91.6505C5.77974 92.1658 6.47847 92.7045 7.08317 93.1967C7.98663 93.9321 8.02977 93.6574 13.8405 91.5199C21.5391 79.0183 29.1214 66.2831 35.8798 53.2494C43.4238 53.929 51.3224 49.8898 54.3763 42.996C55.9271 43.3653 57.7844 43.1311 59.2276 42.508C61.5654 53.4619 73.1078 66.6745 75.7291 68.344C76.8394 69.3358 78.422 69.9208 79.9319 69.8545C84.2593 69.6645 104.826 56.9261 109.106 46.4494C110.646 42.6792 110.834 38.2024 108.867 34.6361C106.643 30.6044 100.068 26.6949 93.0594 29.0881ZM73.6099 30.388C73.7483 29.7758 73.8477 29.1595 73.9231 28.542C74.5434 28.9376 74.952 29.5778 74.952 30.3036C74.952 33.1831 70.0284 33.1808 70.0284 30.3036C70.0284 29.4421 70.6032 28.7021 71.4273 28.3497C71.3666 28.8556 71.2885 29.3548 71.179 29.8395C70.8112 31.4554 73.2431 32.0048 73.6099 30.388ZM41.4654 25.256C41.7342 25.3814 42.0424 25.4365 42.7575 26.1335C44.7625 31.1418 36.9872 33.0386 35.3372 28.6122C35.2853 27.0157 36.3581 25.6528 37.7535 25.0868C38.1496 24.9264 38.5703 24.8473 38.9967 24.8087C38.9695 25.8522 39.0001 26.8979 39.1592 27.9359C39.263 28.6191 39.9154 29.0946 40.5791 28.9794C42.1168 28.7445 41.4638 27.2419 41.4654 25.256ZM49.5241 43.8655C45.8922 48.5538 39.461 50.7284 33.872 49.1591C33.317 48.9984 32.7296 49.2451 32.4472 49.7482C25.8877 61.4381 17.4415 75.6775 10.4678 87.2385C9.19527 87.6789 7.65099 88.2699 6.27765 88.7607C5.93871 86.8822 5.48736 85.1909 5.23418 83.3486C5.84497 82.1084 6.14166 81.0088 6.78883 79.8855C7.0566 79.4214 6.99818 78.8388 6.64278 78.4363C6.15756 77.8862 5.91251 76.7064 5.77782 75.7376C6.71796 75.4449 7.59587 75.0204 8.3727 74.9148C9.00073 74.8288 9.46486 74.2835 9.45025 73.649C9.42644 72.6964 9.5231 71.2433 9.55574 70.0496C10.4675 69.9315 11.2711 69.7641 12.0289 69.7234C12.8 69.6823 13.3419 68.9624 13.1827 68.2174C13.0314 67.5142 12.9845 66.3785 12.8922 65.4408C13.7114 65.3444 14.4955 65.2212 15.3054 65.2039C15.6803 65.1812 16.1638 64.9734 16.3894 64.5872C17.0601 63.4314 15.1566 66.7281 20.4302 57.6205C20.5909 57.3413 20.6363 57.0119 20.5584 56.7003C20.5155 56.5326 19.7402 53.4961 19.6172 52.9906C19.7194 52.8239 23.8225 45.3605 23.9079 45.1897C24.2253 44.5729 24.0231 43.7201 23.2815 43.4111C21.5985 41.3599 20.3669 39.1095 19.8038 36.5271C17.4568 26.4109 25.6609 15.7288 37.4098 17.2139C38.4822 17.3557 39.5268 17.6314 40.5515 17.9661C40.1638 18.8464 39.8475 19.5032 39.467 21.0586C36.8196 20.9373 34.1832 22.5343 33.1547 25.0229C31.3118 29.4958 34.7592 33.5849 39.1981 33.5849C42.7407 33.5849 45.3114 31.1073 45.5271 27.9148C45.7042 25.326 44.1641 22.835 41.8788 21.7006C42.3308 19.829 42.7792 19.1439 42.8854 18.9098C53.43 24.0438 55.387 36.252 49.5241 43.8655ZM58.8179 39.9129C57.7452 40.6322 56.1421 40.7557 55.2125 40.6235C57.2356 33.0782 54.2024 21.7535 44.1003 16.7401C48.2654 10.541 55.7906 8.56842 62.1399 11.0521C66.701 12.835 69.6875 17.0794 70.9142 21.6641C67.1685 22.254 63.5154 24.5381 61.3431 28.0398C58.9637 31.8714 58.3991 35.9715 58.8179 39.9129ZM104.185 45.1215C102.074 49.1185 98.9908 52.6936 95.0214 55.7445C91.8211 58.2049 83.9386 64.1228 79.2216 66.4599C79.2216 66.4599 79.2216 66.4599 79.22 66.4599C78.8046 66.666 78.3729 66.7374 77.998 66.6628C76.1759 66.2863 54.1967 44.2793 63.4592 29.3542C65.089 26.7316 68.161 24.6164 71.3886 24.1109C71.4585 24.6509 71.5099 25.1903 71.5309 25.7262C69.2576 26.149 67.5357 28.0393 67.5357 30.3036C67.5357 32.8774 69.759 34.9724 72.4902 34.9724C75.2214 34.9724 77.4447 32.8774 77.4447 30.3036C77.4447 28.2471 76.0161 26.5163 74.0524 25.8956C74.0422 25.2846 74.0069 24.6767 73.9409 24.0722C80.0283 24.8637 82.5882 31.5688 82.9428 37.6939C83.007 38.8067 84.4011 39.2827 85.1336 38.4323C87.4867 35.693 90.2941 32.6664 93.8643 31.4477C102.292 28.5719 109.392 35.2758 104.185 45.1215Z" fill="#1F5F5B"/>
<path d="M17.5009 105.441C18.1646 105.258 18.5541 104.573 18.3707 103.909L16.4315 96.8876C16.2481 96.2238 15.5665 95.8295 14.8995 96.0177C14.2358 96.2011 13.8463 96.8859 14.0297 97.5497L15.969 104.572C16.1533 105.24 16.8454 105.625 17.5009 105.441Z" fill="#1F5F5B"/>
<path d="M19.9458 93.0796C19.532 93.6297 19.6423 94.4119 20.1925 94.8258C22.6007 96.6368 25.2021 98.2093 27.9284 99.5027C28.5516 99.7967 29.2948 99.5316 29.5886 98.9104C29.8839 98.2889 29.6178 97.5456 28.9962 97.2503C26.4225 96.0299 23.9655 94.5434 21.6919 92.8329C21.1353 92.4159 20.358 92.5327 19.9458 93.0796Z" fill="#1F5F5B"/>
<path d="M22.8503 87.9313L33.3256 85.8736C34.0007 85.7405 34.4404 85.0849 34.309 84.4098C34.1759 83.7347 33.5203 83.3063 32.8452 83.4264L22.3699 85.4841C21.6948 85.6172 21.2551 86.2728 21.3865 86.9479C21.5133 87.5924 22.1323 88.0606 22.8503 87.9313Z" fill="#1F5F5B"/>
</svg>
