<svg width="80" height="80" viewBox="0 0 80 80" fill="none" xmlns="http://www.w3.org/2000/svg">
<path d="M48.1799 23.4267C48.1799 15.8486 42.2034 9.68359 34.8562 9.68359C27.509 9.68359 21.5312 15.8486 21.5312 23.4267C21.5312 31.0048 27.509 37.1698 34.8562 37.1698C42.2034 37.1698 48.1799 31.0048 48.1799 23.4267V23.4267ZM23.296 23.4267C23.296 16.8217 28.4821 11.4483 34.8562 11.4483C41.2302 11.4483 46.4152 16.8217 46.4152 23.4267C46.4152 30.0317 41.2302 35.4051 34.8562 35.4051C28.4821 35.4051 23.296 30.0317 23.296 23.4267V23.4267Z" fill="#159947"/>
<path d="M35.3358 16.8112C34.3144 16.0779 32.9673 16.4944 32.5233 17.6872C32.2705 18.3645 32.467 19.14 33.0035 19.5743C33.7134 20.1493 34.8514 20.0075 35.5047 19.4227C35.8574 19.1056 36.0653 18.665 36.0722 18.2186C36.0837 17.674 35.808 17.1478 35.3358 16.8112Z" fill="#159947"/>
<path d="M40.986 29.9996C41.4605 29.9961 41.8465 29.6193 41.8626 29.1453C41.9417 26.626 41.8853 25.1307 41.9619 21.8387C42.2519 21.7895 42.5053 21.6064 42.6254 21.3306C42.7656 21.0089 42.7024 20.6349 42.4634 20.3775C40.0668 17.7948 37.6852 15.763 34.929 13.4106C34.5958 13.1263 34.1041 13.1291 33.7755 13.4169C30.5057 16.272 28.548 18.0878 26.2962 20.3563C25.808 20.8467 26.0442 21.6983 26.758 21.8356V29.0052C26.758 29.4923 27.1532 29.8875 27.6404 29.8875C31.9618 29.8875 36.6455 30.0295 40.986 29.9996V29.9996ZM34.3626 15.2477C36.2904 16.8941 38.0367 18.4066 39.736 20.0955H29.0673C30.6045 18.6031 32.182 17.1612 34.3626 15.2477V15.2477ZM35.1564 28.1943C34.9828 28.1921 33.5126 28.1807 33.0676 28.1743C33.051 27.1841 33.1042 26.185 33.2769 25.138C33.3616 25.1364 33.2337 25.1376 35.184 25.1317L35.1564 28.1943ZM36.0744 23.3647C36.0733 23.3647 36.0721 23.3647 36.0721 23.3647C33.1162 23.3723 32.6443 23.2776 32.0809 23.734C31.665 24.077 31.5834 24.5521 31.5489 24.7537C31.3552 25.8759 31.2903 27.0172 31.3066 28.1551C30.3763 28.1437 29.4366 28.1283 28.5227 28.1246V21.8602H40.1965C40.1406 24.4103 40.1602 26.3792 40.1208 28.2389C39.0664 28.2383 37.9888 28.2206 36.921 28.2101L36.9568 24.2545C36.9615 23.7673 36.5668 23.3647 36.0744 23.3647V23.3647Z" fill="#159947"/>
<path d="M2.77244 73.8242C3.29167 74.6628 3.81082 75.5015 4.32998 76.3401C29.8593 76.6302 50.8919 76.7753 76.4211 77.0654C76.825 75.9373 77.2376 75.1703 77.6427 74.0903C78.0235 73.8126 78.0819 73.4216 77.9657 73.0989C75.3344 65.7231 72.3428 58.0706 69.311 50.2497C69.18 49.9096 68.8526 49.6856 68.4884 49.6856C68.4861 49.6856 68.4827 49.6856 68.4804 49.6856L47.2937 49.8848C55.3375 36.4379 60.4994 20.5214 50.2789 8.72853C47.7082 5.76219 42.1025 3.79799 39.55 3.30057C26.3528 0.730648 16.5756 12.0877 16.6192 23.96C16.6364 28.975 18.3494 33.636 19.8407 37.1367C21.7795 41.6877 24.1409 46.0168 26.8387 50.0452L17.1959 50.1273C16.896 50.1302 16.6169 50.2853 16.4572 50.5398C11.9678 57.6785 6.26876 64.9898 2.09595 72.5394C1.80785 73.0607 2.09327 73.7456 2.77244 73.8242V73.8242ZM20.9975 72.1888L31.6759 62.5002L42.4556 72.2859C34.6732 72.2499 29.0958 72.2281 20.9975 72.1888V72.1888ZM46.795 72.3067C51.5228 69.4299 56.3701 66.7124 61.3022 64.1629C63.0645 67.1005 64.8751 69.7139 67.0088 72.4296C59.9929 72.3774 53.2942 72.3387 46.795 72.3067V72.3067ZM70.9662 59.4177C72.6382 63.7573 74.308 68.1498 75.877 72.5015C73.6355 72.4815 71.4393 72.4635 69.2656 72.4466C66.7687 69.3663 64.8389 66.6169 62.8753 63.3502C65.5541 61.9904 68.2487 60.6703 70.9662 59.4177ZM21.4652 36.4451C20.0383 33.0978 18.3999 28.6527 18.3839 23.9537C18.3503 14.5253 25.0519 4.72348 35.9827 4.72348C48.2424 4.72348 52.8046 16.4509 51.1837 28.2592C49.1908 42.7675 36.362 59.5346 35.3956 59.1192C34.454 58.7161 25.5964 46.1463 21.4652 36.4451V36.4451ZM27.9873 51.8002C29.6639 54.3282 33.1357 60.072 34.7016 60.7414C35.3776 61.0309 35.977 60.9843 36.5751 60.659C37.9409 60.6407 39.7803 60.5156 39.885 60.4109C43.1345 57.1615 44.906 53.8595 46.2297 51.6597L67.8864 51.456C68.8233 53.8746 69.4572 55.5083 70.3298 57.7663C61.4431 61.8567 52.7258 66.5265 44.4041 71.672L22.5645 51.8464L27.9873 51.8002ZM17.6922 51.888L20.1356 51.8672C20.2899 52.3073 20.2647 52.0771 24.3702 55.8682C19.1404 58.8125 14.7579 60.9209 9.81647 63.5559C12.7629 59.2187 15.2802 55.6899 17.6922 51.888ZM7.70932 66.7187C13.4162 63.496 19.2684 60.8105 25.7527 57.1233L30.3629 61.3083C17.6805 72.8513 18.6583 71.8594 18.4481 72.1763C13.8548 72.153 9.19082 72.1268 4.37422 72.0942C5.41835 70.2849 6.54886 68.494 7.70932 66.7187Z" fill="#159947"/>
</svg>
