<svg width="80" height="80" viewBox="0 0 80 80" fill="none" xmlns="http://www.w3.org/2000/svg">
<path d="M11.8453 59.6798C11.8337 60.1448 11.7761 60.4486 11.8129 61.1298C11.9522 62.9563 13.238 64.5518 15.0156 65.0878C15.5606 65.2745 16.3141 65.2931 16.6628 65.2875L18.0196 65.3038C17.8356 67.3599 17.6813 69.4162 17.5995 71.4723C17.5907 71.6065 17.5877 71.8025 17.5968 72.0392C17.6051 72.2579 17.6352 72.478 17.6759 72.6944C17.7569 73.13 17.9168 73.5481 18.1196 73.9422C18.5317 74.7299 19.1894 75.3857 19.9865 75.8002C20.3807 76.0162 20.8153 76.1557 21.2561 76.2475C21.7005 76.3422 22.1924 76.3331 22.4463 76.3391L24.3193 76.3625L26.1921 76.3375C26.4462 76.3316 26.9379 76.3407 27.3822 76.2461C27.8229 76.1543 28.2573 76.0148 28.6513 75.7988C29.4495 75.3857 30.1028 74.7262 30.5156 73.9403C30.7182 73.5466 30.8781 73.1288 30.9592 72.6936C30.9998 72.4774 31.03 72.2575 31.0383 72.0389C31.0474 71.8024 31.0444 71.6066 31.0357 71.4723C30.9535 69.4491 30.8028 67.4256 30.6238 65.4024C33.7514 65.412 36.879 65.417 40.0067 65.4325C43.1241 65.4131 46.2416 65.4079 49.359 65.3979C49.1818 67.4227 49.0348 69.4475 48.9623 71.4723C48.9535 71.6064 48.9505 71.8027 48.9597 72.0402C48.968 72.2596 48.9982 72.4804 49.039 72.6974C49.1203 73.1342 49.2807 73.5536 49.4842 73.9489C49.8967 74.7408 50.5689 75.3839 51.3608 75.8042C51.7554 76.0203 52.1904 76.1601 52.6316 76.252C53.0765 76.3468 53.5689 76.3376 53.8227 76.3437C54.447 76.3472 55.0713 76.371 55.6956 76.358L57.5685 76.3331C57.8227 76.3272 58.3139 76.3363 58.7577 76.2417C59.198 76.15 59.632 76.0107 60.0257 75.7949C60.8249 75.3831 61.4636 74.7111 61.8803 73.9337C62.0823 73.5411 62.2417 73.1246 62.3225 72.6906C62.4073 72.2971 62.4207 71.7303 62.3986 71.4723C62.3055 69.4122 62.149 67.3519 61.9596 65.2918L63.3505 65.2752C63.7024 65.2807 64.4466 65.2613 64.9877 65.0802C65.5654 64.9096 66.1075 64.6221 66.5713 64.2412C67.5027 63.4857 68.1135 62.3315 68.189 61.1254C68.2157 60.4601 68.1605 60.1413 68.1443 59.6822L68.07 58.3881L67.5203 48.9006C67.5518 48.8513 67.5898 48.8066 67.6191 48.7559L67.6402 48.7197C67.7598 48.5138 67.8233 48.2718 67.8106 48.0162C67.3223 38.1969 66.7696 28.3804 66.1446 18.5667C66.2362 18.4091 66.3021 18.2355 66.2992 18.04C66.2613 15.5482 66.1923 11.0121 66.1978 11.3767C66.1988 10.6526 66.1086 9.65838 65.8247 8.85636C65.266 7.18404 64.094 5.72346 62.5658 4.81676C61.8039 4.36159 60.9563 4.04341 60.0789 3.88441C59.6456 3.79901 59.1825 3.77353 58.7624 3.75835L57.6607 3.74387C51.7853 3.65776 45.9098 3.67578 40.0344 3.63672L22.4081 3.73855C21.7902 3.75465 20.7724 3.72205 19.9939 3.875C17.298 4.35219 15.0695 6.27043 14.2155 8.818C13.9236 9.62544 13.8345 10.6116 13.8331 11.3457C13.829 11.5861 13.7129 18.3613 13.7198 17.9553L13.7187 18.0081C13.7152 18.2089 13.7807 18.3966 13.8812 18.5627L13.0109 32.9867L12.2044 48.0044C12.1912 48.2437 12.2456 48.4886 12.3758 48.7109L12.4024 48.7563C12.4241 48.7934 12.4527 48.8264 12.4757 48.8628L11.9197 58.3842L11.8453 59.6798ZM41.6056 13.4792C45.6953 13.714 49.7852 13.8569 53.8748 14.0399L57.2499 14.1708L58.9374 14.2218C59.4935 14.2392 59.938 14.2789 60.4199 14.416C62.3186 14.8949 63.7968 16.4917 64.2543 18.3092C64.2861 18.4356 64.345 18.5493 64.4183 18.6523C64.5997 28.314 64.8523 37.9731 65.1659 47.6294C64.7934 48.04 64.2702 48.2863 63.6593 48.2631L60.2804 48.2304L58.1309 48.2212C56.9215 45.0398 54.7713 41.2533 52.897 38.465C51.1044 35.7702 48.5385 32.4982 46.1799 30.2256C46.7061 30.1808 47.2322 30.1446 47.7584 30.0781C49.4461 29.8461 51.1339 29.5443 52.8216 28.9384C47.4632 27.0143 37.9753 26.9863 32.5686 28.9384C34.2564 29.5478 35.9442 29.8517 37.6319 30.082C40.1481 30.3998 42.7273 30.4683 45.2402 30.3134C45.8226 31.8541 46.5244 33.3148 47.2809 34.7388C48.2609 36.579 49.32 38.3663 50.4816 40.0847C52.2955 42.7963 54.7685 45.9482 57.0947 48.2169C33.6775 48.1366 41.7541 48.1643 40.0069 48.1583L27.6973 48.1966C28.7488 47.7876 29.7806 47.3405 30.7768 46.8249C32.8322 45.7625 34.8885 44.4181 36.5997 42.8573C37.1778 42.8814 37.7559 42.91 38.334 42.9106C41.5313 42.915 45.4755 42.5342 48.4604 41.4565C43.0714 39.5105 33.5832 39.5263 28.2075 41.4565C29.8813 42.0574 31.5551 42.3588 33.2288 42.5899C31.9229 43.0598 30.6574 43.608 29.4373 44.2435C27.3864 45.3107 25.347 46.6399 23.6189 48.2115L19.7334 48.2267L16.3545 48.2596C15.7546 48.2843 15.2388 48.0364 14.8558 47.6137L15.2841 33.0575L15.6125 18.6436C15.6905 18.5371 15.7517 18.4157 15.7857 18.2797C16.2502 16.4198 17.8247 14.8295 19.781 14.3932C20.6924 14.1729 21.9242 14.2446 23.0661 14.1806L26.5278 14.0507C31.0893 13.8469 35.651 13.7065 40.2126 13.425C40.6769 13.4459 41.1413 13.4597 41.6056 13.4792ZM28.4801 71.4723C28.4838 72.4163 27.9951 72.9515 27.3639 73.3035C27.2083 73.387 27.037 73.427 26.8682 73.4604C26.6986 73.4913 26.561 73.482 26.1921 73.4799L24.3193 73.4551L22.4463 73.4784C22.0774 73.4805 21.94 73.4897 21.7705 73.4589C21.6019 73.4256 21.4308 73.3857 21.2752 73.3023C20.6456 72.9486 20.1594 72.4151 20.1617 71.4723C20.0801 69.4224 19.9264 67.3723 19.7433 65.3224C22.7932 65.363 25.8429 65.3817 28.8928 65.3934C28.7134 67.4197 28.5624 69.446 28.4801 71.4723ZM59.8699 71.4723C59.872 72.4161 59.3864 72.9696 58.7424 73.3075C58.5863 73.3912 58.4145 73.4314 58.2454 73.4648C58.0753 73.4957 57.9372 73.4864 57.5685 73.4845L55.6956 73.4595C55.0713 73.4466 54.447 73.4704 53.8227 73.4739C53.4536 73.476 53.3168 73.4853 53.1478 73.4545C52.9796 73.4213 52.8088 73.3815 52.6536 73.2983C52.3345 73.1478 52.0724 72.8889 51.8669 72.5957C51.773 72.4439 51.6856 72.2831 51.6377 72.1078C51.6136 72.0207 51.5902 71.9316 51.5791 71.8403C51.568 71.7662 51.5548 71.6506 51.5516 71.4723C51.4789 69.4441 51.3317 67.4158 51.1541 65.3875C54.2052 65.3753 57.2562 65.3557 60.3074 65.3099C60.1188 67.364 59.9628 69.4182 59.8699 71.4723ZM65.7304 60.935C65.6592 61.7265 65.074 62.4109 64.2827 62.6205C63.9925 62.6907 63.8612 62.6959 63.3505 62.6855L60.7568 62.6546C53.8401 62.5451 46.9234 62.5714 40.0067 62.5281C33.09 62.5624 26.1733 62.5448 19.2566 62.6421L16.6628 62.6732C16.1493 62.6834 16.0267 62.6792 15.7418 62.6088C14.958 62.3971 14.3734 61.6987 14.2926 60.907C14.2652 60.7252 14.2956 60.1642 14.3023 59.7656C14.3051 59.6163 14.4861 49.9553 14.4747 50.5631C15.0717 50.8305 15.7167 50.9806 16.3545 50.9644L19.7334 50.9973C45.4436 51.084 33.2492 51.0897 60.2804 50.9936L63.6593 50.9609C64.3004 50.9758 64.9559 50.8256 65.5634 50.5539C65.566 50.7032 65.735 60.3943 65.7244 59.7865C65.7285 60.1911 65.7505 60.737 65.7304 60.935ZM16.2227 11.4366C16.2628 10.7047 16.3444 10.2159 16.5506 9.63494C17.1499 7.99446 18.6336 6.75426 20.4259 6.48606C20.7181 6.43652 20.9853 6.43519 21.3064 6.42827L22.4081 6.44265L40.0344 6.54448C45.9098 6.50533 51.7853 6.52344 57.6607 6.43732L58.7624 6.42285C59.0764 6.4296 59.348 6.43342 59.6383 6.48287C60.2081 6.57049 60.7622 6.76048 61.2686 7.04421C62.2843 7.60858 63.0935 8.55504 63.4982 9.66149C63.7087 10.2488 63.791 10.7304 63.8291 11.4722C63.8405 11.6666 64.0049 14.4619 63.9961 14.3128C63.0779 13.5319 61.9816 12.9704 60.8046 12.748C60.1928 12.6085 59.5046 12.5922 58.9374 12.6119L57.2499 12.6628L53.8748 12.7938C49.7852 12.9767 45.6953 13.1196 41.6056 13.3544C41.1413 13.3739 40.6769 13.3877 40.2126 13.4086C35.651 13.1271 31.0893 12.9868 26.5278 12.7829L23.0661 12.6531C21.9069 12.6586 20.8088 12.4805 19.4447 12.6908C18.2002 12.8868 17.0269 13.4523 16.0516 14.2663L16.0897 13.6367L16.2227 11.4366Z" fill="#159947"/>
<path d="M59.1699 54.2987C58.3829 53.7799 57.4149 53.6461 56.6704 53.9733C58.1665 54.6069 58.5958 55.9367 58.353 56.7975C58.1311 57.6909 57.3761 58.1731 56.6677 58.1641C55.9537 58.166 55.2075 57.6855 54.9856 56.7943C54.7453 55.9353 55.1738 54.6106 56.6704 53.9733C55.9259 53.6438 54.9582 53.7752 54.1676 54.2911C53.3932 54.8184 52.7959 55.7485 52.6982 56.7921C52.5777 57.8281 52.9476 58.957 53.6924 59.7664C54.4296 60.5859 55.5468 61.0737 56.6622 61.0723C57.7804 61.0752 58.8987 60.5877 59.6353 59.7696C60.3819 58.9626 60.7495 57.8343 60.6326 56.7997C60.5352 55.7574 59.9422 54.8274 59.1699 54.2987Z" fill="#159947"/>
<path d="M25.8418 54.2987C25.0548 53.7799 24.0868 53.6461 23.3423 53.9733C24.8384 54.6069 25.2678 55.9367 25.0249 56.7975C24.803 57.6909 24.048 58.1731 23.3396 58.1641C22.6257 58.166 21.8795 57.6855 21.6575 56.7943C21.4172 55.9353 21.8457 54.6106 23.3423 53.9733C22.5978 53.6438 21.6301 53.7752 20.8395 54.2911C20.065 54.8184 19.4678 55.7485 19.3701 56.7921C19.2496 57.8281 19.6195 58.957 20.3643 59.7664C21.1015 60.5859 22.2187 61.0737 23.3342 61.0723C24.4523 61.0752 25.5705 60.5877 26.3072 59.7696C27.0538 58.9626 27.4214 57.8343 27.3045 56.7997C27.2071 55.7574 26.614 54.8274 25.8418 54.2987Z" fill="#159947"/>
<path d="M46.2183 53.4809L45.6843 53.5394L44.6227 53.6605C43.2073 53.8589 41.7919 54.0503 40.3765 54.3708C41.7919 54.6914 43.2073 54.8828 44.6227 55.0812L45.6843 55.2022L45.7318 55.2075C45.2811 56.2383 44.9995 56.8443 44.583 57.8806L43.8828 57.8469C41.4739 57.7476 38.1365 57.7391 35.4636 57.8417L35.3092 57.462C34.9653 56.58 34.6624 55.917 34.3828 55.2818L36.1302 55.085C37.5456 54.885 38.9611 54.6939 40.3765 54.3708C38.9611 54.0478 37.5456 53.8567 36.1302 53.6567L34.0071 53.4175C33.8808 53.4108 33.9146 53.3906 33.6569 53.3952C32.7224 53.4287 31.9659 54.2986 32.0968 55.2857C32.1053 55.3933 32.152 55.5454 32.1662 55.6006L32.1997 55.7291C32.4276 56.6038 32.6097 57.3494 32.898 58.2884L33.0477 58.7966L33.1226 59.0507C33.1535 59.1338 33.1408 59.1756 33.2809 59.4842C33.5203 59.9762 33.9946 60.3623 34.5119 60.5024C35.1857 60.6394 35.1777 60.5642 35.3902 60.5975C36.8056 60.6533 38.221 60.6694 39.6365 60.6744C43.5889 60.6538 44.1891 60.5667 44.9443 60.5425C45.3344 60.5563 45.9633 60.3657 46.3244 59.9803C46.5174 59.7906 46.6701 59.5563 46.7644 59.3145C46.849 59.0781 46.8308 59.103 46.8692 58.9845C47.1341 58.1244 47.3366 57.3116 47.7008 55.9109C47.7389 55.6963 47.7927 55.7094 47.8671 55.1303C47.8893 54.6627 47.6868 54.2199 47.3779 53.9223C47.0698 53.6181 46.6255 53.4608 46.2183 53.4809ZM33.8266 55.3536C33.7567 55.3453 33.8983 55.3368 33.9729 55.3284C33.9693 55.3298 33.9682 55.335 33.9646 55.3363C33.9187 55.3541 33.8684 55.3617 33.8266 55.3536ZM44.3911 58.3341C44.3929 58.329 44.3986 58.3242 44.4005 58.3189C44.3898 58.345 44.3829 58.3608 44.3911 58.3341Z" fill="#159947"/>
</svg>
