<svg width="64" height="64" viewBox="0 0 64 64" fill="none" xmlns="http://www.w3.org/2000/svg">
<path fill-rule="evenodd" clip-rule="evenodd" d="M34.8561 3.41174C34.8647 1.83381 36.151 0.561678 37.7289 0.570357L60.586 0.69607C62.1578 0.704715 63.4275 1.98135 63.4275 3.55317V26.2846C63.4275 27.8626 62.1483 29.1417 60.5703 29.1417C58.9924 29.1417 57.7132 27.8626 57.7132 26.2846V6.39464L37.6975 6.28456C36.1195 6.27588 34.8474 4.98968 34.8561 3.41174ZM3.42746 34.856C5.00541 34.856 6.2846 36.1352 6.2846 37.7132V57.8446H26.2846C27.8626 57.8446 29.1417 59.1238 29.1417 60.7017C29.1417 62.2797 27.8626 63.5589 26.2846 63.5589H3.42746C1.8495 63.5589 0.570312 62.2797 0.570312 60.7017V37.7132C0.570312 36.1352 1.8495 34.856 3.42746 34.856Z" fill="white"/>
</svg>
