<svg width="92" height="92" viewBox="0 0 92 92" fill="none" xmlns="http://www.w3.org/2000/svg">
<path d="M72.5934 51.15C75.4019 48.5932 78.3736 45.8392 80.906 42.9857C82.9361 40.6983 83.8966 39.0048 82.0671 35.3054C82.0377 35.1631 82.0287 35.0193 81.9789 34.8793C81.5798 33.7609 80.5982 32.9794 79.4144 32.84L75.0016 32.325C78.9851 28.8952 78.9197 29.2995 78.9314 26.8951C79.1447 26.2265 78.9806 25.5656 78.5674 25.091C75.0243 21.0225 75.0947 20.794 74.2061 20.7408C73.8097 20.7098 73.3895 20.8584 73.0857 21.1313C70.0565 23.8555 62.4713 30.0803 61.6535 30.7642L58.6173 30.406C55.5141 23.3527 50.8053 11.0825 46.1163 8.31226C45.0366 7.67435 42.8519 6.5134 41.5665 6.90969C41.409 6.89284 41.2574 6.85634 41.0934 6.86526C39.9042 6.89829 38.8578 7.59128 38.3624 8.67204L28.4373 30.2312C28.2906 30.5523 27.9907 30.7862 27.6538 30.8522L4.2561 34.9038C1.72711 35.3543 0.800249 38.5101 2.69044 40.2501L20.1294 56.3302C20.3923 56.5786 20.5165 56.9314 20.4729 57.2841L17.1011 80.7783C16.7489 83.2462 19.0613 84.6869 21.5878 84.801C28.2215 85.7058 41.8524 85.1976 41.8524 84.0609C41.8524 83.3952 36.7789 82.8554 30.5204 82.8554C29.3907 82.8554 28.3018 82.8735 27.2723 82.9063C28.3499 82.3238 39.5266 75.7767 44.2944 72.7268C65.5939 83.0212 64.6737 83.1414 66.2377 83.0533C68.0416 83.4945 70.2092 82.183 70.9765 80.3544C71.8926 78.171 71.42 75.6826 70.9291 73.3661C68.0942 59.5965 67.7542 59.7521 67.6372 56.4737C69.2438 54.6137 70.8918 52.699 72.5934 51.15ZM74.066 22.9783C75.5388 24.672 76.3659 25.6824 76.9701 26.2827C64.7949 36.3994 56.5108 43.828 46.7495 53.3931C41.1605 48.0315 37.673 45.304 32.323 39.2605C33.8443 37.8225 35.0762 36.6016 36.4849 35.2704C45.8643 45.224 45.8549 46.223 46.8539 46.2446C47.3824 46.2492 47.3798 46.2591 50.5428 43.1152C54.8776 38.8117 70.2411 26.4065 74.066 22.9783ZM44.2868 70.4621C43.3725 70.0142 42.297 70.0499 41.4065 70.5466L20.7054 82.1629C19.9225 82.6035 18.9824 81.9608 19.1094 81.0663L22.4838 57.555C22.6106 56.5508 22.2513 55.5414 21.514 54.8451L4.06584 38.7578C3.40853 38.1515 3.7343 37.0585 4.60754 36.9021L28.0211 32.8473C29.0213 32.6524 29.8682 31.9885 30.283 31.0755L40.2068 9.51895C40.5443 8.78391 41.6654 8.58408 42.1345 9.46875L53.2183 30.4499C53.6992 31.349 54.5858 31.9627 55.5992 32.0929L59.5226 32.5557C50.2138 40.4366 50.6512 40.1547 48.2105 42.5703C40.9369 34.833 40.702 33.4999 38.5766 33.1693C37.9158 33.0666 36.754 32.896 36.085 33.1521C36.0561 33.1631 36.0453 33.1803 36.0439 33.2009C35.2659 33.4074 35.3754 33.596 30.7732 37.9327C30.073 38.594 30.0201 39.7177 30.6556 40.4384C36.4083 46.9595 40.007 49.6816 46.0493 55.5374C46.0663 55.554 46.0888 55.5596 46.1067 55.5747C46.2244 55.7044 46.3341 55.8313 46.5539 55.9118C47.4178 56.2278 48.5224 56.0318 49.2047 55.4055C56.9774 48.2702 64.9119 41.0745 72.9158 34.1248L79.1792 34.8556C80.072 34.9618 80.444 36.0351 79.8292 36.6709L63.2834 53.7089C62.5713 54.4659 62.2701 55.5071 62.4775 56.4835L67.1216 79.749C67.2986 80.6226 66.4026 81.3219 65.5982 80.9368L44.2868 70.4621Z" fill="white"/>
<path d="M74.1891 7.53135C73.8178 9.21658 73.6064 10.9441 73.5628 12.667C73.5483 13.2272 73.9909 13.6929 74.5511 13.7074H74.5776C75.1259 13.7074 75.5777 13.2701 75.5923 12.7185C75.6319 11.1251 75.8274 9.52707 76.171 7.96868C76.2912 7.42103 75.9463 6.87998 75.398 6.75909C74.8603 6.63621 74.3093 6.9837 74.1891 7.53135Z" fill="white"/>
<path d="M83.4931 9.44297C83.0968 9.04991 82.452 9.05519 82.0583 9.45288C80.5957 10.9366 79.2546 12.5604 78.0708 14.2793C77.6028 14.9609 78.1049 15.8694 78.9058 15.8694C79.9728 15.8694 79.7971 14.6366 83.5037 10.8785C83.8974 10.4795 83.8922 9.8367 83.4931 9.44297Z" fill="white"/>
<path d="M89.2921 17.1367C89.1559 17.1367 82.6066 17.3738 82.7428 17.3785C82.1825 17.3996 81.7452 17.87 81.7664 18.4302C81.7862 18.9772 82.2354 19.4073 82.7784 19.4073C82.9147 19.4073 89.4639 19.1702 89.3278 19.1655C89.888 19.1443 90.3253 18.674 90.3042 18.1138C90.2843 17.5668 89.8351 17.1367 89.2921 17.1367Z" fill="white"/>
</svg>
