<svg width="181" height="180" viewBox="0 0 181 180" fill="none" xmlns="http://www.w3.org/2000/svg">
<rect x="0.664062" width="180" height="180" rx="90" fill="#F9F9F9"/>
<path d="M64.0291 100.073H64.0422L66.9024 100.048V125.558C66.9024 126.341 67.5297 126.979 68.3119 126.992C82.9647 127.246 96.9347 127.224 111.545 126.867C112.338 126.867 112.983 126.223 112.979 125.426L112.853 99.6539L115.843 99.6282C117.026 99.6182 117.875 98.0787 116.922 97.1041L91.5294 71.1609C90.9641 70.5838 90.047 70.5953 89.4907 71.1497L63.0154 97.625C62.1143 98.522 62.7529 100.073 64.0291 100.073ZM92.56 124.271C89.7288 124.286 86.8718 124.286 84.0037 124.277V109.891H92.56V124.271ZM95.4276 124.248V108.457C95.4276 107.665 94.7854 107.023 93.9938 107.023H82.5699C81.7783 107.023 81.1361 107.665 81.1361 108.457V124.271C77.3896 124.249 73.6113 124.212 69.77 124.149V100.023C80.6025 100.434 92.4207 98.2426 110.001 102.828L110.104 124.031C105.233 124.144 100.343 124.208 95.4276 124.248ZM90.4933 74.2021L112.6 96.7886L67.5204 97.1751L90.4933 74.2021Z" fill="#1F5F5B"/>
<path d="M92.626 87.9553C91.6823 84.455 86.0855 83.8691 84.7549 87.4204V87.4222C84.1836 88.9522 84.6783 90.7912 85.9572 91.8945C88.9991 94.516 93.6405 91.7429 92.626 87.9553Z" fill="#1F5F5B"/>
<path d="M87.62 146.985C92.6293 150.788 129.054 149.739 129.054 147.302C129.054 144.837 105.423 145.05 99.5447 145.385C113.821 139.063 126.877 131.232 137.602 119.489C149.287 106.695 155.156 88.2044 151.442 71.2804C148.292 56.9322 135.479 46.2775 117.918 48.4437C114.074 48.4974 110.202 49.262 106.557 50.8425C97.9306 54.5795 94.9658 59.4588 93.3242 61.3564C88.8981 62.3958 87.2413 58.5635 84.4492 55.3817C69.206 38.0115 37.2646 51.301 30.3629 74.8927C26.5656 87.8764 29.7394 103.22 38.4487 113.983C51.7462 130.419 79.1993 142.627 87.62 146.985ZM33.1148 75.6973C39.6184 53.46 65.0856 43.5105 81.6221 60.8475C83.6627 62.9853 87.7619 70.0764 93.7387 65.0024C97.0027 62.2285 98.4385 57.4886 107.696 53.473C139.853 39.5525 165.982 90.1103 123.569 124.615C113.203 133.051 101.294 138.632 89.6781 143.925C89.2958 144.027 88.9077 144.124 88.5229 144.224C81.755 140.755 53.7839 128.375 40.6779 112.18C32.5417 102.126 29.5732 87.8055 33.1148 75.6973Z" fill="#1F5F5B"/>
<path d="M39.7966 40.4063C39.2048 39.8836 38.2974 39.9368 37.7728 40.5333C37.2482 41.127 37.3061 42.0334 37.8998 42.5571C39.7835 44.2186 41.4545 46.1127 42.8677 48.1878C43.3167 48.8447 44.2112 49.0096 44.8598 48.5649C45.5151 48.1197 45.685 47.2272 45.2388 46.5729C43.6892 44.3008 41.8596 42.2257 39.7966 40.4063Z" fill="#1F5F5B"/>
<path d="M48.0725 31.1231C47.4321 31.5899 47.2939 32.487 47.7607 33.1264C49.6575 35.7224 50.8412 38.9158 51.0913 42.1167C51.2428 44.0221 54.0999 43.7921 53.9515 41.8927C53.6547 38.1149 52.3142 34.4986 50.0757 31.4349C49.609 30.7946 48.7147 30.6527 48.0725 31.1231Z" fill="#1F5F5B"/>
<path d="M60.686 31.7782L59.6461 40.8003C59.5565 41.5863 60.1203 42.2976 60.9063 42.3882C61.6886 42.4794 62.4042 41.9171 62.4951 41.127L63.535 32.1068C63.6264 31.3208 63.0607 30.6086 62.2748 30.5181C61.4664 30.4238 60.7756 30.9913 60.686 31.7782Z" fill="#1F5F5B"/>
</svg>
