<svg width="181" height="180" viewBox="0 0 181 180" fill="none" xmlns="http://www.w3.org/2000/svg">
<rect x="0.332031" width="180" height="180" rx="90" fill="#F9F9F9"/>
<path d="M152.551 88.9032C148.729 84.2117 142.815 68.1136 141.684 61.8244C142.258 61.52 142.806 61.2268 143.307 60.9567C144.005 60.5815 144.265 59.7115 143.889 59.0132C143.513 58.3187 142.644 58.0592 141.946 58.4326C135.315 62.0078 129.822 64.5861 128.587 64.7019C127.799 64.7765 127.22 65.4766 127.294 66.2645C127.351 66.8703 127.301 67.1029 127.352 67.4335C113.523 73.905 105.372 65.4757 96.964 65.9037C84.4892 59.7866 72.9784 67.9309 61.6343 65.878C57.1717 65.0721 53.0148 62.286 48.7261 59.8684C49.1377 59.1167 48.7739 57.6147 47.505 57.5184C45.1728 56.0904 37.2078 51.1701 36.1485 50.5354C35.468 50.1228 34.5887 50.3468 34.1807 51.0245C33.7833 51.6867 33.9904 52.5333 34.6287 52.953C34.4241 58.7331 31.2472 74.7681 28.0282 79.6263C27.5904 80.2854 27.7705 81.1759 28.4314 81.6128C29.0881 82.0506 29.9808 81.8704 30.4179 81.2095C33.8895 75.9716 36.7686 61.4371 37.3854 54.6553C40.4556 56.5443 44.0709 58.777 45.7712 59.8191C43.7997 70.5287 41.6254 83.557 38.1361 93.7539L35.1226 91.98C33.7216 91.1597 32.2152 92.9508 33.3651 94.1807C33.5057 94.8806 33.623 95.617 33.8083 96.2467C35.6501 97.6036 38.1156 99.1156 40.2257 99.9995C40.6853 99.7452 41.0297 98.8255 41.1451 98.313C42.9757 99.4925 44.8028 101.136 46.6335 102.316C43.7606 105.353 47.9655 114.894 53.9983 113.321C53.1617 118.824 58.2727 122.496 62.9817 121.28C62.9148 126.33 67.8972 130.169 72.8195 128.493C74.5833 134.98 82.8314 136.748 86.2301 132.291C89.2693 132.889 92.5733 133.569 97.5268 131.309C101.705 133.123 106.302 130.092 106.912 126.287C111.209 128.38 116.057 124.996 116.507 121.22C121.168 122.511 125.216 118.249 124.87 114.074C130.54 110.858 136.366 107.512 142.039 104.294C142.117 104.25 142.198 104.301 142.215 104.388C142.31 104.876 142.888 105.554 143.302 105.646C145.084 105.209 149.647 103.317 151.209 102.353C151.68 101.188 151.652 101.196 151.368 98.9347C151.698 97.7541 150.609 96.8912 149.609 97.1832C147.717 97.7335 145.917 98.5333 144.232 99.5374C137.165 90.1801 131.96 78.1961 130.229 67.2204C132.369 66.5192 135.841 64.8472 139.034 63.2075C140.573 70.3936 146.366 85.851 150.328 90.7142C150.831 91.3296 151.736 91.42 152.345 90.9195C152.959 90.4211 153.052 89.5175 152.551 88.9032ZM57.2582 107.199C57.2484 107.218 57.2501 107.239 57.2412 107.258C56.6579 107.852 56.0946 108.398 55.5559 108.852C53.869 109.408 51.7378 108.651 50.8853 107.089C49.9927 105.451 50.5918 103.109 52.1251 102.055C52.1481 102.053 52.1691 102.063 52.1922 102.06C54.7546 101.727 56.2472 103.561 56.6477 104.134C57.4066 105.22 57.6521 106.453 57.2582 107.199ZM64.6858 117.054C60.4861 118.814 56.3915 114.726 57.884 110.616C58.5019 110.054 59.117 109.451 59.7543 108.798C62.8292 105.642 65.0565 103.682 67.912 105.121C69.5213 105.933 70.3829 107.239 70.8319 109.327C69.6602 110.646 65.8079 114.926 64.6858 117.054ZM73.0293 124.22C70.8983 125.808 67.8679 124.718 67.1671 122.225C66.8936 121.249 66.8944 119.706 67.0313 118.595C74.7291 109.091 73.5162 110.602 73.6216 110.431C74.8621 110.353 75.8577 110.469 76.682 110.81C78.0231 111.363 79.312 112.993 79.2416 116.203C79.1091 116.394 74.8305 122.861 73.0293 124.22ZM83.2238 123.61C82.3786 125.726 81.8614 128.489 82.6009 130.063C81.7878 130.358 80.9582 130.403 80.0911 130.131C78.0546 129.493 76.2527 127.781 75.5305 125.886C77.7579 123.327 79.6197 120.875 81.199 118.433C82.495 118.361 83.8511 119.582 83.9193 120.89C83.9622 121.687 83.6374 122.576 83.2238 123.61ZM85.4013 125.985C85.8079 124.692 86.4504 123.579 86.6999 122C87.389 122.532 93.3345 127.232 94.6664 128.296C90.9018 130.115 87.4305 128.898 85.4013 125.985ZM116.815 116.484C113.372 116.023 102.317 104.114 100.096 101.425C99.5933 100.814 98.6897 100.729 98.0783 101.233C97.4678 101.737 97.381 102.64 97.886 103.251C100.977 106.993 110.612 116.618 113.241 118.171C112.409 121.375 109.07 123.091 106.047 122.066C103.822 121.308 102.845 120.014 93.2868 110.312C92.7332 109.748 91.824 109.738 91.2592 110.297C90.6954 110.851 90.688 111.76 91.2443 112.324C100.194 121.397 101.215 122.65 103.301 123.91C102.721 126.509 100.806 127.427 99.3338 127.411C96.6674 127.364 85.6119 116.222 82.1201 115.636C82.2037 112.8 80.7026 109.368 77.777 108.159C76.553 107.655 75.1125 107.474 73.4241 107.578C72.8845 105.744 71.3584 103.648 69.203 102.56C65.5201 100.702 62.4727 102.395 60.0124 104.552C58.6419 100.182 53.5838 98.2275 50.9245 99.4436C47.8977 97.0754 44.6922 94.9514 41.3849 93.097C44.3675 83.8009 46.3718 72.54 48.1346 62.8333C52.3132 65.2393 56.4383 67.8552 61.1256 68.7009C71.4007 70.5525 82.2139 64.6746 91.8004 67.0527C81.6362 70.6021 71.4954 77.9114 69.5615 88.4701C68.8873 92.1554 70.2244 95.7279 74.0074 96.2123C79.9778 97.951 85.6995 89.6551 88.5611 87.5762C90.5188 86.1539 92.7959 85.5154 95.174 85.9595C101.909 90.5098 118.094 107.612 118.269 107.804C122.45 112.403 120.205 116.93 116.815 116.484ZM140.771 99.6373C134.256 101.793 128.033 105.087 122.592 109.26C121.602 106.979 120.179 105.551 118.148 103.578C111.586 97.1797 102.704 86.7366 94.0534 81.8971C94.2913 81.8727 94.5247 81.8548 94.7346 81.8648C95.5215 81.8181 96.1843 81.258 96.2039 80.4665C96.2235 79.6749 95.5971 79.0177 94.8055 78.9972C91.993 79.0233 87.7792 80.7446 85.7405 82.8823C82.4363 86.3517 80.4929 91.6275 76.3245 93.1636C73.2221 94.3101 71.8218 92.0501 72.3824 88.9854C74.4445 77.7348 88.6525 70.2085 95.9173 68.8969C103.605 67.4987 112.494 77.0423 127.904 70.3333C129.942 80.3719 134.586 90.9477 140.771 99.6373Z" fill="#1F5F5B"/>
<path d="M134.09 71.6917C133.876 72.2499 133.901 72.8678 134.155 73.3775C134.819 74.7281 136.804 74.9134 137.645 73.6408C138.223 72.7664 137.945 71.5972 137.096 70.9953C136.364 69.7948 134.631 70.2699 134.09 71.6917Z" fill="#1F5F5B"/>
<path d="M38.8975 64.5284C40.0604 65.3677 41.7909 64.7042 42.0872 63.2924C42.2263 62.6334 42.0134 61.9426 41.5187 61.446C40.2503 60.1753 38.1484 60.9968 38.0723 62.7865C38.0424 63.4866 38.3523 64.14 38.8975 64.5284Z" fill="#1F5F5B"/>
<path d="M80.9425 45.377C80.2246 45.7093 79.9138 46.5625 80.247 47.2813L85.6481 58.8919C85.9839 59.6122 86.8385 59.92 87.5534 59.5864C88.2712 59.2522 88.5821 58.4009 88.2488 57.6821L82.8477 46.0715C82.5135 45.3527 81.6622 45.0409 80.9425 45.377Z" fill="#1F5F5B"/>
<path d="M96.4117 47.2084L93.3938 57.5925C93.1268 58.5096 93.8179 59.4258 94.7716 59.4258C95.3924 59.4258 95.9655 59.0188 96.1476 58.3915L99.1655 48.0075C99.3867 47.2476 98.9489 46.4523 98.1891 46.232C97.4311 46.0117 96.633 46.4467 96.4117 47.2084Z" fill="#1F5F5B"/>
<path d="M109.591 55.4323L102.903 59.6012C102.23 60.0194 102.025 60.9044 102.443 61.5765C102.869 62.2591 103.761 62.448 104.418 62.0357L111.107 57.8668C111.779 57.4468 111.984 56.5637 111.566 55.8916C111.146 55.2176 110.26 55.0122 109.591 55.4323Z" fill="#1F5F5B"/>
</svg>
