<svg width="180" height="180" viewBox="0 0 180 180" fill="none" xmlns="http://www.w3.org/2000/svg">
<rect width="180" height="180" rx="90" fill="#F9F9F9"/>
<path d="M147.898 146.394C148.851 145.05 148.183 132.104 148.099 130.448C148.099 130.448 148.099 130.448 148.099 130.446C148.039 129.315 147.17 128.41 146.074 128.342C139.652 127.961 132.955 127.595 126.538 127.516C126.787 125.098 126.499 116.834 126.392 114.529C131.109 114.537 134.649 114.334 139.476 114.362C140.269 113.834 142.151 112.676 142.343 112.542C143.81 111.522 143.049 97.9347 142.961 96.2046C142.905 95.0657 142.034 94.1602 140.936 94.0986C110.605 92.2798 117.227 94.1333 96.1133 93.0503C103.749 88.565 106.095 78.5415 106.664 70.4431C107.585 69.3381 108.439 67.9089 108.748 66.1708C109.158 63.8718 108.414 60.4305 109.104 59.9121C109.795 61.1909 111.898 61.0936 113.401 60.5975C114.94 60.0894 116.292 59.1468 117.619 58.2171C139.466 42.9124 139.956 42.769 141.788 40.6402C142.54 39.7669 143.157 38.7585 143.571 37.6852C146.545 32.4831 142.54 27.5679 136.914 28.2716C129.548 29.2307 110.436 47.3724 105.051 52.4655C104.789 52.7129 104.292 53.7033 104.317 54.353C104.326 54.5728 104.392 54.7796 104.488 54.97C102.604 56.8734 102.547 58.4473 102.264 60.4448C102.074 61.7835 101.858 63.2654 101.593 64.3771C96.1929 64.4383 90.4756 64.5685 84.5816 64.7687C81.0381 64.8733 77.4797 65.7825 74.2891 67.4011C69.5664 69.8084 57.3798 80.8718 51.3029 92.2576C37.2949 91.7854 32.3545 92.6457 31.1045 92.7133C30.5687 92.7581 29.568 92.8403 28.9836 94.0482C28.3539 95.3465 28.384 105.823 28.4011 106.803C28.4708 110.459 28.613 111.386 29.7687 111.67C30.3491 112.4 30.9283 113.192 31.5103 113.851C37.2805 114.567 43.401 114.606 49.2414 114.614C49.0209 118.788 48.8882 124.581 49.1615 127.14C44.5949 127.141 40.4874 127.293 36.0781 127.709C34.0544 127.892 33.5781 129.354 33.6174 131.384C33.644 132.778 33.2775 135.652 33.3971 141.798C33.498 146.712 33.7904 146.521 35.7349 146.839C54.6545 152.685 124.469 152.293 150.852 150.995C151.568 150.959 151.868 149.986 151.327 149.478C149.883 148.12 149.077 147.404 147.898 146.394ZM137.284 31.1168C140.872 30.6402 143.103 33.5969 140.73 36.8036C139.455 38.521 138.698 38.8144 123.07 49.1264C122.037 47.0522 120.255 45.3519 118.151 44.3722C121.393 41.5547 132.969 31.6771 137.284 31.1168ZM115.689 46.5355C117.864 47.0695 119.754 48.6748 120.638 50.7308L111.631 56.6743C111.439 55.0125 110.451 53.5152 109.035 52.655C111.204 50.6172 113.417 48.5663 115.689 46.5355ZM106.186 96.6601C117.046 95.6323 128.881 96.2562 140.125 96.9233C140.244 99.3344 140.55 107.787 140.351 110.171C135.823 110.759 106.341 110.213 106.059 110.171C105.804 106.886 106.163 96.854 106.186 96.6601ZM123.487 113.816C123.608 116.274 123.911 124.72 123.713 127.063C120.028 127.55 90.9236 127.289 89.4189 127.063C89.1026 122.988 89.5236 113.747 89.5477 113.554C100.403 112.53 111.853 113.132 123.487 113.816ZM102.865 96.2886C103.157 102.904 103.093 109.344 103.074 109.542C99.2314 110.049 70.4896 109.79 68.789 109.54C68.6203 107.293 68.6393 103.294 68.7311 101.033C74.7595 100.301 82.8346 98.413 90.1657 95.6557C92.883 95.7077 100.136 96.1235 102.865 96.2886ZM54.1465 92.9953C54.5225 92.4551 58.9301 84.0365 68.1244 75.879C70.5316 73.7502 72.7434 71.408 75.5885 69.957C78.4039 68.5306 81.5422 67.7279 84.6731 67.6364C89.5902 67.4674 94.3719 67.35 98.9551 67.2805C98.0158 68.0056 97.0193 68.6644 96.3285 68.947C95.5967 69.2476 95.2457 70.084 95.5444 70.8177C95.8483 71.5575 96.6927 71.8983 97.4151 71.6018C99.1065 70.9091 103.681 67.7129 104.282 65.4726C104.631 64.1694 104.883 62.4052 105.103 60.8481C105.204 60.1387 105.299 59.4647 105.396 58.8934C105.582 57.8058 106.848 56.2073 108.402 55.9548C108.567 56.2064 108.71 56.4738 108.792 56.7632C107.819 56.9876 106.138 58.2458 105.955 60.6614C105.827 62.3247 106.171 64.2855 105.925 65.6667C105.325 69.0349 101.799 71.0106 98.8881 72.6062C98.1936 72.9852 97.9397 73.8571 98.3206 74.5516C98.7052 75.2572 99.5883 75.4956 100.266 75.1191C101.352 74.524 102.457 73.9033 103.519 73.1901C101.662 88.0095 95.3818 90.5807 89.4077 92.8758C72.6274 99.2414 57.5817 99.3438 54.8839 98.3198C52.2872 97.3821 52.7987 95.3912 54.1465 92.9953ZM31.3715 109.06C31.1097 105.595 31.4051 96.4046 31.504 95.5567C31.794 95.5421 38.171 94.7355 50.2627 95.0928C49.0246 102.436 58.6983 101.948 65.6341 101.334C65.6623 102.601 65.8261 107.13 65.66 109.06C61.1906 109.659 32.6535 109.249 31.3715 109.06ZM70.6653 144.06C66.9645 144.549 37.8762 144.283 36.373 144.062C36.0947 140.476 36.4184 131.245 36.5 130.551C47.4273 129.517 59.3548 130.161 70.4413 130.812C70.5598 133.217 70.8636 141.69 70.6653 144.06ZM52.0032 126.587C51.7151 122.875 52.0682 113.584 52.132 113.078C63.0994 112.043 74.9824 112.687 86.0714 113.339C86.1993 115.935 86.4929 124.249 86.2974 126.587C82.5346 127.085 53.4516 126.804 52.0032 126.587ZM108.159 144.415C104.697 144.872 75.421 144.647 73.8653 144.417C73.5489 140.328 73.97 131.097 73.9941 130.904C85.1145 129.883 96.4723 130.493 107.934 131.167C108.055 133.625 108.352 142.125 108.159 144.415ZM145.487 144.415C142.025 144.872 112.757 144.648 111.195 144.417C110.974 141.572 111.157 132.31 111.322 130.904C122.473 129.884 133.816 130.494 145.263 131.167C145.388 133.735 145.683 142.077 145.487 144.415Z" fill="#1F5F5B"/>
<path d="M61.9051 91.9814C62.5749 92.4052 63.4623 92.2044 63.8841 91.5371C66.7462 87.0116 70.6593 83.119 75.2016 80.2775C75.8737 79.8574 76.0772 78.9725 75.6572 78.3022C75.2371 77.632 74.3521 77.4285 73.6819 77.8467C68.7774 80.9141 64.5506 85.1185 61.4608 90.0024C61.037 90.6727 61.2368 91.5576 61.9051 91.9814Z" fill="#1F5F5B"/>
</svg>
