<svg width="24" height="24" viewBox="0 0 24 24" fill="none" xmlns="http://www.w3.org/2000/svg">
<g clip-path="url(#clip0_919_12996)">
<path d="M12 24C18.6274 24 24 18.6274 24 12C24 5.37258 18.6274 0 12 0C5.37258 0 0 5.37258 0 12C0 18.6274 5.37258 24 12 24Z" fill="#7C519B"/>
<path d="M11.9351 7.04365C12.0111 6.97379 12.065 6.96392 12.3298 6.97219C12.4687 6.97699 12.6708 6.99299 12.7818 7.00605C13.3412 7.07592 13.7938 7.21085 14.2892 7.45245C14.777 7.69139 15.0895 7.91699 15.5026 8.32792C15.889 8.71592 16.1039 9.00979 16.3316 9.46605C16.6487 10.1026 16.8292 10.8594 16.8602 11.6922C16.8714 11.9765 16.8634 12.0402 16.7986 12.1207C16.6748 12.2786 16.4031 12.2525 16.3108 12.0754C16.281 12.017 16.2727 11.9666 16.2634 11.7389C16.2471 11.3898 16.2228 11.1645 16.1738 10.8946C15.9818 9.83779 15.4748 8.99352 14.665 8.38792C13.9898 7.88179 13.2924 7.63432 12.3788 7.58125C12.0695 7.56365 12.0159 7.55219 11.946 7.49832C11.8162 7.39565 11.8095 7.15565 11.9351 7.04365ZM13.8732 9.13485C13.5463 8.94019 13.0634 8.79592 12.6231 8.75992C12.4631 8.74685 12.3756 8.71459 12.3156 8.64472C12.2228 8.53912 12.2132 8.39619 12.2911 8.27752C12.3756 8.14632 12.5055 8.12499 12.894 8.18312C13.8812 8.32792 14.6458 8.78579 15.1463 9.52952C15.4284 9.94819 15.6036 10.4405 15.6639 10.9682C15.6844 11.1615 15.6844 11.5135 15.6615 11.5719C15.641 11.6271 15.5722 11.7021 15.5138 11.733C15.4506 11.7653 15.3151 11.7621 15.2404 11.7231C15.1156 11.6602 15.078 11.5591 15.078 11.2866C15.078 10.8658 14.9692 10.4226 14.7807 10.0789C14.5658 9.68525 14.2538 9.36099 13.8732 9.13485ZM14.4228 11.2994C14.3271 11.3869 14.1495 11.3901 14.042 11.3077C13.9644 11.2487 13.9396 11.1869 13.9218 11.0202C13.901 10.7978 13.862 10.6415 13.7948 10.4973C13.6519 10.1906 13.3999 10.0311 12.9738 9.97912C12.774 9.95512 12.7135 9.93219 12.6487 9.85565C12.5298 9.71459 12.5756 9.48579 12.7399 9.40099C12.8015 9.37085 12.8271 9.36712 12.9642 9.37539C13.0484 9.38019 13.1738 9.39459 13.2404 9.40925C13.5607 9.47752 13.8066 9.59939 14.0159 9.79565C14.2863 10.0509 14.4343 10.3591 14.4994 10.8023C14.5434 11.0917 14.5252 11.2053 14.4228 11.2994ZM16.8519 15.565C16.7322 15.8749 16.2636 16.4562 15.9367 16.7045C15.641 16.9285 15.4308 17.0143 15.154 17.0279C14.9268 17.0389 14.8324 17.0191 14.5415 16.8994C12.2583 15.9594 10.4351 14.5567 8.98762 12.629C8.23189 11.6223 7.65615 10.5786 7.26202 9.49512C7.03349 8.86392 7.02229 8.58952 7.21055 8.26605C7.29215 8.13005 7.63802 7.79219 7.89082 7.60419C8.31029 7.29219 8.50389 7.17699 8.65775 7.14419C8.76389 7.12125 8.94735 7.13939 9.06442 7.18179C9.12095 7.20099 9.20949 7.24685 9.25935 7.27912C9.56869 7.48392 10.4287 8.58285 10.7098 9.13165C10.8708 9.44525 10.9247 9.67699 10.874 9.84925C10.8218 10.0341 10.7354 10.1317 10.3506 10.4421C10.1959 10.5671 10.0508 10.6951 10.0284 10.7295C9.96975 10.8138 9.92255 10.9797 9.92255 11.0962C9.92415 11.3677 10.1002 11.8591 10.3308 12.2378C10.51 12.5317 10.8298 12.9082 11.1474 13.1973C11.5196 13.5383 11.8479 13.7706 12.2191 13.9541C12.6951 14.1911 12.9866 14.2509 13.1994 14.1519C13.2532 14.1279 13.3103 14.0951 13.3276 14.0805C13.3439 14.0658 13.469 13.9133 13.606 13.7445C13.8692 13.4133 13.9298 13.3597 14.11 13.2981C14.3396 13.2199 14.5735 13.2407 14.8092 13.361C14.9884 13.4538 15.3786 13.6959 15.6303 13.8709C15.9623 14.1031 16.6714 14.6813 16.7674 14.7965C16.937 15.0047 16.9663 15.2709 16.8519 15.565Z" fill="white"/>
</g>
<defs>
<clipPath id="clip0_919_12996">
<rect width="24" height="24" fill="white"/>
</clipPath>
</defs>
</svg>
