<svg width="100" height="100" viewBox="0 0 100 100" fill="none" xmlns="http://www.w3.org/2000/svg">
<path d="M55.8552 17.5187L17.1835 13.5859L5.36719 46.8359L43.3227 96.8896L54.0648 90.0966L60.8682 95.1019L98.8237 61.852L55.8552 17.5187Z" fill="white" stroke="#1F5F5B"/>
<mask id="path-2-inside-1_1071_4121" fill="white">
<path d="M62.8761 59.8921C62.4861 57.7255 60.9432 55.9392 58.8378 55.2142C57.4191 54.0109 53.7868 56.78 52.6434 59.0349C51.6304 61.0318 51.6075 63.4255 52.5829 65.2836C54.3411 68.6347 58.2134 68.6442 60.8271 66.0363C62.4755 64.3872 63.2604 62.0327 62.8761 59.8921V59.8921ZM59.0504 64.2631C57.6436 65.6677 55.7686 65.9505 54.8069 64.1178C54.2027 62.9667 54.2321 61.4531 54.8838 60.1681C55.4855 58.9827 56.6032 58.0047 57.8714 57.5312C59.2316 58.103 60.1461 58.9026 60.4036 60.3363C60.6415 61.6604 60.11 63.2034 59.0504 64.2631V64.2631Z"/>
</mask>
<path d="M62.8761 59.8921C62.4861 57.7255 60.9432 55.9392 58.8378 55.2142C57.4191 54.0109 53.7868 56.78 52.6434 59.0349C51.6304 61.0318 51.6075 63.4255 52.5829 65.2836C54.3411 68.6347 58.2134 68.6442 60.8271 66.0363C62.4755 64.3872 63.2604 62.0327 62.8761 59.8921V59.8921ZM59.0504 64.2631C57.6436 65.6677 55.7686 65.9505 54.8069 64.1178C54.2027 62.9667 54.2321 61.4531 54.8838 60.1681C55.4855 58.9827 56.6032 58.0047 57.8714 57.5312C59.2316 58.103 60.1461 58.9026 60.4036 60.3363C60.6415 61.6604 60.11 63.2034 59.0504 64.2631V64.2631Z" fill="black"/>
<path d="M58.8378 55.2142L53.9675 60.9564L55.0475 61.8724L56.3865 62.3334L58.8378 55.2142ZM52.6434 59.0349L59.3582 62.4414L59.3589 62.44L52.6434 59.0349ZM52.5829 65.2836L59.2505 61.7855L59.2496 61.7838L52.5829 65.2836ZM60.8271 66.0363L66.1453 71.3663L66.1524 71.3592L60.8271 66.0363ZM54.8069 64.1178L61.4742 60.6193L61.4737 60.6183L54.8069 64.1178ZM54.8838 60.1681L48.1699 56.7598L48.1685 56.7626L54.8838 60.1681ZM57.8714 57.5312L60.7894 50.5902L58.0359 49.4326L55.2376 50.4774L57.8714 57.5312ZM60.4036 60.3363L52.9927 61.6671L52.9928 61.6678L60.4036 60.3363ZM70.2864 58.5583C69.4059 53.6664 65.9338 49.6943 61.2892 48.0951L56.3865 62.3334C55.9526 62.1841 55.5663 61.7845 55.4658 61.226L70.2864 58.5583ZM63.7081 49.4721C60.821 47.0233 57.5128 47.2504 55.7783 47.641C53.9878 48.0441 52.4928 48.8708 51.4438 49.5743C49.4078 50.9396 47.2107 53.1 45.928 55.6298L59.3589 62.44C59.2358 62.6828 59.2013 62.6652 59.3849 62.4695C59.5455 62.2983 59.7205 62.1553 59.831 62.0812C60.0103 61.9609 59.7609 62.1801 59.0861 62.332C58.4674 62.4713 56.1453 62.8035 53.9675 60.9564L63.7081 49.4721ZM45.9287 55.6285C43.899 59.6293 43.7219 64.6031 45.9163 68.7833L59.2496 61.7838C59.3883 62.0481 59.3971 62.2288 59.3966 62.284C59.396 62.3422 59.3854 62.3878 59.3582 62.4414L45.9287 55.6285ZM45.9154 68.7816C47.9627 72.6839 51.6591 75.1416 55.9114 75.4091C59.9131 75.6609 63.5637 73.9422 66.1453 71.3662L55.5089 60.7063C55.5116 60.7036 55.5974 60.6185 55.8061 60.5322C56.0138 60.4463 56.3723 60.3495 56.8569 60.38C57.36 60.4117 57.9106 60.5781 58.404 60.905C58.8984 61.2326 59.1525 61.5988 59.2505 61.7855L45.9154 68.7816ZM66.1524 71.3592C69.3955 68.1146 71.1423 63.3259 70.287 58.5617L55.4652 61.2226C55.4159 60.9483 55.4616 60.7952 55.4711 60.7667C55.4815 60.7355 55.4895 60.7257 55.5018 60.7134L66.1524 71.3592ZM53.7304 58.9349C53.8835 58.782 54.8005 57.9172 56.5926 57.8769C57.5821 57.8547 58.684 58.1076 59.6842 58.7361C60.6597 59.3492 61.206 60.1082 61.4742 60.6193L48.1396 67.6163C49.7891 70.7598 52.978 73.0208 56.9308 72.932C60.2526 72.8573 62.8105 71.1488 64.3704 69.5912L53.7304 58.9349ZM61.4737 60.6183C61.8228 61.2834 61.911 61.8934 61.9024 62.3396C61.8936 62.791 61.7858 63.2053 61.599 63.5736L48.1685 56.7626C46.5532 59.9479 46.2676 64.05 48.1401 67.6172L61.4737 60.6183ZM61.5976 63.5764C61.4321 63.9024 61.2472 64.1071 61.1036 64.2335C60.9589 64.3609 60.7685 64.4866 60.5051 64.5849L55.2376 50.4774C52.2741 51.5839 49.6614 53.8218 48.1699 56.7598L61.5976 63.5764ZM54.9533 64.4721C55.0835 64.5269 54.6411 64.3705 54.109 63.8141C53.4781 63.1542 53.1153 62.3497 52.9927 61.6671L67.8144 59.0055C66.9435 54.1556 63.5032 51.7311 60.7894 50.5902L54.9533 64.4721ZM52.9928 61.6678C52.8534 60.8919 52.9725 60.3012 53.0949 59.9461C53.2212 59.5794 53.4252 59.2401 53.7262 58.939L64.3746 69.5871C66.947 67.0146 68.5428 63.0591 67.8143 59.0047L52.9928 61.6678Z" fill="#1F5F5B" mask="url(#path-2-inside-1_1071_4121)"/>
<mask id="path-4-inside-2_1071_4121" fill="white">
<path d="M34.5763 50.2042C34.2721 49.9429 33.8486 49.8303 33.4332 49.9429C31.2714 50.5193 29.3811 52.0443 28.3778 54.0232C27.3648 56.0201 27.3419 58.4138 28.3173 60.2719C29.0009 61.5748 30.0777 62.4631 31.3466 62.7749C33.1787 63.2231 35.2093 62.3742 36.5599 61.023C38.2098 59.3755 38.9956 57.0227 38.6105 54.8805C38.2205 52.7138 36.6792 50.9291 34.5763 50.2042ZM34.7831 59.2514C33.9393 60.0939 32.7718 60.5413 31.946 60.3388C31.3932 60.2033 30.8814 59.7543 30.5413 59.1061C29.937 57.955 29.9665 56.4414 30.6181 55.1564C31.2191 53.971 32.336 52.9946 33.6033 52.5195C34.9522 53.0582 35.884 53.9102 36.138 55.3246C36.3767 56.6487 35.8452 58.1901 34.7831 59.2514V59.2514Z"/>
</mask>
<path d="M34.5763 50.2042C34.2721 49.9429 33.8486 49.8303 33.4332 49.9429C31.2714 50.5193 29.3811 52.0443 28.3778 54.0232C27.3648 56.0201 27.3419 58.4138 28.3173 60.2719C29.0009 61.5748 30.0777 62.4631 31.3466 62.7749C33.1787 63.2231 35.2093 62.3742 36.5599 61.023C38.2098 59.3755 38.9956 57.0227 38.6105 54.8805C38.2205 52.7138 36.6792 50.9291 34.5763 50.2042ZM34.7831 59.2514C33.9393 60.0939 32.7718 60.5413 31.946 60.3388C31.3932 60.2033 30.8814 59.7543 30.5413 59.1061C29.937 57.955 29.9665 56.4414 30.6181 55.1564C31.2191 53.971 32.336 52.9946 33.6033 52.5195C34.9522 53.0582 35.884 53.9102 36.138 55.3246C36.3767 56.6487 35.8452 58.1901 34.7831 59.2514V59.2514Z" fill="black"/>
<path d="M34.5763 50.2042L29.6704 55.916L30.762 56.8535L32.1224 57.3225L34.5763 50.2042ZM33.4332 49.9429L35.3729 57.2182L35.3886 57.214L35.4043 57.2098L33.4332 49.9429ZM28.3778 54.0232L35.0926 57.4297L35.0935 57.4278L28.3778 54.0232ZM28.3173 60.2719L34.9849 56.774L34.9839 56.7721L28.3173 60.2719ZM31.3466 62.7749L29.5497 70.0868L29.5575 70.0887L31.3466 62.7749ZM36.5599 61.023L31.2398 55.6948L31.2343 55.7003L36.5599 61.023ZM38.6105 54.8805L46.0211 53.5482L46.0208 53.5466L38.6105 54.8805ZM31.946 60.3388L30.1529 67.6516L30.1531 67.6517L31.946 60.3388ZM30.5413 59.1061L37.2085 55.6076L37.208 55.6066L30.5413 59.1061ZM30.6181 55.1564L37.3334 58.5619L37.3338 58.561L30.6181 55.1564ZM33.6033 52.5195L36.396 45.5271L33.6892 44.4461L30.9601 45.4693L33.6033 52.5195ZM36.138 55.3246L28.7271 56.6554L28.728 56.6606L36.138 55.3246ZM39.4822 44.4924C37.3888 42.6944 34.415 41.8752 31.4622 42.6761L35.4043 57.2098C33.2822 57.7854 31.1555 57.1915 29.6704 55.916L39.4822 44.4924ZM31.4935 42.6677C27.2836 43.7901 23.6444 46.7085 21.6621 50.6187L35.0935 57.4278C35.0895 57.4358 35.117 57.3832 35.1997 57.3165C35.282 57.2501 35.3524 57.2237 35.3729 57.2182L31.4935 42.6677ZM21.6631 50.6168C19.6334 54.6176 19.4563 59.5914 21.6507 63.7716L34.9839 56.7721C35.1227 57.0364 35.1315 57.2171 35.131 57.2723C35.1304 57.3305 35.1198 57.3761 35.0926 57.4297L21.6631 50.6168ZM21.6497 63.7697C23.1985 66.7221 25.9156 69.1937 29.5497 70.0868L33.1436 55.4631C34.2397 55.7325 34.8032 56.4276 34.9849 56.774L21.6497 63.7697ZM29.5575 70.0887C34.698 71.3462 39.2961 68.9363 41.8854 66.3456L31.2343 55.7003C31.3028 55.6318 31.3948 55.5571 31.5895 55.4872C31.7886 55.4157 32.3469 55.2682 33.1358 55.4612L29.5575 70.0887ZM41.8799 66.3511C45.1284 63.1075 46.8784 58.3173 46.0211 53.5482L31.1999 56.2127C31.1506 55.9386 31.196 55.784 31.2064 55.7527C31.2177 55.719 31.227 55.7076 31.2398 55.6948L41.8799 66.3511ZM46.0208 53.5466C45.1406 48.6566 41.672 44.6861 37.0302 43.0859L32.1224 57.3225C31.6864 57.1722 31.3003 56.771 31.2002 56.2143L46.0208 53.5466ZM29.4631 53.9232C29.7671 53.6197 30.1526 53.3519 30.6633 53.1562C31.0839 52.995 32.2069 52.6504 33.7389 53.026L30.1531 67.6517C32.5109 68.2297 34.6306 67.7626 36.0523 67.2177C37.5642 66.6383 38.9554 65.7256 40.1032 64.5795L29.4631 53.9232ZM33.739 53.026C35.8463 53.5427 36.8513 54.9268 37.2085 55.6076L23.874 62.6046C24.9115 64.5818 26.9401 66.8639 30.1529 67.6516L33.739 53.026ZM37.208 55.6066C37.5571 56.2717 37.6454 56.8817 37.6367 57.3279C37.628 57.7793 37.5201 58.1937 37.3334 58.5619L23.9029 51.7509C22.2875 54.9362 22.002 59.0383 23.8745 62.6055L37.208 55.6066ZM37.3338 58.561C37.1675 58.8892 36.9814 59.095 36.8377 59.2216C36.693 59.3491 36.5046 59.4729 36.2465 59.5697L30.9601 45.4693C28.0081 46.576 25.3949 48.8078 23.9024 51.7517L37.3338 58.561ZM30.8106 59.5118C30.8027 59.5087 30.3428 59.3285 29.8166 58.7734C29.2183 58.1422 28.8541 57.3626 28.7271 56.6554L43.5488 53.9937C42.6948 49.2382 39.3127 46.692 36.396 45.5271L30.8106 59.5118ZM28.728 56.6606C28.5878 55.883 28.707 55.2893 28.8305 54.9312C28.958 54.5616 29.1628 54.2233 29.461 53.9253L40.1052 64.5775C42.6786 62.0061 44.2802 58.0503 43.5479 53.9886L28.728 56.6606Z" fill="#1F5F5B" mask="url(#path-4-inside-2_1071_4121)"/>
<mask id="path-6-inside-3_1071_4121" fill="white">
<path d="M48.2966 42.1899C47.622 42.0446 46.9516 42.4838 46.8117 43.163C44.6753 53.4544 42.2706 63.8568 39.664 74.0829C39.4931 74.754 39.8995 75.4365 40.5716 75.6063C41.2597 75.7794 41.9311 75.3589 42.0989 74.7001C44.7145 64.4397 47.1273 53.9998 49.2712 43.6725C49.4118 42.9949 48.9752 42.3303 48.2966 42.1899V42.1899Z"/>
</mask>
<path d="M48.2966 42.1899C47.622 42.0446 46.9516 42.4838 46.8117 43.163C44.6753 53.4544 42.2706 63.8568 39.664 74.0829C39.4931 74.754 39.8995 75.4365 40.5716 75.6063C41.2597 75.7794 41.9311 75.3589 42.0989 74.7001C44.7145 64.4397 47.1273 53.9998 49.2712 43.6725C49.4118 42.9949 48.9752 42.3303 48.2966 42.1899V42.1899Z" fill="black"/>
<path d="M46.8117 43.163L54.184 44.6935L54.1865 44.6811L46.8117 43.163ZM39.664 74.0829L32.3679 72.2231L32.3675 72.2249L39.664 74.0829ZM40.5716 75.6063L38.7272 82.9063L38.7346 82.9081L40.5716 75.6063ZM42.0989 74.7001L34.8028 72.8401L34.8025 72.8417L42.0989 74.7001ZM49.2712 43.6725L56.6434 45.2029L56.6435 45.2025L49.2712 43.6725ZM48.2966 42.1899L46.7109 49.5505L46.7409 49.5569L46.7709 49.5631L48.2966 42.1899ZM49.8822 34.8294C45.0843 33.7957 40.414 36.8983 39.4369 41.645L54.1865 44.6811C53.4891 48.0693 50.1598 50.2934 46.7109 49.5505L49.8822 34.8294ZM39.4395 41.6326C37.326 51.8132 34.9468 62.1059 32.3679 72.2231L46.9601 75.9427C49.5945 65.6078 52.0245 55.0956 54.184 44.6935L39.4395 41.6326ZM32.3675 72.2249C31.1683 76.9342 34.0212 81.7173 38.7272 82.9063L42.416 68.3063C45.7778 69.1556 47.818 72.5737 46.9606 75.9409L32.3675 72.2249ZM38.7346 82.9081C43.5215 84.1124 48.2224 81.164 49.3954 76.5585L34.8025 72.8417C35.6399 69.5539 38.998 67.4463 42.4086 68.3044L38.7346 82.9081ZM49.395 76.56C52.0384 66.1905 54.4766 55.6407 56.6434 45.2029L41.8989 42.1421C39.778 52.3588 37.3906 62.6889 34.8028 72.8401L49.395 76.56ZM56.6435 45.2025C57.6307 40.4459 54.569 35.7989 49.8222 34.8167L46.7709 49.5631C43.3814 48.8618 41.1929 45.5438 41.8989 42.1424L56.6435 45.2025Z" fill="#1F5F5B" mask="url(#path-6-inside-3_1071_4121)"/>
<mask id="path-8-inside-4_1071_4121" fill="white">
<path d="M57.4302 17.4155C56.7249 16.6866 56.5308 16.5041 56.1032 16.4555C48.7888 15.6184 38.1957 15.1101 29.4332 14.388C29.4188 14.3333 29.423 14.2769 29.401 14.2235C27.6161 9.89498 24.9188 3.35409 18.3777 0.707361C14.0018 -1.06093 8.00034 0.576739 4.1076 4.60806C0.409461 8.43528 -0.961706 14.4994 0.694814 19.6998C1.81016 23.1988 4.15615 26.2656 7.4186 28.5951C5.76331 35.5042 4.32479 42.4309 2.34673 49.3138C15.0724 67.3029 24.0189 82.6633 35.8299 98.8649C37.8115 99.249 39.831 99.0153 42.3855 98.7149C42.6589 98.7859 42.9362 98.8781 43.3817 98.5873C46.2922 96.6867 49.4365 94.5543 52.6748 92.3219C53.9337 93.6408 55.4182 95.1791 56.4327 96.2602C57.528 96.3635 58.5963 96.31 59.6803 96.3471C60.2063 96.6372 60.7215 96.527 61.0785 96.2328C72.7299 86.6603 87.9491 72.605 99.5177 63.1022C100.019 62.6908 100.227 61.7895 99.66 61.2033C84.9125 45.9659 71.766 32.2272 57.4302 17.4155V17.4155ZM3.08884 18.9389C1.70377 14.5925 2.83946 9.53251 5.91457 6.3486C9.12622 3.0259 13.969 1.62824 17.4342 3.03243C22.5169 5.08809 24.9964 10.2207 26.6449 14.1416C25.1513 14.0016 24.0931 14.0219 17.4162 12.3915C16.9441 12.2753 16.4161 12.4437 16.1036 12.8736C14.0894 14.969 11.6389 17.8895 9.68078 19.8792C9.10179 21.8938 8.57657 23.913 8.07168 25.9337C5.67684 24.0107 3.94336 21.6205 3.08884 18.9389V18.9389ZM43.0816 95.7785C31.1214 80.4172 18.7832 63.8721 9.10088 46.7079C10.3924 41.4017 11.5757 36.4618 12.9006 31.4705C14.673 32.1354 16.601 32.664 18.7588 33.051C18.6543 34.9577 19.3845 37.1538 21.0546 38.5616C23.235 40.3995 26.711 40.7209 29.5212 39.2474C32.2701 37.8007 34.1032 34.7556 33.9806 31.8395C33.8368 28.4834 29.7302 25.0903 27.424 25.2512C24.5487 25.3004 20.5934 27.9649 19.365 30.61C17.1991 30.2304 15.287 29.7058 13.5531 29.036C14.8347 24.3797 16.27 19.7147 17.9625 15.0978C27.0411 17.2225 39.0216 19.1589 47.4788 21.1954C48.7855 24.2457 82.0102 68.7123 82.1354 68.8835C70.0672 76.8383 55.0712 87.8779 43.0816 95.7785V95.7785ZM25.0905 31.2664C24.0209 31.1978 23.0163 31.1004 22.0425 30.988C23.1786 29.4544 25.6693 27.8769 27.3267 27.7657C30.0646 28.6162 31.4109 30.5379 31.4704 31.9456C31.553 33.8968 30.2407 36.0341 28.3512 37.0268C26.4886 38.0065 24.1011 37.8481 22.6752 36.6447C21.8298 35.932 21.2136 34.8067 21.4018 33.4369C22.3841 33.5567 24.5526 33.771 25.0111 33.771C25.6685 33.771 26.2212 33.2616 26.2638 32.5971C26.3079 31.9064 25.783 31.3105 25.0905 31.2664V31.2664ZM60.4463 93.4969C59.1469 92.2323 57.8363 90.9498 56.5197 89.6572C66.2226 82.8968 76.2594 75.7087 84.5919 70.2701C85.1764 69.8887 85.4118 69.1106 84.7742 68.2405C72.4474 51.3991 61.8188 36.6282 49.6243 19.9708C49.0508 19.189 48.893 18.9563 48.4346 18.8442C47.2752 18.5613 46.0209 18.2762 44.7072 17.9899C48.5798 18.2646 52.3237 18.5601 55.4632 18.9091C56.3345 20.4062 96.7349 61.7903 96.928 61.9899C85.6539 71.3328 71.6452 84.219 60.4463 93.4969V93.4969Z"/>
</mask>
<path d="M57.4302 17.4155C56.7249 16.6866 56.5308 16.5041 56.1032 16.4555C48.7888 15.6184 38.1957 15.1101 29.4332 14.388C29.4188 14.3333 29.423 14.2769 29.401 14.2235C27.6161 9.89498 24.9188 3.35409 18.3777 0.707361C14.0018 -1.06093 8.00034 0.576739 4.1076 4.60806C0.409461 8.43528 -0.961706 14.4994 0.694814 19.6998C1.81016 23.1988 4.15615 26.2656 7.4186 28.5951C5.76331 35.5042 4.32479 42.4309 2.34673 49.3138C15.0724 67.3029 24.0189 82.6633 35.8299 98.8649C37.8115 99.249 39.831 99.0153 42.3855 98.7149C42.6589 98.7859 42.9362 98.8781 43.3817 98.5873C46.2922 96.6867 49.4365 94.5543 52.6748 92.3219C53.9337 93.6408 55.4182 95.1791 56.4327 96.2602C57.528 96.3635 58.5963 96.31 59.6803 96.3471C60.2063 96.6372 60.7215 96.527 61.0785 96.2328C72.7299 86.6603 87.9491 72.605 99.5177 63.1022C100.019 62.6908 100.227 61.7895 99.66 61.2033C84.9125 45.9659 71.766 32.2272 57.4302 17.4155V17.4155ZM3.08884 18.9389C1.70377 14.5925 2.83946 9.53251 5.91457 6.3486C9.12622 3.0259 13.969 1.62824 17.4342 3.03243C22.5169 5.08809 24.9964 10.2207 26.6449 14.1416C25.1513 14.0016 24.0931 14.0219 17.4162 12.3915C16.9441 12.2753 16.4161 12.4437 16.1036 12.8736C14.0894 14.969 11.6389 17.8895 9.68078 19.8792C9.10179 21.8938 8.57657 23.913 8.07168 25.9337C5.67684 24.0107 3.94336 21.6205 3.08884 18.9389V18.9389ZM43.0816 95.7785C31.1214 80.4172 18.7832 63.8721 9.10088 46.7079C10.3924 41.4017 11.5757 36.4618 12.9006 31.4705C14.673 32.1354 16.601 32.664 18.7588 33.051C18.6543 34.9577 19.3845 37.1538 21.0546 38.5616C23.235 40.3995 26.711 40.7209 29.5212 39.2474C32.2701 37.8007 34.1032 34.7556 33.9806 31.8395C33.8368 28.4834 29.7302 25.0903 27.424 25.2512C24.5487 25.3004 20.5934 27.9649 19.365 30.61C17.1991 30.2304 15.287 29.7058 13.5531 29.036C14.8347 24.3797 16.27 19.7147 17.9625 15.0978C27.0411 17.2225 39.0216 19.1589 47.4788 21.1954C48.7855 24.2457 82.0102 68.7123 82.1354 68.8835C70.0672 76.8383 55.0712 87.8779 43.0816 95.7785V95.7785ZM25.0905 31.2664C24.0209 31.1978 23.0163 31.1004 22.0425 30.988C23.1786 29.4544 25.6693 27.8769 27.3267 27.7657C30.0646 28.6162 31.4109 30.5379 31.4704 31.9456C31.553 33.8968 30.2407 36.0341 28.3512 37.0268C26.4886 38.0065 24.1011 37.8481 22.6752 36.6447C21.8298 35.932 21.2136 34.8067 21.4018 33.4369C22.3841 33.5567 24.5526 33.771 25.0111 33.771C25.6685 33.771 26.2212 33.2616 26.2638 32.5971C26.3079 31.9064 25.783 31.3105 25.0905 31.2664V31.2664ZM60.4463 93.4969C59.1469 92.2323 57.8363 90.9498 56.5197 89.6572C66.2226 82.8968 76.2594 75.7087 84.5919 70.2701C85.1764 69.8887 85.4118 69.1106 84.7742 68.2405C72.4474 51.3991 61.8188 36.6282 49.6243 19.9708C49.0508 19.189 48.893 18.9563 48.4346 18.8442C47.2752 18.5613 46.0209 18.2762 44.7072 17.9899C48.5798 18.2646 52.3237 18.5601 55.4632 18.9091C56.3345 20.4062 96.7349 61.7903 96.928 61.9899C85.6539 71.3328 71.6452 84.219 60.4463 93.4969V93.4969Z" fill="black"/>
<path d="M56.1032 16.4555L55.2471 23.9361L55.2517 23.9366L56.1032 16.4555ZM29.4332 14.388L22.1522 16.3062L23.5087 21.4546L28.8148 21.8919L29.4332 14.388ZM29.401 14.2235L36.3653 11.3616L36.3618 11.3531L29.401 14.2235ZM18.3777 0.707361L21.2019 -6.27232L21.1987 -6.27363L18.3777 0.707361ZM4.1076 4.60806L9.52223 9.84007L9.52399 9.83825L4.1076 4.60806ZM0.694814 19.6998L-6.47942 21.9851L-6.47896 21.9865L0.694814 19.6998ZM7.4186 28.5951L14.7408 30.3494L15.9228 25.4157L11.794 22.4675L7.4186 28.5951ZM2.34673 49.3138L-4.88977 47.2342L-5.88863 50.7099L-3.80012 53.6622L2.34673 49.3138ZM35.8299 98.8649L29.7456 103.3L31.49 105.693L34.3971 106.257L35.8299 98.8649ZM42.3855 98.7149L44.2798 91.4276L42.9108 91.0718L41.506 91.237L42.3855 98.7149ZM43.3817 98.5873L47.4977 104.892L47.4983 104.892L43.3817 98.5873ZM52.6748 92.3219L58.1212 87.123L53.6876 82.4784L48.4012 86.1229L52.6748 92.3219ZM56.4327 96.2602L50.9421 101.412L52.8907 103.489L55.7259 103.756L56.4327 96.2602ZM59.6803 96.3471L63.3162 89.7538L61.7386 88.8838L59.9382 88.8221L59.6803 96.3471ZM61.0785 96.2328L56.2988 90.4151L56.2906 90.4218L61.0785 96.2328ZM99.5177 63.1022L94.7419 57.2813L94.7386 57.284L99.5177 63.1022ZM99.66 61.2033L105.072 55.9691L105.07 55.9669L99.66 61.2033ZM57.4302 17.4155L52.0191 22.6512L52.0199 22.652L57.4302 17.4155ZM5.91457 6.3486L0.500775 1.11573L0.49874 1.11784L5.91457 6.3486ZM17.4342 3.03243L14.6063 10.0106L14.6111 10.0126L17.4342 3.03243ZM26.6449 14.1416L25.942 21.6382L38.4578 22.8117L33.5858 11.2235L26.6449 14.1416ZM17.4162 12.3915L15.6161 19.7026L15.6231 19.7043L15.6301 19.706L17.4162 12.3915ZM16.1036 12.8736L21.532 18.0913L21.8898 17.719L22.1935 17.3013L16.1036 12.8736ZM9.68078 19.8792L4.31422 14.5979L2.97259 15.9612L2.44428 17.7995L9.68078 19.8792ZM8.07168 25.9337L3.35745 31.8047L12.5262 39.167L15.3765 27.7588L8.07168 25.9337ZM9.10088 46.7079L1.78503 44.9273L1.08173 47.817L2.54291 50.4073L9.10088 46.7079ZM12.9006 31.4705L15.5454 24.4208L7.75736 21.4991L5.62323 29.5387L12.9006 31.4705ZM18.7588 33.051L26.2769 33.4633L26.6416 26.8151L20.0879 25.6398L18.7588 33.051ZM21.0546 38.5616L25.9074 32.8046L25.9073 32.8046L21.0546 38.5616ZM29.5212 39.2474L33.0178 45.9157L33.0277 45.9104L29.5212 39.2474ZM33.9806 31.8395L41.5033 31.5231L41.5031 31.5173L33.9806 31.8395ZM27.424 25.2512L27.5528 32.7795L27.7506 32.7762L27.948 32.7624L27.424 25.2512ZM19.365 30.61L18.0651 38.0263L23.7591 39.0243L26.1939 33.7814L19.365 30.61ZM13.5531 29.036L6.29364 27.0378L4.48605 33.6049L10.8397 36.0595L13.5531 29.036ZM17.9625 15.0978L19.6782 7.7665L13.1875 6.24747L10.8931 12.5063L17.9625 15.0978ZM47.4788 21.1954L54.3999 18.2306L52.9129 14.7593L49.2415 13.8752L47.4788 21.1954ZM82.1354 68.8835L86.2792 75.17L92.8811 70.8184L88.2119 64.4372L82.1354 68.8835ZM22.0425 30.988L15.9924 26.506L8.23815 36.9733L21.1788 38.4677L22.0425 30.988ZM27.3267 27.7657L29.5603 20.5752L28.2214 20.1593L26.8225 20.2532L27.3267 27.7657ZM31.4704 31.9456L23.9477 32.2637L23.9478 32.264L31.4704 31.9456ZM28.3512 37.0268L24.8493 30.3613L24.8461 30.3629L28.3512 37.0268ZM22.6752 36.6447L27.5312 30.8905L27.5285 30.8882L22.6752 36.6447ZM21.4018 33.4369L22.3131 25.9629L14.9519 25.0653L13.9425 32.412L21.4018 33.4369ZM26.2638 32.5971L33.7778 33.0778L33.7778 33.0774L26.2638 32.5971ZM25.0905 31.2664L24.6087 38.7803L24.6121 38.7806L25.0905 31.2664ZM56.5197 89.6572L52.2154 83.4795L44.766 88.6697L51.2449 95.0302L56.5197 89.6572ZM84.5919 70.2701L80.4772 63.9644L80.4765 63.9649L84.5919 70.2701ZM84.7742 68.2405L78.6984 72.6876L78.7008 72.6908L84.7742 68.2405ZM49.6243 19.9708L55.6997 15.5231L55.6955 15.5174L49.6243 19.9708ZM48.4346 18.8442L50.2229 11.5303L50.2194 11.5294L48.4346 18.8442ZM44.7072 17.9899L45.2399 10.4793L43.1037 25.3466L44.7072 17.9899ZM55.4632 18.9091L61.9706 15.1216L60.0634 11.8447L56.2951 11.4258L55.4632 18.9091ZM96.928 61.9899L101.732 67.7873L107.993 62.5995L102.34 56.7553L96.928 61.9899ZM62.8413 12.1799C62.6431 11.9751 61.9577 11.2409 61.1844 10.66C59.9049 9.69899 58.4779 9.14774 56.9547 8.97437L55.2517 23.9366C54.8775 23.894 54.2943 23.7909 53.6225 23.5252C52.954 23.2608 52.4562 22.9377 52.1407 22.7008C51.8666 22.4949 51.7098 22.3371 51.7423 22.3687C51.7686 22.3942 51.834 22.4599 52.0191 22.6512L62.8413 12.1799ZM56.9593 8.97489C49.5417 8.12597 38.336 7.56674 30.0516 6.884L28.8148 21.8919C38.0555 22.6535 48.036 23.1108 55.2471 23.9361L56.9593 8.97489ZM36.7142 12.4697C36.8121 12.8415 36.8585 13.1396 36.8786 13.2796C36.8887 13.3504 36.8953 13.4045 36.8963 13.4129C36.9006 13.4478 36.8931 13.386 36.8895 13.358C36.8792 13.2766 36.8458 13.0147 36.776 12.6883C36.7027 12.3462 36.5802 11.8844 36.3653 11.3616L22.4367 17.0853C22.2329 16.5893 22.118 16.1546 22.0506 15.8397C21.9866 15.5406 21.9572 15.3063 21.9503 15.2525C21.9486 15.2383 21.9427 15.1903 21.9486 15.2391C21.9514 15.2613 21.9597 15.3292 21.9718 15.4138C21.9958 15.5815 22.0471 15.9071 22.1522 16.3062L36.7142 12.4697ZM36.3618 11.3531C34.7603 7.46927 31.0848 -2.27339 21.2019 -6.27232L15.5535 7.68704C18.7528 8.98156 20.4719 12.3207 22.4402 17.0938L36.3618 11.3531ZM21.1987 -6.27363C13.3613 -9.44064 4.21421 -6.34174 -1.30878 -0.622128L9.52399 9.83825C11.7865 7.49521 14.6422 7.31877 15.5567 7.68835L21.1987 -6.27363ZM-1.30702 -0.623946C-6.99042 5.25783 -8.94951 14.2306 -6.47942 21.9851L7.86905 17.4145C7.02609 14.7682 7.80934 11.6127 9.52223 9.84007L-1.30702 -0.623946ZM-6.47896 21.9865C-4.81032 27.2213 -1.37312 31.5693 3.04316 34.7228L11.794 22.4675C9.68542 20.9619 8.43065 19.1764 7.86859 17.4131L-6.47896 21.9865ZM0.0963997 26.8409C-1.63004 34.0469 -2.97277 40.5636 -4.88977 47.2342L9.58324 51.3935C11.6223 44.2981 13.1567 36.9615 14.7408 30.3494L0.0963997 26.8409ZM-3.80012 53.6622C2.46805 62.5229 7.8082 70.7394 13.1289 78.8793C18.4301 86.9893 23.7141 95.0267 29.7456 103.3L41.9142 94.4294C36.1347 86.5014 31.04 78.7578 25.7338 70.64C20.447 62.5521 14.9511 54.0939 8.49359 44.9655L-3.80012 53.6622ZM34.3971 106.257C37.7414 106.905 40.9831 106.461 43.265 106.193L41.506 91.237C38.6789 91.5695 37.8815 91.593 37.2628 91.4731L34.3971 106.257ZM40.4912 106.002C40.2849 105.948 41.5716 106.354 43.0282 106.313C44.782 106.265 46.2945 105.678 47.4977 104.892L39.2656 92.2825C40.0234 91.7878 41.1746 91.3002 42.6099 91.2603C43.7481 91.2286 44.7595 91.5523 44.2798 91.4276L40.4912 106.002ZM47.4983 104.892C50.483 102.943 53.6847 100.771 56.9484 98.521L48.4012 86.1229C45.1884 88.3377 42.1015 90.4308 39.265 92.2829L47.4983 104.892ZM47.2284 97.5209C48.538 98.8929 49.9554 100.361 50.9421 101.412L61.9233 91.108C60.8811 89.9973 59.3294 88.3887 58.1212 87.123L47.2284 97.5209ZM55.7259 103.756C57.0024 103.877 59.2878 103.868 59.4225 103.872L59.9382 88.8221C57.9049 88.7525 58.0536 88.8502 57.1395 88.764L55.7259 103.756ZM56.0445 102.94C59.5258 104.86 63.3579 104.111 65.8664 102.044L56.2906 90.4218C57.1198 89.7386 58.2343 89.1871 59.5653 89.0309C60.9485 88.8686 62.2599 89.1713 63.3162 89.7538L56.0445 102.94ZM65.8582 102.051C71.8015 97.1678 78.6215 91.1696 85.3013 85.2955C92.0369 79.3724 98.6307 73.5748 104.297 68.9204L94.7386 57.284C88.8361 62.1324 82.036 68.1138 75.357 73.9872C68.6222 79.9096 62.007 85.7254 56.2988 90.4151L65.8582 102.051ZM104.294 68.9231C107.409 66.3673 109.365 60.4075 105.072 55.9691L94.2475 66.4375C92.7321 64.8705 92.3199 62.8713 92.5182 61.2845C92.6969 59.8553 93.3993 58.3828 94.7419 57.2813L104.294 68.9231ZM105.07 55.9669C97.7048 48.3566 90.7381 41.1197 83.8152 33.928C76.8942 26.7383 70.0166 19.5934 62.8405 12.1791L52.0199 22.652C59.1795 30.0493 66.0431 37.1796 72.9662 44.3716C79.8875 51.5615 86.8678 58.8126 94.2496 66.4397L105.07 55.9669ZM10.2628 16.6528C9.68635 14.8439 10.2514 12.6966 11.3304 11.5794L0.49874 1.11784C-4.57243 6.36843 -6.2788 14.3411 -4.08513 21.225L10.2628 16.6528ZM11.3284 11.5815C12.0139 10.8723 12.8776 10.3796 13.6637 10.1531C14.4938 9.91395 14.7863 10.0836 14.6063 10.0106L20.262 -3.94579C13.1883 -6.81227 5.21063 -3.75697 0.500775 1.11573L11.3284 11.5815ZM14.6111 10.0126C15.4613 10.3564 16.3136 11.0319 17.2163 12.2861C18.1563 13.5921 18.9219 15.1995 19.7039 17.0598L33.5858 11.2235C32.0097 7.47458 28.5451 -0.59573 20.2572 -3.94771L14.6111 10.0126ZM27.3478 6.6451C26.4345 6.55946 26.1623 6.55825 25.2229 6.40027C24.2025 6.22868 22.4731 5.87567 19.2022 5.07699L15.6301 19.706C22.6621 21.4231 24.0823 21.4638 25.942 21.6382L27.3478 6.6451ZM19.2163 5.08043C15.8986 4.26356 12.2009 5.43747 10.0137 8.4458L22.1935 17.3013C20.6313 19.4499 17.9896 20.287 15.6161 19.7026L19.2163 5.08043ZM10.6752 7.65586C9.55179 8.82461 8.3306 10.1978 7.25774 11.3979C6.12512 12.6649 5.14443 13.7543 4.31422 14.5979L15.0473 25.1605C16.1753 24.0144 17.3989 22.6487 18.4846 21.4341C19.6301 20.1528 20.6412 19.018 21.532 18.0913L10.6752 7.65586ZM2.44428 17.7995C1.83142 19.932 1.28246 22.0448 0.766822 24.1086L15.3765 27.7588C15.8707 25.7811 16.3722 23.8556 16.9173 21.9589L2.44428 17.7995ZM12.7859 20.0628C11.3786 18.9327 10.6068 17.7325 10.2628 16.6529L-4.08514 21.225C-2.72012 25.5086 -0.024914 29.0887 3.35745 31.8047L12.7859 20.0628ZM49.0226 91.1529C37.0924 75.83 25.0491 59.655 15.6588 43.0086L2.54291 50.4073C12.5172 68.0891 25.1504 85.0043 37.1406 100.404L49.0226 91.1529ZM16.4167 48.4885C17.7181 43.1416 18.8783 38.2983 20.178 33.4022L5.62323 29.5387C4.27301 34.6252 3.06662 39.6617 1.78503 44.9273L16.4167 48.4885ZM10.2558 38.5201C12.4887 39.3578 14.8602 40.0014 17.4298 40.4622L20.0879 25.6398C18.3418 25.3267 16.8573 24.913 15.5454 24.4208L10.2558 38.5201ZM11.2407 32.6387C11.028 36.5165 12.4449 41.1518 16.2019 44.3186L25.9073 32.8046C26.1407 33.0013 26.2267 33.1828 26.2497 33.2415C26.2626 33.2743 26.2687 33.2994 26.2723 33.3217C26.2757 33.3431 26.2811 33.3877 26.2769 33.4633L11.2407 32.6387ZM16.2019 44.3186C20.9449 48.3166 27.7659 48.6695 33.0178 45.9157L26.0246 32.5791C25.9867 32.599 25.934 32.6192 25.8677 32.6322C25.7998 32.6455 25.7353 32.6478 25.6845 32.6435C25.6327 32.6391 25.6225 32.6304 25.6539 32.6428C25.6863 32.6555 25.7813 32.6983 25.9074 32.8046L16.2019 44.3186ZM33.0277 45.9104C38.141 43.2195 41.7579 37.5766 41.5033 31.5231L26.4578 32.1559C26.4531 32.0446 26.4694 32.001 26.4624 32.0267C26.4551 32.0529 26.4317 32.1203 26.3769 32.2113C26.3225 32.3017 26.2536 32.3879 26.1793 32.4592C26.1056 32.53 26.0458 32.5679 26.0147 32.5843L33.0277 45.9104ZM41.5031 31.5173C41.3133 27.0878 38.7352 23.6733 36.6586 21.7295C35.5137 20.6578 34.171 19.6917 32.7085 18.9767C31.3642 18.3194 29.3018 17.5725 26.9 17.7401L27.948 32.7624C27.2666 32.8099 26.7694 32.7139 26.5231 32.6519C26.2639 32.5866 26.121 32.5182 26.0938 32.505C26.0545 32.4857 26.1798 32.5475 26.3678 32.7234C26.45 32.8004 26.5199 32.8769 26.5738 32.9442C26.5999 32.9768 26.6194 33.0036 26.6328 33.0234C26.6463 33.0433 26.6518 33.0532 26.6511 33.0519C26.6505 33.0508 26.6417 33.035 26.6279 33.0038C26.6142 32.9726 26.5939 32.9222 26.5719 32.8524C26.5284 32.7148 26.4717 32.4803 26.458 32.1617L41.5031 31.5173ZM27.2952 17.7229C23.8833 17.7813 20.7651 19.2466 18.5954 20.6956C16.405 22.1583 13.9284 24.4406 12.5361 27.4386L26.1939 33.7814C26.0753 34.0368 26.0226 34.0341 26.2098 33.836C26.3775 33.6586 26.6355 33.4344 26.9584 33.2187C27.2825 33.0023 27.5729 32.8606 27.7695 32.7868C27.9953 32.7021 27.9147 32.7733 27.5528 32.7795L27.2952 17.7229ZM20.6649 23.1936C18.9224 22.8882 17.4901 22.4852 16.2664 22.0125L10.8397 36.0595C13.0838 36.9265 15.4758 37.5725 18.0651 38.0263L20.6649 23.1936ZM20.8125 31.0342C22.0549 26.5205 23.4288 22.0621 25.0318 17.6894L10.8931 12.5063C9.11109 17.3673 7.61454 22.2389 6.29364 27.0378L20.8125 31.0342ZM16.2467 22.4291C20.9574 23.5316 26.3793 24.5761 31.5225 25.5718C36.7538 26.5846 41.685 27.5449 45.7161 28.5156L49.2415 13.8752C44.8154 12.8094 39.5277 11.7832 34.3848 10.7875C29.1538 9.77478 24.0461 8.78873 19.6782 7.7665L16.2467 22.4291ZM40.5577 24.1603C40.9236 25.0143 41.4792 25.882 41.737 26.2855C42.1152 26.8775 42.5908 27.5872 43.1276 28.3703C44.2067 29.9447 45.6488 31.9834 47.3098 34.2986C50.6382 38.9379 54.9399 44.8177 59.1879 50.5846C63.4394 56.3565 67.6523 62.0358 70.8089 66.2814C72.3876 68.4047 73.7027 70.1701 74.6272 71.4103C75.5816 72.6906 76.0696 73.3441 76.059 73.3297L88.2119 64.4372C88.1771 64.3897 79.6976 53.0372 71.3124 41.6536C67.0752 35.9012 62.8179 30.0817 59.5453 25.5203C57.9058 23.2351 56.5368 21.2981 55.5484 19.8562C55.0514 19.1311 54.6791 18.5726 54.427 18.178C54.0545 17.595 54.1974 17.7578 54.3999 18.2306L40.5577 24.1603ZM77.9916 62.5969C71.8477 66.6467 64.986 71.4632 58.2536 76.1883C51.473 80.9473 44.823 85.6139 38.9387 89.4914L47.2245 102.066C53.3298 98.0426 60.1727 93.239 66.9045 88.5143C73.6845 83.7558 80.355 79.075 86.2792 75.17L77.9916 62.5969ZM25.5722 23.7524C24.6582 23.6938 23.7843 23.6097 22.9063 23.5083L21.1788 38.4677C22.2484 38.5912 23.3836 38.7018 24.6087 38.7803L25.5722 23.7524ZM28.0926 35.47C28.0602 35.5138 28.0351 35.5446 28.0195 35.5629C28.0039 35.5814 27.9951 35.5907 27.9944 35.5914C27.9937 35.5922 27.9989 35.5867 28.0108 35.5753C28.0226 35.5641 28.0393 35.5486 28.0612 35.5296C28.1059 35.4906 28.1637 35.4438 28.2328 35.3931C28.3016 35.3425 28.3735 35.2941 28.4444 35.2503C28.5156 35.2064 28.5768 35.1727 28.6237 35.149C28.6716 35.1247 28.6914 35.1176 28.6799 35.1221C28.6706 35.1256 28.6043 35.1511 28.4827 35.1812C28.3656 35.2103 28.1429 35.2573 27.8309 35.2782L26.8225 20.2532C24.232 20.427 21.9648 21.5532 20.5339 22.4366C18.9923 23.3883 17.2793 24.7689 15.9924 26.506L28.0926 35.47ZM25.093 34.9562C25.2555 35.0066 25.0861 34.9945 24.8057 34.6829C24.6709 34.5331 24.4894 34.2892 24.3248 33.926C24.1662 33.5761 23.9795 33.0157 23.9477 32.2637L38.9931 31.6275C38.7616 26.1524 34.3877 22.0748 29.5603 20.5752L25.093 34.9562ZM23.9478 32.264C23.9147 31.4829 24.1509 31.0411 24.2337 30.9063C24.3273 30.7538 24.4955 30.5472 24.8493 30.3613L31.8531 43.6923C36.0173 41.5045 39.2127 36.8155 38.9931 31.6272L23.9478 32.264ZM24.8461 30.3629C25.2063 30.1735 25.5404 30.1209 25.853 30.1418C26.1425 30.1612 26.804 30.2768 27.5312 30.8905L17.8192 42.399C21.9587 45.8923 27.7386 45.8564 31.8562 43.6906L24.8461 30.3629ZM27.5285 30.8882C28.2531 31.4991 29.0907 32.7909 28.8611 34.4619L13.9425 32.412C13.3365 36.8225 15.4066 40.3649 17.8219 42.4013L27.5285 30.8882ZM20.4905 40.911C21.3412 41.0147 24.002 41.3005 25.0112 41.3005V26.2416C25.1805 26.2416 25.2745 26.2491 25.2006 26.2448C25.1613 26.2425 25.0876 26.2376 24.9743 26.2288C24.7496 26.2114 24.4512 26.1851 24.1144 26.1532C23.4325 26.0885 22.7158 26.012 22.3131 25.9629L20.4905 40.911ZM25.0112 41.3005C29.599 41.3005 33.4791 37.747 33.7778 33.0778L18.7497 32.1163C18.9634 28.7762 21.738 26.2416 25.0112 26.2416V41.3005ZM33.7778 33.0774C34.088 28.2252 30.4012 24.0598 25.5688 23.7522L24.6121 38.7806C21.1647 38.5611 18.5278 35.5876 18.7497 32.1167L33.7778 33.0774ZM65.6976 88.101C64.408 86.8459 63.1054 85.5713 61.7945 84.2843L51.2449 95.0302C52.5671 96.3282 53.8858 97.6187 55.1951 98.8929L65.6976 88.101ZM60.824 95.835C70.6584 88.983 80.502 81.9309 88.7073 76.5753L80.4765 63.9649C72.0168 69.4865 61.7868 76.8107 52.2154 83.4795L60.824 95.835ZM88.7065 76.5758C90.5936 75.3444 92.1849 73.2609 92.5888 70.5467C92.9941 67.8226 92.0671 65.4545 90.8477 63.7902L78.7008 72.6908C78.1189 71.8967 77.393 70.3527 77.6939 68.3305C77.9933 66.3182 79.1747 64.8144 80.4772 63.9644L88.7065 76.5758ZM90.85 63.7935C84.6962 55.3859 78.9655 47.4939 73.2421 39.6124C67.5208 31.7337 61.8068 23.8653 55.6997 15.5232L43.5489 24.4185C49.6363 32.7337 55.3339 40.5794 61.0572 48.4608C66.7784 56.3395 72.5254 64.2537 78.6984 72.6876L90.85 63.7935ZM55.6955 15.5174C55.5848 15.3665 55.3995 15.1119 55.231 14.8927C55.0624 14.6733 54.7496 14.2753 54.3336 13.8557C53.8766 13.3946 53.2545 12.8636 52.4346 12.4008C51.6149 11.9381 50.8425 11.6817 50.2229 11.5303L46.6463 26.1582C46.2559 26.0627 45.6751 25.8775 45.0319 25.5144C44.3884 25.1512 43.9275 24.7483 43.6389 24.4571C43.3914 24.2074 43.2542 24.0212 43.2909 24.0688C43.3276 24.1166 43.3771 24.1843 43.5531 24.4242L55.6955 15.5174ZM50.2194 11.5294C48.981 11.2272 47.6626 10.9279 46.3107 10.6332L43.1037 25.3466C44.3792 25.6246 45.5695 25.8954 46.6499 26.1591L50.2194 11.5294ZM44.1744 25.5004C48.032 25.7741 51.6501 26.061 54.6313 26.3924L56.2951 11.4258C52.9973 11.0592 49.1275 10.7551 45.2399 10.4793L44.1744 25.5004ZM48.9558 22.6966C49.3569 23.3859 49.8484 23.9535 49.8776 23.9884C50.056 24.2022 50.2562 24.4306 50.4518 24.6498C50.8498 25.096 51.3719 25.664 51.9789 26.3152C53.2004 27.626 54.877 29.3936 56.8399 31.4469C60.7714 35.5595 65.9237 40.8941 71.0433 46.1763C76.1655 51.4611 81.2653 56.7042 85.096 60.6378C87.0115 62.6048 88.61 64.2448 89.7358 65.3993C90.2987 65.9766 90.7433 66.4325 91.0503 66.7472C91.3714 67.0764 91.5186 67.2273 91.5158 67.2244L102.34 56.7553C102.277 56.6902 92.0158 46.1776 81.8566 35.6958C76.7431 30.4199 71.6198 25.1153 67.7251 21.0411C65.7749 19.001 64.1507 17.2883 62.9954 16.0485C62.4138 15.4245 61.9785 14.9497 61.6889 14.6251C61.5407 14.459 61.4645 14.37 61.4389 14.3393C61.2641 14.1298 61.6239 14.5259 61.9706 15.1216L48.9558 22.6966ZM92.1236 56.1924C86.3851 60.948 79.9764 66.5835 73.6872 72.1132C67.3532 77.6823 61.14 83.1445 55.6428 87.6988L65.2499 99.295C70.9515 94.5714 77.3421 88.9515 83.6307 83.4223C89.9641 77.8537 96.1968 72.3746 101.732 67.7873L92.1236 56.1924Z" fill="#1F5F5B" mask="url(#path-8-inside-4_1071_4121)"/>
</svg>
