<svg width="24" height="24" viewBox="0 0 24 24" fill="none" xmlns="http://www.w3.org/2000/svg">
<g clip-path="url(#clip0_919_12995)">
<path d="M12 24C5.3736 24 0 18.6264 0 12C0 5.3736 5.3736 0 12 0C18.6264 0 24 5.3736 24 12C24 18.6264 18.6264 24 12 24Z" fill="#25D366"/>
<path fill-rule="evenodd" clip-rule="evenodd" d="M17.6132 6.41272C16.1252 4.92232 14.1428 4.10152 12.0332 4.09912C7.68683 4.09912 4.14683 7.63672 4.14683 11.9855C4.14683 13.3751 4.50923 14.7335 5.20043 15.9287L4.08203 20.0159L8.26283 18.9191C9.41483 19.5479 10.7108 19.8791 12.0308 19.8791H12.0332C16.3796 19.8791 19.9172 16.3415 19.9196 11.9927C19.922 9.88552 19.1036 7.90312 17.6132 6.41272ZM12.0356 18.5471H12.0332C10.8572 18.5471 9.70283 18.2303 8.69723 17.6327L8.45723 17.4911L5.97563 18.1415L6.63803 15.7223L6.48203 15.4751C5.82683 14.4311 5.47883 13.2263 5.47883 11.9855C5.48123 8.37112 8.42123 5.43112 12.038 5.43112C13.79 5.43112 15.434 6.11512 16.6724 7.35352C17.9108 8.59192 18.5924 10.2407 18.59 11.9903C18.59 15.6071 15.6476 18.5471 12.0356 18.5471ZM15.6308 13.6367C15.434 13.5383 14.4644 13.0607 14.2844 12.9959C14.1044 12.9311 13.9724 12.8975 13.8404 13.0943C13.7084 13.2911 13.3316 13.7351 13.2164 13.8671C13.1012 13.9991 12.986 14.0159 12.7892 13.9175C12.5924 13.8191 11.9564 13.6103 11.2052 12.9383C10.6196 12.4151 10.2236 11.7695 10.1084 11.5727C9.99323 11.3759 10.0964 11.2679 10.1948 11.1695C10.2836 11.0807 10.3916 10.9391 10.49 10.8239C10.5884 10.7087 10.622 10.6271 10.6868 10.4951C10.7516 10.3631 10.7204 10.2479 10.67 10.1495C10.6196 10.0511 10.226 9.08152 10.0628 8.68552C9.90203 8.30152 9.74123 8.35432 9.61883 8.34712C9.50363 8.34232 9.37163 8.33992 9.24203 8.33992C9.11003 8.33992 8.89643 8.39032 8.71643 8.58712C8.53643 8.78392 8.02763 9.26152 8.02763 10.2311C8.02763 11.2007 8.73323 12.1391 8.83163 12.2687C8.93003 12.4007 10.2212 14.3903 12.1988 15.2447C12.6692 15.4487 13.0364 15.5687 13.322 15.6599C13.7948 15.8111 14.2244 15.7895 14.5628 15.7391C14.942 15.6815 15.7292 15.2615 15.8924 14.8031C16.0556 14.3423 16.0556 13.9487 16.0076 13.8671C15.9596 13.7855 15.8276 13.7375 15.6308 13.6367Z" fill="white"/>
</g>
<defs>
<clipPath id="clip0_919_12995">
<rect width="24" height="24" fill="white"/>
</clipPath>
</defs>
</svg>
