<svg width="40" height="40" viewBox="0 0 40 40" fill="none" xmlns="http://www.w3.org/2000/svg">
<path fill-rule="evenodd" clip-rule="evenodd" d="M20.952 10.4706C20.9549 9.9446 21.3836 9.52056 21.9096 9.52345L29.5287 9.56536C30.0526 9.56824 30.4758 9.99378 30.4758 10.5177V18.0949C30.4758 18.6209 30.0494 19.0472 29.5234 19.0472C28.9975 19.0472 28.5711 18.6209 28.5711 18.0949V11.4649L21.8992 11.4282C21.3732 11.4253 20.9491 10.9966 20.952 10.4706ZM10.4758 20.952C11.0018 20.952 11.4282 21.3784 11.4282 21.9044V28.6149H18.0949C18.6209 28.6149 19.0472 29.0413 19.0472 29.5672C19.0472 30.0932 18.6209 30.5196 18.0949 30.5196H10.4758C9.94983 30.5196 9.52344 30.0932 9.52344 29.5672V21.9044C9.52344 21.3784 9.94983 20.952 10.4758 20.952Z" fill="black"/>
</svg>
