<svg width="21" height="20" viewBox="0 0 21 20" fill="none" xmlns="http://www.w3.org/2000/svg">
<path d="M18.1209 5.71336H7.64472M5.73996 5.71336H2.88281M18.1209 15.2372H7.64472M5.73996 15.2372H2.88281M13.359 10.4753H2.88281M18.1209 10.4753H15.2638M6.69234 3.80859C6.94492 3.80859 7.18717 3.90893 7.36577 4.08754C7.54438 4.26615 7.64472 4.50839 7.64472 4.76097V6.66574C7.64472 6.91832 7.54438 7.16057 7.36577 7.33917C7.18717 7.51778 6.94492 7.61812 6.69234 7.61812C6.43975 7.61812 6.19751 7.51778 6.0189 7.33917C5.8403 7.16057 5.73996 6.91832 5.73996 6.66574V4.76097C5.73996 4.50839 5.8403 4.26615 6.0189 4.08754C6.19751 3.90893 6.43975 3.80859 6.69234 3.80859V3.80859ZM6.69234 13.3324C6.94492 13.3324 7.18717 13.4327 7.36577 13.6113C7.54438 13.79 7.64472 14.0322 7.64472 14.2848V16.1895C7.64472 16.4421 7.54438 16.6844 7.36577 16.863C7.18717 17.0416 6.94492 17.1419 6.69234 17.1419C6.43975 17.1419 6.19751 17.0416 6.0189 16.863C5.8403 16.6844 5.73996 16.4421 5.73996 16.1895V14.2848C5.73996 14.0322 5.8403 13.79 6.0189 13.6113C6.19751 13.4327 6.43975 13.3324 6.69234 13.3324ZM14.3114 8.5705C14.564 8.5705 14.8062 8.67084 14.9848 8.84944C15.1634 9.02805 15.2638 9.27029 15.2638 9.52288V11.4276C15.2638 11.6802 15.1634 11.9225 14.9848 12.1011C14.8062 12.2797 14.564 12.38 14.3114 12.38C14.0588 12.38 13.8166 12.2797 13.6379 12.1011C13.4593 11.9225 13.359 11.6802 13.359 11.4276V9.52288C13.359 9.27029 13.4593 9.02805 13.6379 8.84944C13.8166 8.67084 14.0588 8.5705 14.3114 8.5705V8.5705Z" stroke="#1F5F5B" stroke-linecap="round" stroke-linejoin="round"/>
</svg>
