<svg width="45" height="45" viewBox="0 0 45 45" fill="none" xmlns="http://www.w3.org/2000/svg">
<rect x="0.5" y="0.5" width="44" height="44" fill="white"/>
<path d="M10.1813 12.6562C11.25 12.6562 12.1688 12.8812 12.9375 13.3312C13.725 13.7625 14.325 14.3625 14.7375 15.1312C15.15 15.8812 15.3563 16.7344 15.3563 17.6906C15.3563 18.8344 15.1313 19.9219 14.6812 20.9531C14.25 21.9656 13.5469 23.1 12.5719 24.3562C11.5969 25.6125 10.0969 27.3937 8.07188 29.7H15.7781L15.4688 31.7812H5.2875V29.8125C7.4625 27.3 9.04688 25.3969 10.0406 24.1031C11.0531 22.8094 11.7562 21.7031 12.15 20.7844C12.5437 19.8469 12.7406 18.8625 12.7406 17.8312C12.7406 16.8375 12.4875 16.0687 11.9813 15.525C11.4938 14.9812 10.8281 14.7094 9.98438 14.7094C9.27187 14.7094 8.65313 14.8687 8.12813 15.1875C7.60313 15.5062 7.05938 16.0125 6.49688 16.7062L4.92188 15.4969C6.29063 13.6031 8.04375 12.6562 10.1813 12.6562Z" fill="#159947"/>
<path d="M24.8006 19.44L22.32 23.5237L25.1888 28.2656H24.1256L21.5437 23.9625H20.3625V28.2656H19.4175V19.44H20.3625V23.2031H21.5606L23.8219 19.44H24.8006Z" fill="#159947"/>
<path d="M32.3977 19.44L29.917 23.5237L32.7858 28.2656H31.7227L29.1408 23.9625H27.9595V28.2656H27.0145V19.44H27.9595V23.2031H29.1577L31.4189 19.44H32.3977Z" fill="#159947"/>
<path d="M38.4253 23.4731C39.0666 23.5406 39.5616 23.7544 39.9103 24.1144C40.2591 24.4744 40.4335 24.9806 40.4335 25.6331C40.4335 26.5106 40.141 27.1687 39.556 27.6075C38.971 28.0463 38.1835 28.2656 37.1935 28.2656H34.6116V19.5244C35.6466 19.3444 36.4678 19.2544 37.0753 19.2544C37.9978 19.2544 38.7122 19.4625 39.2185 19.8788C39.736 20.295 39.9947 20.8575 39.9947 21.5662C39.9947 22.6012 39.4716 23.2369 38.4253 23.4731ZM37.0922 20.0306C36.6422 20.0306 36.1303 20.07 35.5566 20.1487V23.1862H37.3791C37.9078 23.1862 38.3185 23.0569 38.611 22.7981C38.9035 22.5281 39.0497 22.1287 39.0497 21.6C39.0497 21.0938 38.8866 20.7056 38.5603 20.4356C38.2341 20.1656 37.7447 20.0306 37.0922 20.0306ZM37.1766 27.4894C38.6953 27.4894 39.4547 26.8706 39.4547 25.6331C39.4547 25.0369 39.2916 24.6038 38.9653 24.3337C38.6391 24.0638 38.1441 23.9288 37.4803 23.9288H35.5566V27.4894H37.1766Z" fill="#159947"/>
<rect x="0.5" y="0.5" width="44" height="44" stroke="#159947"/>
</svg>
