<svg width="23" height="23" viewBox="0 0 23 23" fill="none" xmlns="http://www.w3.org/2000/svg">
<path d="M20.6875 12.1875H6.9375C6.75516 12.1875 6.5803 12.1151 6.45136 11.9861C6.32243 11.8572 6.25 11.6823 6.25 11.5C6.25 11.3177 6.32243 11.1428 6.45136 11.0139C6.5803 10.8849 6.75516 10.8125 6.9375 10.8125H20.6875C20.8698 10.8125 21.0447 10.8849 21.1736 11.0139C21.3026 11.1428 21.375 11.3177 21.375 11.5C21.375 11.6823 21.3026 11.8572 21.1736 11.9861C21.0447 12.1151 20.8698 12.1875 20.6875 12.1875ZM3.5 10.125C3.22805 10.125 2.96221 10.2056 2.73609 10.3567C2.50997 10.5078 2.33374 10.7226 2.22967 10.9738C2.1256 11.2251 2.09837 11.5015 2.15142 11.7683C2.20448 12.035 2.33543 12.28 2.52773 12.4723C2.72003 12.6646 2.96503 12.7955 3.23175 12.8486C3.49848 12.9016 3.77494 12.8744 4.02619 12.7703C4.27744 12.6663 4.49218 12.49 4.64327 12.2639C4.79436 12.0378 4.875 11.772 4.875 11.5C4.875 11.1353 4.73013 10.7856 4.47227 10.5277C4.21441 10.2699 3.86467 10.125 3.5 10.125ZM21.375 5.3125C21.375 5.13016 21.3026 4.9553 21.1736 4.82637C21.0447 4.69743 20.8698 4.625 20.6875 4.625H6.9375C6.75516 4.625 6.5803 4.69743 6.45136 4.82637C6.32243 4.9553 6.25 5.13016 6.25 5.3125C6.25 5.49484 6.32243 5.66971 6.45136 5.79864C6.5803 5.92757 6.75516 6 6.9375 6H20.6875C20.8698 6 21.0447 5.92757 21.1736 5.79864C21.3026 5.66971 21.375 5.49484 21.375 5.3125ZM4.875 5.3125C4.875 5.04055 4.79436 4.77471 4.64327 4.54859C4.49218 4.32247 4.27744 4.14624 4.02619 4.04217C3.77494 3.9381 3.49848 3.91087 3.23175 3.96392C2.96503 4.01698 2.72003 4.14793 2.52773 4.34023C2.33543 4.53253 2.20448 4.77753 2.15142 5.04425C2.09837 5.31098 2.1256 5.58744 2.22967 5.83869C2.33374 6.08994 2.50997 6.30468 2.73609 6.45577C2.96221 6.60686 3.22805 6.6875 3.5 6.6875C3.86467 6.6875 4.21441 6.54264 4.47227 6.28477C4.73013 6.02691 4.875 5.67717 4.875 5.3125ZM21.375 17.6875C21.375 17.5052 21.3026 17.3303 21.1736 17.2014C21.0447 17.0724 20.8698 17 20.6875 17H6.9375C6.75516 17 6.5803 17.0724 6.45136 17.2014C6.32243 17.3303 6.25 17.5052 6.25 17.6875C6.25 17.8698 6.32243 18.0447 6.45136 18.1736C6.5803 18.3026 6.75516 18.375 6.9375 18.375H20.6875C20.8698 18.375 21.0447 18.3026 21.1736 18.1736C21.3026 18.0447 21.375 17.8698 21.375 17.6875ZM4.875 17.6875C4.875 17.4156 4.79436 17.1497 4.64327 16.9236C4.49218 16.6975 4.27744 16.5212 4.02619 16.4172C3.77494 16.3131 3.49848 16.2859 3.23175 16.3389C2.96503 16.392 2.72003 16.5229 2.52773 16.7152C2.33543 16.9075 2.20448 17.1525 2.15142 17.4193C2.09837 17.686 2.1256 17.9624 2.22967 18.2137C2.33374 18.4649 2.50997 18.6797 2.73609 18.8308C2.96221 18.9819 3.22805 19.0625 3.5 19.0625C3.86467 19.0625 4.21441 18.9176 4.47227 18.6598C4.73013 18.4019 4.875 18.0522 4.875 17.6875Z" fill="#159947"/>
</svg>
