<svg width="23" height="23" viewBox="0 0 23 23" fill="none" xmlns="http://www.w3.org/2000/svg">
<g clip-path="url(#clip0_919_12637)">
<path d="M22.2917 1.41675H1.20835C0.955348 1.41675 0.75 1.6221 0.75 1.8751V13.7917C0.75 14.0447 0.955348 14.2501 1.20835 14.2501H8.5417C8.79469 14.2501 9.00004 14.0447 9.00004 13.7917V11.9584C9.00004 11.7054 8.79469 11.5001 8.5417 11.5001C8.2887 11.5001 8.08335 11.7054 8.08335 11.9584V13.3334H1.66665V8.29175V2.33344H8.0833V2.5626C8.0833 2.8156 8.28865 3.02094 8.54165 3.02094C8.79465 3.02094 9 2.8156 9 2.5626V2.33344H21.8333V7.83344H13.125C12.872 7.83344 12.6667 8.03879 12.6667 8.29179V10.1251C12.6667 10.3781 12.872 10.5834 13.125 10.5834C13.378 10.5834 13.5833 10.3781 13.5833 10.1251V8.7501H21.8333V16.0834H15.875C15.622 16.0834 15.4167 16.2888 15.4167 16.5418V20.6668H1.66665V19.2918C1.66665 19.0388 1.4613 18.8334 1.2083 18.8334C0.955305 18.8334 0.75 19.0387 0.75 19.2917V21.1251C0.75 21.3781 0.955348 21.5834 1.20835 21.5834H15.875C16.128 21.5834 16.3333 21.3781 16.3333 21.1251V17.0001H22.2917C22.5447 17.0001 22.75 16.7947 22.75 16.5417V1.8751C22.75 1.6221 22.5447 1.41675 22.2917 1.41675Z" fill="black"/>
<path d="M8.54184 6.18349C8.79484 6.18349 9.00019 5.97909 9.00019 5.72515V4.67099C9.00019 4.41799 8.79484 4.21265 8.54184 4.21265C8.28884 4.21265 8.0835 4.41705 8.0835 4.67099V5.72515C8.08354 5.97905 8.28884 6.18349 8.54184 6.18349Z" fill="black"/>
<path d="M7.62485 7.83339C7.37185 7.83339 7.1665 8.03874 7.1665 8.29174C7.1665 8.54474 7.37185 8.75004 7.62485 8.75004H8.5415C8.7945 8.75004 8.99985 8.5447 8.99985 8.2917V7.83335C8.99985 7.58035 8.7945 7.375 8.5415 7.375C8.2885 7.375 8.08316 7.58035 8.08316 7.83335H7.62485V7.83339Z" fill="black"/>
<path d="M4.87485 7.83354C4.62185 7.83354 4.4165 8.03889 4.4165 8.29189C4.4165 8.54489 4.62185 8.75019 4.87485 8.75019H5.7915C6.0445 8.75019 6.24985 8.54484 6.24985 8.29184C6.24985 8.03884 6.0445 7.8335 5.7915 7.8335H4.87485V7.83354Z" fill="black"/>
<path d="M2.12485 8.75019H3.0415C3.2945 8.75019 3.49985 8.54484 3.49985 8.29184C3.49985 8.03884 3.2945 7.8335 3.0415 7.8335H2.12485C1.87185 7.8335 1.6665 8.03884 1.6665 8.29184C1.6665 8.54484 1.87185 8.75019 2.12485 8.75019Z" fill="black"/>
</g>
<defs>
<clipPath id="clip0_919_12637">
<rect width="22" height="22" fill="white" transform="translate(0.75 0.5)"/>
</clipPath>
</defs>
</svg>
