<svg width="40" height="40" viewBox="0 0 40 40" fill="none" xmlns="http://www.w3.org/2000/svg">
<path fill-rule="evenodd" clip-rule="evenodd" d="M21.9044 9.52344C22.4304 9.52344 22.8568 9.94983 22.8568 10.4758V17.1791L29.5182 17.1425C30.0442 17.1396 30.4729 17.5637 30.4758 18.0896C30.4787 18.6156 30.0547 19.0443 29.5287 19.0472L21.9096 19.0891C21.6561 19.0905 21.4125 18.9908 21.2328 18.8121C21.0531 18.6333 20.952 18.3903 20.952 18.1368V10.4758C20.952 9.94983 21.3784 9.52344 21.9044 9.52344ZM9.52345 21.8989C9.52648 21.3729 9.95532 20.949 10.4813 20.952L18.1003 20.9958C18.6242 20.9988 19.0472 21.4244 19.0472 21.9482V29.5672C19.0472 30.0932 18.6209 30.5196 18.0949 30.5196C17.5689 30.5196 17.1425 30.0932 17.1425 29.5672V22.8951L10.4703 22.8568C9.94437 22.8537 9.52043 22.4249 9.52345 21.8989Z" fill="white"/>
</svg>
