<svg width="525" height="112" viewBox="0 0 525 112" fill="none" xmlns="http://www.w3.org/2000/svg">
<path d="M173.469 108.012C174.042 106.336 174.697 104.456 175.434 102.331C176.172 100.205 176.909 98.2841 177.646 96.5674H181.045C181.659 98.4476 182.314 100.45 183.092 102.576C183.87 104.701 184.566 106.5 185.181 107.971H182.765C182.232 106.704 181.864 105.764 181.659 105.11H176.663C176.376 105.968 176.09 106.908 175.762 107.971H173.469V108.012ZM177.195 103.312H181.004C180.389 101.595 179.857 99.9599 179.407 98.4476H178.956C178.424 99.7964 177.81 101.431 177.195 103.312Z" fill="#7C7C7B"/>
<path d="M185.672 102.208C185.672 101.268 185.754 100.491 185.877 99.7965C185.999 99.1017 186.245 98.5703 186.532 98.1207C186.819 97.6711 187.187 97.3032 187.638 97.058C188.088 96.7719 188.579 96.6084 189.153 96.4858C189.726 96.3631 190.381 96.3223 191.118 96.3223C191.855 96.3223 192.511 96.3631 193.084 96.4858C193.657 96.6084 194.149 96.7719 194.599 97.058C195.05 97.3441 195.418 97.6711 195.705 98.1207C195.992 98.5703 196.196 99.1426 196.36 99.7965C196.524 100.451 196.565 101.268 196.565 102.208C196.565 103.393 196.442 104.334 196.237 105.151C196.032 105.928 195.664 106.541 195.213 107.031C194.722 107.481 194.19 107.808 193.534 108.012C192.879 108.217 192.101 108.298 191.118 108.298C190.381 108.298 189.726 108.257 189.153 108.135C188.579 108.012 188.088 107.808 187.638 107.563C187.187 107.276 186.819 106.909 186.532 106.459C186.245 106.009 186.04 105.437 185.877 104.742C185.713 104.047 185.672 103.23 185.672 102.29V102.208ZM188.047 100.737C188.047 101.145 188.006 101.636 188.006 102.208C188.006 102.78 188.006 103.312 188.047 103.72C188.047 104.129 188.17 104.497 188.252 104.783C188.334 105.11 188.457 105.355 188.62 105.519C188.784 105.682 188.948 105.846 189.194 105.969C189.439 106.091 189.726 106.173 190.013 106.214C190.299 106.255 190.668 106.255 191.118 106.255C191.569 106.255 191.937 106.255 192.224 106.214C192.511 106.173 192.797 106.091 193.043 105.969C193.289 105.846 193.494 105.723 193.616 105.519C193.78 105.315 193.903 105.069 193.985 104.783C194.067 104.456 194.149 104.129 194.19 103.72C194.19 103.312 194.231 102.821 194.231 102.208C194.231 101.595 194.231 101.105 194.19 100.737C194.149 100.369 194.067 99.96 193.985 99.6739C193.903 99.3878 193.78 99.1426 193.616 98.9382C193.494 98.7747 193.289 98.6112 193.043 98.5295C192.797 98.4477 192.511 98.366 192.224 98.3251C191.937 98.2842 191.569 98.2842 191.118 98.2842C190.668 98.2842 190.299 98.2842 190.013 98.3251C189.726 98.366 189.439 98.4477 189.194 98.5295C188.948 98.6112 188.743 98.7747 188.62 98.9382C188.497 99.1017 188.375 99.3469 188.252 99.6739C188.129 100.001 188.088 100.328 188.047 100.737Z" fill="#7C7C7B"/>
<path d="M202.258 102.903L206.681 98.3252L207.868 99.5105L204.961 102.862L207.868 106.255L206.721 107.481L202.258 102.862V102.903ZM206.721 102.903L211.144 98.3252L212.332 99.5105L209.424 102.862L212.332 106.255L211.185 107.481L206.721 102.862V102.903Z" fill="#7C7C7B"/>
<path d="M214.219 108.012V96.6084H222.45V98.4886H216.389V101.145H220.361C221.426 101.145 222.163 101.432 222.655 102.045C223.146 102.617 223.392 103.516 223.392 104.661C223.392 105.887 223.146 106.745 222.655 107.277C222.163 107.808 221.426 108.053 220.484 108.053H214.219V108.012ZM216.389 106.173H219.993C220.73 106.173 221.099 105.642 221.099 104.579C221.099 103.475 220.73 102.903 219.952 102.903H216.389V106.173Z" fill="#7C7C7B"/>
<path d="M225.273 105.396C225.273 104.947 225.314 104.538 225.437 104.211C225.56 103.884 225.683 103.639 225.847 103.434C226.011 103.23 226.256 103.067 226.543 102.985C226.83 102.862 227.116 102.78 227.444 102.78C227.731 102.78 228.099 102.74 228.55 102.74C229.164 102.74 229.86 102.821 230.638 102.985C230.638 102.617 230.638 102.29 230.556 102.086C230.515 101.881 230.392 101.677 230.229 101.554C230.065 101.432 229.86 101.309 229.614 101.268C229.369 101.227 229 101.186 228.55 101.186C227.567 101.186 226.748 101.309 226.052 101.554L225.683 99.8783C226.789 99.5922 227.894 99.4287 229 99.4287C229.655 99.4287 230.188 99.4696 230.638 99.5922C231.088 99.7148 231.457 99.8783 231.785 100.124C232.112 100.369 232.317 100.696 232.481 101.105C232.645 101.513 232.686 102.045 232.686 102.658V107.563C232.153 107.767 231.539 107.931 230.802 108.053C230.065 108.176 229.409 108.258 228.795 108.258C227.485 108.258 226.543 108.053 226.052 107.644C225.56 107.236 225.314 106.5 225.314 105.396H225.273ZM227.362 105.315C227.362 105.846 227.444 106.173 227.649 106.336C227.853 106.5 228.263 106.582 228.877 106.582C229.45 106.582 230.024 106.5 230.556 106.296V104.293C230.106 104.211 229.532 104.17 228.877 104.17C228.55 104.17 228.304 104.17 228.14 104.17C227.976 104.17 227.812 104.252 227.69 104.334C227.567 104.415 227.444 104.538 227.403 104.661C227.362 104.824 227.321 105.028 227.321 105.274L227.362 105.315Z" fill="#7C7C7B"/>
<path d="M234.773 108.012V99.6738H236.821V102.739H240.097V99.6738H242.145V108.012H240.097V104.456H236.821V108.012H234.773Z" fill="#7C7C7B"/>
<path d="M244.4 108.012V99.6738H246.448V103.679C247.267 102.78 248.332 101.431 249.683 99.6738H252.099C250.502 101.799 249.437 103.107 248.946 103.475C249.151 103.557 249.314 103.639 249.437 103.72C249.56 103.802 249.765 103.966 249.97 104.17C250.174 104.374 250.379 104.62 250.584 104.947C250.789 105.274 251.034 105.682 251.321 106.173C251.608 106.663 251.935 107.317 252.263 108.012H249.888C249.56 107.276 249.233 106.704 248.905 106.214C248.577 105.723 248.291 105.355 248.004 105.069C247.717 104.783 247.472 104.579 247.226 104.456C246.98 104.333 246.735 104.211 246.407 104.17V108.053H244.359L244.4 108.012Z" fill="#7C7C7B"/>
<path d="M256.76 106.05H258.643C259.667 103.271 260.241 100.083 260.363 96.6084H267.939V106.05H270.11L269.782 110.506H267.735V108.012H259.135V110.506H257.087L256.719 106.05H256.76ZM261.06 106.05H265.81V98.4477H262.411C262.206 101.432 261.756 103.925 261.06 106.05Z" fill="#7C7C7B"/>
<path d="M270.727 102.208C270.727 101.268 270.808 100.491 270.931 99.7965C271.054 99.1017 271.3 98.5703 271.587 98.1207C271.873 97.6711 272.242 97.3032 272.692 97.058C273.143 96.7719 273.634 96.6084 274.207 96.4858C274.781 96.3631 275.436 96.3223 276.173 96.3223C276.91 96.3223 277.565 96.3631 278.139 96.4858C278.712 96.6084 279.203 96.7719 279.654 97.058C280.104 97.3441 280.473 97.6711 280.76 98.1207C281.046 98.5703 281.251 99.1426 281.415 99.7965C281.579 100.451 281.619 101.268 281.619 102.208C281.619 103.393 281.497 104.334 281.292 105.151C281.087 105.928 280.719 106.541 280.268 107.031C279.777 107.481 279.244 107.808 278.589 108.012C277.934 108.217 277.156 108.298 276.173 108.298C275.436 108.298 274.781 108.257 274.207 108.135C273.634 108.012 273.143 107.808 272.692 107.563C272.242 107.276 271.873 106.909 271.587 106.459C271.3 106.009 271.095 105.437 270.931 104.742C270.767 104.047 270.727 103.23 270.727 102.29V102.208ZM273.102 100.737C273.102 101.145 273.061 101.636 273.061 102.208C273.061 102.78 273.061 103.312 273.102 103.72C273.102 104.129 273.225 104.497 273.306 104.783C273.388 105.11 273.511 105.355 273.675 105.519C273.839 105.682 274.003 105.846 274.248 105.969C274.494 106.091 274.781 106.173 275.067 106.214C275.354 106.255 275.723 106.255 276.173 106.255C276.623 106.255 276.992 106.255 277.279 106.214C277.565 106.173 277.852 106.091 278.098 105.969C278.343 105.846 278.548 105.723 278.671 105.519C278.835 105.315 278.958 105.069 279.04 104.783C279.121 104.456 279.203 104.129 279.244 103.72C279.244 103.312 279.285 102.821 279.285 102.208C279.285 101.595 279.285 101.105 279.244 100.737C279.203 100.369 279.121 99.96 279.04 99.6739C278.958 99.3878 278.835 99.1426 278.671 98.9382C278.548 98.7747 278.343 98.6112 278.098 98.5295C277.852 98.4477 277.565 98.366 277.279 98.3251C276.992 98.2842 276.623 98.2842 276.173 98.2842C275.723 98.2842 275.354 98.2842 275.067 98.3251C274.781 98.366 274.494 98.4477 274.248 98.5295C274.003 98.6112 273.798 98.7747 273.675 98.9382C273.552 99.1017 273.429 99.3469 273.306 99.6739C273.184 100.001 273.143 100.328 273.102 100.737Z" fill="#7C7C7B"/>
<path d="M283.953 108.012V96.6084H286.943C288.048 98.8565 289.113 101.309 290.137 103.925C291.038 101.595 292.061 99.1426 293.29 96.6084H296.075V108.012H293.986V99.5104C293.044 101.554 291.979 104.047 290.792 106.95H289.113C287.68 103.271 286.656 100.778 286.042 99.5104V108.012H283.953Z" fill="#7C7C7B"/>
<path d="M298.578 106.786C298.578 106.296 298.66 106.009 298.824 105.846C298.988 105.682 299.315 105.642 299.848 105.642C300.38 105.642 300.708 105.723 300.912 105.846C301.117 105.969 301.158 106.296 301.158 106.786C301.158 107.317 301.076 107.644 300.871 107.808C300.667 107.971 300.339 108.053 299.807 108.053C299.315 108.053 298.988 107.971 298.824 107.808C298.66 107.644 298.578 107.317 298.578 106.786Z" fill="#7C7C7B"/>
<path d="M303.656 108.012V96.6084H309.594C311.683 96.6084 312.747 97.9164 312.747 100.532C312.747 101.023 312.706 101.513 312.584 101.922C312.461 102.331 312.297 102.739 312.051 103.107C311.805 103.475 311.478 103.72 311.068 103.925C310.659 104.129 310.208 104.211 309.676 104.211H305.868V108.012H303.697H303.656ZM305.827 102.453H309.021C309.471 102.453 309.84 102.29 310.086 101.963C310.331 101.636 310.454 101.145 310.454 100.491C310.454 99.1017 310.004 98.4068 309.103 98.4068H305.868V102.413L305.827 102.453Z" fill="#7C7C7B"/>
<path d="M313.844 102.249C313.844 101.513 313.926 100.9 314.048 100.41C314.212 99.919 314.458 99.5103 314.786 99.1424C315.154 98.7746 315.646 98.5293 316.26 98.325C316.874 98.1615 317.652 98.0388 318.594 97.998V96.5674H320.764V97.998C321.706 98.0388 322.484 98.1615 323.14 98.325C323.754 98.4885 324.286 98.7746 324.655 99.1424C325.023 99.5103 325.269 99.919 325.433 100.41C325.597 100.9 325.679 101.513 325.679 102.249C325.679 102.985 325.597 103.598 325.433 104.088C325.269 104.579 325.023 105.028 324.655 105.355C324.286 105.723 323.795 105.968 323.14 106.173C322.525 106.336 321.706 106.459 320.764 106.5V107.971H318.594V106.5C317.652 106.459 316.874 106.336 316.26 106.173C315.646 106.009 315.154 105.723 314.786 105.355C314.417 104.987 314.171 104.579 314.048 104.088C313.926 103.598 313.844 102.985 313.844 102.249ZM316.014 102.249C316.014 102.617 316.014 102.944 316.055 103.189C316.055 103.434 316.178 103.639 316.26 103.884C316.342 104.129 316.506 104.252 316.71 104.374C316.915 104.497 317.161 104.579 317.447 104.66C317.734 104.742 318.144 104.783 318.594 104.783V99.7964C318.021 99.7964 317.57 99.8782 317.243 99.9599C316.915 100.042 316.628 100.205 316.465 100.41C316.301 100.614 316.178 100.859 316.096 101.145C316.014 101.431 316.014 101.799 316.014 102.29V102.249ZM320.764 104.742C321.256 104.742 321.624 104.701 321.952 104.62C322.28 104.538 322.525 104.456 322.73 104.333C322.935 104.211 323.099 104.047 323.181 103.843C323.262 103.639 323.344 103.393 323.385 103.148C323.385 102.903 323.426 102.576 323.426 102.208C323.426 101.717 323.426 101.35 323.344 101.064C323.262 100.777 323.181 100.532 322.976 100.328C322.771 100.123 322.525 99.9599 322.157 99.8782C321.788 99.7964 321.338 99.7556 320.724 99.7147V104.701L320.764 104.742Z" fill="#7C7C7B"/>
<path d="M326.828 106.295L329.736 102.944L326.828 99.5104L327.975 98.2842L332.438 102.862L328.016 107.44L326.828 106.255V106.295ZM331.292 106.295L334.199 102.944L331.292 99.5104L332.438 98.2842L336.902 102.862L332.479 107.44L331.292 106.255V106.295Z" fill="#7C7C7B"/>
<path d="M175.935 71.3068C175.648 69.8763 175.484 68.1595 175.484 66.1567C175.484 64.1539 175.648 62.4781 175.935 61.0475C176.221 59.6169 176.672 58.4315 177.245 57.4506C177.819 56.5105 178.597 55.7339 179.539 55.1616C180.48 54.5894 181.545 54.2215 182.733 53.9763C183.92 53.731 185.272 53.6084 186.869 53.6084C187.974 53.6084 189.203 53.6902 190.472 53.8536C191.783 54.0171 192.889 54.2215 193.83 54.5076L192.807 58.5542C192.192 58.3089 191.373 58.1454 190.391 57.9819C189.408 57.8184 188.466 57.7775 187.647 57.7775C186.664 57.7775 185.886 57.7775 185.272 57.8593C184.657 57.941 184.043 58.0637 183.429 58.268C182.815 58.4724 182.364 58.7585 181.996 59.1264C181.627 59.4943 181.34 59.9847 181.095 60.6387C180.849 61.2927 180.644 62.0284 180.521 62.9277C180.398 63.8269 180.358 64.8896 180.358 66.1567C180.358 67.4238 180.398 68.4865 180.521 69.3858C180.644 70.285 180.808 71.0616 181.095 71.7156C181.381 72.3696 181.668 72.8601 182.037 73.2688C182.405 73.6775 182.856 73.9636 183.429 74.2089C184.002 74.4541 184.616 74.5768 185.272 74.6585C185.927 74.7403 186.705 74.7811 187.647 74.7811C188.507 74.7811 189.408 74.6994 190.391 74.5768C191.373 74.4541 192.192 74.2498 192.807 74.0045L193.83 78.051C192.889 78.2963 191.783 78.5007 190.472 78.6642C189.162 78.8277 187.974 78.9094 186.828 78.9094C185.231 78.9094 183.838 78.7868 182.692 78.5007C181.504 78.2554 180.439 77.8058 179.498 77.2336C178.556 76.6205 177.819 75.8438 177.204 74.8629C176.631 73.8819 176.181 72.6557 175.894 71.2251L175.935 71.3068Z" fill="#364650"/>
<path d="M194.32 58.1865V54.2217H215.41V58.1865H207.179V78.5008H202.551V58.1865H194.32Z" fill="#364650"/>
<path d="M218.562 78.5008V54.2217H231.134C235.598 54.2217 237.85 57.0011 237.85 62.5191C237.85 63.5818 237.728 64.5628 237.482 65.5029C237.236 66.443 236.827 67.2605 236.335 67.9962C235.844 68.7319 235.107 69.3042 234.247 69.7538C233.387 70.1625 232.404 70.4078 231.298 70.4078H223.231V78.5008H218.603H218.562ZM223.19 66.6474H229.947C230.93 66.6474 231.667 66.2795 232.158 65.5846C232.691 64.8898 232.936 63.8679 232.936 62.4782C232.936 59.5353 231.953 58.1047 230.029 58.1047H223.149V66.6474H223.19Z" fill="#364650"/>
<path d="M240.844 66.1569C240.844 64.1949 241.008 62.4782 241.335 61.0885C241.663 59.6579 242.113 58.4725 242.687 57.5324C243.26 56.5923 244.038 55.8157 245.021 55.2435C246.004 54.6713 247.068 54.2625 248.256 54.0173C249.443 53.772 250.836 53.6494 252.433 53.6494C254.03 53.6494 255.422 53.772 256.61 54.0173C257.797 54.2625 258.862 54.6713 259.845 55.2435C260.828 55.8157 261.606 56.5515 262.179 57.5324C262.793 58.4725 263.244 59.6579 263.531 61.0885C263.817 62.5191 263.981 64.1949 263.981 66.1569C263.981 68.6502 263.735 70.6939 263.285 72.3697C262.834 74.0455 262.097 75.3535 261.074 76.3345C260.05 77.3155 258.862 77.9694 257.511 78.3782C256.118 78.7869 254.439 78.9913 252.392 78.9913C250.795 78.9913 249.403 78.8687 248.215 78.6234C247.027 78.3782 245.963 77.9694 244.98 77.3563C244.038 76.7841 243.26 75.9666 242.646 74.9856C242.031 74.0047 241.581 72.7784 241.294 71.307C240.967 69.8355 240.844 68.1188 240.844 66.116V66.1569ZM245.84 63.0504C245.758 63.9088 245.717 64.9715 245.717 66.2386C245.717 67.5057 245.717 68.5684 245.84 69.4268C245.922 70.2851 246.045 71.0617 246.29 71.7157C246.536 72.3697 246.741 72.9011 247.068 73.3098C247.396 73.7185 247.805 74.0047 248.297 74.2499C248.829 74.4951 249.402 74.6586 250.017 74.7404C250.672 74.8221 251.45 74.863 252.351 74.863C253.252 74.863 254.071 74.8221 254.685 74.7404C255.34 74.6586 255.914 74.4951 256.446 74.2499C256.978 74.0047 257.388 73.6777 257.716 73.3098C258.002 72.9011 258.289 72.4106 258.494 71.7157C258.698 71.0209 258.862 70.2851 258.944 69.4268C259.026 68.5684 259.067 67.5057 259.067 66.2386C259.067 64.9715 259.067 63.9088 258.944 63.0504C258.862 62.1921 258.698 61.4563 258.494 60.8024C258.289 60.1484 258.002 59.6579 257.716 59.29C257.429 58.9222 256.978 58.636 256.446 58.3908C255.914 58.1456 255.34 58.0229 254.726 57.9412C254.112 57.8594 253.334 57.8186 252.351 57.8186C251.368 57.8186 250.59 57.8186 249.976 57.9412C249.362 58.0229 248.788 58.1456 248.256 58.3908C247.723 58.636 247.314 58.9222 246.986 59.29C246.7 59.6579 246.413 60.1484 246.208 60.8024C246.004 61.4563 245.84 62.1921 245.758 63.0504H245.84Z" fill="#364650"/>
<path d="M268.891 78.5008V54.2217H273.354V72.5332C277.572 65.7481 281.176 59.6579 284.124 54.2217H289.653V78.5008H285.189V60.9659C281.667 67.424 278.227 73.269 274.869 78.5008H268.891Z" fill="#364650"/>
<path d="M292.891 58.1865V54.2217H313.98V58.1865H305.749V78.5008H301.122V58.1865H292.891Z" fill="#364650"/>
<path d="M317.133 78.5008V54.2217H334.783V58.1865H321.719V63.7453H331.015V67.7101H321.719V74.4952H334.783V78.46H317.133V78.5008Z" fill="#364650"/>
<path d="M336.744 78.5008C339.693 69.4677 341.331 61.3746 341.658 54.2217H357.916V78.5008H353.452V58.1865H345.876C345.63 61.3746 345.139 64.7672 344.402 68.3232C343.665 71.8792 342.723 75.2718 341.576 78.5008H336.703H336.744Z" fill="#364650"/>
<path d="M364.141 78.5008V54.2217H368.768V62.8052H377.204C378.351 62.8052 379.374 63.0096 380.193 63.4183C381.053 63.8271 381.709 64.3993 382.2 65.0942C382.691 65.8299 383.06 66.6474 383.306 67.5875C383.551 68.5276 383.674 69.5494 383.674 70.6939C383.674 73.2281 383.142 75.1492 382.118 76.498C381.094 77.8468 379.497 78.5008 377.368 78.5008H364.141ZM368.768 74.6178H376.18C377.081 74.6178 377.736 74.2908 378.146 73.6368C378.555 72.9828 378.76 72.0019 378.76 70.6939C378.76 68.0371 377.859 66.7291 376.057 66.7291H368.768V74.6178Z" fill="#364650"/>
<path d="M387.325 71.3068C387.039 69.8763 386.875 68.1595 386.875 66.1567C386.875 64.1539 387.039 62.4781 387.325 61.0475C387.612 59.6169 388.063 58.4315 388.636 57.4506C389.209 56.5105 389.987 55.7339 390.929 55.1616C391.871 54.5894 392.936 54.2215 394.123 53.9763C395.311 53.731 396.662 53.6084 398.3 53.6084C399.406 53.6084 400.634 53.6902 401.904 53.8536C403.214 54.0171 404.32 54.2215 405.262 54.5076L404.238 58.5542C403.624 58.3089 402.805 58.1454 401.822 57.9819C400.839 57.8184 399.897 57.7775 399.078 57.7775C398.096 57.7775 397.317 57.7775 396.703 57.8593C396.089 57.941 395.475 58.0637 394.86 58.268C394.246 58.4724 393.796 58.7585 393.427 59.1264C393.059 59.4943 392.772 59.9847 392.526 60.6387C392.24 61.2518 392.076 62.0284 391.953 62.9277C391.83 63.8269 391.789 64.8896 391.789 66.1567C391.789 67.4238 391.83 68.4865 391.953 69.3858C392.076 70.285 392.24 71.0616 392.526 71.7156C392.813 72.3696 393.1 72.8601 393.468 73.2688C393.837 73.6775 394.287 73.9636 394.86 74.2089C395.434 74.4541 396.048 74.5768 396.703 74.6585C397.358 74.7403 398.136 74.7811 399.078 74.7811C399.938 74.7811 400.839 74.6994 401.822 74.5768C402.805 74.4541 403.624 74.2498 404.238 74.0045L405.262 78.051C404.32 78.2963 403.214 78.5007 401.904 78.6642C400.594 78.8277 399.406 78.9094 398.259 78.9094C396.662 78.9094 395.27 78.7868 394.082 78.5007C392.895 78.2554 391.83 77.8058 390.888 77.2336C389.946 76.6613 389.209 75.8438 388.595 74.8629C388.022 73.8819 387.571 72.6557 387.285 71.2251L387.325 71.3068Z" fill="#364650"/>
<path d="M405.75 58.1865V54.2217H426.84V58.1865H418.609V78.5008H413.981V58.1865H405.75Z" fill="#364650"/>
<path d="M430 78.5008V54.2217H443.104C444.292 54.2217 445.275 54.3443 446.094 54.6304C446.913 54.9165 447.527 55.2844 447.936 55.8158C448.346 56.3471 448.674 56.9602 448.837 57.6142C449.001 58.2682 449.083 59.0857 449.083 60.0258C449.083 60.7206 449.083 61.2929 448.96 61.8242C448.878 62.3147 448.756 62.8052 448.551 63.2548C448.346 63.7044 448.059 64.1132 447.691 64.4402C447.322 64.7263 446.831 65.0124 446.217 65.2168C445.602 65.4211 444.865 65.5846 444.005 65.6664C445.111 65.7073 446.053 65.8708 446.79 66.1978C447.527 66.4839 448.1 66.9335 448.51 67.5057C448.919 68.078 449.165 68.6911 449.329 69.3859C449.493 70.0808 449.575 70.8983 449.575 71.8792C449.575 74.2091 449.042 75.8849 447.977 76.9476C446.913 78.0103 445.357 78.5417 443.35 78.5417H430.082L430 78.5008ZM434.627 63.8679H442.081C443.473 63.8679 444.169 62.887 444.169 60.9659C444.169 59.9849 444.005 59.2492 443.719 58.7996C443.391 58.3499 442.859 58.1047 442.081 58.1047H434.627V63.8679ZM434.627 74.5769H442.285C443.841 74.5769 444.619 73.4325 444.619 71.1844C444.619 68.8137 443.8 67.6283 442.162 67.6283H434.627V74.6178V74.5769Z" fill="#364650"/>
<path d="M451.453 78.5C452.682 74.9439 454.074 70.9383 455.671 66.483C457.268 62.0278 458.783 57.9404 460.38 54.2617H467.588C468.857 58.2674 470.291 62.5183 471.929 67.0144C473.567 71.5105 475.041 75.3527 476.351 78.5H471.273C470.168 75.8023 469.39 73.7995 468.939 72.4506H458.292C457.719 74.2491 457.063 76.2519 456.408 78.5H451.494H451.453ZM459.357 68.4859H467.465C466.195 64.8481 465.049 61.3738 464.066 58.1039H463.124C461.977 61.0059 460.708 64.4802 459.357 68.4859Z" fill="#364650"/>
<path d="M174.867 30.2286C174.867 28.6754 175.031 27.4083 175.318 26.3456C175.604 25.3237 176.178 24.4245 176.915 23.6479C177.693 22.8713 178.717 22.299 180.027 21.9312C181.337 21.5633 182.975 21.3181 184.982 21.1954V18.1299H189.61V21.1954C191.616 21.2772 193.295 21.5224 194.646 21.9312C195.998 22.299 197.022 22.8713 197.841 23.6479C198.619 24.3836 199.192 25.2828 199.52 26.3456C199.847 27.4083 200.011 28.6754 200.011 30.2286C200.011 31.7818 199.847 33.0898 199.52 34.1525C199.192 35.2152 198.66 36.1144 197.841 36.891C197.063 37.6676 195.998 38.2399 194.646 38.6077C193.295 38.9756 191.657 39.2209 189.61 39.3435V42.4499H184.982V39.3435C182.975 39.2209 181.337 39.0165 180.027 38.6077C178.717 38.2399 177.693 37.6676 176.915 36.891C176.137 36.1144 175.604 35.2152 175.318 34.1525C175.031 33.0898 174.867 31.7818 174.867 30.2286ZM179.495 30.2286C179.495 31.0052 179.495 31.6592 179.617 32.1905C179.699 32.7219 179.863 33.1715 180.068 33.6211C180.273 34.0707 180.6 34.3977 181.01 34.643C181.419 34.8882 181.952 35.0926 182.607 35.2561C183.262 35.4196 184.04 35.5013 184.982 35.5422V24.9558C183.794 24.9967 182.812 25.1193 182.115 25.3237C181.378 25.5281 180.846 25.8551 180.437 26.3047C180.027 26.7543 179.781 27.2857 179.658 27.8579C179.536 28.471 179.454 29.2476 179.454 30.2695L179.495 30.2286ZM189.61 35.5422C190.633 35.5422 191.452 35.4196 192.148 35.297C192.845 35.1743 193.377 34.97 193.787 34.7247C194.196 34.4795 194.565 34.1525 194.769 33.7029C195.015 33.2533 195.138 32.7628 195.22 32.2723C195.302 31.7409 195.343 31.0869 195.343 30.3103C195.343 29.2885 195.261 28.471 195.138 27.8579C195.015 27.2448 194.728 26.7543 194.319 26.2638C193.909 25.8142 193.336 25.4872 192.558 25.2828C191.78 25.0785 190.797 24.9967 189.528 24.9558V35.5831L189.61 35.5422Z" fill="#364650"/>
<path d="M204.555 42.45V18.1709H209.018V36.4824C213.236 29.6974 216.84 23.6071 219.788 18.1709H225.317V42.45H220.853V24.9151C217.331 31.3732 213.892 37.2182 210.534 42.45H204.555Z" fill="#364650"/>
<path d="M231.547 42.45V18.1709H236.174V27.4902H246.576V18.1709H251.039V42.45H246.576V31.7002H236.174V42.45H231.547Z" fill="#364650"/>
<path d="M253.859 42.4492C255.088 38.8932 256.48 34.8875 258.077 30.4323C259.674 25.977 261.19 21.8896 262.787 18.2109H269.994C271.264 22.2166 272.697 26.4675 274.335 30.9636C275.973 35.4598 277.447 39.3019 278.758 42.4492H273.68C272.574 39.7515 271.796 37.7487 271.345 36.3999H260.698C260.125 38.1983 259.47 40.2011 258.814 42.4492H253.9H253.859ZM261.763 32.4351H269.871C268.602 28.7973 267.455 25.323 266.472 22.0531H265.53C264.384 24.9551 263.114 28.4294 261.763 32.4351Z" fill="#364650"/>
<path d="M281.016 42.45V18.1709H285.643V27.4902H296.045V18.1709H300.508V42.45H296.045V31.7002H285.643V42.45H281.016Z" fill="#364650"/>
<path d="M305.911 35.2561C305.625 33.8255 305.461 32.1088 305.461 30.1059C305.461 28.1031 305.625 26.4273 305.911 24.9967C306.198 23.5661 306.649 22.3807 307.222 21.3998C307.795 20.4597 308.573 19.6831 309.515 19.1108C310.457 18.5386 311.522 18.1707 312.709 17.9255C313.897 17.6802 315.248 17.5576 316.845 17.5576C317.951 17.5576 319.18 17.6394 320.449 17.8029C321.759 17.9664 322.865 18.1707 323.807 18.4568L322.783 22.5034C322.169 22.2581 321.35 22.0946 320.367 21.9311C319.384 21.7676 318.442 21.7268 317.623 21.7268C316.641 21.7268 315.862 21.7268 315.248 21.8085C314.634 21.8903 314.02 22.0129 313.405 22.2173C312.791 22.4216 312.341 22.7077 311.972 23.0756C311.604 23.4435 311.317 23.934 311.071 24.5879C310.826 25.2419 310.621 25.9777 310.498 26.8769C310.375 27.7761 310.334 28.8388 310.334 30.1059C310.334 31.373 310.375 32.4358 310.498 33.335C310.621 34.2342 310.785 35.0108 311.071 35.6648C311.358 36.3188 311.645 36.8093 312.013 37.218C312.382 37.6267 312.832 37.9129 313.405 38.1581C313.979 38.4034 314.593 38.526 315.248 38.6077C315.903 38.6895 316.681 38.7303 317.623 38.7303C318.483 38.7303 319.384 38.6486 320.367 38.526C321.35 38.4034 322.169 38.199 322.783 37.9537L323.807 42.0003C322.865 42.2455 321.759 42.4499 320.449 42.6134C319.139 42.7769 317.951 42.8586 316.804 42.8586C315.207 42.8586 313.815 42.736 312.668 42.4499C311.481 42.2046 310.416 41.755 309.474 41.1828C308.532 40.5697 307.795 39.7931 307.181 38.8121C306.608 37.8311 306.157 36.6049 305.87 35.1743L305.911 35.2561Z" fill="#364650"/>
<path d="M327.328 42.45V18.1709H331.792V36.4824C336.01 29.6974 339.613 23.6071 342.562 18.1709H348.09V42.45H343.627V24.9151C340.105 31.3732 336.665 37.2182 333.307 42.45H327.328Z" fill="#364650"/>
<path d="M354.312 42.45V18.1709H366.884C371.348 18.1709 373.6 20.9503 373.6 26.4683C373.6 27.531 373.478 28.512 373.232 29.4521C372.986 30.3922 372.577 31.2097 372.085 31.9454C371.594 32.6812 370.857 33.2534 369.997 33.703C369.137 34.1117 368.154 34.357 367.048 34.357H358.981V42.45H354.353H354.312ZM358.94 30.5966H365.697C366.68 30.5966 367.417 30.2287 367.908 29.5339C368.441 28.839 368.686 27.8172 368.686 26.4274C368.686 23.4845 367.703 22.0539 365.779 22.0539H358.899V30.5966H358.94Z" fill="#364650"/>
<path d="M376.594 30.1061C376.594 28.1441 376.758 26.4274 377.085 25.0377C377.413 23.6071 377.863 22.4218 378.437 21.4817C379.01 20.5416 379.788 19.765 380.771 19.1927C381.754 18.6205 382.818 18.2117 384.006 17.9665C385.193 17.7213 386.586 17.5986 388.183 17.5986C389.78 17.5986 391.172 17.7213 392.36 17.9665C393.547 18.2117 394.612 18.6205 395.595 19.1927C396.578 19.765 397.356 20.5007 397.929 21.4817C398.543 22.4218 398.994 23.6071 399.281 25.0377C399.567 26.4683 399.731 28.1441 399.731 30.1061C399.731 32.5994 399.485 34.6431 399.035 36.3189C398.584 37.9948 397.847 39.3027 396.824 40.2837C395.8 41.2647 394.612 41.9187 393.261 42.3274C391.868 42.7361 390.189 42.9405 388.142 42.9405C386.545 42.9405 385.152 42.8179 383.965 42.5726C382.777 42.3274 381.713 41.9187 380.73 41.3055C379.788 40.7333 379.01 39.9158 378.396 38.9349C377.781 37.9539 377.331 36.7277 377.044 35.2562C376.717 33.7847 376.594 32.068 376.594 30.0652V30.1061ZM381.59 26.9997C381.508 27.858 381.467 28.9207 381.467 30.1878C381.467 31.4549 381.508 32.5176 381.59 33.376C381.672 34.2343 381.795 35.011 382.04 35.6649C382.245 36.3189 382.491 36.8503 382.818 37.259C383.105 37.6678 383.555 37.9539 384.047 38.1991C384.579 38.4444 385.152 38.6079 385.767 38.6896C386.422 38.7714 387.2 38.8122 388.101 38.8122C389.002 38.8122 389.821 38.7714 390.435 38.6896C391.09 38.6079 391.664 38.4444 392.196 38.1991C392.728 37.9539 393.138 37.6269 393.466 37.259C393.752 36.8503 394.039 36.3598 394.244 35.6649C394.448 35.011 394.612 34.2343 394.694 33.376C394.776 32.5176 394.817 31.4549 394.817 30.1878C394.817 28.9207 394.776 27.858 394.694 26.9997C394.612 26.1413 394.448 25.4056 394.244 24.7516C394.039 24.0976 393.752 23.6071 393.466 23.2392C393.179 22.8714 392.728 22.5853 392.196 22.34C391.664 22.0948 391.09 21.9722 390.476 21.8904C389.862 21.8087 389.084 21.7678 388.101 21.7678C387.118 21.7678 386.34 21.7678 385.726 21.8904C385.112 21.9722 384.538 22.0948 384.006 22.34C383.473 22.5853 383.064 22.8714 382.736 23.2392C382.45 23.6071 382.163 24.0976 381.958 24.7516C381.754 25.4056 381.59 26.1413 381.508 26.9997H381.59Z" fill="#364650"/>
<path d="M404.641 42.45V18.1709H417.745C418.932 18.1709 419.915 18.2935 420.734 18.5796C421.553 18.8657 422.168 19.2336 422.577 19.765C422.987 20.2963 423.314 20.9095 423.478 21.5634C423.642 22.2174 423.724 23.0349 423.724 23.975C423.724 24.6699 423.724 25.2421 423.601 25.7735C423.519 26.2639 423.396 26.7544 423.191 27.204C422.987 27.6537 422.7 28.0624 422.331 28.3894C421.963 28.6755 421.471 28.9616 420.857 29.166C420.243 29.3704 419.506 29.5339 418.646 29.6156C419.751 29.6565 420.693 29.82 421.43 30.147C422.168 30.4331 422.741 30.8827 423.15 31.4549C423.56 32.0272 423.806 32.6403 423.969 33.3351C424.133 34.03 424.215 34.8475 424.215 35.8285C424.215 38.1583 423.683 39.8341 422.618 40.8968C421.553 41.9596 419.997 42.4909 417.991 42.4909H404.723L404.641 42.45ZM409.268 27.8172H416.721C418.113 27.8172 418.81 26.8362 418.81 24.9151C418.81 23.9341 418.646 23.1984 418.359 22.7488C418.032 22.2992 417.499 22.0539 416.721 22.0539H409.268V27.8172ZM409.268 38.5261H416.926C418.482 38.5261 419.26 37.3817 419.26 35.1336C419.26 32.7629 418.441 31.5776 416.803 31.5776H409.268V38.567V38.5261Z" fill="#364650"/>
<path d="M426.102 42.4492C427.33 38.8932 428.722 34.8875 430.32 30.4323C431.917 25.977 433.432 21.8896 435.029 18.2109H442.236C443.506 22.2166 444.939 26.4675 446.577 30.9636C448.215 35.4598 449.689 39.3019 451 42.4492H445.922C444.816 39.7515 444.038 37.7487 443.588 36.3999H432.94C432.367 38.1983 431.712 40.2011 431.057 42.4492H426.143H426.102ZM434.005 32.4351H442.113C440.844 28.7973 439.697 25.323 438.714 22.0531H437.773C436.626 24.9551 435.356 28.4294 434.005 32.4351Z" fill="#364650"/>
<path d="M453.25 42.45V18.1709H457.877V27.4902H468.279V18.1709H472.743V42.45H468.279V31.7002H457.877V42.45H453.25Z" fill="#364650"/>
<path d="M478.922 42.45V18.1709H483.386V36.4824C487.603 29.6974 491.207 23.6071 494.156 18.1709H499.684V42.45H495.22V24.9151C491.699 31.3732 488.259 37.2182 484.901 42.45H478.922Z" fill="#364650"/>
<path d="M505.953 42.45V18.1709H523.603V22.1357H510.54V27.6945H519.835V31.6593H510.54V38.4444H523.603V42.4092H505.953V42.45Z" fill="#364650"/>
<path d="M141.282 1.49414H135.672V96.4444H141.282V1.49414Z" fill="#95C123"/>
<path d="M34.9782 85.2855H7.00871V74.1269H34.9782V85.2855ZM1.39844 68.5272V96.4441H7.00871V90.8444H40.5884V68.4863H1.39844V68.5272Z" fill="#364650"/>
<path d="M90.9175 85.2857H74.1276V74.1271H90.9175V85.2857ZM51.7275 74.1271H68.5173V85.2857H51.7275V74.1271ZM46.1172 68.5273V90.8854H68.5173V96.4852H74.1276V90.8854H96.5277V68.5273H46.1581H46.1172Z" fill="#364650"/>
<path d="M96.5274 57.3691H1.39844V62.9689H96.5274V57.3691Z" fill="#364650"/>
<path d="M88.131 1.49414L79.7361 9.87331V1.49414H71.3411L57.3359 15.473V51.7691H62.9462V18.2525L74.1258 7.09388V51.7691H79.7361V18.2525L90.9157 7.09388V51.7691H96.526V1.49414H88.131Z" fill="#364650"/>
<path d="M18.1883 7.09388V46.2103H7.00871V18.2933L18.1883 7.13475V7.09388ZM1.39844 51.7691H23.7986V1.49414H15.4036L1.39844 15.473V51.7691V51.7691Z" fill="#364650"/>
<path d="M34.9775 7.09388H46.1571V46.2103H34.9775V7.09388ZM51.7673 1.49414H29.3672V51.7691H51.7673V1.49414Z" fill="#364650"/>
</svg>
