<svg width="255" height="152" viewBox="0 0 255 152" fill="none" xmlns="http://www.w3.org/2000/svg">
<path fill-rule="evenodd" clip-rule="evenodd" d="M183.45 144.841C206.348 145.374 229.748 144.309 251.642 151.86C252.947 152.305 254.383 151.656 254.854 150.398C255.316 149.139 254.644 147.755 253.339 147.3C230.933 139.575 207.001 140.543 183.571 140.001C182.186 139.962 181.031 141.027 181.001 142.363C180.961 143.699 182.065 144.803 183.45 144.841Z" fill="#159947"/>
<path fill-rule="evenodd" clip-rule="evenodd" d="M182.148 111.356C189.183 104.966 196.861 100.179 206.142 97.8062C207.468 97.4682 208.259 96.1349 207.923 94.8299C207.576 93.5249 206.221 92.7406 204.905 93.0785C194.813 95.6572 186.452 100.817 178.804 107.761C177.795 108.673 177.725 110.219 178.655 111.212C179.575 112.203 181.149 112.268 182.148 111.356Z" fill="#159947"/>
<path fill-rule="evenodd" clip-rule="evenodd" d="M161.984 40.18C165.299 28.8795 171.827 20.0393 181.832 13.6554C183.011 12.902 183.357 11.3366 182.594 10.1626C181.842 8.98855 180.266 8.64673 179.086 9.4001C168.013 16.4686 160.774 26.2513 157.103 38.7633C156.707 40.1021 157.49 41.5078 158.832 41.8981C160.184 42.2895 161.597 41.5189 161.984 40.18Z" fill="#159947"/>
<path fill-rule="evenodd" clip-rule="evenodd" d="M49.934 24.8727C47.9976 27.1554 46.2607 29.615 44.7834 32.2336C44.1246 33.3994 42.9667 35.877 42.787 38.0017C42.5874 40.2653 43.3559 42.1751 45.3323 43.1809C47.9575 44.5147 50.0538 44.3758 51.6709 43.5689C53.228 42.794 54.4458 41.2712 55.2144 39.2295C56.6817 35.3271 56.4621 29.3631 55.6935 25.9596C57.7597 23.8239 60.0256 21.8872 62.4512 20.1655C80.5183 7.34243 107.02 12.0707 127.413 31.2438C134.55 37.9567 137.984 52.0545 139.771 67.2652C142.556 90.9485 140.968 117.4 140.749 125.15C140.699 127.064 140.879 128.2 140.978 128.427C141.448 129.543 142.276 129.833 142.855 129.943C143.693 130.093 144.362 129.933 144.901 129.653C145.63 129.269 146.229 128.593 146.508 127.55C146.658 126.974 146.698 126.172 146.678 125.317C146.658 124.724 146.538 124.076 146.658 123.652C147.437 120.93 148.375 118.272 149.293 115.596C152.358 106.598 156.32 98.1665 160.722 89.7448C174.707 62.9849 188.232 34.7102 211.161 14.3224C212.189 13.4075 212.289 11.8258 211.37 10.7939C210.462 9.76207 208.885 9.66806 207.847 10.5839C184.459 31.3747 170.565 60.1363 156.3 87.4261C152.557 94.59 149.123 101.764 146.269 109.268C146.558 95.9938 146.448 77.6196 144.023 61.3621C141.867 46.9033 137.764 34.1253 130.827 27.5993C108.487 6.59554 79.3504 2.03927 59.5664 16.0871C57.4503 17.5909 55.434 19.2446 53.5575 21.0384C43.2063 2.31625 21.0465 -5.18764 1.46218 3.76698C0.204464 4.33989 -0.344528 5.82368 0.224437 7.07848C0.803384 8.33329 2.28064 8.88723 3.53835 8.31431C21.1862 0.245558 41.1999 7.44642 49.934 24.8727ZM51.3814 31.1407C50.5728 32.2846 49.8242 33.4704 49.1255 34.6962C48.7561 35.3541 48.1173 36.6189 47.8478 37.8568C47.7879 38.1467 47.7779 38.6006 47.7779 38.8106C48.4667 39.1505 49.0056 39.3145 49.4448 39.0936C49.9938 38.8216 50.2734 38.1817 50.5429 37.4668C51.2217 35.6731 51.4413 33.2954 51.3814 31.1407Z" fill="#159947"/>
</svg>
