<svg width="202" height="134" viewBox="0 0 202 134" fill="none" xmlns="http://www.w3.org/2000/svg">
<rect width="279.786" height="43" transform="translate(0 139.894) rotate(-30)" fill="#FF473C"/>
<path d="M112.701 110.622L109.135 107.022L103.534 110.256L104.868 115.144L102.613 116.446L97.8066 96.9767L100.571 95.3807L115.028 109.278L112.701 110.622ZM102.972 108.22L107.652 105.518L100.201 97.9871L102.972 108.22ZM118.61 90.2039L118.617 98.0563L126.386 102.721L124.058 104.065L117.354 100.014L115.924 100.84L119.354 106.781L117.171 108.041L109.807 95.2859L111.99 94.0259L115.014 99.2636L116.493 98.4096L116.451 91.4499L118.61 90.2039ZM136.322 94.6885L137.947 93.7505L141.055 99.1337L139.454 100.058L137.001 96.5922L128.538 101.478L121.174 88.7234L123.356 87.4634L129.712 98.4723L134.125 95.9243L127.769 84.9154L129.952 83.6554L136.322 94.6885ZM150.466 88.818L148.38 90.022L144.656 83.5719C143.835 82.1493 143.188 80.7664 142.714 79.4233L143.725 92.71L141.373 94.068L134.009 81.3132L136.07 80.1232L139.696 86.4036C140.47 87.7454 141.162 89.1674 141.771 90.6696L140.725 77.4352L143.102 76.0632L150.466 88.818ZM155.132 69.1177L162.496 81.8725L160.313 83.1325L157.443 78.1615L155.019 79.5615L155.464 85.9325L153.184 87.2485L152.76 80.1863C150.99 80.3678 149.638 79.6503 148.705 78.0337C147.977 76.7728 147.834 75.5729 148.276 74.4341C148.724 73.2698 149.732 72.235 151.301 71.3297L155.132 69.1177ZM156.547 76.6096L153.873 71.9781L152.176 72.9581C151.319 73.4527 150.788 74.0073 150.582 74.6218C150.367 75.2201 150.489 75.9153 150.946 76.7075C151.413 77.5158 151.952 78.0019 152.564 78.1659C153.183 78.3043 153.904 78.1356 154.729 77.6596L156.547 76.6096ZM158.759 61.7861L164.904 73.046L163.109 74.082L156.431 63.1301L158.759 61.7861ZM165.631 76.3768C166.083 76.1155 166.536 76.0591 166.988 76.2075C167.447 76.3305 167.798 76.6022 168.04 77.0225C168.283 77.4428 168.347 77.8905 168.234 78.3657C168.136 78.8315 167.861 79.1951 167.409 79.4564C166.972 79.7084 166.52 79.7648 166.051 79.6257C165.599 79.4772 165.252 79.1928 165.009 78.7725C164.767 78.3522 164.699 77.9172 164.805 77.4675C164.919 76.9924 165.194 76.6288 165.631 76.3768Z" fill="white"/>
</svg>
