<svg width="60" height="23" viewBox="0 0 60 23" fill="none" xmlns="http://www.w3.org/2000/svg">
<path d="M4.24 6.728C6.032 6.728 7.416 7.152 8.392 8C9.384 8.832 9.88 10.072 9.88 11.72C9.88 13.528 9.368 14.864 8.344 15.728C7.336 16.576 5.92 17 4.096 17H0.04V0.487999H8.296L8.032 2.288H2.272V6.728H4.24ZM4.192 15.248C5.312 15.248 6.144 14.984 6.688 14.456C7.248 13.928 7.528 13.024 7.528 11.744C7.528 10.592 7.248 9.752 6.688 9.224C6.128 8.696 5.28 8.432 4.144 8.432H2.272V15.248H4.192ZM18.0014 4.064C19.3774 4.064 20.4094 4.632 21.0974 5.768C21.8014 6.904 22.1534 8.528 22.1534 10.64C22.1534 12.688 21.7614 14.312 20.9774 15.512C20.2094 16.712 19.1294 17.312 17.7374 17.312C16.4894 17.312 15.4814 16.808 14.7134 15.8V21.8L12.5534 22.064V4.376H14.4494L14.5694 6.08C15.4334 4.736 16.5774 4.064 18.0014 4.064ZM17.2334 15.584C19.0094 15.584 19.8974 13.944 19.8974 10.664C19.8974 8.952 19.6894 7.712 19.2734 6.944C18.8734 6.16 18.2574 5.768 17.4254 5.768C16.8654 5.768 16.3694 5.936 15.9374 6.272C15.5054 6.608 15.0974 7.064 14.7134 7.64V14.024C15.3694 15.064 16.2094 15.584 17.2334 15.584ZM29.7188 4.064C31.3348 4.064 32.5908 4.632 33.4868 5.768C34.3828 6.904 34.8308 8.536 34.8308 10.664C34.8308 12.712 34.3748 14.336 33.4628 15.536C32.5508 16.72 31.2948 17.312 29.6948 17.312C28.0788 17.312 26.8148 16.728 25.9028 15.56C25.0068 14.392 24.5588 12.768 24.5588 10.688C24.5588 8.592 25.0148 6.968 25.9268 5.816C26.8388 4.648 28.1028 4.064 29.7188 4.064ZM29.7188 5.792C28.7748 5.792 28.0548 6.192 27.5588 6.992C27.0628 7.776 26.8148 9.008 26.8148 10.688C26.8148 13.968 27.7748 15.608 29.6948 15.608C31.6148 15.608 32.5748 13.96 32.5748 10.664C32.5748 8.984 32.3348 7.752 31.8548 6.968C31.3748 6.184 30.6628 5.792 29.7188 5.792ZM44.7036 17V11.384H40.1196V17H37.9596V4.376H40.1196V9.68H44.7036V4.376H46.8636V17H44.7036ZM54.3085 8.504C57.6205 8.504 59.2765 9.904 59.2765 12.704C59.2765 14.144 58.8525 15.224 58.0045 15.944C57.1565 16.648 56.0205 17 54.5965 17H50.7565V4.376H52.9165V8.504H54.3085ZM54.4525 15.392C55.3005 15.392 55.9405 15.184 56.3725 14.768C56.8205 14.336 57.0445 13.64 57.0445 12.68C57.0445 11.784 56.8365 11.128 56.4205 10.712C56.0205 10.28 55.3325 10.064 54.3565 10.064H52.9165V15.392H54.4525Z" fill="#FFBD70"/>
</svg>
