<svg width="459" height="44" viewBox="0 0 459 44" fill="none" xmlns="http://www.w3.org/2000/svg">
<path d="M48.64 1.48L49.5417 1.91236L50.2285 0.479998H48.64V1.48ZM39.52 20.5L38.6183 20.0676L38.4178 20.4857L38.6074 20.9088L39.52 20.5ZM49.6 43V44H51.1438L50.5126 42.5912L49.6 43ZM40.36 43L39.4383 43.3878L39.6958 44H40.36V43ZM32.56 24.46L33.4818 24.0722L33.2242 23.46H32.56V24.46ZM29.14 24.46V23.46H28.14V24.46H29.14ZM29.14 43V44H30.14V43H29.14ZM21.22 43H20.22V44H21.22V43ZM21.22 24.46H22.22V23.46H21.22V24.46ZM17.68 24.46V23.46H17.0178L16.7593 24.0697L17.68 24.46ZM9.82 43V44H10.4822L10.7407 43.3903L9.82 43ZM0.76 43L-0.152603 42.5912L-0.783766 44H0.76V43ZM10.84 20.5L11.7526 20.9088L11.9422 20.4857L11.7417 20.0676L10.84 20.5ZM1.72 1.48V0.479998H0.131489L0.818299 1.91236L1.72 1.48ZM10.18 1.48L11.0871 1.05908L10.8184 0.479998H10.18V1.48ZM17.92 18.16L17.0129 18.5809L17.2816 19.16H17.92V18.16ZM21.22 18.16V19.16H22.22V18.16H21.22ZM21.22 1.48V0.479998H20.22V1.48H21.22ZM29.14 1.48H30.14V0.479998H29.14V1.48ZM29.14 18.16H28.14V19.16H29.14V18.16ZM32.44 18.16V19.16H33.0742L33.3446 18.5863L32.44 18.16ZM40.3 1.48V0.479998H39.6658L39.3954 1.05373L40.3 1.48ZM47.7383 1.04764L38.6183 20.0676L40.4217 20.9324L49.5417 1.91236L47.7383 1.04764ZM38.6074 20.9088L48.6874 43.4088L50.5126 42.5912L40.4326 20.0912L38.6074 20.9088ZM49.6 42H40.36V44H49.6V42ZM41.2817 42.6122L33.4818 24.0722L31.6383 24.8478L39.4383 43.3878L41.2817 42.6122ZM32.56 23.46H29.14V25.46H32.56V23.46ZM28.14 24.46V43H30.14V24.46H28.14ZM29.14 42H21.22V44H29.14V42ZM22.22 43V24.46H20.22V43H22.22ZM21.22 23.46H17.68V25.46H21.22V23.46ZM16.7593 24.0697L8.89932 42.6097L10.7407 43.3903L18.6007 24.8503L16.7593 24.0697ZM9.82 42H0.76V44H9.82V42ZM1.6726 43.4088L11.7526 20.9088L9.9274 20.0912L-0.152603 42.5912L1.6726 43.4088ZM11.7417 20.0676L2.6217 1.04764L0.818299 1.91236L9.9383 20.9324L11.7417 20.0676ZM1.72 2.48H10.18V0.479998H1.72V2.48ZM9.2729 1.90092L17.0129 18.5809L18.8271 17.7391L11.0871 1.05908L9.2729 1.90092ZM17.92 19.16H21.22V17.16H17.92V19.16ZM22.22 18.16V1.48H20.22V18.16H22.22ZM21.22 2.48H29.14V0.479998H21.22V2.48ZM28.14 1.48V18.16H30.14V1.48H28.14ZM29.14 19.16H32.44V17.16H29.14V19.16ZM33.3446 18.5863L41.2046 1.90627L39.3954 1.05373L31.5354 17.7337L33.3446 18.5863ZM40.3 2.48H48.64V0.479998H40.3V2.48ZM88.2213 1.48L89.1196 1.91926L89.8233 0.479998H88.2213V1.48ZM78.9212 20.5L78.0229 20.0607L77.8148 20.4863L78.0123 20.9169L78.9212 20.5ZM89.2412 43V44H90.8001L90.1502 42.5831L89.2412 43ZM79.9413 43L79.0292 43.41L79.2944 44H79.9413V43ZM71.6612 24.58L72.5733 24.17L72.3081 23.58H71.6612V24.58ZM67.6413 24.58V23.58H66.6413V24.58H67.6413ZM67.6413 43V44H68.6413V43H67.6413ZM59.0013 43H58.0013V44H59.0013V43ZM59.0013 1.48V0.479998H58.0013V1.48H59.0013ZM67.6413 1.48H68.6413V0.479998H67.6413V1.48ZM67.6413 18.1H66.6413V19.1H67.6413V18.1ZM71.8412 18.1V19.1H72.4684L72.7415 18.5355L71.8412 18.1ZM79.8812 1.48V0.479998H79.2541L78.981 1.04452L79.8812 1.48ZM87.3229 1.04074L78.0229 20.0607L79.8196 20.9393L89.1196 1.91926L87.3229 1.04074ZM78.0123 20.9169L88.3323 43.4169L90.1502 42.5831L79.8302 20.0831L78.0123 20.9169ZM89.2412 42H79.9413V44H89.2412V42ZM80.8533 42.59L72.5733 24.17L70.7492 24.99L79.0292 43.41L80.8533 42.59ZM71.6612 23.58H67.6413V25.58H71.6612V23.58ZM66.6413 24.58V43H68.6413V24.58H66.6413ZM67.6413 42H59.0013V44H67.6413V42ZM60.0013 43V1.48H58.0013V43H60.0013ZM59.0013 2.48H67.6413V0.479998H59.0013V2.48ZM66.6413 1.48V18.1H68.6413V1.48H66.6413ZM67.6413 19.1H71.8412V17.1H67.6413V19.1ZM72.7415 18.5355L80.7814 1.91547L78.981 1.04452L70.941 17.6645L72.7415 18.5355ZM79.8812 2.48H88.2213V0.479998H79.8812V2.48ZM137.919 43H136.919V44H137.919V43ZM137.919 24.76H138.919V23.76H137.919V24.76ZM126.399 24.76V23.76H125.399V24.76H126.399ZM126.399 43V44H127.399V43H126.399ZM117.759 43H116.759V44H117.759V43ZM117.759 1.48V0.479998H116.759V1.48H117.759ZM126.399 1.48H127.399V0.479998H126.399V1.48ZM126.399 17.92H125.399V18.92H126.399V17.92ZM137.919 17.92V18.92H138.919V17.92H137.919ZM137.919 1.48V0.479998H136.919V1.48H137.919ZM146.559 1.48H147.559V0.479998H146.559V1.48ZM146.559 43V44H147.559V43H146.559ZM138.919 43V24.76H136.919V43H138.919ZM137.919 23.76H126.399V25.76H137.919V23.76ZM125.399 24.76V43H127.399V24.76H125.399ZM126.399 42H117.759V44H126.399V42ZM118.759 43V1.48H116.759V43H118.759ZM117.759 2.48H126.399V0.479998H117.759V2.48ZM125.399 1.48V17.92H127.399V1.48H125.399ZM126.399 18.92H137.919V16.92H126.399V18.92ZM138.919 17.92V1.48H136.919V17.92H138.919ZM137.919 2.48H146.559V0.479998H137.919V2.48ZM145.559 1.48V43H147.559V1.48H145.559ZM146.559 42H137.919V44H146.559V42ZM180.07 43L179.093 43.2129L179.264 44H180.07V43ZM178.03 33.64L179.007 33.4271L178.836 32.64H178.03V33.64ZM166.63 33.64V32.64H165.824L165.653 33.4271L166.63 33.64ZM164.59 43V44H165.396L165.567 43.2129L164.59 43ZM155.83 43L154.866 42.7352L154.518 44H155.83V43ZM167.23 1.48V0.479998H166.468L166.266 1.21523L167.23 1.48ZM177.67 1.48L178.635 1.21653L178.434 0.479998H177.67V1.48ZM189.01 43V44H190.32L189.975 42.7365L189.01 43ZM168.07 27.28L167.093 27.0653L166.826 28.28H168.07V27.28ZM176.59 27.28V28.28H177.834L177.567 27.0653L176.59 27.28ZM172.33 7.9L173.307 7.68531H171.353L172.33 7.9ZM181.047 42.7871L179.007 33.4271L177.053 33.853L179.093 43.2129L181.047 42.7871ZM178.03 32.64H166.63V34.64H178.03V32.64ZM165.653 33.4271L163.613 42.7871L165.567 43.2129L167.607 33.853L165.653 33.4271ZM164.59 42H155.83V44H164.59V42ZM156.794 43.2648L168.194 1.74477L166.266 1.21523L154.866 42.7352L156.794 43.2648ZM167.23 2.48H177.67V0.479998H167.23V2.48ZM176.705 1.74347L188.045 43.2635L189.975 42.7365L178.635 1.21653L176.705 1.74347ZM189.01 42H180.07V44H189.01V42ZM168.07 28.28H176.59V26.28H168.07V28.28ZM177.567 27.0653L173.307 7.68531L171.353 8.11469L175.613 27.4947L177.567 27.0653ZM171.353 7.68531L167.093 27.0653L169.047 27.4947L173.307 8.11469L171.353 7.68531ZM261.124 1.48L262.026 1.91236L262.713 0.479998H261.124V1.48ZM252.004 20.5L251.103 20.0676L250.902 20.4857L251.092 20.9088L252.004 20.5ZM262.084 43V44H263.628L262.997 42.5912L262.084 43ZM252.844 43L251.923 43.3878L252.18 44H252.844V43ZM245.044 24.46L245.966 24.0722L245.709 23.46H245.044V24.46ZM241.624 24.46V23.46H240.624V24.46H241.624ZM241.624 43V44H242.624V43H241.624ZM233.704 43H232.704V44H233.704V43ZM233.704 24.46H234.704V23.46H233.704V24.46ZM230.164 24.46V23.46H229.502L229.244 24.0697L230.164 24.46ZM222.304 43V44H222.967L223.225 43.3903L222.304 43ZM213.244 43L212.332 42.5912L211.701 44H213.244V43ZM223.324 20.5L224.237 20.9088L224.427 20.4857L224.226 20.0676L223.324 20.5ZM214.204 1.48V0.479998H212.616L213.303 1.91236L214.204 1.48ZM222.664 1.48L223.571 1.05908L223.303 0.479998H222.664V1.48ZM230.404 18.16L229.497 18.5809L229.766 19.16H230.404V18.16ZM233.704 18.16V19.16H234.704V18.16H233.704ZM233.704 1.48V0.479998H232.704V1.48H233.704ZM241.624 1.48H242.624V0.479998H241.624V1.48ZM241.624 18.16H240.624V19.16H241.624V18.16ZM244.924 18.16V19.16H245.559L245.829 18.5863L244.924 18.16ZM252.784 1.48V0.479998H252.15L251.88 1.05373L252.784 1.48ZM260.223 1.04764L251.103 20.0676L252.906 20.9324L262.026 1.91236L260.223 1.04764ZM251.092 20.9088L261.172 43.4088L262.997 42.5912L252.917 20.0912L251.092 20.9088ZM262.084 42H252.844V44H262.084V42ZM253.766 42.6122L245.966 24.0722L244.123 24.8478L251.923 43.3878L253.766 42.6122ZM245.044 23.46H241.624V25.46H245.044V23.46ZM240.624 24.46V43H242.624V24.46H240.624ZM241.624 42H233.704V44H241.624V42ZM234.704 43V24.46H232.704V43H234.704ZM233.704 23.46H230.164V25.46H233.704V23.46ZM229.244 24.0697L221.384 42.6097L223.225 43.3903L231.085 24.8503L229.244 24.0697ZM222.304 42H213.244V44H222.304V42ZM214.157 43.4088L224.237 20.9088L222.412 20.0912L212.332 42.5912L214.157 43.4088ZM224.226 20.0676L215.106 1.04764L213.303 1.91236L222.423 20.9324L224.226 20.0676ZM214.204 2.48H222.664V0.479998H214.204V2.48ZM221.757 1.90092L229.497 18.5809L231.311 17.7391L223.571 1.05908L221.757 1.90092ZM230.404 19.16H233.704V17.16H230.404V19.16ZM234.704 18.16V1.48H232.704V18.16H234.704ZM233.704 2.48H241.624V0.479998H233.704V2.48ZM240.624 1.48V18.16H242.624V1.48H240.624ZM241.624 19.16H244.924V17.16H241.624V19.16ZM245.829 18.5863L253.689 1.90627L251.88 1.05373L244.02 17.7337L245.829 18.5863ZM252.784 2.48H261.124V0.479998H252.784V2.48ZM289.546 30.94L288.6 30.6145L288.598 30.6201L289.546 30.94ZM285.946 38.26L286.737 38.8715L286.743 38.8628L285.946 38.26ZM281.026 42.22L281.434 43.133L281.442 43.1291L281.026 42.22ZM273.826 43.96L272.842 44.1407L273.01 45.0554L273.935 44.954L273.826 43.96ZM272.746 38.08L272.584 37.0932L271.578 37.2581L271.762 38.2607L272.746 38.08ZM278.326 36.16L278.892 36.984L278.326 36.16ZM281.506 31.9L282.425 32.2939L283.022 30.9H281.506V31.9ZM278.626 31.9L277.69 32.2542L277.935 32.9H278.626V31.9ZM267.106 1.48V0.479998H265.658L266.17 1.83415L267.106 1.48ZM275.866 1.48L276.819 1.1793L276.599 0.479998H275.866V1.48ZM283.906 26.98L282.952 27.2807L283.962 30.4858L284.869 27.2496L283.906 26.98ZM291.046 1.48V0.479998H290.287L290.083 1.21037L291.046 1.48ZM299.686 1.48L300.631 1.80545L301.087 0.479998H299.686V1.48ZM288.598 30.6201C287.579 33.6392 286.421 35.9715 285.148 37.6572L286.743 38.8628C288.19 36.9485 289.433 34.4008 290.493 31.2599L288.598 30.6201ZM285.154 37.6486C283.888 39.2875 282.374 40.502 280.609 41.3109L281.442 43.1291C283.517 42.178 285.283 40.7525 286.737 38.8714L285.154 37.6486ZM280.618 41.307C278.863 42.0908 276.574 42.6529 273.717 42.966L273.935 44.954C276.918 44.6271 279.428 44.0292 281.434 43.133L280.618 41.307ZM274.809 43.7794L273.729 37.8993L271.762 38.2607L272.842 44.1407L274.809 43.7794ZM272.907 39.0668C275.416 38.6556 277.44 37.9824 278.892 36.984L277.759 35.336C276.651 36.0976 274.955 36.7044 272.584 37.0932L272.907 39.0668ZM278.892 36.984C280.376 35.964 281.537 34.3652 282.425 32.2939L280.586 31.5061C279.794 33.3548 278.835 34.596 277.759 35.336L278.892 36.984ZM281.506 30.9H278.626V32.9H281.506V30.9ZM279.561 31.5458L268.041 1.12584L266.17 1.83415L277.69 32.2542L279.561 31.5458ZM267.106 2.48H275.866V0.479998H267.106V2.48ZM274.912 1.7807L282.952 27.2807L284.859 26.6793L276.819 1.1793L274.912 1.7807ZM284.869 27.2496L292.009 1.74963L290.083 1.21037L282.943 26.7104L284.869 27.2496ZM291.046 2.48H299.686V0.479998H291.046V2.48ZM298.74 1.15454L288.6 30.6145L290.491 31.2655L300.631 1.80545L298.74 1.15454ZM331.763 4.84L332.388 4.05913L331.763 4.84ZM331.823 25.3L332.467 26.0655L332.473 26.06L331.823 25.3ZM317.063 28.78V27.78H316.063V28.78H317.063ZM317.063 43V44H318.063V43H317.063ZM308.423 43H307.423V44H308.423V43ZM308.423 1.48V0.479998H307.423V1.48H308.423ZM325.283 20.68L325.978 21.399L325.283 20.68ZM317.063 7.72V6.72H316.063V7.72H317.063ZM317.063 22.42H316.063V23.42H317.063V22.42ZM319.703 2.48C324.817 2.48 328.581 3.57521 331.138 5.62087L332.388 4.05913C329.345 1.62479 325.069 0.479998 319.703 0.479998V2.48ZM331.138 5.62087C333.648 7.62816 334.963 10.6277 334.963 14.8H336.963C336.963 10.1723 335.479 6.53183 332.388 4.05913L331.138 5.62087ZM334.963 14.8C334.963 19.235 333.652 22.4202 331.173 24.54L332.473 26.06C335.514 23.4598 336.963 19.645 336.963 14.8H334.963ZM331.18 24.5345C328.653 26.658 325.109 27.78 320.423 27.78V29.78C325.418 29.78 329.473 28.582 332.467 26.0655L331.18 24.5345ZM320.423 27.78H317.063V29.78H320.423V27.78ZM316.063 28.78V43H318.063V28.78H316.063ZM317.063 42H308.423V44H317.063V42ZM309.423 43V1.48H307.423V43H309.423ZM308.423 2.48H319.703V0.479998H308.423V2.48ZM319.823 23.42C322.403 23.42 324.521 22.8078 325.978 21.399L324.588 19.961C323.645 20.8722 322.123 21.42 319.823 21.42V23.42ZM325.978 21.399C327.466 19.961 328.083 17.6873 328.083 14.86H326.083C326.083 17.4727 325.501 19.079 324.588 19.961L325.978 21.399ZM328.083 14.86C328.083 12.2746 327.448 10.1618 325.978 8.74101L324.588 10.179C325.518 11.0782 326.083 12.5654 326.083 14.86H328.083ZM325.978 8.74101C324.518 7.32969 322.378 6.72 319.763 6.72V8.72C322.108 8.72 323.648 9.27031 324.588 10.179L325.978 8.74101ZM319.763 6.72H317.063V8.72H319.763V6.72ZM316.063 7.72V22.42H318.063V7.72H316.063ZM317.063 23.42H319.823V21.42H317.063V23.42ZM374.307 6.1L373.52 6.71746L373.524 6.72157L374.307 6.1ZM374.307 38.38L375.094 38.9975L375.097 38.9934L374.307 38.38ZM349.527 38.44L348.74 39.0575L348.748 39.0668L349.527 38.44ZM349.527 6.16L348.741 5.54144L348.74 5.54255L349.527 6.16ZM356.067 10.54L356.946 11.0168L356.067 10.54ZM356.067 34L355.188 34.4768L355.193 34.4857L355.198 34.4945L356.067 34ZM367.767 34L366.888 33.5232L366.885 33.5286L367.767 34ZM367.767 10.54L366.882 11.0052L366.888 11.0168L367.767 10.54ZM361.947 1.52C367.003 1.52 370.815 3.27131 373.52 6.71745L375.093 5.48255C371.959 1.48868 367.53 -0.48 361.947 -0.48V1.52ZM373.524 6.72157C376.248 10.1548 377.687 15.2764 377.687 22.24H379.687C379.687 15.0436 378.206 9.40516 375.09 5.47842L373.524 6.72157ZM377.687 22.24C377.687 29.1184 376.25 34.2477 373.517 37.7666L375.097 38.9934C378.204 34.9923 379.687 29.3616 379.687 22.24H377.687ZM373.52 37.7626C370.815 41.2087 367.003 42.96 361.947 42.96V44.96C367.53 44.96 371.959 42.9913 375.093 38.9974L373.52 37.7626ZM361.947 42.96C356.886 42.96 353.051 41.2254 350.306 37.8132L348.748 39.0668C351.923 43.0146 356.367 44.96 361.947 44.96V42.96ZM350.313 37.8226C347.586 34.3473 346.147 29.2025 346.147 22.24H344.147C344.147 29.4374 345.628 35.0927 348.74 39.0574L350.313 37.8226ZM346.147 22.24C346.147 15.3606 347.584 10.2544 350.313 6.77745L348.74 5.54255C345.629 9.50559 344.147 15.1194 344.147 22.24H346.147ZM350.313 6.77856C353.06 3.28852 356.894 1.52 361.947 1.52V-0.48C356.359 -0.48 351.914 1.51147 348.741 5.54144L350.313 6.77856ZM361.947 6C360.474 6 359.139 6.33087 357.981 7.02828C356.824 7.72515 355.898 8.75392 355.188 10.0632L356.946 11.0168C357.516 9.96608 358.21 9.22485 359.013 8.74172C359.814 8.25913 360.78 8 361.947 8V6ZM355.188 10.0632C353.782 12.6557 353.147 16.7714 353.147 22.24H355.147C355.147 16.8286 355.792 13.1443 356.946 11.0168L355.188 10.0632ZM353.147 22.24C353.147 27.7471 353.781 31.8836 355.188 34.4768L356.946 33.5232C355.792 31.3964 355.147 27.6929 355.147 22.24H353.147ZM355.198 34.4945C356.69 37.1167 358.976 38.48 361.947 38.48V36.48C359.718 36.48 358.084 35.5233 356.936 33.5055L355.198 34.4945ZM361.947 38.48C363.417 38.48 364.746 38.1556 365.895 37.4683C367.045 36.7808 367.957 35.7648 368.649 34.4714L366.885 33.5286C366.336 34.5552 365.659 35.2792 364.869 35.7517C364.078 36.2244 363.117 36.48 361.947 36.48V38.48ZM368.646 34.4768C370.052 31.8836 370.687 27.7471 370.687 22.24H368.687C368.687 27.6929 368.041 31.3964 366.888 33.5232L368.646 34.4768ZM370.687 22.24C370.687 16.7714 370.052 12.6557 368.646 10.0632L366.888 11.0168C368.042 13.1443 368.687 16.8286 368.687 22.24H370.687ZM368.652 10.0749C367.963 8.76263 367.052 7.73015 365.902 7.03063C364.751 6.33079 363.42 6 361.947 6V8C363.114 8 364.073 8.25921 364.862 8.73937C365.652 9.21985 366.331 9.95736 366.882 11.0051L368.652 10.0749ZM409.761 21.04L409.494 20.0765L409.56 22.0195L409.761 21.04ZM416.241 24.16L415.552 24.8851L415.561 24.8934L416.241 24.16ZM414.321 40.18L414.868 41.0174L414.871 41.0156L414.321 40.18ZM390.501 43H389.501V44H390.501V43ZM390.501 1.48V0.479998H389.501V1.48H390.501ZM412.881 4.12L412.349 4.96664L412.356 4.97106L412.363 4.97536L412.881 4.12ZM415.041 17.92L414.306 17.2425L414.305 17.2434L415.041 17.92ZM399.141 7.72V6.72H398.141V7.72H399.141ZM399.141 18.4H398.141V19.4H399.141V18.4ZM406.701 8.92L406.092 9.71262L406.099 9.71815L406.106 9.72356L406.701 8.92ZM407.901 35.26L407.335 34.436L407.329 34.4402L407.323 34.4445L407.901 35.26ZM399.141 24.28V23.28H398.141V24.28H399.141ZM399.141 36.58H398.141V37.58H399.141V36.58ZM409.56 22.0195C412.144 22.5514 414.119 23.5231 415.552 24.885L416.93 23.435C415.164 21.7569 412.819 20.6485 409.963 20.0605L409.56 22.0195ZM415.561 24.8934C416.932 26.1635 417.701 28.1345 417.701 31H419.701C419.701 27.7855 418.831 25.1965 416.921 23.4266L415.561 24.8934ZM417.701 31C417.701 34.9416 416.351 37.6486 413.772 39.3444L414.871 41.0156C418.132 38.8714 419.701 35.4584 419.701 31H417.701ZM413.775 39.3426C411.118 41.0765 407.336 42 402.321 42V44C407.546 44 411.764 43.0435 414.868 41.0174L413.775 39.3426ZM402.321 42H390.501V44H402.321V42ZM391.501 43V1.48H389.501V43H391.501ZM390.501 2.48H400.821V0.479998H390.501V2.48ZM400.821 2.48C405.973 2.48 409.776 3.34944 412.349 4.96664L413.413 3.27336C410.386 1.37056 406.149 0.479998 400.821 0.479998V2.48ZM412.363 4.97536C414.875 6.49647 416.141 8.81423 416.141 12.1H418.141C418.141 8.18576 416.568 5.18353 413.399 3.26464L412.363 4.97536ZM416.141 12.1C416.141 14.2472 415.511 15.9335 414.306 17.2425L415.777 18.5975C417.371 16.8665 418.141 14.6727 418.141 12.1H416.141ZM414.305 17.2434C413.086 18.5704 411.495 19.5205 409.494 20.0765L410.029 22.0035C412.347 21.3595 414.277 20.2296 415.778 18.5966L414.305 17.2434ZM398.141 7.72V18.4H400.141V7.72H398.141ZM399.141 19.4H402.261V17.4H399.141V19.4ZM402.261 19.4C404.413 19.4 406.214 18.9119 407.48 17.7593C408.763 16.5906 409.321 14.8994 409.321 12.88H407.321C407.321 14.5406 406.87 15.6094 406.133 16.2807C405.378 16.9681 404.149 17.4 402.261 17.4V19.4ZM409.321 12.88C409.321 10.849 408.718 9.16915 407.296 8.11644L406.106 9.72356C406.845 10.2708 407.321 11.231 407.321 12.88H409.321ZM407.311 8.12737C406.006 7.12339 404.051 6.72 401.661 6.72V8.72C403.911 8.72 405.317 9.11661 406.092 9.71262L407.311 8.12737ZM401.661 6.72H399.141V8.72H401.661V6.72ZM402.381 37.58C404.913 37.58 406.996 37.1284 408.48 36.0755L407.323 34.4445C406.326 35.1516 404.729 35.58 402.381 35.58V37.58ZM408.468 36.084C410.126 34.9439 410.821 32.9936 410.821 30.58H408.821C408.821 32.6464 408.236 33.8161 407.335 34.436L408.468 36.084ZM410.821 30.58C410.821 28.2987 410.187 26.4119 408.752 25.1136C407.337 23.8325 405.312 23.28 402.861 23.28V25.28C405.05 25.28 406.506 25.7775 407.41 26.5964C408.296 27.3981 408.821 28.6613 408.821 30.58H410.821ZM402.861 23.28H399.141V25.28H402.861V23.28ZM398.141 24.28V36.58H400.141V24.28H398.141ZM399.141 37.58H402.381V35.58H399.141V37.58ZM449.707 43L448.73 43.2129L448.901 44H449.707V43ZM447.667 33.64L448.644 33.4271L448.472 32.64H447.667V33.64ZM436.267 33.64V32.64H435.461L435.29 33.4271L436.267 33.64ZM434.227 43V44H435.032L435.204 43.2129L434.227 43ZM425.467 43L424.502 42.7352L424.155 44H425.467V43ZM436.867 1.48V0.479998H436.104L435.902 1.21523L436.867 1.48ZM447.307 1.48L448.271 1.21653L448.07 0.479998H447.307V1.48ZM458.647 43V44H459.956L459.611 42.7365L458.647 43ZM437.707 27.28L436.73 27.0653L436.463 28.28H437.707V27.28ZM446.227 27.28V28.28H447.47L447.203 27.0653L446.227 27.28ZM441.967 7.9L442.943 7.68531H440.99L441.967 7.9ZM450.684 42.7871L448.644 33.4271L446.69 33.853L448.73 43.2129L450.684 42.7871ZM447.667 32.64H436.267V34.64H447.667V32.64ZM435.29 33.4271L433.25 42.7871L435.204 43.2129L437.244 33.853L435.29 33.4271ZM434.227 42H425.467V44H434.227V42ZM426.431 43.2648L437.831 1.74477L435.902 1.21523L424.502 42.7352L426.431 43.2648ZM436.867 2.48H447.307V0.479998H436.867V2.48ZM446.342 1.74347L457.682 43.2635L459.611 42.7365L448.271 1.21653L446.342 1.74347ZM458.647 42H449.707V44H458.647V42ZM437.707 28.28H446.227V26.28H437.707V28.28ZM447.203 27.0653L442.943 7.68531L440.99 8.11469L445.25 27.4947L447.203 27.0653ZM440.99 7.68531L436.73 27.0653L438.683 27.4947L442.943 8.11469L440.99 7.68531Z" fill="#159947"/>
</svg>
