<svg width="375" height="37" viewBox="0 0 375 37" fill="none" xmlns="http://www.w3.org/2000/svg">
<path d="M41.75 1.35L42.6529 1.77993L43.3338 0.349999H41.75V1.35ZM34.25 17.1L33.3471 16.6701L33.1504 17.0832L33.3344 17.5021L34.25 17.1ZM42.55 36V37H44.0813L43.4656 35.5979L42.55 36ZM34.05 36L33.1241 36.3777L33.3779 37H34.05V36ZM27.85 20.8L28.7759 20.4223L28.5221 19.8H27.85V20.8ZM25.25 20.8V19.8H24.25V20.8H25.25ZM25.25 36V37H26.25V36H25.25ZM17.95 36H16.95V37H17.95V36ZM17.95 20.8H18.95V19.8H17.95V20.8ZM15.25 20.8V19.8H14.582L14.3262 20.4171L15.25 20.8ZM8.95 36V37H9.61802L9.87379 36.3829L8.95 36ZM0.65 36L-0.266491 35.5999L-0.877626 37H0.65V36ZM8.9 17.1L9.81649 17.5001L9.99837 17.0834L9.80397 16.6724L8.9 17.1ZM1.45 1.35V0.349999H-0.129246L0.546029 1.77759L1.45 1.35ZM9.15 1.35L10.0591 0.933458L9.79179 0.349999H9.15V1.35ZM15.45 15.1L14.5409 15.5165L14.8082 16.1H15.45V15.1ZM17.95 15.1V16.1H18.95V15.1H17.95ZM17.95 1.35V0.349999H16.95V1.35H17.95ZM25.25 1.35H26.25V0.349999H25.25V1.35ZM25.25 15.1H24.25V16.1H25.25V15.1ZM27.7 15.1V16.1H28.3376L28.6066 15.522L27.7 15.1ZM34.1 1.35V0.349999H33.4624L33.1934 0.928016L34.1 1.35ZM40.8471 0.920066L33.3471 16.6701L35.1529 17.5299L42.6529 1.77993L40.8471 0.920066ZM33.3344 17.5021L41.6344 36.4021L43.4656 35.5979L35.1656 16.6979L33.3344 17.5021ZM42.55 35H34.05V37H42.55V35ZM34.9759 35.6223L28.7759 20.4223L26.9241 21.1777L33.1241 36.3777L34.9759 35.6223ZM27.85 19.8H25.25V21.8H27.85V19.8ZM24.25 20.8V36H26.25V20.8H24.25ZM25.25 35H17.95V37H25.25V35ZM18.95 36V20.8H16.95V36H18.95ZM17.95 19.8H15.25V21.8H17.95V19.8ZM14.3262 20.4171L8.02621 35.6171L9.87379 36.3829L16.1738 21.1829L14.3262 20.4171ZM8.95 35H0.65V37H8.95V35ZM1.56649 36.4001L9.81649 17.5001L7.98351 16.6999L-0.266491 35.5999L1.56649 36.4001ZM9.80397 16.6724L2.35397 0.922406L0.546029 1.77759L7.99603 17.5276L9.80397 16.6724ZM1.45 2.35H9.15V0.349999H1.45V2.35ZM8.24088 1.76654L14.5409 15.5165L16.3591 14.6835L10.0591 0.933458L8.24088 1.76654ZM15.45 16.1H17.95V14.1H15.45V16.1ZM18.95 15.1V1.35H16.95V15.1H18.95ZM17.95 2.35H25.25V0.349999H17.95V2.35ZM24.25 1.35V15.1H26.25V1.35H24.25ZM25.25 16.1H27.7V14.1H25.25V16.1ZM28.6066 15.522L35.0066 1.77198L33.1934 0.928016L26.7934 14.678L28.6066 15.522ZM34.1 2.35H41.75V0.349999H34.1V2.35ZM74.2121 1.35L75.115 1.77993L75.7959 0.349999H74.2121V1.35ZM66.7121 17.1L65.8092 16.6701L65.612 17.0844L65.7974 17.5041L66.7121 17.1ZM75.0621 36V37H76.5972L75.9768 35.5959L75.0621 36ZM66.5621 36L65.6453 36.3994L65.907 37H66.5621V36ZM59.9621 20.85L60.8789 20.4506L60.6172 19.85H59.9621V20.85ZM56.9121 20.85V19.85H55.9121V20.85H56.9121ZM56.9121 36V37H57.9121V36H56.9121ZM48.9121 36H47.9121V37H48.9121V36ZM48.9121 1.35V0.349999H47.9121V1.35H48.9121ZM56.9121 1.35H57.9121V0.349999H56.9121V1.35ZM56.9121 15H55.9121V16H56.9121V15ZM60.1621 15V16H60.7977L61.0675 15.4245L60.1621 15ZM66.5621 1.35V0.349999H65.9265L65.6567 0.92548L66.5621 1.35ZM73.3092 0.920066L65.8092 16.6701L67.615 17.5299L75.115 1.77993L73.3092 0.920066ZM65.7974 17.5041L74.1474 36.4041L75.9768 35.5959L67.6268 16.6959L65.7974 17.5041ZM75.0621 35H66.5621V37H75.0621V35ZM67.4789 35.6006L60.8789 20.4506L59.0453 21.2494L65.6453 36.3994L67.4789 35.6006ZM59.9621 19.85H56.9121V21.85H59.9621V19.85ZM55.9121 20.85V36H57.9121V20.85H55.9121ZM56.9121 35H48.9121V37H56.9121V35ZM49.9121 36V1.35H47.9121V36H49.9121ZM48.9121 2.35H56.9121V0.349999H48.9121V2.35ZM55.9121 1.35V15H57.9121V1.35H55.9121ZM56.9121 16H60.1621V14H56.9121V16ZM61.0675 15.4245L67.4675 1.77452L65.6567 0.92548L59.2567 14.5755L61.0675 15.4245ZM66.5621 2.35H74.2121V0.349999H66.5621V2.35ZM112.576 36H111.576V37H112.576V36ZM112.576 21.1H113.576V20.1H112.576V21.1ZM103.926 21.1V20.1H102.926V21.1H103.926ZM103.926 36V37H104.926V36H103.926ZM95.9258 36H94.9258V37H95.9258V36ZM95.9258 1.35V0.349999H94.9258V1.35H95.9258ZM103.926 1.35H104.926V0.349999H103.926V1.35ZM103.926 14.85H102.926V15.85H103.926V14.85ZM112.576 14.85V15.85H113.576V14.85H112.576ZM112.576 1.35V0.349999H111.576V1.35H112.576ZM120.576 1.35H121.576V0.349999H120.576V1.35ZM120.576 36V37H121.576V36H120.576ZM113.576 36V21.1H111.576V36H113.576ZM112.576 20.1H103.926V22.1H112.576V20.1ZM102.926 21.1V36H104.926V21.1H102.926ZM103.926 35H95.9258V37H103.926V35ZM96.9258 36V1.35H94.9258V36H96.9258ZM95.9258 2.35H103.926V0.349999H95.9258V2.35ZM102.926 1.35V14.85H104.926V1.35H102.926ZM103.926 15.85H112.576V13.85H103.926V15.85ZM113.576 14.85V1.35H111.576V14.85H113.576ZM112.576 2.35H120.576V0.349999H112.576V2.35ZM119.576 1.35V36H121.576V1.35H119.576ZM120.576 35H112.576V37H120.576V35ZM146.704 36L145.724 36.2011L145.888 37H146.704V36ZM145.154 28.45L146.133 28.2489L145.969 27.45H145.154V28.45ZM136.354 28.45V27.45H135.538L135.374 28.2489L136.354 28.45ZM134.804 36V37H135.619L135.783 36.2011L134.804 36ZM126.704 36L125.738 35.7395L125.398 37H126.704V36ZM136.054 1.35V0.349999H135.288L135.088 1.08948L136.054 1.35ZM145.654 1.35L146.62 1.09078L146.421 0.349999H145.654V1.35ZM154.954 36V37H156.258L155.92 35.7408L154.954 36ZM137.554 22.7L136.575 22.4978L136.326 23.7H137.554V22.7ZM143.954 22.7V23.7H145.181L144.933 22.4978L143.954 22.7ZM140.754 7.2L141.733 6.99781H139.775L140.754 7.2ZM147.683 35.7989L146.133 28.2489L144.174 28.6511L145.724 36.2011L147.683 35.7989ZM145.154 27.45H136.354V29.45H145.154V27.45ZM135.374 28.2489L133.824 35.7989L135.783 36.2011L137.333 28.6511L135.374 28.2489ZM134.804 35H126.704V37H134.804V35ZM127.669 36.2605L137.019 1.61052L135.088 1.08948L125.738 35.7395L127.669 36.2605ZM136.054 2.35H145.654V0.349999H136.054V2.35ZM144.688 1.60922L153.988 36.2592L155.92 35.7408L146.62 1.09078L144.688 1.60922ZM154.954 35H146.704V37H154.954V35ZM137.554 23.7H143.954V21.7H137.554V23.7ZM144.933 22.4978L141.733 6.99781L139.775 7.40219L142.975 22.9022L144.933 22.4978ZM139.775 6.99781L136.575 22.4978L138.533 22.9022L141.733 7.40219L139.775 6.99781ZM213.553 1.35L214.456 1.77993L215.137 0.349999H213.553V1.35ZM206.053 17.1L205.15 16.6701L204.953 17.0832L205.137 17.5021L206.053 17.1ZM214.353 36V37H215.884L215.268 35.5979L214.353 36ZM205.853 36L204.927 36.3777L205.181 37H205.853V36ZM199.653 20.8L200.579 20.4223L200.325 19.8H199.653V20.8ZM197.053 20.8V19.8H196.053V20.8H197.053ZM197.053 36V37H198.053V36H197.053ZM189.753 36H188.753V37H189.753V36ZM189.753 20.8H190.753V19.8H189.753V20.8ZM187.053 20.8V19.8H186.385L186.129 20.4171L187.053 20.8ZM180.753 36V37H181.421L181.677 36.3829L180.753 36ZM172.453 36L171.536 35.5999L170.925 37H172.453V36ZM180.703 17.1L181.619 17.5001L181.801 17.0834L181.607 16.6724L180.703 17.1ZM173.253 1.35V0.349999H171.673L172.349 1.77759L173.253 1.35ZM180.953 1.35L181.862 0.933458L181.595 0.349999H180.953V1.35ZM187.253 15.1L186.344 15.5165L186.611 16.1H187.253V15.1ZM189.753 15.1V16.1H190.753V15.1H189.753ZM189.753 1.35V0.349999H188.753V1.35H189.753ZM197.053 1.35H198.053V0.349999H197.053V1.35ZM197.053 15.1H196.053V16.1H197.053V15.1ZM199.503 15.1V16.1H200.14L200.409 15.522L199.503 15.1ZM205.903 1.35V0.349999H205.265L204.996 0.928016L205.903 1.35ZM212.65 0.920066L205.15 16.6701L206.956 17.5299L214.456 1.77993L212.65 0.920066ZM205.137 17.5021L213.437 36.4021L215.268 35.5979L206.968 16.6979L205.137 17.5021ZM214.353 35H205.853V37H214.353V35ZM206.779 35.6223L200.579 20.4223L198.727 21.1777L204.927 36.3777L206.779 35.6223ZM199.653 19.8H197.053V21.8H199.653V19.8ZM196.053 20.8V36H198.053V20.8H196.053ZM197.053 35H189.753V37H197.053V35ZM190.753 36V20.8H188.753V36H190.753ZM189.753 19.8H187.053V21.8H189.753V19.8ZM186.129 20.4171L179.829 35.6171L181.677 36.3829L187.977 21.1829L186.129 20.4171ZM180.753 35H172.453V37H180.753V35ZM173.369 36.4001L181.619 17.5001L179.786 16.6999L171.536 35.5999L173.369 36.4001ZM181.607 16.6724L174.157 0.922406L172.349 1.77759L179.799 17.5276L181.607 16.6724ZM173.253 2.35H180.953V0.349999H173.253V2.35ZM180.044 1.76654L186.344 15.5165L188.162 14.6835L181.862 0.933458L180.044 1.76654ZM187.253 16.1H189.753V14.1H187.253V16.1ZM190.753 15.1V1.35H188.753V15.1H190.753ZM189.753 2.35H197.053V0.349999H189.753V2.35ZM196.053 1.35V15.1H198.053V1.35H196.053ZM197.053 16.1H199.503V14.1H197.053V16.1ZM200.409 15.522L206.809 1.77198L204.996 0.928016L198.596 14.678L200.409 15.522ZM205.903 2.35H213.553V0.349999H205.903V2.35ZM236.865 25.7L235.918 25.3791L235.917 25.3802L236.865 25.7ZM233.715 32L234.502 32.6163L233.715 32ZM229.415 35.4L229.802 36.322L229.81 36.3187L229.818 36.3153L229.415 35.4ZM223.065 36.85L222.082 37.0321L222.25 37.9401L223.168 37.8446L223.065 36.85ZM222.065 31.45L221.935 30.4585L220.89 30.5956L221.082 31.6321L222.065 31.45ZM226.715 30.05L227.245 30.898L226.715 30.05ZM229.365 26.8L230.271 27.2229L230.935 25.8H229.365V26.8ZM226.765 26.8L225.828 27.1497L226.071 27.8H226.765V26.8ZM217.265 1.35V0.349999H215.824L216.328 1.69971L217.265 1.35ZM225.315 1.35L226.272 1.06202L226.058 0.349999H225.315V1.35ZM231.615 22.3L230.657 22.588L231.68 25.9895L232.582 22.5539L231.615 22.3ZM237.115 1.35V0.349999H236.343L236.148 1.09607L237.115 1.35ZM245.115 1.35L246.062 1.67089L246.509 0.349999H245.115V1.35ZM235.917 25.3802C235.039 27.9832 234.034 29.9696 232.927 31.3837L234.502 32.6163C235.796 30.9638 236.891 28.7501 237.812 26.0198L235.917 25.3802ZM232.927 31.3837C231.822 32.7964 230.517 33.8223 229.012 34.4847L229.818 36.3153C231.646 35.511 233.208 34.2702 234.502 32.6163L232.927 31.3837ZM229.028 34.478C227.481 35.1276 225.469 35.5949 222.962 35.8554L223.168 37.8446C225.794 37.5718 228.015 37.0724 229.802 36.322L229.028 34.478ZM224.048 36.6679L223.048 31.2679L221.082 31.6321L222.082 37.0321L224.048 36.6679ZM222.195 32.4415C224.291 32.1665 226.004 31.6737 227.245 30.898L226.185 29.202C225.293 29.7596 223.905 30.2001 221.935 30.4585L222.195 32.4415ZM227.245 30.898C228.52 30.1012 229.515 28.8436 230.271 27.2229L228.459 26.3771C227.815 27.7564 227.043 28.6654 226.185 29.202L227.245 30.898ZM229.365 25.8H226.765V27.8H229.365V25.8ZM227.702 26.4503L218.202 1.00029L216.328 1.69971L225.828 27.1497L227.702 26.4503ZM217.265 2.35H225.315V0.349999H217.265V2.35ZM224.357 1.63798L230.657 22.588L232.572 22.012L226.272 1.06202L224.357 1.63798ZM232.582 22.5539L238.082 1.60392L236.148 1.09607L230.648 22.0461L232.582 22.5539ZM237.115 2.35H245.115V0.349999H237.115V2.35ZM244.168 1.02911L235.918 25.3791L237.812 26.0209L246.062 1.67089L244.168 1.02911ZM271.036 4.2L270.409 4.97981L270.415 4.98404L271.036 4.2ZM271.136 21.45L271.785 22.21L271.786 22.2093L271.136 21.45ZM258.936 24.4V23.4H257.936V24.4H258.936ZM258.936 36V37H259.936V36H258.936ZM250.936 36H249.936V37H250.936V36ZM250.936 1.35V0.349999H249.936V1.35H250.936ZM265.086 17.25L265.793 17.9571L265.799 17.9507L265.805 17.9441L265.086 17.25ZM265.086 8.45L264.353 9.13045L264.365 9.14402L264.378 9.15711L265.086 8.45ZM258.936 7.05V6.05H257.936V7.05H258.936ZM258.936 18.6H257.936V19.6H258.936V18.6ZM260.836 2.35C265.143 2.35 268.286 3.27503 270.41 4.97979L271.662 3.4202C269.052 1.32497 265.395 0.349999 260.836 0.349999V2.35ZM270.415 4.98404C272.525 6.65437 273.636 9.13473 273.636 12.6H275.636C275.636 8.66527 274.346 5.54563 271.656 3.41595L270.415 4.98404ZM273.636 12.6C273.636 16.2927 272.539 18.9297 270.485 20.6907L271.786 22.2093C274.398 19.9703 275.636 16.7073 275.636 12.6H273.636ZM270.486 20.69C268.421 22.4555 265.496 23.4 261.586 23.4V25.4C265.808 25.4 269.25 24.3779 271.785 22.21L270.486 20.69ZM261.586 23.4H258.936V25.4H261.586V23.4ZM257.936 24.4V36H259.936V24.4H257.936ZM258.936 35H250.936V37H258.936V35ZM251.936 36V1.35H249.936V36H251.936ZM250.936 2.35H260.836V0.349999H250.936V2.35ZM260.936 19.6C262.944 19.6 264.633 19.1168 265.793 17.9571L264.378 16.5429C263.738 17.1832 262.66 17.6 260.936 17.6V19.6ZM265.805 17.9441C266.971 16.7353 267.436 14.8842 267.436 12.65H265.436C265.436 14.6824 265 15.898 264.366 16.5559L265.805 17.9441ZM267.436 12.65C267.436 10.6142 266.955 8.90549 265.793 7.74289L264.378 9.15711C265.016 9.7945 265.436 10.8858 265.436 12.65H267.436ZM265.818 7.76955C264.686 6.55005 262.977 6.05 260.936 6.05V8.05C262.694 8.05 263.752 8.48328 264.353 9.13045L265.818 7.76955ZM260.936 6.05H258.936V8.05H260.936V6.05ZM257.936 7.05V18.6H259.936V7.05H257.936ZM258.936 19.6H260.936V17.6H258.936V19.6ZM305.683 5.15L304.9 5.77265L304.904 5.77676L305.683 5.15ZM305.633 32.15L304.851 31.5263L304.847 31.5314L305.633 32.15ZM284.583 32.2L283.8 32.8227L283.804 32.8278L284.583 32.2ZM284.583 5.2L283.801 4.5763L283.797 4.58144L284.583 5.2ZM290.633 9.2L289.741 8.7465L289.735 8.7591L290.633 9.2ZM290.683 28.2L289.792 28.6535L289.795 28.6599L290.683 28.2ZM299.583 28.2L298.692 27.7465L298.688 27.7528L299.583 28.2ZM299.583 9.2L298.685 9.64095L298.692 9.65346L299.583 9.2ZM295.133 1.5C299.447 1.5 302.654 2.94928 304.9 5.77264L306.465 4.52736C303.779 1.15072 299.952 -0.500002 295.133 -0.500002V1.5ZM304.904 5.77676C307.171 8.59535 308.383 12.8339 308.383 18.65H310.383C310.383 12.5994 309.128 7.83798 306.462 4.52324L304.904 5.77676ZM308.383 18.65C308.383 24.3916 307.157 28.6359 304.851 31.5263L306.414 32.7737C309.108 29.3974 310.383 24.6417 310.383 18.65H308.383ZM304.847 31.5314C302.598 34.3889 299.407 35.85 295.133 35.85V37.85C299.925 37.85 303.735 36.1778 306.419 32.7686L304.847 31.5314ZM295.133 35.85C290.855 35.85 287.644 34.4024 285.361 31.5722L283.804 32.8278C286.522 36.1976 290.344 37.85 295.133 37.85V35.85ZM285.365 31.5774C283.094 28.7234 281.883 24.465 281.883 18.65H279.883C279.883 24.7017 281.138 29.4766 283.8 32.8226L285.365 31.5774ZM281.883 18.65C281.883 12.9408 283.092 8.71033 285.369 5.81856L283.797 4.58144C281.14 7.95634 279.883 12.6925 279.883 18.65H281.883ZM285.365 5.82368C287.648 2.96132 290.859 1.5 295.133 1.5V-0.500002C290.34 -0.500002 286.517 1.17201 283.801 4.57632L285.365 5.82368ZM295.133 5.35C293.955 5.35 292.88 5.62723 291.948 6.21768C291.018 6.80643 290.29 7.66869 289.742 8.74654L291.524 9.65346C291.942 8.83131 292.447 8.26856 293.018 7.90732C293.586 7.54777 294.277 7.35 295.133 7.35V5.35ZM289.735 8.7591C288.694 10.8786 288.233 14.2276 288.233 18.65H290.233C290.233 14.2724 290.705 11.3214 291.53 9.6409L289.735 8.7591ZM288.233 18.65C288.233 23.1379 288.71 26.5279 289.792 28.6535L291.574 27.7465C290.722 26.0721 290.233 23.0954 290.233 18.65H288.233ZM289.795 28.6599C290.344 29.7198 291.068 30.5675 291.988 31.1464C292.911 31.727 293.972 32 295.133 32V30C294.294 30 293.613 29.8063 293.053 29.4536C292.49 29.0992 291.989 28.5469 291.571 27.7401L289.795 28.6599ZM295.133 32C296.307 32 297.378 31.7286 298.303 31.1464C299.227 30.5651 299.944 29.7127 300.477 28.6472L298.688 27.7528C298.288 28.5539 297.797 29.1016 297.238 29.4536C296.68 29.8047 295.992 30 295.133 30V32ZM300.474 28.6535C301.556 26.5279 302.033 23.1379 302.033 18.65H300.033C300.033 23.0954 299.543 26.0721 298.692 27.7465L300.474 28.6535ZM302.033 18.65C302.033 14.2259 301.555 10.8708 300.474 8.74654L298.692 9.65346C299.544 11.3292 300.033 14.2741 300.033 18.65H302.033ZM300.48 8.7591C299.949 7.67839 299.234 6.81213 298.31 6.2204C297.383 5.62715 296.31 5.35 295.133 5.35V7.35C295.988 7.35 296.674 7.54785 297.231 7.9046C297.79 8.26287 298.283 8.8216 298.685 9.6409L300.48 8.7591ZM334.477 17.65L334.222 16.6832L334.269 18.6282L334.477 17.65ZM339.777 20.25L339.088 20.9751L339.097 20.9834L339.777 20.25ZM317.627 36H316.627V37H317.627V36ZM317.627 1.35V0.349999H316.627V1.35H317.627ZM336.927 3.55L336.405 4.40332L336.414 4.40854L336.927 3.55ZM338.827 15.1L339.563 15.7767L339.572 15.7668L338.827 15.1ZM325.627 7V6H324.627V7H325.627ZM325.627 15.25H324.627V16.25H325.627V15.25ZM331.227 8L330.587 8.76822L330.596 8.77625L330.606 8.78405L331.227 8ZM332.177 29.15L331.59 28.3401L332.177 29.15ZM325.627 20.6V19.6H324.627V20.6H325.627ZM325.627 30.2H324.627V31.2H325.627V30.2ZM334.269 18.6282C336.329 19.0651 337.916 19.8612 339.088 20.975L340.466 19.525C338.971 18.1054 337.025 17.1682 334.684 16.6718L334.269 18.6282ZM339.097 20.9834C340.197 22.0026 340.827 23.5792 340.827 25.9H342.827C342.827 23.2208 342.09 21.0308 340.457 19.5166L339.097 20.9834ZM340.827 25.9C340.827 29.0092 339.771 31.204 337.753 32.665C335.675 34.1694 332.436 35 327.877 35V37C332.618 37 336.354 36.1472 338.926 34.285C341.558 32.3794 342.827 29.5242 342.827 25.9H340.827ZM327.877 35H317.627V37H327.877V35ZM318.627 36V1.35H316.627V36H318.627ZM317.627 2.35H326.677V0.349999H317.627V2.35ZM326.677 2.35C331.023 2.35 334.228 3.07286 336.406 4.40328L337.448 2.69672C334.825 1.09381 331.198 0.349999 326.677 0.349999V2.35ZM336.414 4.40854C338.486 5.64593 339.527 7.52074 339.527 10.2H341.527C341.527 6.87926 340.168 4.32074 337.44 2.69145L336.414 4.40854ZM339.527 10.2C339.527 12 339.023 13.3815 338.082 14.4332L339.572 15.7668C340.898 14.2851 341.527 12.4 341.527 10.2H339.527ZM338.091 14.4234C337.098 15.5033 335.821 16.2607 334.222 16.6832L334.732 18.6168C336.666 18.106 338.289 17.1634 339.563 15.7766L338.091 14.4234ZM324.627 7V15.25H326.627V7H324.627ZM325.627 16.25H327.827V14.25H325.627V16.25ZM327.827 16.25C329.496 16.25 330.934 15.8662 331.956 14.922C332.992 13.964 333.427 12.592 333.427 11H331.427C331.427 12.2413 331.095 12.9944 330.598 13.453C330.087 13.9255 329.225 14.25 327.827 14.25V16.25ZM333.427 11C333.427 9.43898 332.963 8.09866 331.848 7.21595L330.606 8.78405C331.091 9.168 331.427 9.82769 331.427 11H333.427ZM331.867 7.23178C330.802 6.34387 329.251 6 327.427 6V8C329.07 8 330.052 8.32279 330.587 8.76822L331.867 7.23178ZM327.427 6H325.627V8H327.427V6ZM327.927 31.2C329.894 31.2 331.554 30.8355 332.763 29.9599L331.59 28.3401C330.866 28.8645 329.694 29.2 327.927 29.2V31.2ZM332.763 29.9599C334.093 28.9971 334.627 27.4007 334.627 25.5H332.627C332.627 27.0659 332.194 27.9029 331.59 28.3401L332.763 29.9599ZM334.627 25.5C334.627 23.6915 334.134 22.1571 332.981 21.0907C331.842 20.038 330.229 19.6 328.327 19.6V21.6C329.958 21.6 330.995 21.9786 331.623 22.5593C332.236 23.1262 332.627 24.0418 332.627 25.5H334.627ZM328.327 19.6H325.627V21.6H328.327V19.6ZM324.627 20.6V30.2H326.627V20.6H324.627ZM325.627 31.2H327.927V29.2H325.627V31.2ZM366.013 36L365.033 36.2011L365.197 37H366.013V36ZM364.462 28.45L365.442 28.2489L365.278 27.45H364.462V28.45ZM355.663 28.45V27.45H354.847L354.683 28.2489L355.663 28.45ZM354.112 36V37H354.928L355.092 36.2011L354.112 36ZM346.013 36L345.047 35.7395L344.707 37H346.013V36ZM355.362 1.35V0.349999H354.597L354.397 1.08948L355.362 1.35ZM364.962 1.35L365.928 1.09078L365.729 0.349999H364.962V1.35ZM374.263 36V37H375.566L375.228 35.7408L374.263 36ZM356.862 22.7L355.883 22.4978L355.635 23.7H356.862V22.7ZM363.263 22.7V23.7H364.49L364.242 22.4978L363.263 22.7ZM360.062 7.2L361.042 6.99781H359.083L360.062 7.2ZM366.992 35.7989L365.442 28.2489L363.483 28.6511L365.033 36.2011L366.992 35.7989ZM364.462 27.45H355.663V29.45H364.462V27.45ZM354.683 28.2489L353.133 35.7989L355.092 36.2011L356.642 28.6511L354.683 28.2489ZM354.112 35H346.013V37H354.112V35ZM346.978 36.2605L356.328 1.61052L354.397 1.08948L345.047 35.7395L346.978 36.2605ZM355.362 2.35H364.962V0.349999H355.362V2.35ZM363.997 1.60922L373.297 36.2592L375.228 35.7408L365.928 1.09078L363.997 1.60922ZM374.263 35H366.013V37H374.263V35ZM356.862 23.7H363.263V21.7H356.862V23.7ZM364.242 22.4978L361.042 6.99781L359.083 7.40219L362.283 22.9022L364.242 22.4978ZM359.083 6.99781L355.883 22.4978L357.842 22.9022L361.042 7.40219L359.083 6.99781Z" fill="#1F5F5B"/>
</svg>
