<svg width="764" height="73" viewBox="0 0 764 73" fill="none" xmlns="http://www.w3.org/2000/svg">
<path d="M79.9 1.8L80.8017 2.23236L81.4885 0.799997H79.9V1.8ZM64.7 33.5L63.7983 33.0676L63.5978 33.4857L63.7874 33.9088L64.7 33.5ZM81.5 71V72H83.0438L82.4126 70.5912L81.5 71ZM66.1 71L65.1783 71.3878L65.4358 72H66.1V71ZM53.1 40.1L54.0218 39.7122L53.7642 39.1H53.1V40.1ZM47.4 40.1V39.1H46.4V40.1H47.4ZM47.4 71V72H48.4V71H47.4ZM34.2 71H33.2V72H34.2V71ZM34.2 40.1H35.2V39.1H34.2V40.1ZM28.3 40.1V39.1H27.6378L27.3793 39.7097L28.3 40.1ZM15.2 71V72H15.8622L16.1207 71.3903L15.2 71ZM0.1 71L-0.812603 70.5912L-1.44377 72H0.1V71ZM16.9 33.5L17.8126 33.9088L18.0022 33.4857L17.8017 33.0676L16.9 33.5ZM1.7 1.8V0.799997H0.111489L0.798299 2.23236L1.7 1.8ZM15.8 1.8L16.7071 1.37908L16.4384 0.799997H15.8V1.8ZM28.7 29.6L27.7929 30.0209L28.0616 30.6H28.7V29.6ZM34.2 29.6V30.6H35.2V29.6H34.2ZM34.2 1.8V0.799997H33.2V1.8H34.2ZM47.4 1.8H48.4V0.799997H47.4V1.8ZM47.4 29.6H46.4V30.6H47.4V29.6ZM52.9 29.6V30.6H53.5342L53.8046 30.0263L52.9 29.6ZM66 1.8V0.799997H65.3658L65.0954 1.37373L66 1.8ZM78.9983 1.36764L63.7983 33.0676L65.6017 33.9324L80.8017 2.23236L78.9983 1.36764ZM63.7874 33.9088L80.5874 71.4088L82.4126 70.5912L65.6126 33.0912L63.7874 33.9088ZM81.5 70H66.1V72H81.5V70ZM67.0218 70.6122L54.0218 39.7122L52.1783 40.4878L65.1783 71.3878L67.0218 70.6122ZM53.1 39.1H47.4V41.1H53.1V39.1ZM46.4 40.1V71H48.4V40.1H46.4ZM47.4 70H34.2V72H47.4V70ZM35.2 71V40.1H33.2V71H35.2ZM34.2 39.1H28.3V41.1H34.2V39.1ZM27.3793 39.7097L14.2793 70.6097L16.1207 71.3903L29.2207 40.4903L27.3793 39.7097ZM15.2 70H0.1V72H15.2V70ZM1.0126 71.4088L17.8126 33.9088L15.9874 33.0912L-0.812603 70.5912L1.0126 71.4088ZM17.8017 33.0676L2.6017 1.36764L0.798299 2.23236L15.9983 33.9324L17.8017 33.0676ZM1.7 2.8H15.8V0.799997H1.7V2.8ZM14.8929 2.22092L27.7929 30.0209L29.6071 29.1791L16.7071 1.37908L14.8929 2.22092ZM28.7 30.6H34.2V28.6H28.7V30.6ZM35.2 29.6V1.8H33.2V29.6H35.2ZM34.2 2.8H47.4V0.799997H34.2V2.8ZM46.4 1.8V29.6H48.4V1.8H46.4ZM47.4 30.6H52.9V28.6H47.4V30.6ZM53.8046 30.0263L66.9046 2.22626L65.0954 1.37373L51.9954 29.1737L53.8046 30.0263ZM66 2.8H79.9V0.799997H66V2.8ZM145.869 1.8L146.767 2.23926L147.471 0.799997H145.869V1.8ZM130.369 33.5L129.47 33.0607L129.262 33.4863L129.46 33.9169L130.369 33.5ZM147.569 71V72H149.128L148.478 70.5831L147.569 71ZM132.069 71L131.157 71.41L131.422 72H132.069V71ZM118.269 40.3L119.181 39.89L118.916 39.3H118.269V40.3ZM111.569 40.3V39.3H110.569V40.3H111.569ZM111.569 71V72H112.569V71H111.569ZM97.1687 71H96.1687V72H97.1687V71ZM97.1687 1.8V0.799997H96.1687V1.8H97.1687ZM111.569 1.8H112.569V0.799997H111.569V1.8ZM111.569 29.5H110.569V30.5H111.569V29.5ZM118.569 29.5V30.5H119.196L119.469 29.9355L118.569 29.5ZM131.969 1.8V0.799997H131.342L131.069 1.36452L131.969 1.8ZM144.97 1.36073L129.47 33.0607L131.267 33.9393L146.767 2.23926L144.97 1.36073ZM129.46 33.9169L146.66 71.4169L148.478 70.5831L131.278 33.0831L129.46 33.9169ZM147.569 70H132.069V72H147.569V70ZM132.981 70.59L119.181 39.89L117.357 40.71L131.157 71.41L132.981 70.59ZM118.269 39.3H111.569V41.3H118.269V39.3ZM110.569 40.3V71H112.569V40.3H110.569ZM111.569 70H97.1687V72H111.569V70ZM98.1687 71V1.8H96.1687V71H98.1687ZM97.1687 2.8H111.569V0.799997H97.1687V2.8ZM110.569 1.8V29.5H112.569V1.8H110.569ZM111.569 30.5H118.569V28.5H111.569V30.5ZM119.469 29.9355L132.869 2.23547L131.069 1.36452L117.669 29.0645L119.469 29.9355ZM131.969 2.8H145.869V0.799997H131.969V2.8ZM228.698 71H227.698V72H228.698V71ZM228.698 40.6H229.698V39.6H228.698V40.6ZM209.498 40.6V39.6H208.498V40.6H209.498ZM209.498 71V72H210.498V71H209.498ZM195.098 71H194.098V72H195.098V71ZM195.098 1.8V0.799997H194.098V1.8H195.098ZM209.498 1.8H210.498V0.799997H209.498V1.8ZM209.498 29.2H208.498V30.2H209.498V29.2ZM228.698 29.2V30.2H229.698V29.2H228.698ZM228.698 1.8V0.799997H227.698V1.8H228.698ZM243.098 1.8H244.098V0.799997H243.098V1.8ZM243.098 71V72H244.098V71H243.098ZM229.698 71V40.6H227.698V71H229.698ZM228.698 39.6H209.498V41.6H228.698V39.6ZM208.498 40.6V71H210.498V40.6H208.498ZM209.498 70H195.098V72H209.498V70ZM196.098 71V1.8H194.098V71H196.098ZM195.098 2.8H209.498V0.799997H195.098V2.8ZM208.498 1.8V29.2H210.498V1.8H208.498ZM209.498 30.2H228.698V28.2H209.498V30.2ZM229.698 29.2V1.8H227.698V29.2H229.698ZM228.698 2.8H243.098V0.799997H228.698V2.8ZM242.098 1.8V71H244.098V1.8H242.098ZM243.098 70H228.698V72H243.098V70ZM298.95 71L297.973 71.213L298.144 72H298.95V71ZM295.55 55.4L296.527 55.187L296.356 54.4H295.55V55.4ZM276.55 55.4V54.4H275.744L275.573 55.187L276.55 55.4ZM273.15 71V72H273.956L274.127 71.213L273.15 71ZM258.55 71L257.586 70.7352L257.238 72H258.55V71ZM277.55 1.8V0.799997H276.788L276.586 1.53523L277.55 1.8ZM294.95 1.8L295.915 1.53653L295.714 0.799997H294.95V1.8ZM313.85 71V72H315.16L314.815 70.7365L313.85 71ZM278.95 44.8L277.973 44.5853L277.706 45.8H278.95V44.8ZM293.15 44.8V45.8H294.394L294.127 44.5853L293.15 44.8ZM286.05 12.5L287.027 12.2853H285.073L286.05 12.5ZM299.927 70.787L296.527 55.187L294.573 55.613L297.973 71.213L299.927 70.787ZM295.55 54.4H276.55V56.4H295.55V54.4ZM275.573 55.187L272.173 70.787L274.127 71.213L277.527 55.6129L275.573 55.187ZM273.15 70H258.55V72H273.15V70ZM259.514 71.2648L278.514 2.06476L276.586 1.53523L257.586 70.7352L259.514 71.2648ZM277.55 2.8H294.95V0.799997H277.55V2.8ZM293.985 2.06347L312.885 71.2635L314.815 70.7365L295.915 1.53653L293.985 2.06347ZM313.85 70H298.95V72H313.85V70ZM278.95 45.8H293.15V43.8H278.95V45.8ZM294.127 44.5853L287.027 12.2853L285.073 12.7147L292.173 45.0147L294.127 44.5853ZM285.073 12.2853L277.973 44.5853L279.927 45.0147L287.027 12.7147L285.073 12.2853ZM434.041 1.8L434.942 2.23236L435.629 0.799997H434.041V1.8ZM418.841 33.5L417.939 33.0676L417.738 33.4857L417.928 33.9088L418.841 33.5ZM435.641 71V72H437.184L436.553 70.5912L435.641 71ZM420.241 71L419.319 71.3878L419.576 72H420.241V71ZM407.241 40.1L408.162 39.7122L407.905 39.1H407.241V40.1ZM401.541 40.1V39.1H400.541V40.1H401.541ZM401.541 71V72H402.541V71H401.541ZM388.341 71H387.341V72H388.341V71ZM388.341 40.1H389.341V39.1H388.341V40.1ZM382.441 40.1V39.1H381.778L381.52 39.7097L382.441 40.1ZM369.341 71V72H370.003L370.261 71.3903L369.341 71ZM354.241 71L353.328 70.5912L352.697 72H354.241V71ZM371.041 33.5L371.953 33.9088L372.143 33.4857L371.942 33.0676L371.041 33.5ZM355.841 1.8V0.799997H354.252L354.939 2.23236L355.841 1.8ZM369.941 1.8L370.848 1.37908L370.579 0.799997H369.941V1.8ZM382.841 29.6L381.934 30.0209L382.202 30.6H382.841V29.6ZM388.341 29.6V30.6H389.341V29.6H388.341ZM388.341 1.8V0.799997H387.341V1.8H388.341ZM401.541 1.8H402.541V0.799997H401.541V1.8ZM401.541 29.6H400.541V30.6H401.541V29.6ZM407.041 29.6V30.6H407.675L407.945 30.0263L407.041 29.6ZM420.141 1.8V0.799997H419.506L419.236 1.37373L420.141 1.8ZM433.139 1.36764L417.939 33.0676L419.742 33.9324L434.942 2.23236L433.139 1.36764ZM417.928 33.9088L434.728 71.4088L436.553 70.5912L419.753 33.0912L417.928 33.9088ZM435.641 70H420.241V72H435.641V70ZM421.162 70.6122L408.162 39.7122L406.319 40.4878L419.319 71.3878L421.162 70.6122ZM407.241 39.1H401.541V41.1H407.241V39.1ZM400.541 40.1V71H402.541V40.1H400.541ZM401.541 70H388.341V72H401.541V70ZM389.341 71V40.1H387.341V71H389.341ZM388.341 39.1H382.441V41.1H388.341V39.1ZM381.52 39.7097L368.42 70.6097L370.261 71.3903L383.361 40.4903L381.52 39.7097ZM369.341 70H354.241V72H369.341V70ZM355.153 71.4088L371.953 33.9088L370.128 33.0912L353.328 70.5912L355.153 71.4088ZM371.942 33.0676L356.742 1.36764L354.939 2.23236L370.139 33.9324L371.942 33.0676ZM355.841 2.8H369.941V0.799997H355.841V2.8ZM369.034 2.22092L381.934 30.0209L383.748 29.1791L370.848 1.37908L369.034 2.22092ZM382.841 30.6H388.341V28.6H382.841V30.6ZM389.341 29.6V1.8H387.341V29.6H389.341ZM388.341 2.8H401.541V0.799997H388.341V2.8ZM400.541 1.8V29.6H402.541V1.8H400.541ZM401.541 30.6H407.041V28.6H401.541V30.6ZM407.945 30.0263L421.045 2.22626L419.236 1.37373L406.136 29.1737L407.945 30.0263ZM420.141 2.8H434.041V0.799997H420.141V2.8ZM481.409 50.9L480.464 50.5745L480.462 50.5801L481.409 50.9ZM475.409 63.1L476.201 63.7115L476.207 63.7028L475.409 63.1ZM467.209 69.7L467.617 70.6131L467.626 70.6091L467.209 69.7ZM455.209 72.6L454.226 72.7807L454.394 73.6954L455.318 73.594L455.209 72.6ZM453.409 62.8L453.248 61.8132L452.242 61.9781L452.426 62.9807L453.409 62.8ZM462.709 59.6L463.276 60.424L462.709 59.6ZM468.009 52.5L468.929 52.8939L469.526 51.5H468.009V52.5ZM463.209 52.5L462.274 52.8542L462.519 53.5H463.209V52.5ZM444.009 1.8V0.799997H442.561L443.074 2.15415L444.009 1.8ZM458.609 1.8L459.563 1.49929L459.343 0.799997H458.609V1.8ZM472.009 44.3L471.056 44.6007L472.066 47.8058L472.972 44.5696L472.009 44.3ZM483.909 1.8V0.799997H483.151L482.946 1.53037L483.909 1.8ZM498.309 1.8L499.255 2.12545L499.711 0.799997H498.309V1.8ZM480.462 50.5801C478.749 55.6525 476.792 59.6115 474.612 62.4972L476.207 63.7028C478.56 60.5885 480.603 56.4141 482.357 51.2199L480.462 50.5801ZM474.618 62.4886C472.445 65.3008 469.838 67.3953 466.793 68.7909L467.626 70.6091C470.981 69.0714 473.84 66.7658 476.201 63.7114L474.618 62.4886ZM466.801 68.787C463.794 70.1308 459.904 71.0795 455.1 71.6059L455.318 73.594C460.248 73.0538 464.358 72.0692 467.617 70.613L466.801 68.787ZM456.193 72.4193L454.393 62.6193L452.426 62.9807L454.226 72.7807L456.193 72.4193ZM453.571 63.7868C457.707 63.1089 460.97 62.009 463.276 60.424L462.143 58.776C460.182 60.1243 457.246 61.1578 453.248 61.8132L453.571 63.7868ZM463.276 60.424C465.613 58.8173 467.481 56.2719 468.929 52.8939L467.09 52.1061C465.738 55.2614 464.072 57.4494 462.143 58.776L463.276 60.424ZM468.009 51.5H463.209V53.5H468.009V51.5ZM464.145 52.1458L444.945 1.44584L443.074 2.15415L462.274 52.8542L464.145 52.1458ZM444.009 2.8H458.609V0.799997H444.009V2.8ZM457.656 2.1007L471.056 44.6007L472.963 43.9993L459.563 1.49929L457.656 2.1007ZM472.972 44.5696L484.872 2.06963L482.946 1.53037L471.046 44.0304L472.972 44.5696ZM483.909 2.8H498.309V0.799997H483.909V2.8ZM497.364 1.47454L480.464 50.5745L482.355 51.2255L499.255 2.12545L497.364 1.47454ZM551.772 7.4L552.397 6.61913L551.772 7.4ZM551.872 41.5L552.515 42.2655L552.522 42.26L551.872 41.5ZM527.272 47.3V46.3H526.272V47.3H527.272ZM527.272 71V72H528.272V71H527.272ZM512.872 71H511.872V72H512.872V71ZM512.872 1.8V0.799997H511.872V1.8H512.872ZM540.972 33.8L541.667 34.519V34.519L540.972 33.8ZM527.272 12.2V11.2H526.272V12.2H527.272ZM527.272 36.7H526.272V37.7H527.272V36.7ZM531.672 2.8C540.28 2.8 546.723 4.64187 551.147 8.18086L552.397 6.61913C547.487 2.69146 540.531 0.799997 531.672 0.799997V2.8ZM551.147 8.18086C555.523 11.6815 557.772 16.8943 557.772 24H559.772C559.772 16.439 557.354 10.5852 552.397 6.61913L551.147 8.18086ZM557.772 24C557.772 31.5283 555.541 37.0469 551.222 40.74L552.522 42.26C557.403 38.0865 559.772 31.9383 559.772 24H557.772ZM551.228 40.7345C546.862 44.4047 540.784 46.3 532.872 46.3V48.3C541.093 48.3 547.682 46.3287 552.515 42.2655L551.228 40.7345ZM532.872 46.3H527.272V48.3H532.872V46.3ZM526.272 47.3V71H528.272V47.3H526.272ZM527.272 70H512.872V72H527.272V70ZM513.872 71V1.8H511.872V71H513.872ZM512.872 2.8H531.672V0.799997H512.872V2.8ZM531.872 37.7C536.079 37.7 539.41 36.7011 541.667 34.519L540.277 33.081C538.534 34.7656 535.798 35.7 531.872 35.7V37.7ZM541.667 34.519C543.954 32.3077 544.972 28.7406 544.972 24.1H542.972C542.972 28.5261 541.989 31.4257 540.277 33.081L541.667 34.519ZM544.972 24.1C544.972 19.8879 543.937 16.5751 541.667 14.381L540.277 15.819C542.007 17.4915 542.972 20.1788 542.972 24.1H544.972ZM541.667 14.381C539.407 12.1964 536.04 11.2 531.772 11.2V13.2C535.77 13.2 538.537 14.137 540.277 15.819L541.667 14.381ZM531.772 11.2H527.272V13.2H531.772V11.2ZM526.272 12.2V36.7H528.272V12.2H526.272ZM527.272 37.7H531.872V35.7H527.272V37.7ZM622.678 9.5L621.891 10.1175L621.895 10.1216L622.678 9.5ZM622.678 63.3L623.465 63.9175L623.468 63.9134L622.678 63.3ZM581.378 63.4L580.591 64.0175L580.599 64.0268L581.378 63.4ZM581.378 9.6L580.592 8.98144L580.591 8.98255L581.378 9.6ZM592.278 16.9L593.157 17.3768L592.278 16.9ZM592.278 56L591.399 56.4768L591.404 56.4857L591.409 56.4945L592.278 56ZM611.778 56L610.899 55.5232L610.896 55.5286L611.778 56ZM611.778 16.9L610.893 17.3652L610.899 17.3768L611.778 16.9ZM602.078 1.2C610.681 1.2 617.24 4.19131 621.892 10.1174L623.465 8.88255C618.383 2.40868 611.208 -0.800001 602.078 -0.800001V1.2ZM621.895 10.1216C626.566 16.0082 628.978 24.7164 628.978 36.4H630.978C630.978 24.4836 628.524 15.2585 623.461 8.87842L621.895 10.1216ZM628.978 36.4C628.978 47.945 626.568 56.661 621.888 62.6866L623.468 63.9134C628.522 57.4057 630.978 48.1883 630.978 36.4H628.978ZM621.892 62.6825C617.24 68.6087 610.681 71.6 602.078 71.6V73.6C611.208 73.6 618.383 70.3913 623.465 63.9174L621.892 62.6825ZM602.078 71.6C593.471 71.6 586.875 68.6388 582.157 62.7732L580.599 64.0268C585.748 70.4279 592.952 73.6 602.078 73.6V71.6ZM582.165 62.7826C577.49 56.8273 575.078 48.0826 575.078 36.4H573.078C573.078 48.3174 575.533 57.5727 580.591 64.0174L582.165 62.7826ZM575.078 36.4C575.078 24.8539 577.489 16.1744 582.165 10.2174L580.591 8.98255C575.534 15.4256 573.078 24.6127 573.078 36.4H575.078ZM582.164 10.2186C586.885 4.22186 593.479 1.2 602.078 1.2V-0.800001C592.944 -0.800001 585.738 2.44481 580.592 8.98144L582.164 10.2186ZM602.078 10C599.725 10 597.624 10.5275 595.812 11.6183C594.002 12.7085 592.536 14.3273 591.399 16.4232L593.157 17.3768C594.154 15.5394 595.388 14.2082 596.844 13.3317C598.299 12.4558 600.031 12 602.078 12V10ZM591.399 16.4232C589.14 20.5891 588.078 27.3047 588.078 36.4H590.078C590.078 27.362 591.15 21.0776 593.157 17.3768L591.399 16.4232ZM588.078 36.4C588.078 45.5605 589.139 52.3103 591.399 56.4768L593.157 55.5232C591.15 51.823 590.078 45.5062 590.078 36.4H588.078ZM591.409 56.4945C593.781 60.6634 597.374 62.8 602.078 62.8V60.8C598.116 60.8 595.175 59.07 593.147 55.5055L591.409 56.4945ZM602.078 62.8C604.428 62.8 606.52 62.2823 608.316 61.2083C610.113 60.1341 611.555 58.5382 612.66 56.4714L610.896 55.5286C609.934 57.3285 608.727 58.6325 607.29 59.4917C605.853 60.3511 604.128 60.8 602.078 60.8V62.8ZM612.657 56.4768C614.917 52.3103 615.978 45.5605 615.978 36.4H613.978C613.978 45.5062 612.906 51.823 610.899 55.5232L612.657 56.4768ZM615.978 36.4C615.978 27.3047 614.917 20.5891 612.657 16.4232L610.899 17.3768C612.906 21.0776 613.978 27.362 613.978 36.4H615.978ZM612.663 16.4349C611.561 14.336 610.12 12.7135 608.323 11.6206C606.526 10.5275 604.431 10 602.078 10V12C604.125 12 605.847 12.4559 607.283 13.3294C608.72 14.2032 609.929 15.5307 610.893 17.3651L612.663 16.4349ZM681.769 34.4L681.501 33.4365L681.567 35.3795L681.769 34.4ZM692.569 39.6L691.88 40.3251L691.889 40.3334L692.569 39.6ZM689.369 66.3L689.915 67.1374L689.918 67.1356L689.369 66.3ZM649.669 71H648.669V72H649.669V71ZM649.669 1.8V0.799997H648.669V1.8H649.669ZM686.969 6.2L686.437 7.04664L686.444 7.05106L686.451 7.05536L686.969 6.2ZM690.569 29.2L689.833 28.5225L689.832 28.5234L690.569 29.2ZM664.069 12.2V11.2H663.069V12.2H664.069ZM664.069 30H663.069V31H664.069V30ZM676.669 14.2L676.059 14.9926L676.066 14.9982L676.074 15.0036L676.669 14.2ZM678.669 58.1L678.102 57.276L678.096 57.2802L678.09 57.2845L678.669 58.1ZM664.069 39.8V38.8H663.069V39.8H664.069ZM664.069 60.3H663.069V61.3H664.069V60.3ZM681.567 35.3795C685.964 36.2848 689.38 37.9497 691.88 40.325L693.258 38.875C690.424 36.1836 686.64 34.3819 681.97 33.4205L681.567 35.3795ZM691.889 40.3334C694.353 42.6169 695.669 46.1078 695.669 51H697.669C697.669 45.7589 696.251 41.6498 693.249 38.8666L691.889 40.3334ZM695.669 51C695.669 57.7416 693.345 62.4886 688.819 65.4644L689.918 67.1356C695.126 63.7114 697.669 58.2584 697.669 51H695.669ZM688.822 65.4626C684.246 68.4498 677.797 70 669.369 70V72C678.007 72 684.892 70.4168 689.915 67.1374L688.822 65.4626ZM669.369 70H649.669V72H669.369V70ZM650.669 71V1.8H648.669V71H650.669ZM649.669 2.8H666.869V0.799997H649.669V2.8ZM666.869 2.8C675.514 2.8 681.997 4.2561 686.437 7.04664L687.501 5.35336C682.607 2.27723 675.69 0.799997 666.869 0.799997V2.8ZM686.451 7.05536C690.856 9.72313 693.069 13.8142 693.069 19.5H695.069C695.069 13.1858 692.549 8.4102 687.487 5.34464L686.451 7.05536ZM693.069 19.5C693.069 23.2206 691.972 26.2002 689.833 28.5225L691.304 29.8775C693.832 27.1332 695.069 23.6461 695.069 19.5H693.069ZM689.832 28.5234C687.706 30.837 684.943 32.4805 681.501 33.4365L682.036 35.3635C685.795 34.3195 688.898 32.4963 691.305 29.8766L689.832 28.5234ZM663.069 12.2V30H665.069V12.2H663.069ZM664.069 31H669.269V29H664.069V31ZM669.269 31C672.768 31 675.578 30.2052 677.517 28.4393C679.474 26.6572 680.369 24.0461 680.369 20.8H678.369C678.369 23.6872 677.581 25.6761 676.17 26.9607C674.742 28.2615 672.503 29 669.269 29V31ZM680.369 20.8C680.369 17.5423 679.405 14.9825 677.264 13.3964L676.074 15.0036C677.532 16.0842 678.369 17.9243 678.369 20.8H680.369ZM677.278 13.4074C675.28 11.8701 672.205 11.2 668.269 11.2V13.2C672.066 13.2 674.591 13.8633 676.059 14.9926L677.278 13.4074ZM668.269 11.2H664.069V13.2H668.269V11.2ZM669.469 61.3C673.628 61.3 676.937 60.555 679.247 58.9155L678.09 57.2845C676.267 58.5783 673.443 59.3 669.469 59.3V61.3ZM679.235 58.924C681.747 57.1972 682.869 54.2069 682.869 50.3H680.869C680.869 53.8597 679.857 56.0695 678.102 57.276L679.235 58.924ZM682.869 50.3C682.869 46.6187 681.847 43.6819 679.64 41.6836C677.451 39.7025 674.266 38.8 670.269 38.8V40.8C674.005 40.8 676.62 41.6475 678.298 43.1664C679.957 44.6681 680.869 46.9813 680.869 50.3H682.869ZM670.269 38.8H664.069V40.8H670.269V38.8ZM663.069 39.8V60.3H665.069V39.8H663.069ZM664.069 61.3H669.469V59.3H664.069V61.3ZM748.345 71L747.367 71.213L747.539 72H748.345V71ZM744.945 55.4L745.922 55.187L745.75 54.4H744.945V55.4ZM725.945 55.4V54.4H725.139L724.967 55.187L725.945 55.4ZM722.545 71V72H723.35L723.522 71.213L722.545 71ZM707.945 71L706.98 70.7352L706.633 72H707.945V71ZM726.945 1.8V0.799997H726.182L725.98 1.53523L726.945 1.8ZM744.345 1.8L745.309 1.53653L745.108 0.799997H744.345V1.8ZM763.245 71V72H764.554L764.209 70.7365L763.245 71ZM728.345 44.8L727.368 44.5853L727.101 45.8H728.345V44.8ZM742.545 44.8V45.8H743.788L743.521 44.5853L742.545 44.8ZM735.445 12.5L736.421 12.2853H734.468L735.445 12.5ZM749.322 70.787L745.922 55.187L743.967 55.613L747.367 71.213L749.322 70.787ZM744.945 54.4H725.945V56.4H744.945V54.4ZM724.967 55.187L721.567 70.787L723.522 71.213L726.922 55.6129L724.967 55.187ZM722.545 70H707.945V72H722.545V70ZM708.909 71.2648L727.909 2.06476L725.98 1.53523L706.98 70.7352L708.909 71.2648ZM726.945 2.8H744.345V0.799997H726.945V2.8ZM743.38 2.06347L762.28 71.2635L764.209 70.7365L745.309 1.53653L743.38 2.06347ZM763.245 70H748.345V72H763.245V70ZM728.345 45.8H742.545V43.8H728.345V45.8ZM743.521 44.5853L736.421 12.2853L734.468 12.7147L741.568 45.0147L743.521 44.5853ZM734.468 12.2853L727.368 44.5853L729.321 45.0147L736.421 12.7147L734.468 12.2853Z" fill="white"/>
</svg>
