<svg width="1872" height="210" viewBox="0 0 1872 210" fill="none" xmlns="http://www.w3.org/2000/svg">
<path opacity="0.12" d="M224.686 5.30099L225.586 5.73684L226.281 4.30099H224.686V5.30099ZM180.18 97.203L179.28 96.7671L179.075 97.1901L179.27 97.6177L180.18 97.203ZM229.31 205V206H230.865L230.22 204.585L229.31 205ZM189.139 205L188.221 205.396L188.481 206H189.139V205ZM150.124 114.543L151.042 114.147L150.782 113.543H150.124V114.543ZM132.206 114.543V113.543H131.206V114.543H132.206ZM132.206 205V206H133.206V205H132.206ZM97.526 205H96.526V206H97.526V205ZM97.526 114.543H98.526V113.543H97.526V114.543ZM79.608 114.543V113.543H78.9541L78.6919 114.142L79.608 114.543ZM40.015 205V206H40.6689L40.9311 205.401L40.015 205ZM0.422 205L-0.487026 204.583L-1.13652 206H0.422V205ZM49.841 97.203L50.75 97.6197L50.9464 97.1913L50.741 96.7671L49.841 97.203ZM5.335 5.30099V4.30099H3.73963L4.43498 5.73684L5.335 5.30099ZM42.327 5.30099L43.2321 4.87581L42.9621 4.30099H42.327V5.30099ZM80.475 86.51L79.5699 86.9352L79.8399 87.51H80.475V86.51ZM97.526 86.51V87.51H98.526V86.51H97.526ZM97.526 5.30099V4.30099H96.526V5.30099H97.526ZM132.206 5.30099H133.206V4.30099H132.206V5.30099ZM132.206 86.51H131.206V87.51H132.206V86.51ZM149.546 86.51V87.51H150.177L150.449 86.9404L149.546 86.51ZM188.272 5.30099V4.30099H187.641L187.369 4.87056L188.272 5.30099ZM223.786 4.86513L179.28 96.7671L181.08 97.6389L225.586 5.73684L223.786 4.86513ZM179.27 97.6177L228.4 205.415L230.22 204.585L181.09 96.7883L179.27 97.6177ZM229.31 204H189.139V206H229.31V204ZM190.057 204.604L151.042 114.147L149.206 114.939L188.221 205.396L190.057 204.604ZM150.124 113.543H132.206V115.543H150.124V113.543ZM131.206 114.543V205H133.206V114.543H131.206ZM132.206 204H97.526V206H132.206V204ZM98.526 205V114.543H96.526V205H98.526ZM97.526 113.543H79.608V115.543H97.526V113.543ZM78.6919 114.142L39.0989 204.599L40.9311 205.401L80.5241 114.944L78.6919 114.142ZM40.015 204H0.422V206H40.015V204ZM1.33103 205.417L50.75 97.6197L48.932 96.7863L-0.487026 204.583L1.33103 205.417ZM50.741 96.7671L6.23502 4.86513L4.43498 5.73684L48.941 97.6389L50.741 96.7671ZM5.335 6.30099H42.327V4.30099H5.335V6.30099ZM41.4219 5.72616L79.5699 86.9352L81.3801 86.0848L43.2321 4.87581L41.4219 5.72616ZM80.475 87.51H97.526V85.51H80.475V87.51ZM98.526 86.51V5.30099H96.526V86.51H98.526ZM97.526 6.30099H132.206V4.30099H97.526V6.30099ZM131.206 5.30099V86.51H133.206V5.30099H131.206ZM132.206 87.51H149.546V85.51H132.206V87.51ZM150.449 86.9404L189.175 5.73142L187.369 4.87056L148.643 86.0796L150.449 86.9404ZM188.272 6.30099H224.686V4.30099H188.272V6.30099ZM384.239 5.30099L385.133 5.7482L385.857 4.30099H384.239V5.30099ZM338.288 97.203L337.393 96.7558L337.176 97.1903L337.383 97.6297L338.288 97.203ZM389.152 205V206H390.729L390.056 204.573L389.152 205ZM348.692 205L347.785 205.421L348.054 206H348.692V205ZM306.787 114.832L307.694 114.411L307.425 113.832H306.787V114.832ZM286.268 114.832V113.832H285.268V114.832H286.268ZM286.268 205V206H287.268V205H286.268ZM248.698 205H247.698V206H248.698V205ZM248.698 5.30099V4.30099H247.698V5.30099H248.698ZM286.268 5.30099H287.268V4.30099H286.268V5.30099ZM286.268 86.221H285.268V87.221H286.268V86.221ZM307.365 86.221V87.221H307.985L308.261 86.6656L307.365 86.221ZM347.536 5.30099V4.30099H346.916L346.64 4.85633L347.536 5.30099ZM383.344 4.85378L337.393 96.7558L339.182 97.6502L385.133 5.7482L383.344 4.85378ZM337.383 97.6297L388.247 205.427L390.056 204.573L339.192 96.7763L337.383 97.6297ZM389.152 204H348.692V206H389.152V204ZM349.599 204.579L307.694 114.411L305.88 115.253L347.785 205.421L349.599 204.579ZM306.787 113.832H286.268V115.832H306.787V113.832ZM285.268 114.832V205H287.268V114.832H285.268ZM286.268 204H248.698V206H286.268V204ZM249.698 205V5.30099H247.698V205H249.698ZM248.698 6.30099H286.268V4.30099H248.698V6.30099ZM285.268 5.30099V86.221H287.268V5.30099H285.268ZM286.268 87.221H307.365V85.221H286.268V87.221ZM308.261 86.6656L348.432 5.74564L346.64 4.85633L306.469 85.7763L308.261 86.6656ZM347.536 6.30099H384.239V4.30099H347.536V6.30099ZM570.75 205H569.75V206H570.75V205ZM570.75 115.41H571.75V114.41H570.75V115.41ZM510.638 115.41V114.41H509.638V115.41H510.638ZM510.638 205V206H511.638V205H510.638ZM473.068 205H472.068V206H473.068V205ZM473.068 5.30099V4.30099H472.068V5.30099H473.068ZM510.638 5.30099H511.638V4.30099H510.638V5.30099ZM510.638 85.643H509.638V86.643H510.638V85.643ZM570.75 85.643V86.643H571.75V85.643H570.75ZM570.75 5.30099V4.30099H569.75V5.30099H570.75ZM608.32 5.30099H609.32V4.30099H608.32V5.30099ZM608.32 205V206H609.32V205H608.32ZM571.75 205V115.41H569.75V205H571.75ZM570.75 114.41H510.638V116.41H570.75V114.41ZM509.638 115.41V205H511.638V115.41H509.638ZM510.638 204H473.068V206H510.638V204ZM474.068 205V5.30099H472.068V205H474.068ZM473.068 6.30099H510.638V4.30099H473.068V6.30099ZM509.638 5.30099V85.643H511.638V5.30099H509.638ZM510.638 86.643H570.75V84.643H510.638V86.643ZM571.75 85.643V5.30099H569.75V85.643H571.75ZM570.75 6.30099H608.32V4.30099H570.75V6.30099ZM607.32 5.30099V205H609.32V5.30099H607.32ZM608.32 204H570.75V206H608.32V204ZM745.146 205L744.172 205.23L744.354 206H745.146V205ZM734.164 158.471L735.137 158.241L734.955 157.471H734.164V158.471ZM676.364 158.471V157.471H675.572L675.39 158.241L676.364 158.471ZM665.382 205V206H666.173L666.355 205.23L665.382 205ZM627.523 205L626.559 204.732L626.207 206H627.523V205ZM683.011 5.30099V4.30099H682.251L682.047 5.03327L683.011 5.30099ZM728.673 5.30099L729.637 5.03456L729.434 4.30099H728.673V5.30099ZM783.872 205V206H785.186L784.836 204.734L783.872 205ZM682.722 130.149L681.748 129.921L681.46 131.149H682.722V130.149ZM727.806 130.149V131.149H729.067L728.779 129.921L727.806 130.149ZM705.264 33.912L706.237 33.6839H704.29L705.264 33.912ZM746.119 204.77L735.137 158.241L733.19 158.701L744.172 205.23L746.119 204.77ZM734.164 157.471H676.364V159.471H734.164V157.471ZM675.39 158.241L664.408 204.77L666.355 205.23L677.337 158.701L675.39 158.241ZM665.382 204H627.523V206H665.382V204ZM628.486 205.268L683.974 5.5687L682.047 5.03327L626.559 204.732L628.486 205.268ZM683.011 6.30099H728.673V4.30099H683.011V6.30099ZM727.709 5.56741L782.908 205.266L784.836 204.734L729.637 5.03456L727.709 5.56741ZM783.872 204H745.146V206H783.872V204ZM682.722 131.149H727.806V129.149H682.722V131.149ZM728.779 129.921L706.237 33.6839L704.29 34.1401L726.832 130.377L728.779 129.921ZM704.29 33.6839L681.748 129.921L683.695 130.377L706.237 34.1401L704.29 33.6839ZM1070.52 5.30099L1071.42 5.73684L1072.11 4.30099H1070.52V5.30099ZM1026.01 97.203L1025.11 96.7671L1024.91 97.1901L1025.1 97.6177L1026.01 97.203ZM1075.14 205V206H1076.7L1076.05 204.585L1075.14 205ZM1034.97 205L1034.05 205.396L1034.31 206H1034.97V205ZM995.957 114.543L996.875 114.147L996.615 113.543H995.957V114.543ZM978.039 114.543V113.543H977.039V114.543H978.039ZM978.039 205V206H979.039V205H978.039ZM943.359 205H942.359V206H943.359V205ZM943.359 114.543H944.359V113.543H943.359V114.543ZM925.441 114.543V113.543H924.787L924.525 114.142L925.441 114.543ZM885.848 205V206H886.502L886.764 205.401L885.848 205ZM846.255 205L845.346 204.583L844.696 206H846.255V205ZM895.674 97.203L896.583 97.6197L896.779 97.1913L896.574 96.7671L895.674 97.203ZM851.168 5.30099V4.30099H849.573L850.268 5.73684L851.168 5.30099ZM888.16 5.30099L889.065 4.87581L888.795 4.30099H888.16V5.30099ZM926.308 86.51L925.403 86.9352L925.673 87.51H926.308V86.51ZM943.359 86.51V87.51H944.359V86.51H943.359ZM943.359 5.30099V4.30099H942.359V5.30099H943.359ZM978.039 5.30099H979.039V4.30099H978.039V5.30099ZM978.039 86.51H977.039V87.51H978.039V86.51ZM995.379 86.51V87.51H996.01L996.282 86.9404L995.379 86.51ZM1034.1 5.30099V4.30099H1033.47L1033.2 4.87056L1034.1 5.30099ZM1069.62 4.86513L1025.11 96.7671L1026.91 97.6389L1071.42 5.73684L1069.62 4.86513ZM1025.1 97.6177L1074.23 205.415L1076.05 204.585L1026.92 96.7883L1025.1 97.6177ZM1075.14 204H1034.97V206H1075.14V204ZM1035.89 204.604L996.875 114.147L995.039 114.939L1034.05 205.396L1035.89 204.604ZM995.957 113.543H978.039V115.543H995.957V113.543ZM977.039 114.543V205H979.039V114.543H977.039ZM978.039 204H943.359V206H978.039V204ZM944.359 205V114.543H942.359V205H944.359ZM943.359 113.543H925.441V115.543H943.359V113.543ZM924.525 114.142L884.932 204.599L886.764 205.401L926.357 114.944L924.525 114.142ZM885.848 204H846.255V206H885.848V204ZM847.164 205.417L896.583 97.6197L894.765 96.7863L845.346 204.583L847.164 205.417ZM896.574 96.7671L852.068 4.86513L850.268 5.73684L894.774 97.6389L896.574 96.7671ZM851.168 6.30099H888.16V4.30099H851.168V6.30099ZM887.255 5.72616L925.403 86.9352L927.213 86.0848L889.065 4.87581L887.255 5.72616ZM926.308 87.51H943.359V85.51H926.308V87.51ZM944.359 86.51V5.30099H942.359V86.51H944.359ZM943.359 6.30099H978.039V4.30099H943.359V6.30099ZM977.039 5.30099V86.51H979.039V5.30099H977.039ZM978.039 87.51H995.379V85.51H978.039V87.51ZM996.282 86.9404L1035.01 5.73142L1033.2 4.87056L994.476 86.0796L996.282 86.9404ZM1034.1 6.30099H1070.52V4.30099H1034.1V6.30099ZM1175.74 148.067L1176.68 148.395L1176.68 148.394L1175.74 148.067ZM1158.98 182.169L1159.77 182.775L1159.78 182.766L1158.98 182.169ZM1136.72 200.665L1137.15 201.571L1137.16 201.567L1137.16 201.563L1136.72 200.665ZM1103.78 209.335L1102.8 209.533L1102.98 210.447L1103.91 210.327L1103.78 209.335ZM1098.58 183.614L1098.39 182.632L1097.4 182.824L1097.6 183.812L1098.58 183.614ZM1125.45 173.499L1124.87 172.687L1124.86 172.691L1124.86 172.696L1125.45 173.499ZM1140.77 151.246L1141.7 151.608L1142.23 150.246H1140.77V151.246ZM1128.34 151.246L1127.41 151.605L1127.66 152.246H1128.34V151.246ZM1072.28 5.30099V4.30099H1070.82L1071.34 5.6596L1072.28 5.30099ZM1110.14 5.30099L1111.09 4.98542L1110.86 4.30099H1110.14V5.30099ZM1151.46 129.571L1150.51 129.887L1151.52 132.921L1152.42 129.852L1151.46 129.571ZM1187.88 5.30099V4.30099H1187.13L1186.92 5.01979L1187.88 5.30099ZM1225.16 5.30099L1226.1 5.6281L1226.56 4.30099H1225.16V5.30099ZM1174.8 147.739C1169.8 162.135 1164.26 173.399 1158.18 181.572L1159.78 182.766C1166.03 174.37 1171.66 162.899 1176.68 148.395L1174.8 147.739ZM1158.18 181.563C1152.11 189.538 1144.81 195.6 1136.29 199.767L1137.16 201.563C1145.98 197.253 1153.52 190.984 1159.77 182.775L1158.18 181.563ZM1136.3 199.759C1127.75 203.748 1116.88 206.618 1103.65 208.343L1103.91 210.327C1117.27 208.584 1128.36 205.674 1137.15 201.571L1136.3 199.759ZM1104.76 209.137L1099.56 183.416L1097.6 183.812L1102.8 209.533L1104.76 209.137ZM1098.77 184.596C1110.78 182.271 1119.9 178.862 1126.05 174.302L1124.86 172.696C1119.06 176.999 1110.27 180.333 1098.39 182.632L1098.77 184.596ZM1126.04 174.311C1132.42 169.725 1137.62 162.113 1141.7 151.608L1139.84 150.884C1135.83 161.187 1130.82 168.41 1124.87 172.687L1126.04 174.311ZM1140.77 150.246H1128.34V152.246H1140.77V150.246ZM1129.28 150.887L1073.21 4.94238L1071.34 5.6596L1127.41 151.605L1129.28 150.887ZM1072.28 6.30099H1110.14V4.30099H1072.28V6.30099ZM1109.19 5.61655L1150.51 129.887L1152.41 129.255L1111.09 4.98542L1109.19 5.61655ZM1152.42 129.852L1188.84 5.58219L1186.92 5.01979L1150.5 129.29L1152.42 129.852ZM1187.88 6.30099H1225.16V4.30099H1187.88V6.30099ZM1224.21 4.97388L1174.79 147.74L1176.68 148.394L1226.1 5.6281L1224.21 4.97388ZM1349.95 21.485L1349.32 22.2569L1349.32 22.262L1349.33 22.267L1349.95 21.485ZM1349.95 118.589L1350.6 119.355L1350.6 119.354L1349.95 118.589ZM1278.86 135.062V134.062H1277.86V135.062H1278.86ZM1278.86 205V206H1279.86V205H1278.86ZM1241.29 205H1240.29V206H1241.29V205ZM1241.29 5.30099V4.30099H1240.29V5.30099H1241.29ZM1321.92 98.648L1322.59 99.389L1322.6 99.3833L1322.6 99.3775L1321.92 98.648ZM1321.92 41.426L1322.6 40.6964L1321.92 41.426ZM1278.86 32.756V31.756H1277.86V32.756H1278.86ZM1278.86 107.029H1277.86V108.029H1278.86V107.029ZM1293.02 6.30099C1317.75 6.30099 1336.46 11.6701 1349.32 22.2569L1350.59 20.7131C1337.24 9.72125 1318 4.30099 1293.02 4.30099V6.30099ZM1349.33 22.267C1362.33 32.6296 1368.89 48.1058 1368.89 68.881H1370.89C1370.89 47.6548 1364.16 31.5337 1350.58 20.703L1349.33 22.267ZM1368.89 68.881C1368.89 90.6343 1362.32 106.887 1349.31 117.824L1350.6 119.354C1364.17 107.941 1370.89 91.0556 1370.89 68.881H1368.89ZM1349.31 117.823C1336.44 128.608 1318.59 134.062 1295.62 134.062V136.062C1318.89 136.062 1337.26 130.534 1350.6 119.355L1349.31 117.823ZM1295.62 134.062H1278.86V136.062H1295.62V134.062ZM1277.86 135.062V205H1279.86V135.062H1277.86ZM1278.86 204H1241.29V206H1278.86V204ZM1242.29 205V5.30099H1240.29V205H1242.29ZM1241.29 6.30099H1293.02V4.30099H1241.29V6.30099ZM1293.31 108.029C1306.33 108.029 1316.16 105.214 1322.59 99.389L1321.25 97.907C1315.35 103.257 1306.1 106.029 1293.31 106.029V108.029ZM1322.6 99.3775C1329.07 93.315 1332.17 83.0466 1332.17 68.881H1330.17C1330.17 82.8447 1327.1 92.421 1321.24 97.9185L1322.6 99.3775ZM1332.17 68.881C1332.17 56.2149 1329.05 46.7407 1322.6 40.6964L1321.24 42.1555C1327.12 47.6713 1330.17 56.5005 1330.17 68.881H1332.17ZM1322.6 40.6964C1316.18 34.6704 1306.34 31.756 1293.31 31.756V33.756C1306.09 33.756 1315.33 36.6215 1321.24 42.1555L1322.6 40.6964ZM1293.31 31.756H1278.86V33.756H1293.31V31.756ZM1277.86 32.756V107.029H1279.86V32.756H1277.86ZM1278.86 108.029H1293.31V106.029H1278.86V108.029ZM1525.14 27.554L1524.36 28.1756L1524.36 28.1797L1525.14 27.554ZM1525.14 182.458L1524.35 181.841L1525.14 182.458ZM1408.09 182.747L1408.88 182.125L1408.09 182.747ZM1408.09 28.132L1408.88 28.7494L1408.88 28.7453L1408.09 28.132ZM1436.42 47.206L1437.28 47.7037L1436.42 47.206ZM1436.42 163.095L1435.55 163.593L1435.55 163.603L1436.42 163.095ZM1496.82 163.384L1495.95 162.886L1495.95 162.891L1496.82 163.384ZM1496.82 47.206L1495.94 47.6929L1495.95 47.7037L1496.82 47.206ZM1466.47 1.96599C1491.25 1.96599 1510.5 10.717 1524.36 28.1756L1525.92 26.9324C1511.65 8.94031 1491.79 -0.034008 1466.47 -0.034008V1.96599ZM1524.36 28.1797C1538.22 45.4637 1545.24 71.0193 1545.24 105.006H1547.24C1547.24 70.7887 1540.18 44.7097 1525.92 26.9283L1524.36 28.1797ZM1545.24 105.006C1545.24 138.602 1538.23 164.166 1524.35 181.841L1525.93 183.075C1540.18 164.914 1547.24 138.843 1547.24 105.006H1545.24ZM1524.35 181.841C1510.5 199.491 1491.25 208.335 1466.47 208.335V210.335C1491.79 210.335 1511.65 201.261 1525.93 183.075L1524.35 181.841ZM1466.47 208.335C1441.89 208.335 1422.73 199.586 1408.88 182.125L1407.31 183.369C1421.58 201.359 1441.35 210.335 1466.47 210.335V208.335ZM1408.88 182.125C1395.01 164.646 1388 139.086 1388 105.295H1386C1386 139.322 1393.05 165.397 1407.31 183.369L1408.88 182.125ZM1388 105.295C1388 71.8932 1395.01 46.4252 1408.88 28.7494L1407.31 27.5145C1393.05 45.6747 1386 71.6488 1386 105.295H1388ZM1408.88 28.7453C1422.74 10.9012 1441.9 1.96599 1466.47 1.96599V-0.034008C1441.34 -0.034008 1421.58 9.1414 1407.3 27.5186L1408.88 28.7453ZM1466.47 28.577C1452.81 28.577 1442.47 34.6524 1435.55 46.7083L1437.28 47.7037C1443.85 36.2543 1453.54 30.577 1466.47 30.577V28.577ZM1435.55 46.7083C1428.67 58.7003 1425.3 78.2884 1425.3 105.295H1427.3C1427.3 78.3549 1430.68 59.217 1437.28 47.7037L1435.55 46.7083ZM1425.3 105.295C1425.3 132.11 1428.67 151.601 1435.55 163.593L1437.28 162.597C1430.68 151.083 1427.3 132.041 1427.3 105.295H1425.3ZM1435.55 163.603C1442.66 175.645 1453 181.724 1466.47 181.724V179.724C1453.74 179.724 1444.04 174.05 1437.28 162.587L1435.55 163.603ZM1466.47 181.724C1480.5 181.724 1490.95 175.762 1497.69 163.877L1495.95 162.891C1489.58 174.126 1479.8 179.724 1466.47 179.724V181.724ZM1497.68 163.882C1504.56 151.889 1507.93 132.204 1507.93 105.006H1505.93C1505.93 132.14 1502.55 151.374 1495.95 162.886L1497.68 163.882ZM1507.93 105.006C1507.93 78.1906 1504.56 58.6996 1497.68 46.7083L1495.95 47.7037C1502.56 59.2177 1505.93 78.2601 1505.93 105.006H1507.93ZM1497.69 46.7191C1494.34 40.7098 1490.05 36.1609 1484.82 33.1196C1479.59 30.0787 1473.46 28.577 1466.47 28.577V30.577C1473.16 30.577 1478.93 32.0134 1483.82 34.8489C1488.69 37.6839 1492.74 41.9496 1495.94 47.6929L1497.69 46.7191ZM1665.86 99.226L1665.61 98.258L1665.66 100.205L1665.86 99.226ZM1697.36 114.254L1696.68 114.987L1697.36 114.254ZM1688.4 191.417L1688.96 192.251L1688.96 192.249L1688.4 191.417ZM1577.14 205H1576.14V206H1577.14V205ZM1577.14 5.30099V4.30099H1576.14V5.30099H1577.14ZM1681.47 18.017L1680.92 18.8566L1680.93 18.8612L1680.94 18.8657L1681.47 18.017ZM1691.29 84.487L1690.56 83.8095L1690.56 83.8104L1691.29 84.487ZM1614.71 32.756V31.756H1613.71V32.756H1614.71ZM1614.71 87.666H1613.71V88.666H1614.71V87.666ZM1655.46 80.441L1654.79 79.6951L1655.46 80.441ZM1654.88 39.114L1654.27 39.9107L1654.29 39.9223L1654.31 39.9332L1654.88 39.114ZM1614.71 113.676V112.676H1613.71V113.676H1614.71ZM1614.71 176.967H1613.71V177.967H1614.71V176.967ZM1665.66 100.205C1678.63 102.875 1688.95 107.817 1696.68 114.987L1698.04 113.521C1689.98 106.048 1679.3 100.972 1666.06 98.2465L1665.66 100.205ZM1696.68 114.987C1704.31 122.057 1708.21 132.823 1708.21 147.489H1710.21C1710.21 132.484 1706.21 121.094 1698.04 113.521L1696.68 114.987ZM1708.21 147.489C1708.21 167.269 1701.38 181.562 1687.85 190.585L1688.96 192.249C1703.17 182.776 1710.21 167.783 1710.21 147.489H1708.21ZM1687.85 190.583C1674.4 199.49 1655.73 204 1631.76 204V206C1655.95 206 1675.05 201.454 1688.96 192.251L1687.85 190.583ZM1631.76 204H1577.14V206H1631.76V204ZM1578.14 205V5.30099H1576.14V205H1578.14ZM1577.14 6.30099H1624.82V4.30099H1577.14V6.30099ZM1624.82 6.30099C1649.39 6.30099 1668.05 10.5284 1680.92 18.8566L1682.01 17.1774C1668.68 8.55094 1649.57 4.30099 1624.82 4.30099V6.30099ZM1680.94 18.8657C1693.91 26.948 1700.41 39.3238 1700.41 56.165H1702.41C1702.41 38.7115 1695.61 25.6553 1682 17.1683L1680.94 18.8657ZM1700.41 56.165C1700.41 67.5172 1697.1 76.7023 1690.56 83.8095L1692.03 85.1645C1698.97 77.629 1702.41 67.9327 1702.41 56.165H1700.41ZM1690.56 83.8104C1684.15 90.7818 1675.85 95.6035 1665.61 98.258L1666.11 100.194C1676.68 97.4538 1685.33 92.4495 1692.03 85.1636L1690.56 83.8104ZM1613.71 32.756V87.666H1615.71V32.756H1613.71ZM1614.71 88.666H1631.76V86.666H1614.71V88.666ZM1631.76 88.666C1642.3 88.666 1650.48 86.2264 1656.12 81.1869L1654.79 79.6951C1649.65 84.2889 1642.02 86.666 1631.76 86.666V88.666ZM1656.12 81.1869C1661.79 76.1306 1664.55 68.7921 1664.55 59.344H1662.55C1662.55 68.3919 1659.92 75.1181 1654.79 79.6951L1656.12 81.1869ZM1664.55 59.344C1664.55 49.698 1661.59 42.5879 1655.45 38.2948L1654.31 39.9332C1659.73 43.7321 1662.55 50.1086 1662.55 59.344H1664.55ZM1655.48 38.3173C1649.64 33.8807 1640.5 31.756 1628.29 31.756V33.756C1640.35 33.756 1648.95 35.87 1654.27 39.9107L1655.48 38.3173ZM1628.29 31.756H1614.71V33.756H1628.29V31.756ZM1632.05 177.967C1644.67 177.967 1654.45 175.641 1661.24 170.848L1660.08 169.214C1653.77 173.669 1644.47 175.967 1632.05 175.967V177.967ZM1661.24 170.848C1668.15 165.966 1671.49 157.591 1671.49 146.044H1669.49C1669.49 157.232 1666.27 164.848 1660.08 169.214L1661.24 170.848ZM1671.49 146.044C1671.49 135.07 1668.42 126.665 1662.12 121.023C1655.85 115.4 1646.53 112.676 1634.36 112.676V114.676C1646.27 114.676 1655.02 117.347 1660.79 122.513C1666.53 127.66 1669.49 135.439 1669.49 146.044H1671.49ZM1634.36 112.676H1614.71V114.676H1634.36V112.676ZM1613.71 113.676V176.967H1615.71V113.676H1613.71ZM1614.71 177.967H1632.05V175.967H1614.71V177.967ZM1832.56 205L1831.59 205.23L1831.77 206H1832.56V205ZM1821.58 158.471L1822.56 158.241L1822.37 157.471H1821.58V158.471ZM1763.78 158.471V157.471H1762.99L1762.81 158.241L1763.78 158.471ZM1752.8 205V206H1753.59L1753.77 205.23L1752.8 205ZM1714.94 205L1713.98 204.732L1713.63 206H1714.94V205ZM1770.43 5.30099V4.30099H1769.67L1769.47 5.03327L1770.43 5.30099ZM1816.09 5.30099L1817.06 5.03456L1816.85 4.30099H1816.09V5.30099ZM1871.29 205V206H1872.6L1872.25 204.734L1871.29 205ZM1770.14 130.149L1769.17 129.921L1768.88 131.149H1770.14V130.149ZM1815.22 130.149V131.149H1816.49L1816.2 129.921L1815.22 130.149ZM1792.68 33.912L1793.66 33.6839H1791.71L1792.68 33.912ZM1833.54 204.77L1822.56 158.241L1820.61 158.701L1831.59 205.23L1833.54 204.77ZM1821.58 157.471H1763.78V159.471H1821.58V157.471ZM1762.81 158.241L1751.83 204.77L1753.77 205.23L1764.76 158.701L1762.81 158.241ZM1752.8 204H1714.94V206H1752.8V204ZM1715.91 205.268L1771.39 5.5687L1769.47 5.03327L1713.98 204.732L1715.91 205.268ZM1770.43 6.30099H1816.09V4.30099H1770.43V6.30099ZM1815.13 5.56741L1870.33 205.266L1872.25 204.734L1817.06 5.03456L1815.13 5.56741ZM1871.29 204H1832.56V206H1871.29V204ZM1770.14 131.149H1815.22V129.149H1770.14V131.149ZM1816.2 129.921L1793.66 33.6839L1791.71 34.1401L1814.25 130.377L1816.2 129.921ZM1791.71 33.6839L1769.17 129.921L1771.11 130.377L1793.66 34.1401L1791.71 33.6839Z" fill="#061A23"/>
</svg>
