<svg width="267" height="114" viewBox="0 0 267 114" fill="none" xmlns="http://www.w3.org/2000/svg">
<path opacity="0.15" d="M89.573 0.174997L90.1224 0.441073L90.5469 -0.43547H89.573V0.174997ZM78.0229 24.025L77.4735 23.7589L77.3485 24.0171L77.4675 24.2782L78.0229 24.025ZM90.7729 52V52.6105H91.7221L91.3284 51.7468L90.7729 52ZM80.348 52L79.7874 52.2418L79.9464 52.6105H80.348V52ZM70.223 28.525L70.7835 28.2832L70.6245 27.9145H70.223V28.525ZM65.573 28.525V27.9145H64.9625V28.525H65.573ZM65.573 52V52.6105H66.1834V52H65.573ZM56.573 52H55.9625V52.6105H56.573V52ZM56.573 28.525H57.1834V27.9145H56.573V28.525ZM51.923 28.525V27.9145H51.5238L51.3637 28.2802L51.923 28.525ZM41.6479 52V52.6105H42.0471L42.2072 52.2448L41.6479 52ZM31.3729 52L30.818 51.7456L30.4215 52.6105H31.3729V52ZM44.1979 24.025L44.7529 24.2794L44.8728 24.0179L44.7474 23.7589L44.1979 24.025ZM32.6479 0.174997V-0.43547H31.674L32.0985 0.441073L32.6479 0.174997ZM42.248 0.174997L42.8005 -0.0845594L42.6357 -0.43547H42.248V0.174997ZM52.1479 21.25L51.5954 21.5096L51.7603 21.8605H52.1479V21.25ZM56.573 21.25V21.8605H57.1834V21.25H56.573ZM56.573 0.174997V-0.43547H55.9625V0.174997H56.573ZM65.573 0.174997H66.1834V-0.43547H65.573V0.174997ZM65.573 21.25H64.9625V21.8605H65.573V21.25ZM70.073 21.25V21.8605H70.4582L70.624 21.5128L70.073 21.25ZM80.1229 0.174997V-0.43547H79.7377L79.5719 -0.0877681L80.1229 0.174997ZM89.0235 -0.0910795L77.4735 23.7589L78.5724 24.2911L90.1224 0.441073L89.0235 -0.0910795ZM77.4675 24.2782L90.2175 52.2532L91.3284 51.7468L78.5784 23.7718L77.4675 24.2782ZM90.7729 51.3895H80.348V52.6105H90.7729V51.3895ZM80.9085 51.7582L70.7835 28.2832L69.6624 28.7668L79.7874 52.2418L80.9085 51.7582ZM70.223 27.9145H65.573V29.1355H70.223V27.9145ZM64.9625 28.525V52H66.1834V28.525H64.9625ZM65.573 51.3895H56.573V52.6105H65.573V51.3895ZM57.1834 52V28.525H55.9625V52H57.1834ZM56.573 27.9145H51.923V29.1355H56.573V27.9145ZM51.3637 28.2802L41.0887 51.7552L42.2072 52.2448L52.4822 28.7698L51.3637 28.2802ZM41.6479 51.3895H31.3729V52.6105H41.6479V51.3895ZM31.9279 52.2544L44.7529 24.2794L43.643 23.7706L30.818 51.7456L31.9279 52.2544ZM44.7474 23.7589L33.1974 -0.0910795L32.0985 0.441073L43.6485 24.2911L44.7474 23.7589ZM32.6479 0.785464H42.248V-0.43547H32.6479V0.785464ZM41.6954 0.434553L51.5954 21.5096L52.7005 20.9904L42.8005 -0.0845594L41.6954 0.434553ZM52.1479 21.8605H56.573V20.6395H52.1479V21.8605ZM57.1834 21.25V0.174997H55.9625V21.25H57.1834ZM56.573 0.785464H65.573V-0.43547H56.573V0.785464ZM64.9625 0.174997V21.25H66.1834V0.174997H64.9625ZM65.573 21.8605H70.073V20.6395H65.573V21.8605ZM70.624 21.5128L80.674 0.437761L79.5719 -0.0877681L69.5219 20.9872L70.624 21.5128ZM80.1229 0.785464H89.573V-0.43547H80.1229V0.785464ZM130.979 0.174997L131.525 0.448006L131.967 -0.43547H130.979V0.174997ZM119.054 24.025L118.508 23.752L118.376 24.0173L118.502 24.2855L119.054 24.025ZM132.254 52V52.6105H133.217L132.806 51.7395L132.254 52ZM121.754 52L121.201 52.2573L121.365 52.6105H121.754V52ZM110.879 28.6L111.433 28.3427L111.269 27.9895H110.879V28.6ZM105.554 28.6V27.9895H104.944V28.6H105.554ZM105.554 52V52.6105H106.165V52H105.554ZM95.8044 52H95.1939V52.6105H95.8044V52ZM95.8044 0.174997V-0.43547H95.1939V0.174997H95.8044ZM105.554 0.174997H106.165V-0.43547H105.554V0.174997ZM105.554 21.175H104.944V21.7855H105.554V21.175ZM111.029 21.175V21.7855H111.408L111.576 21.4464L111.029 21.175ZM121.454 0.174997V-0.43547H121.076L120.908 -0.0964491L121.454 0.174997ZM130.433 -0.0980124L118.508 23.752L119.6 24.298L131.525 0.448006L130.433 -0.0980124ZM118.502 24.2855L131.702 52.2605L132.806 51.7395L119.606 23.7645L118.502 24.2855ZM132.254 51.3895H121.754V52.6105H132.254V51.3895ZM122.308 51.7427L111.433 28.3427L110.326 28.8573L121.201 52.2573L122.308 51.7427ZM110.879 27.9895H105.554V29.2105H110.879V27.9895ZM104.944 28.6V52H106.165V28.6H104.944ZM105.554 51.3895H95.8044V52.6105H105.554V51.3895ZM96.4149 52V0.174997H95.1939V52H96.4149ZM95.8044 0.785464H105.554V-0.43547H95.8044V0.785464ZM104.944 0.174997V21.175H106.165V0.174997H104.944ZM105.554 21.7855H111.029V20.5645H105.554V21.7855ZM111.576 21.4464L122.001 0.446442L120.908 -0.0964491L110.483 20.9036L111.576 21.4464ZM121.454 0.785464H130.979V-0.43547H121.454V0.785464ZM179.382 52H178.771V52.6105H179.382V52ZM179.382 28.75H179.992V28.1395H179.382V28.75ZM163.782 28.75V28.1395H163.171V28.75H163.782ZM163.782 52V52.6105H164.392V52H163.782ZM154.032 52H153.421V52.6105H154.032V52ZM154.032 0.174997V-0.43547H153.421V0.174997H154.032ZM163.782 0.174997H164.392V-0.43547H163.782V0.174997ZM163.782 21.025H163.171V21.6355H163.782V21.025ZM179.382 21.025V21.6355H179.992V21.025H179.382ZM179.382 0.174997V-0.43547H178.771V0.174997H179.382ZM189.132 0.174997H189.742V-0.43547H189.132V0.174997ZM189.132 52V52.6105H189.742V52H189.132ZM179.992 52V28.75H178.771V52H179.992ZM179.382 28.1395H163.782V29.3605H179.382V28.1395ZM163.171 28.75V52H164.392V28.75H163.171ZM163.782 51.3895H154.032V52.6105H163.782V51.3895ZM154.642 52V0.174997H153.421V52H154.642ZM154.032 0.785464H163.782V-0.43547H154.032V0.785464ZM163.171 0.174997V21.025H164.392V0.174997H163.171ZM163.782 21.6355H179.382V20.4145H163.782V21.6355ZM179.992 21.025V0.174997H178.771V21.025H179.992ZM179.382 0.785464H189.132V-0.43547H179.382V0.785464ZM188.521 0.174997V52H189.742V0.174997H188.521ZM189.132 51.3895H179.382V52.6105H189.132V51.3895ZM224.64 52L224.046 52.1402L224.157 52.6105H224.64V52ZM221.79 39.925L222.384 39.7848L222.273 39.3145H221.79V39.925ZM206.79 39.925V39.3145H206.307L206.196 39.7848L206.79 39.925ZM203.94 52V52.6105H204.423L204.534 52.1402L203.94 52ZM194.115 52L193.527 51.8366L193.312 52.6105H194.115V52ZM208.515 0.174997V-0.43547H208.051L207.927 0.011565L208.515 0.174997ZM220.365 0.174997L220.954 0.0123556L220.83 -0.43547H220.365V0.174997ZM234.69 52V52.6105H235.492L235.279 51.8374L234.69 52ZM208.44 32.575L207.846 32.4358L207.67 33.1855H208.44V32.575ZM220.14 32.575V33.1855H220.91L220.735 32.4358L220.14 32.575ZM214.29 7.6L214.885 7.46078H213.696L214.29 7.6ZM225.234 51.8598L222.384 39.7848L221.196 40.0652L224.046 52.1402L225.234 51.8598ZM221.79 39.3145H206.79V40.5355H221.79V39.3145ZM206.196 39.7848L203.346 51.8598L204.534 52.1402L207.384 40.0652L206.196 39.7848ZM203.94 51.3895H194.115V52.6105H203.94V51.3895ZM194.704 52.1634L209.104 0.338428L207.927 0.011565L193.527 51.8366L194.704 52.1634ZM208.515 0.785464H220.365V-0.43547H208.515V0.785464ZM219.777 0.337638L234.102 52.1626L235.279 51.8374L220.954 0.0123556L219.777 0.337638ZM234.69 51.3895H224.64V52.6105H234.69V51.3895ZM208.44 33.1855H220.14V31.9645H208.44V33.1855ZM220.735 32.4358L214.885 7.46078L213.696 7.73922L219.546 32.7142L220.735 32.4358ZM213.696 7.46078L207.846 32.4358L209.035 32.7142L214.885 7.73922L213.696 7.46078ZM58.2253 60.175L58.7747 60.4411L59.1992 59.5645H58.2253V60.175ZM46.6753 84.025L46.1259 83.7589L46.0008 84.0171L46.1198 84.2782L46.6753 84.025ZM59.4253 112V112.61H60.3744L59.9808 111.747L59.4253 112ZM49.0003 112L48.4397 112.242L48.5988 112.61H49.0003V112ZM38.8753 88.525L39.4358 88.2832L39.2768 87.9145H38.8753V88.525ZM34.2253 88.525V87.9145H33.6148V88.525H34.2253ZM34.2253 112V112.61H34.8358V112H34.2253ZM25.2253 112H24.6148V112.61H25.2253V112ZM25.2253 88.525H25.8358V87.9145H25.2253V88.525ZM20.5753 88.525V87.9145H20.1761L20.0161 88.2802L20.5753 88.525ZM10.3003 112V112.61H10.6995L10.8595 112.245L10.3003 112ZM0.0252934 112L-0.529638 111.746L-0.926134 112.61H0.0252934V112ZM12.8503 84.025L13.4052 84.2794L13.5251 84.0179L13.3997 83.7589L12.8503 84.025ZM1.30029 60.175V59.5645H0.326374L0.750862 60.4411L1.30029 60.175ZM10.9003 60.175L11.4528 59.9154L11.288 59.5645H10.9003V60.175ZM20.8003 81.25L20.2478 81.5096L20.4126 81.8605H20.8003V81.25ZM25.2253 81.25V81.8605H25.8358V81.25H25.2253ZM25.2253 60.175V59.5645H24.6148V60.175H25.2253ZM34.2253 60.175H34.8358V59.5645H34.2253V60.175ZM34.2253 81.25H33.6148V81.8605H34.2253V81.25ZM38.7253 81.25V81.8605H39.1105L39.2763 81.5128L38.7253 81.25ZM48.7753 60.175V59.5645H48.3901L48.2243 59.9122L48.7753 60.175ZM57.6759 59.9089L46.1259 83.7589L47.2247 84.2911L58.7747 60.4411L57.6759 59.9089ZM46.1198 84.2782L58.8698 112.253L59.9808 111.747L47.2308 83.7718L46.1198 84.2782ZM59.4253 111.39H49.0003V112.61H59.4253V111.39ZM49.5608 111.758L39.4358 88.2832L38.3147 88.7668L48.4397 112.242L49.5608 111.758ZM38.8753 87.9145H34.2253V89.1355H38.8753V87.9145ZM33.6148 88.525V112H34.8358V88.525H33.6148ZM34.2253 111.39H25.2253V112.61H34.2253V111.39ZM25.8358 112V88.525H24.6148V112H25.8358ZM25.2253 87.9145H20.5753V89.1355H25.2253V87.9145ZM20.0161 88.2802L9.74105 111.755L10.8595 112.245L21.1345 88.7698L20.0161 88.2802ZM10.3003 111.39H0.0252934V112.61H10.3003V111.39ZM0.580223 112.254L13.4052 84.2794L12.2954 83.7706L-0.529638 111.746L0.580223 112.254ZM13.3997 83.7589L1.84972 59.9089L0.750862 60.4411L12.3009 84.2911L13.3997 83.7589ZM1.30029 60.7855H10.9003V59.5645H1.30029V60.7855ZM10.3478 60.4346L20.2478 81.5096L21.3528 80.9904L11.4528 59.9154L10.3478 60.4346ZM20.8003 81.8605H25.2253V80.6395H20.8003V81.8605ZM25.8358 81.25V60.175H24.6148V81.25H25.8358ZM25.2253 60.7855H34.2253V59.5645H25.2253V60.7855ZM33.6148 60.175V81.25H34.8358V60.175H33.6148ZM34.2253 81.8605H38.7253V80.6395H34.2253V81.8605ZM39.2763 81.5128L49.3263 60.4378L48.2243 59.9122L38.1743 80.9872L39.2763 81.5128ZM48.7753 60.7855H58.2253V59.5645H48.7753V60.7855ZM85.5317 97.225L86.1085 97.425L86.1086 97.4247L85.5317 97.225ZM81.1817 106.075L81.6674 106.445L81.6715 106.439L81.1817 106.075ZM75.4067 110.875L75.6649 111.428L75.6749 111.423L75.4067 110.875ZM66.8567 113.125L66.2584 113.246L66.3712 113.804L66.9357 113.73L66.8567 113.125ZM65.5067 106.45L65.3907 105.851L64.7864 105.968L64.9084 106.571L65.5067 106.45ZM72.4817 103.825L72.1254 103.329L72.118 103.335L72.4817 103.825ZM76.4567 98.05L77.0257 98.2713L77.3492 97.4395H76.4567V98.05ZM73.2317 98.05L72.6619 98.2689L72.8123 98.6605H73.2317V98.05ZM58.6817 60.175V59.5645H57.7933L58.1119 60.3939L58.6817 60.175ZM68.5067 60.175L69.086 59.9824L68.9471 59.5645H68.5067V60.175ZM79.2317 92.425L78.6525 92.6176L79.2686 94.4703L79.8176 92.5967L79.2317 92.425ZM88.6817 60.175V59.5645H88.2245L88.0959 60.0033L88.6817 60.175ZM98.3567 60.175L98.9336 60.3747L99.2141 59.5645H98.3567V60.175ZM84.9549 97.025C83.6665 100.742 82.2415 103.628 80.692 105.711L81.6715 106.439C83.322 104.222 84.7969 101.208 86.1085 97.425L84.9549 97.025ZM80.6962 105.705C79.1506 107.734 77.2986 109.271 75.1386 110.327L75.6749 111.423C78.0149 110.279 80.0129 108.616 81.6673 106.445L80.6962 105.705ZM75.1486 110.322C72.973 111.337 70.1886 112.075 66.7778 112.52L66.9357 113.73C70.4249 113.275 73.3405 112.513 75.6649 111.428L75.1486 110.322ZM67.4551 113.004L66.1051 106.329L64.9084 106.571L66.2584 113.246L67.4551 113.004ZM65.6227 107.049C68.7621 106.442 71.1898 105.544 72.8455 104.315L72.118 103.335C70.6737 104.406 68.4513 105.258 65.3907 105.851L65.6227 107.049ZM72.838 104.321C74.5692 103.076 75.9519 101.033 77.0257 98.2713L75.8878 97.8287C74.8616 100.467 73.5943 102.274 72.1255 103.329L72.838 104.321ZM76.4567 97.4395H73.2317V98.6605H76.4567V97.4395ZM73.8016 97.8311L59.2516 59.9561L58.1119 60.3939L72.6619 98.2689L73.8016 97.8311ZM58.6817 60.7855H68.5067V59.5645H58.6817V60.7855ZM67.9275 60.3676L78.6525 92.6176L79.811 92.2324L69.086 59.9824L67.9275 60.3676ZM79.8176 92.5967L89.2676 60.3467L88.0959 60.0033L78.6459 92.2533L79.8176 92.5967ZM88.6817 60.7855H98.3567V59.5645H88.6817V60.7855ZM97.7799 59.9753L84.9549 97.0253L86.1086 97.4247L98.9336 60.3747L97.7799 59.9753ZM130.743 64.375L130.355 64.8463L130.362 64.8524L130.743 64.375ZM130.743 89.575L131.135 90.0428L131.135 90.0423L130.743 89.575ZM112.293 93.85V93.2395H111.682V93.85H112.293ZM112.293 112V112.61H112.903V112H112.293ZM102.543 112H101.932V112.61H102.543V112ZM102.543 60.175V59.5645H101.932V60.175H102.543ZM123.468 84.4L123.878 84.8524L123.885 84.8454L123.468 84.4ZM123.468 69.55L123.885 69.1046L123.468 69.55ZM112.293 67.3V66.6895H111.682V67.3H112.293ZM112.293 86.575H111.682V87.1855H112.293V86.575ZM115.968 60.7855C122.34 60.7855 127.105 62.1698 130.355 64.8462L131.131 63.9038C127.581 60.9802 122.495 59.5645 115.968 59.5645V60.7855ZM130.362 64.8524C133.633 67.4595 135.307 71.3627 135.307 76.675H136.528C136.528 71.0873 134.752 66.7905 131.123 63.8976L130.362 64.8524ZM135.307 76.675C135.307 82.2464 133.627 86.3533 130.35 89.1077L131.135 90.0423C134.759 86.9967 136.528 82.5036 136.528 76.675H135.307ZM130.351 89.1072C127.094 91.837 122.55 93.2395 116.643 93.2395V94.4605C122.735 94.4605 127.592 93.013 131.135 90.0428L130.351 89.1072ZM116.643 93.2395H112.293V94.4605H116.643V93.2395ZM111.682 93.85V112H112.903V93.85H111.682ZM112.293 111.39H102.543V112.61H112.293V111.39ZM103.153 112V60.175H101.932V112H103.153ZM102.543 60.7855H115.968V59.5645H102.543V60.7855ZM116.043 87.1855C119.464 87.1855 122.117 86.4475 123.878 84.8523L123.058 83.9476C121.618 85.2525 119.321 85.9645 116.043 85.9645V87.1855ZM123.885 84.8454C125.669 83.1729 126.478 80.3866 126.478 76.675H125.257C125.257 80.2634 124.466 82.6271 123.05 83.9546L123.885 84.8454ZM126.478 76.675C126.478 73.3378 125.657 70.766 123.885 69.1046L123.05 69.9954C124.478 71.334 125.257 73.5122 125.257 76.675H126.478ZM123.885 69.1046C122.125 67.4545 119.468 66.6895 116.043 66.6895V67.9105C119.317 67.9105 121.61 68.6455 123.05 69.9954L123.885 69.1046ZM116.043 66.6895H112.293V67.9105H116.043V66.6895ZM111.682 67.3V86.575H112.903V67.3H111.682ZM112.293 87.1855H116.043V85.9645H112.293V87.1855ZM176.206 65.95L175.728 66.3295L175.73 66.332L176.206 65.95ZM176.206 106.15L175.726 105.773L176.206 106.15ZM145.831 106.225L146.309 105.846L145.831 106.225ZM145.831 66.1L146.311 66.4769L146.313 66.4744L145.831 66.1ZM153.181 71.05L153.711 71.3538L153.181 71.05ZM153.181 101.125L152.652 101.429L152.655 101.435L153.181 101.125ZM168.856 101.2L168.327 100.896L168.325 100.899L168.856 101.2ZM168.856 71.05L168.323 71.3472L168.327 71.3538L168.856 71.05ZM160.981 59.6605C167.318 59.6605 172.207 61.8923 175.728 66.3295L176.684 65.5705C172.905 60.8077 167.645 58.4395 160.981 58.4395V59.6605ZM175.73 66.332C179.258 70.7301 181.071 77.2704 181.071 86.05H182.292C182.292 77.1296 180.454 70.2699 176.682 65.568L175.73 66.332ZM181.071 86.05C181.071 94.7264 179.259 101.271 175.726 105.773L176.686 106.527C180.453 101.729 182.292 94.8736 182.292 86.05H181.071ZM175.726 105.773C172.204 110.26 167.315 112.515 160.981 112.515V113.735C167.647 113.735 172.908 111.34 176.686 106.527L175.726 105.773ZM160.981 112.515C154.697 112.515 149.831 110.284 146.309 105.846L145.353 106.604C149.131 111.366 154.366 113.735 160.981 113.735V112.515ZM146.309 105.846C142.778 101.396 140.967 94.853 140.967 86.125H139.746C139.746 94.997 141.584 101.854 145.353 106.604L146.309 105.846ZM140.967 86.125C140.967 77.4996 142.777 70.9791 146.311 66.4769L145.351 65.7231C141.585 70.5209 139.746 77.3504 139.746 86.125H140.967ZM146.313 66.4744C149.837 61.9372 154.701 59.6605 160.981 59.6605V58.4395C154.361 58.4395 149.125 60.8628 145.349 65.7256L146.313 66.4744ZM160.981 65.8645C157.307 65.8645 154.508 67.511 152.652 70.7462L153.711 71.3538C155.354 68.489 157.755 67.0855 160.981 67.0855V65.8645ZM152.652 70.7462C150.818 73.9423 149.946 79.1047 149.946 86.125H151.167C151.167 79.1453 152.044 74.2577 153.711 71.3538L152.652 70.7462ZM149.946 86.125C149.946 93.0962 150.818 98.2331 152.652 101.429L153.711 100.821C152.044 97.9169 151.167 93.0538 151.167 86.125H149.946ZM152.655 101.435C154.56 104.662 157.354 106.31 160.981 106.31V105.09C157.808 105.09 155.403 103.688 153.707 100.815L152.655 101.435ZM160.981 106.31C164.743 106.31 167.575 104.699 169.387 101.501L168.325 100.899C166.737 103.701 164.319 105.09 160.981 105.09V106.31ZM169.386 101.504C171.22 98.3073 172.092 93.1193 172.092 86.05H170.871C170.871 93.0807 169.993 97.9927 168.327 100.896L169.386 101.504ZM172.092 86.05C172.092 79.0788 171.219 73.9419 169.386 70.7462L168.327 71.3538C169.993 74.2581 170.871 79.1212 170.871 86.05H172.092ZM169.389 70.7528C168.494 69.1466 167.34 67.9164 165.919 67.0909C164.499 66.2657 162.845 65.8645 160.981 65.8645V67.0855C162.667 67.0855 164.101 67.4468 165.306 68.1466C166.51 68.8461 167.518 69.9034 168.323 71.3472L169.389 70.7528ZM212.726 84.55L212.573 83.9591L212.603 85.1479L212.726 84.55ZM220.901 88.45L220.486 88.8977L220.901 88.45ZM218.576 108.475L218.913 108.984L218.915 108.983L218.576 108.475ZM189.701 112H189.09V112.61H189.701V112ZM189.701 60.175V59.5645H189.09V60.175H189.701ZM216.776 63.475L216.444 63.9876L216.453 63.9931L216.776 63.475ZM219.326 80.725L218.877 80.3114L218.876 80.3119L219.326 80.725ZM199.451 67.3V66.6895H198.84V67.3H199.451ZM199.451 81.55H198.84V82.1605H199.451V81.55ZM210.026 79.675L209.619 79.2196L210.026 79.675ZM209.876 68.95L209.507 69.4364L209.516 69.4434L209.526 69.4501L209.876 68.95ZM199.451 88.3V87.6895H198.84V88.3H199.451ZM199.451 104.725H198.84V105.335H199.451V104.725ZM212.603 85.1479C215.92 85.8309 218.535 87.0899 220.486 88.8977L221.316 88.0023C219.166 86.0101 216.332 84.6691 212.849 83.9521L212.603 85.1479ZM220.486 88.8977C222.37 90.6438 223.365 93.3287 223.365 97.075H224.586C224.586 93.1213 223.532 90.0562 221.316 88.0023L220.486 88.8977ZM223.365 97.075C223.365 102.118 221.632 105.704 218.237 107.967L218.915 108.983C222.72 106.446 224.586 102.432 224.586 97.075H223.365ZM218.239 107.966C214.825 110.226 210.059 111.39 203.876 111.39V112.61C210.193 112.61 215.226 111.424 218.913 108.984L218.239 107.966ZM203.876 111.39H189.701V112.61H203.876V111.39ZM190.311 112V60.175H189.09V112H190.311ZM189.701 60.7855H202.076V59.5645H189.701V60.7855ZM202.076 60.7855C208.421 60.7855 213.185 61.8786 216.444 63.9875L217.108 62.9625C213.567 60.6714 208.531 59.5645 202.076 59.5645V60.7855ZM216.453 63.9931C219.705 66.0195 221.34 69.1119 221.34 73.375H222.561C222.561 68.7381 220.747 65.2304 217.099 62.9569L216.453 63.9931ZM221.34 73.375C221.34 76.2482 220.506 78.5422 218.877 80.3114L219.775 81.1386C221.645 79.1078 222.561 76.5018 222.561 73.375H221.34ZM218.876 80.3119C217.265 82.066 215.172 83.2852 212.573 83.9591L212.879 85.1409C215.68 84.4148 217.987 83.084 219.775 81.1381L218.876 80.3119ZM198.84 67.3V81.55H200.061V67.3H198.84ZM199.451 82.1605H203.876V80.9395H199.451V82.1605ZM203.876 82.1605C206.661 82.1605 208.88 81.5164 210.432 80.1304L209.619 79.2196C208.372 80.3336 206.491 80.9395 203.876 80.9395V82.1605ZM210.432 80.1304C211.996 78.734 212.736 76.7221 212.736 74.2H211.515C211.515 76.4779 210.855 78.1159 209.619 79.2196L210.432 80.1304ZM212.736 74.2C212.736 71.6247 211.942 69.6508 210.226 68.4499L209.526 69.4501C210.81 70.3492 211.515 71.8753 211.515 74.2H212.736ZM210.245 68.4636C208.636 67.2428 206.172 66.6895 202.976 66.6895V67.9105C206.08 67.9105 208.216 68.4572 209.507 69.4364L210.245 68.4636ZM202.976 66.6895H199.451V67.9105H202.976V66.6895ZM203.951 105.335C207.261 105.335 209.882 104.727 211.728 103.424L211.024 102.426C209.47 103.523 207.141 104.115 203.951 104.115V105.335ZM211.728 103.424C213.651 102.066 214.536 99.7596 214.536 96.7H213.315C213.315 99.5404 212.501 101.384 211.024 102.426L211.728 103.424ZM214.536 96.7C214.536 93.7875 213.721 91.4964 211.99 89.9453C210.271 88.4057 207.754 87.6895 204.551 87.6895V88.9105C207.597 88.9105 209.768 89.5943 211.175 90.8547C212.569 92.1036 213.315 94.0125 213.315 96.7H214.536ZM204.551 87.6895H199.451V88.9105H204.551V87.6895ZM198.84 88.3V104.725H200.061V88.3H198.84ZM199.451 105.335H203.951V104.115H199.451V105.335ZM255.988 112L255.394 112.14L255.505 112.61H255.988V112ZM253.138 99.925L253.732 99.7848L253.621 99.3145H253.138V99.925ZM238.138 99.925V99.3145H237.655L237.544 99.7848L238.138 99.925ZM235.288 112V112.61H235.771L235.882 112.14L235.288 112ZM225.463 112L224.875 111.837L224.66 112.61H225.463V112ZM239.863 60.175V59.5645H239.399L239.275 60.0116L239.863 60.175ZM251.713 60.175L252.301 60.0124L252.178 59.5645H251.713V60.175ZM266.038 112V112.61H266.84L266.626 111.837L266.038 112ZM239.788 92.575L239.194 92.4358L239.018 93.1855H239.788V92.575ZM251.488 92.575V93.1855H252.258L252.082 92.4358L251.488 92.575ZM245.638 67.6L246.232 67.4608H245.044L245.638 67.6ZM256.582 111.86L253.732 99.7848L252.544 100.065L255.394 112.14L256.582 111.86ZM253.138 99.3145H238.138V100.535H253.138V99.3145ZM237.544 99.7848L234.694 111.86L235.882 112.14L238.732 100.065L237.544 99.7848ZM235.288 111.39H225.463V112.61H235.288V111.39ZM226.051 112.163L240.451 60.3384L239.275 60.0116L224.875 111.837L226.051 112.163ZM239.863 60.7855H251.713V59.5645H239.863V60.7855ZM251.125 60.3376L265.45 112.163L266.626 111.837L252.301 60.0124L251.125 60.3376ZM266.038 111.39H255.988V112.61H266.038V111.39ZM239.788 93.1855H251.488V91.9645H239.788V93.1855ZM252.082 92.4358L246.232 67.4608L245.044 67.7392L250.894 92.7142L252.082 92.4358ZM245.044 67.4608L239.194 92.4358L240.382 92.7142L246.232 67.7392L245.044 67.4608Z" fill="#989898"/>
</svg>
