<?xml version="1.0" encoding="utf-8"?><svg viewBox="0 0 502.66 502.66" xmlns="http://www.w3.org/2000/svg" xmlns:xlink="http://www.w3.org/1999/xlink"><style>:root>svg{display:none}:root>svg:target{display:block}</style><svg viewBox="0 0 22 22" id="arrow_down" xmlns="http://www.w3.org/2000/svg"><path d="M10.14.122h2.474v16.97l7.601-7.6 1.768 1.767-10.606 10.607L.77 11.259 2.538 9.49l7.601 7.602V.122z"/></svg><svg viewBox="0 0 56 22" id="arrow_long_right" xmlns="http://www.w3.org/2000/svg"><path d="M0 12.613v-2.476h51.094l-7.601-7.6L45.26.768l10.607 10.606L45.26 21.982l-1.767-1.768 7.601-7.601H0z"/></svg><svg viewBox="0 0 16 12" id="arrow_right" xmlns="http://www.w3.org/2000/svg"><path d="M10 12l-1.4-1.45L12.15 7H0V5h12.15L8.6 1.45 10 0l6 6-6 6z"/></svg><svg viewBox="0 0 17 17" id="arrow_up_right" xmlns="http://www.w3.org/2000/svg"><path d="M2 16.5L.25 14.75l12-12H1.5V.25h15v15H14V4.5l-12 12z"/></svg><svg viewBox="0 0 45 45" id="close" xmlns="http://www.w3.org/2000/svg"><path d="M11 34l22.627-22.627M11 11l22.627 22.627"/></svg><svg viewBox="0 0 502.664 502.664" id="icon" xmlns="http://www.w3.org/2000/svg"><path d="M153.821 358.226L0 274.337v-46.463l153.821-83.414v54.574L46.636 250.523l107.185 53.431v54.272zm26.273 29.358L282.103 115.08h32.227L212.084 387.584h-31.99zm168.749-29.358v-54.272l107.164-52.999-107.164-52.59v-53.927l153.821 83.522v46.183l-153.821 84.083z"/></svg><svg viewBox="0 0 16 27" id="slider_arrow" xmlns="http://www.w3.org/2000/svg"><path d="M2.412 27L0 24.604 11.176 13.5 0 2.396 2.412 0 16 13.5 2.412 27z"/></svg></svg>